<svg enable-background="new 0 0 256 256" viewBox="0 0 256 256" xmlns="http://www.w3.org/2000/svg"><path d="m0 0h256v256h-256z" fill="#3178c6"/><path clip-rule="evenodd" d="m150.5 200.5v27.6c4.5 2.3 9.8 4 15.9 5.2s12.6 1.7 19.4 1.7c6.6 0 12.9-.6 18.9-1.9s11.2-3.4 15.7-6.3 8-6.7 10.7-11.4c2.6-4.7 3.9-10.5 3.9-17.4 0-5-.7-9.4-2.2-13.2s-3.7-7.1-6.5-10.1c-2.8-2.9-6.2-5.6-10.1-7.9s-8.4-4.5-13.3-6.6c-3.6-1.5-6.9-2.9-9.8-4.4-2.9-1.4-5.3-2.8-7.3-4.3s-3.6-3-4.7-4.7-1.6-3.5-1.6-5.6c0-1.9.5-3.6 1.5-5.1s2.4-2.8 4.1-3.9c1.8-1.1 4-1.9 6.6-2.5s5.5-.9 8.6-.9c2.3 0 4.7.2 7.3.5s5.1.9 7.7 1.6 5.1 1.6 7.6 2.7c2.4 1.1 4.7 2.4 6.8 3.8v-25.8c-4.2-1.6-8.8-2.8-13.8-3.6s-10.7-1.2-17.1-1.2c-6.6 0-12.8.7-18.7 2.1s-11 3.6-15.5 6.6-8 6.8-10.6 11.4-3.9 10.2-3.9 16.6c0 8.2 2.4 15.2 7.1 21.1 4.8 5.8 12 10.7 21.6 14.8 3.8 1.6 7.3 3.1 10.6 4.6s6.1 3 8.5 4.7 4.3 3.4 5.7 5.3 2.1 4.1 2.1 6.5c0 1.8-.4 3.4-1.3 5-.9 1.5-2.2 2.8-3.9 4s-3.9 2-6.6 2.6-5.7.9-9.2.9c-6 0-11.9-1.1-17.8-3.2-5.9-2-11.4-5.1-16.4-9.3zm-46-68.8h35.5v-22.7h-99v22.7h35.3v101.3h28.1v-101.3z" fill="#fff" fill-rule="evenodd"/></svg>