<svg version="1.1" id="Layer_1" xmlns="http://www.w3.org/2000/svg" xmlns:xlink="http://www.w3.org/1999/xlink" x="0px" y="0px" viewBox="0 0 248.4 44" style="enable-background:new 0 0 248.4 44;" xml:space="preserve">
 <style type="text/css">
  .st0{fill:#071D49;}
 </style>
 <g>
  <path class="st0" d="M247.4,42c0-2.6-1.6-3.6-4-3.6c-1.4,0-18.4,0-18.4,0c-9,0-11.2-5.4-11.6-8.8c0,0,19,0,25,0
		c7.6,0,10-5.6,10-9.2c0-3.8-2.4-9.2-10-9.2c-6.8,0-13.8,0-13.8,0c-13,0-17.2,8.8-17.2,16c0,7.8,4.8,16,17.2,16h22.8
		C247.4,43.4,247.4,42.2,247.4,42z M225,16c2,0,9.2,0,12,0c4.4,0,5.4,2.6,5.4,4.4c0,1.6-1,4.4-5.4,4.4c-3,0-24,0-24,0
		C213.4,22,216,16,225,16z M171.6,41.4c-1.4,1.8-2,2.6-3.4,2.6c-1.8,0-2.2-0.8-3.4-2.6c-2.8-4-19.6-30-19.6-30s1.2,0,2.4,0
		c4,0,5.2,1.8,6.4,3.8c1,1.6,14.6,22.4,14.6,22.4s12.8-19.8,14.6-22.6c1.2-1.8,2.8-3.6,6.6-3.6c0.8,0,1.8,0,1.8,0
		S174,38.2,171.6,41.4z M45.4,43.4c-3,0-4.2-1.2-4.6-3.6L40,36.4c-0.8,1.4-4.8,7-13.6,7c0,0-4.4,0-9,0C3.8,43.4,0,34.2,0,27.4
		c0-7.6,4.6-16,17.4-16c2.6,0,5.4,0,9.6,0c9.8,0,15.2,5.6,16.4,12.6c1,5.8,3.6,19.4,3.6,19.4S46.4,43.4,45.4,43.4z M25.6,16.4
		c-3.2,0-4,0-7.6,0c-9.2,0-12.2,5.8-12.2,11s3,11,12.2,11c3.8,0,5,0,7.6,0c9.6,0,12.2-6,12.2-11C37.8,23,35.4,16.4,25.6,16.4z
		 M197.8,6.2c1.4,0,2.8-0.8,2.8-2.6c0-0.4,0-0.8,0-1c0-1.6-1.4-2.6-2.8-2.6c-1.4,0-2.8,0.8-2.8,2.6c0,0.2,0,0.6,0,1
		C195,5.4,196.4,6.2,197.8,6.2z M195.2,11.4c0,0,0.8,0,1.2,0c2.6,0,4.2,1.4,4.2,4.2c0,0.4,0,27.8,0,27.8s-0.6,0-1.2,0
		c-2.6,0-4.2-1.6-4.2-4.4C195.2,38.8,195.2,11.4,195.2,11.4z M56,16c1.2-1.2,4.8-4.6,11.8-4.6c0,0,4.4,0,9,0
		c13.6,0,17.6,9.2,17.6,16c0,7.6-4.8,16-17.6,16c-2.6,0-5.4,0-9.6,0c-9.8,0-16.8-6.2-16.8-16c0-3.2,0-26.8,0-26.8s1,0,1.6,0
		c2.8,0,4,1.4,4,3.8C56,4.8,56,16,56,16z M68.6,38.4c3.2,0,4,0,7.6,0c9,0,12.2-5.8,12.2-11s-3-11-12.2-11c-3.8,0-5,0-7.6,0
		c-9.6,0-12.2,6-12.2,11C56.2,31.8,58.8,38.4,68.6,38.4z M106.2,16c1.2-1.2,4.8-4.6,11.8-4.6c0,0,4.4,0,9,0c13.6,0,17.4,9.2,17.4,16
		c0,7.6-4.6,16-17.4,16c-2.6,0-5.4,0-9.6,0c-9.8,0-16.8-6.2-16.8-16c0-3.2,0-26.8,0-26.8s1,0,1.6,0c2.8,0,4,1.4,4,3.8
		C106.2,4.8,106.2,16,106.2,16z M118.8,38.4c3.2,0,4,0,7.6,0c9.2,0,12.2-5.8,12.2-11s-3-11-12.2-11c-3.8,0-4.8,0-7.6,0
		c-9.6,0-12.2,6-12.2,11C106.4,31.8,109,38.4,118.8,38.4z">
  </path>
 </g>
</svg>