<svg width="188" height="35" viewBox="0 0 188 35" fill="none" xmlns="http://www.w3.org/2000/svg">
<path d="M187.478 33.3465C187.478 31.1417 186.433 30.5905 184.344 30.5905C183.3 30.5905 170.244 30.5905 170.244 30.5905C163.456 30.5905 161.628 26.4567 161.367 23.7008C161.367 23.7008 175.728 23.7008 180.428 23.7008C186.172 23.7008 188 19.2913 188 16.5354C188 13.5039 186.172 9.37008 180.428 9.37008C175.206 9.37008 169.983 9.37008 169.983 9.37008C160.061 9.37008 156.928 16.5354 156.928 22.0472C156.928 28.3858 160.583 34.7244 169.983 34.7244H187.217C187.478 34.4488 187.478 33.622 187.478 33.3465ZM170.506 12.6772C172.072 12.6772 177.556 12.6772 179.644 12.6772C183.039 12.6772 183.561 14.8819 183.561 16.2598C183.561 17.6378 182.778 19.8425 179.644 19.8425C177.294 19.8425 161.628 19.8425 161.628 19.8425C161.628 17.3622 163.717 12.6772 170.506 12.6772ZM130.033 33.0709C128.989 34.4488 128.467 35 127.422 35C126.117 35 125.594 34.1732 124.811 33.0709C122.722 30.0394 109.928 9.09449 109.928 9.09449C109.928 9.09449 110.972 9.09449 111.756 9.09449C114.628 9.09449 115.672 10.4724 116.717 12.126C117.5 13.5039 127.683 30.0394 127.683 30.0394C127.683 30.0394 137.344 14.3307 138.65 12.126C139.433 10.748 140.739 9.09449 143.611 9.09449C144.394 9.09449 144.917 9.09449 144.917 9.09449C144.917 9.09449 131.861 30.315 130.033 33.0709ZM34.4667 34.4488C32.1167 34.4488 31.3333 33.622 30.8111 31.6929L30.2889 28.937C29.7667 30.0394 26.6333 34.7244 19.8444 34.7244C19.8444 34.7244 16.45 34.7244 13.0556 34.7244C2.87222 34.7244 0 27.2835 0 22.0472C0 15.9843 3.39444 9.37008 13.0556 9.37008C15.1444 9.37008 17.2333 9.37008 20.3667 9.37008C27.6778 9.37008 31.8556 13.7795 32.9 19.2913C33.6833 23.9764 35.7722 34.7244 35.7722 34.7244C35.7722 34.7244 35.25 34.4488 34.4667 34.4488ZM19.3222 12.9528C16.9722 12.9528 16.1889 12.9528 13.5778 12.9528C6.78889 12.9528 4.43889 17.6378 4.43889 21.7717C4.43889 25.9055 6.78889 30.5905 13.5778 30.5905C16.45 30.5905 17.2333 30.5905 19.3222 30.5905C26.6333 30.5905 28.7222 25.9055 28.7222 21.7717C28.7222 18.189 26.8944 12.9528 19.3222 12.9528ZM149.878 4.96063C150.922 4.96063 151.967 4.13386 151.967 3.0315C151.967 2.75591 151.967 2.48031 151.967 2.20472C151.967 0.826772 150.922 0.275591 149.878 0.275591C148.833 0.275591 147.789 0.826772 147.789 2.20472C147.789 2.48031 147.789 2.75591 147.789 3.0315C147.789 4.13386 148.833 4.96063 149.878 4.96063ZM147.789 9.09449C147.789 9.09449 148.311 9.09449 148.572 9.09449C150.4 9.09449 151.706 10.1968 151.706 12.4016C151.706 12.6772 151.706 34.7244 151.706 34.7244C151.706 34.7244 151.183 34.7244 150.922 34.7244C148.833 34.7244 147.789 33.3465 147.789 31.1417C147.789 30.8661 147.789 9.09449 147.789 9.09449ZM42.5611 12.6772C43.3444 11.5748 46.2167 8.8189 51.4389 8.8189C51.4389 8.8189 54.8333 8.8189 58.2278 8.8189C68.4111 8.8189 71.5444 16.2598 71.5444 21.4961C71.5444 27.5591 67.8889 34.1732 58.2278 34.1732C56.1389 34.1732 54.05 34.1732 50.9167 34.1732C43.6056 34.1732 38.1222 29.2126 38.1222 21.4961C38.1222 19.0157 38.1222 0 38.1222 0C38.1222 0 38.9056 0 39.1667 0C41.2556 0 42.0389 1.10236 42.0389 3.0315C42.5611 3.58268 42.5611 12.6772 42.5611 12.6772ZM51.9611 30.5905C54.3111 30.5905 55.0944 30.5905 57.7056 30.5905C64.4944 30.5905 66.8444 25.9055 66.8444 21.7717C66.8444 17.6378 64.4944 12.9528 57.7056 12.9528C54.8333 12.9528 54.05 12.9528 51.9611 12.9528C44.65 12.9528 42.5611 17.9134 42.5611 21.7717C42.8222 25.3543 44.65 30.5905 51.9611 30.5905ZM80.4222 12.6772C81.2056 11.5748 84.0778 8.8189 89.3 8.8189C89.3 8.8189 92.6944 8.8189 96.0889 8.8189C106.272 8.8189 109.144 16.2598 109.144 21.4961C109.144 27.5591 105.75 34.1732 96.0889 34.1732C94 34.1732 91.9111 34.1732 88.7778 34.1732C81.4667 34.1732 75.9833 29.2126 75.9833 21.4961C75.9833 19.0157 75.9833 0 75.9833 0C75.9833 0 76.7667 0 77.0278 0C79.1167 0 79.9 1.10236 79.9 3.0315C80.4222 3.58268 80.4222 12.6772 80.4222 12.6772ZM90.0833 30.5905C92.4333 30.5905 93.2167 30.5905 95.8278 30.5905C102.617 30.5905 104.967 25.9055 104.967 21.7717C104.967 17.6378 102.617 12.9528 95.8278 12.9528C92.9556 12.9528 92.1722 12.9528 90.0833 12.9528C82.7722 12.9528 80.6833 17.9134 80.6833 21.7717C80.6833 25.3543 82.5111 30.5905 90.0833 30.5905Z" fill="#0B1E46"/>
</svg>
