<svg width="160" height="28" fill="none" xmlns="http://www.w3.org/2000/svg"><path fill-rule="evenodd" clip-rule="evenodd" d="M75.376 24.681h5.497c6.17 0 8.272-3.927 8.272-7.446 0-3.556-2.103-7.441-8.272-7.441h-5.497c-6.45 0-8.326 4.084-8.326 7.441 0 2.99 1.676 7.447 8.326 7.447zM67.05 9.604c1.368-1.29 3.784-2.678 7.615-2.678h6.432c8.746 0 11.217 5.925 11.217 10.31 0 4.936-2.962 10.32-11.217 10.32h-6.432c-6.256 0-10.786-4.055-10.786-10.316V0h.987c1.397 0 2.184.723 2.184 2.042v7.562zM43.73 24.682h5.497c6.168 0 8.274-3.928 8.274-7.447 0-3.556-2.106-7.441-8.274-7.441h-5.498c-6.447 0-8.322 4.084-8.322 7.441 0 2.99 1.676 7.447 8.322 7.447zM35.406 9.604c1.36-1.29 3.78-2.678 7.614-2.678h6.436c8.741 0 11.215 5.925 11.215 10.31 0 4.936-2.97 10.32-11.215 10.32H43.02c-6.261 0-10.783-4.055-10.783-10.316V0h.98c1.4 0 2.19.723 2.19 2.042v7.562zm91.168-2.678h.751c1.469 0 2.417.657 2.417 2.657v17.964h-.792c-1.609 0-2.376-.87-2.376-2.604V6.926zm1.584-2.364c.912 0 1.619-.568 1.619-1.644v-.676c0-1.087-.716-1.643-1.619-1.643-.904 0-1.623.547-1.623 1.643v.676c0 1.084.706 1.644 1.623 1.644zM16.931 9.794h-5.486c-6.178 0-8.275 3.918-8.275 7.441 0 3.558 2.097 7.447 8.275 7.447h5.486c6.45 0 8.334-4.094 8.334-7.447 0-2.992-1.68-7.441-8.334-7.441zm12.356 17.761c-1.289 0-2.091-.64-2.34-2.012l-.432-2.246c-.693 1.292-3.277 4.258-8.868 4.258H11.22C2.469 27.555 0 21.62 0 17.235 0 12.297 2.965 6.926 11.219 6.926h6.428c6.26 0 9.735 3.642 10.583 8.09l2.338 12.54h-1.281zm80.664-1.31c-.876 1.199-1.477 1.623-2.251 1.623-1.062 0-1.472-.58-2.234-1.621-1.845-2.515-14.145-19.32-14.145-19.32h1.901c2.049 0 2.64.724 3.496 1.91.375.522 11.068 15.598 11.068 15.598l11.12-15.678c.788-1.113 1.393-1.83 3.459-1.83h1.674s-12.589 17.268-14.088 19.318zm34.678-16.451h8.522c2.943 0 3.655 1.828 3.655 3.005 0 1.049-.644 3-3.655 3h-16.588c.208-2.04 1.922-6.005 8.066-6.005zm14.836 17.172c0-1.694-.976-2.285-2.604-2.285h-12.257c-5.745 0-7.778-3.56-8.041-6.01h17.014c4.953 0 6.423-3.573 6.423-5.872 0-2.457-1.585-5.873-6.423-5.873h-9.19c-8.365 0-11.11 5.693-11.11 10.31 0 5.076 3.129 10.32 11.087 10.32h15.101v-.59z" fill="#FEFEFE"/></svg>
