<svg width="390" height="66" viewBox="0 0 390 66" fill="none" xmlns="http://www.w3.org/2000/svg">
<path d="M245.764 54.4568C249.129 54.4568 250.009 55.3396 250.009 58.7016C250.009 62.0678 249.129 62.949 245.764 62.949C242.397 62.949 241.519 62.0678 241.519 58.7016C241.519 55.3396 242.397 54.4568 245.764 54.4568Z" fill="url(#paint0_linear_191_2)"/>
<path d="M245.703 57.4569C247.04 57.4569 248.293 57.6668 249.379 58.0236C249.293 55.4922 248.635 55.0548 245.743 55.0548C242.857 55.0548 242.192 55.4908 242.105 57.996C243.169 57.6548 244.4 57.4569 245.703 57.4569Z" fill="url(#paint1_linear_191_2)"/>
<path d="M215.279 31.3412L200.169 9.77079H191.02V47.1027H199.735V24.3708L215.279 46.5193L230.823 24.3708V47.1027H239.54V9.77079H230.46L215.279 31.3412Z" fill="url(#paint2_linear_191_2)"/>
<path d="M177.467 35.276C177.467 37.3516 176.305 38.3864 173.983 38.3864H152.047C149.723 38.3864 148.559 37.3516 148.559 35.276V21.5973C148.559 19.5245 149.723 18.4869 152.047 18.4869H173.983C176.305 18.4869 177.467 19.5245 177.467 21.5973V35.276ZM173.983 9.77079H152.047C148.657 9.77079 145.776 10.8932 143.403 13.1391C141.029 15.3864 139.843 18.2041 139.843 21.5869V35.2849C139.843 38.6719 141.029 41.4844 143.403 43.7303C145.776 45.9828 148.657 47.1027 152.047 47.1027H173.983C177.367 47.1027 180.252 45.9828 182.625 43.7303C184.999 41.4844 186.183 38.6719 186.183 35.2849V21.5869C186.183 18.2041 184.999 15.3864 182.625 13.1391C180.252 10.8932 177.367 9.77079 173.983 9.77079Z" fill="url(#paint3_linear_191_2)"/>
<path d="M244.372 47.1027H253.089V9.77079H244.372V47.1027Z" fill="url(#paint4_linear_191_2)"/>
<path d="M373.349 28.1833L388.599 9.77079H377.272L367.684 21.3907L358.093 9.77079H346.763L362.019 28.1833L346.328 47.1027H357.661L367.684 35.1224L377.705 47.1027H389.037L373.349 28.1833Z" fill="url(#paint5_linear_191_2)"/>
<path d="M289.083 34.7563L266.636 9.77079H257.92V47.1027H266.636V21.9713L289.083 47.1027H297.799V9.77079H289.083V34.7563Z" fill="url(#paint6_linear_191_2)"/>
<path d="M98.572 13.1391C96.1987 15.3864 95.016 18.2041 95.016 21.5869V35.2849C95.016 38.6719 96.1987 41.4844 98.572 43.7303C100.945 45.9828 103.828 47.1027 107.216 47.1027H136.127V38.3864H107.216C104.892 38.3864 103.731 37.3516 103.731 35.276V21.5973C103.731 19.5245 104.892 18.4869 107.216 18.4869H136.127V9.77079H107.216C103.828 9.77079 100.945 10.8932 98.572 13.1391Z" fill="url(#paint7_linear_191_2)"/>
<path d="M98.572 42.5297C96.1987 40.2823 95.016 37.4713 95.016 34.0844V35.2849C95.016 38.6719 96.1987 41.4844 98.572 43.7303C100.945 45.9828 103.828 47.1027 107.216 47.1027H136.127V45.8995H107.216C103.828 45.8995 100.945 44.7787 98.572 42.5297Z" fill="#062949"/>
<path d="M103.731 20.3969V21.5973C103.731 19.5245 104.892 18.4869 107.216 18.4869H136.127V17.2849H107.216C104.892 17.2849 103.731 18.3229 103.731 20.3969Z" fill="#062949"/>
<path d="M99.3986 14.0115C97.2573 16.0391 96.2173 18.5183 96.2173 21.587V26.3943C98.296 26.5063 100.397 26.6172 102.529 26.725V21.5974C102.529 18.8568 104.237 17.285 107.216 17.285H134.925V10.974H107.216C104.117 10.974 101.56 11.9662 99.3986 14.0115Z" fill="url(#paint8_linear_191_2)"/>
<path d="M173.983 17.2849H152.047C149.723 17.2849 148.559 18.3229 148.559 20.3969V21.5973C148.559 19.5245 149.723 18.4869 152.047 18.4869H173.983C176.305 18.4869 177.467 19.5245 177.467 21.5973V20.3969C177.467 18.3229 176.305 17.2849 173.983 17.2849Z" fill="#062949"/>
<path d="M173.983 45.8995H152.047C148.657 45.8995 145.776 44.7787 143.403 42.5297C141.029 40.2823 139.843 37.4713 139.843 34.0844V35.2849C139.843 38.6719 141.029 41.4844 143.403 43.7303C145.776 45.9828 148.657 47.1027 152.047 47.1027H173.983C177.367 47.1027 180.252 45.9828 182.625 43.7303C184.999 41.4844 186.183 38.6719 186.183 35.2849V34.0844C186.183 37.4713 184.999 40.2823 182.625 42.5297C180.252 44.7787 177.367 45.8995 173.983 45.8995Z" fill="#062949"/>
<path d="M173.983 10.9741H152.047C148.948 10.9741 146.391 11.9662 144.228 14.0115C142.087 16.0417 141.045 18.5194 141.045 21.587V28.3137C143.133 28.3813 145.236 28.449 147.356 28.5115V21.5974C147.356 18.8569 149.067 17.285 152.047 17.285H173.983C176.961 17.285 178.669 18.8569 178.669 21.5974V29.285C180.761 29.3255 182.867 29.3657 184.981 29.3995V21.587C184.981 18.5183 183.94 16.0391 181.8 14.0115C179.639 11.9662 177.081 10.9741 173.983 10.9741Z" fill="url(#paint9_linear_191_2)"/>
<path d="M191.02 47.1027H199.735V45.8995H191.02V47.1027Z" fill="#062949"/>
<path d="M230.823 23.1678L215.279 45.3178L199.735 23.1678V24.3709L215.279 46.5194L230.823 24.3709V23.1678Z" fill="#062949"/>
<path d="M230.823 47.1027H239.54V45.8995H230.823V47.1027Z" fill="#062949"/>
<path d="M217.837 29.7978C220.384 29.8161 222.945 29.8281 225.516 29.8396L232.025 20.565V29.8645C234.123 29.8724 236.227 29.876 238.337 29.8776V10.974H231.084L217.837 29.7978Z" fill="url(#paint10_linear_191_2)"/>
<path d="M199.544 10.974H192.221V29.5167C194.315 29.5479 196.419 29.5792 198.533 29.6042V20.5651L204.931 29.6807C207.507 29.7083 210.097 29.7344 212.701 29.7552L199.544 10.974Z" fill="url(#paint11_linear_191_2)"/>
<path d="M244.372 47.1027H253.089V45.8995H244.372V47.1027Z" fill="#062949"/>
<path d="M245.573 29.8776C247.684 29.876 249.789 29.8724 251.885 29.863V10.974H245.573V29.8776Z" fill="url(#paint12_linear_191_2)"/>
<path d="M257.92 47.1027H266.636V45.8995H257.92V47.1027Z" fill="#062949"/>
<path d="M266.636 20.7693V21.9713L289.083 47.1027H297.799V45.8995H289.083L266.636 20.7693Z" fill="#062949"/>
<path d="M290.284 29.5339C292.4 29.5037 294.504 29.4689 296.596 29.4361V10.9741H290.284V29.5339Z" fill="url(#paint13_linear_191_2)"/>
<path d="M290.284 10.974V12.1746H296.596V10.974H290.284Z" fill="#75B6E7"/>
<path d="M266.1 10.9741H259.124V29.8361C261.235 29.8255 263.339 29.8137 265.436 29.7995V18.8203L275.164 29.7162C277.747 29.6913 280.313 29.6641 282.865 29.6303L266.1 10.9741Z" fill="url(#paint14_linear_191_2)"/>
<path d="M311.348 32.7954H340.477V31.5922H311.348V32.7954Z" fill="#B2141A"/>
<path d="M302.632 47.1027H342.437V45.8995H302.632V47.1027Z" fill="#B2141A"/>
<path d="M342.437 38.3865H311.348V32.7954H340.477V24.0793H311.348V18.487H342.511V9.77086H302.632V47.1027H342.437V38.3865ZM288.6 53.8137C287.779 54.2927 287.137 54.9637 286.675 55.8318C286.285 56.5714 286.089 57.3569 286.089 58.1807C286.089 58.9698 286.268 59.7162 286.625 60.4167C287.095 61.3334 287.776 62.0365 288.664 62.5261C289.404 62.9298 290.205 63.1329 291.072 63.1329C291.983 63.1329 292.856 62.897 293.689 62.4203V60.6719C293.219 61.0651 292.785 61.3465 292.391 61.5141C291.993 61.6807 291.56 61.7641 291.084 61.7641C290.191 61.7641 289.405 61.4637 288.728 60.8605C287.948 60.1641 287.556 59.2657 287.556 58.1651C287.556 57.573 287.683 57.0194 287.929 56.5079C288.236 55.8709 288.681 55.3761 289.264 55.0194C289.813 54.6746 290.42 54.5053 291.084 54.5053C291.573 54.5053 292.057 54.6042 292.537 54.8074C292.876 54.9479 293.259 55.2006 293.689 55.5626V53.8397C292.884 53.3698 292.047 53.1355 291.177 53.1355C290.24 53.1355 289.383 53.3605 288.6 53.8137ZM260.133 62.949H265.453V61.5807H261.585V58.3621H265.333V56.9959H261.585V54.6861H265.453V53.3162H260.133V62.949ZM279.588 53.3162H277.923L275.989 56.5861L274.149 53.3162H272.499L275.149 57.9115L272.124 62.949H273.765L275.969 59.2657L278.1 62.949H279.729L276.815 57.9178L279.588 53.3162ZM315.756 53.3162H314.304V62.949H318.592V61.5807H315.756V53.3162ZM301.296 62.949H306.616V61.5807H302.751V58.3621H306.497V56.9959H302.751V54.6861H306.616V53.3162H301.296V62.949ZM327.203 53.3162H325.749V62.949H330.039V61.5807H327.203V53.3162ZM386.817 54.6861V53.3162H381.497V62.949H386.817V61.5807H382.952V58.3621H386.697V56.9959H382.952V54.6861H386.817ZM368.804 53.8137C367.979 54.2927 367.339 54.9637 366.877 55.8318C366.485 56.5714 366.292 57.3569 366.292 58.1807C366.292 58.9698 366.469 59.7162 366.828 60.4167C367.297 61.3334 367.977 62.0365 368.867 62.5261C369.605 62.9298 370.408 63.1329 371.272 63.1329C372.187 63.1329 373.057 62.897 373.889 62.4203V60.6719C373.42 61.0651 372.987 61.3465 372.593 61.5141C372.197 61.6807 371.763 61.7641 371.288 61.7641C370.393 61.7641 369.608 61.4637 368.931 60.8605C368.149 60.1641 367.759 59.2657 367.759 58.1651C367.759 57.573 367.883 57.0194 368.132 56.5079C368.437 55.8709 368.883 55.3761 369.467 55.0194C370.019 54.6746 370.624 54.5053 371.288 54.5053C371.777 54.5053 372.26 54.6042 372.743 54.8074C373.079 54.9479 373.463 55.2006 373.889 55.5626V53.8397C373.087 53.3698 372.251 53.1355 371.379 53.1355C370.443 53.1355 369.584 53.3605 368.804 53.8137ZM357.221 60.0063L350.2 52.6615V62.949H351.656V56.2042L358.675 63.5417V53.3162H357.221V60.0063ZM337.195 62.949H342.516V61.5807H338.648V58.3621H342.396V56.9959H338.648V54.6861H342.516V53.3162H337.195V62.949ZM230.449 60.0063L223.428 52.6615V62.949H224.881V56.2042L231.903 63.5417V53.3162H230.449V60.0063ZM213.935 59.8657C213.635 60.4438 213.192 60.9074 212.609 61.2563C212.04 61.5949 211.419 61.7641 210.753 61.7641C209.821 61.7641 209.001 61.423 208.289 60.7422C207.575 60.0558 207.217 59.1771 207.217 58.1105C207.217 57.2345 207.497 56.4569 208.057 55.7746C208.753 54.9282 209.665 54.5053 210.795 54.5053C211.831 54.5219 212.673 54.8709 213.328 55.5495C214.011 56.2631 214.353 57.125 214.353 58.1365C214.353 58.7631 214.213 59.3386 213.935 59.8657ZM210.809 53.1355C209.421 53.1574 208.249 53.6329 207.288 54.5599C206.263 55.5443 205.751 56.7225 205.751 58.0938C205.751 58.9741 205.929 59.7657 206.293 60.4662C206.745 61.3318 207.429 62.0141 208.345 62.5115C209.108 62.9255 209.907 63.1329 210.739 63.1329C211.679 63.1329 212.545 62.9037 213.335 62.4413C214.101 61.9959 214.705 61.3907 215.148 60.6287C215.596 59.8569 215.819 59.0287 215.819 58.1433C215.819 56.8569 215.377 55.7303 214.492 54.7694C213.495 53.6807 212.268 53.1355 210.809 53.1355ZM113.529 60.0063L106.509 52.6615V62.949H107.963V56.2042L114.983 63.5417V53.3162H113.529V60.0063ZM130.099 60.0063L123.079 52.6615V62.949H124.532V56.2042L131.552 63.5417V53.3162H130.099V60.0063ZM96.96 62.949H98.4133V53.3162H96.96V62.949ZM159.596 59.9933L156.928 53.3162H155.343L159.569 63.6771L163.887 53.3162H162.299L159.596 59.9933ZM147.353 59.8657C147.052 60.4438 146.609 60.9074 146.027 61.2563C145.456 61.5949 144.839 61.7641 144.169 61.7641C143.239 61.7641 142.417 61.423 141.708 60.7422C140.993 60.0558 140.636 59.1771 140.636 58.1105C140.636 57.2345 140.915 56.4569 141.475 55.7746C142.171 54.9282 143.084 54.5053 144.213 54.5053C145.248 54.5219 146.092 54.8709 146.747 55.5495C147.428 56.2631 147.769 57.125 147.769 58.1365C147.769 58.7631 147.631 59.3386 147.353 59.8657ZM144.227 53.1355C142.839 53.1574 141.665 53.6329 140.705 54.5599C139.68 55.5443 139.167 56.7225 139.167 58.0938C139.167 58.9741 139.349 59.7657 139.711 60.4662C140.163 61.3318 140.847 62.0141 141.764 62.5115C142.527 62.9255 143.323 63.1329 144.156 63.1329C145.097 63.1329 145.963 62.9037 146.752 62.4413C147.52 61.9959 148.124 61.3907 148.567 60.6287C149.013 59.8569 149.236 59.0287 149.236 58.1433C149.236 56.8569 148.795 55.7303 147.911 54.7694C146.912 53.6807 145.685 53.1355 144.227 53.1355ZM183.717 54.6861H185.932V62.949H187.387V54.6861H189.595V53.3162H183.717V54.6861ZM196.683 62.949H198.136V53.3162H196.683V62.949ZM172.187 59.2381L173.683 55.9646L175.115 59.2381H172.187ZM168.94 62.949H170.507L171.58 60.6079H175.7L176.716 62.949H178.304L173.711 52.7058L168.94 62.949Z" fill="url(#paint15_linear_191_2)"/>
<path d="M377.705 45.8995L367.684 33.9177L357.661 45.8995H347.324L346.328 47.1027H357.661L367.684 35.1224L377.705 47.1027H389.037L388.043 45.8995H377.705Z" fill="#062949"/>
<path d="M367.684 23.2787L357.528 10.974H349.317L363.056 27.5531C366.307 27.4167 369.511 27.2771 372.66 27.1312L386.043 10.974H377.839L367.684 23.2787Z" fill="url(#paint16_linear_191_2)"/>
<path d="M107.216 10.974C104.117 10.974 101.56 11.9661 99.3986 14.0115C97.2573 16.0391 96.2173 18.5183 96.2173 21.5869V22.7875C96.2173 19.7188 97.2573 17.2421 99.3986 15.2136C101.56 13.1693 104.117 12.1745 107.216 12.1745H134.925V10.974H107.216Z" fill="url(#paint17_linear_191_2)"/>
<path d="M181.8 14.0115C179.639 11.9661 177.081 10.974 173.983 10.974H152.047C148.948 10.974 146.391 11.9661 144.228 14.0115C142.087 16.0416 141.045 18.5193 141.045 21.5869V22.7875C141.045 19.7213 142.087 17.2432 144.228 15.2136C146.391 13.1693 148.948 12.1745 152.047 12.1745H173.983C177.081 12.1745 179.639 13.1693 181.8 15.2136C183.94 17.2421 184.981 19.7188 184.981 22.7875V21.5869C184.981 18.5183 183.94 16.0391 181.8 14.0115Z" fill="url(#paint18_linear_191_2)"/>
<path d="M231.084 10.974L217.837 29.7979C218.116 29.7995 218.4 29.7995 218.68 29.8005L231.084 12.1745H238.337V10.974H231.084Z" fill="url(#paint19_linear_191_2)"/>
<path d="M211.855 29.7474C212.137 29.7511 212.417 29.7536 212.701 29.7552L199.544 10.974H192.221V12.1746H199.544L211.855 29.7474Z" fill="url(#paint20_linear_191_2)"/>
<path d="M245.573 10.974V12.1746H251.885V10.974H245.573Z" fill="#75B6E7"/>
<path d="M281.796 29.6432C282.149 29.6364 282.509 29.6355 282.865 29.6303L266.1 10.974H259.124V12.1745H266.1L281.796 29.6432Z" fill="url(#paint21_linear_191_2)"/>
<path d="M310.147 26.4828H339.275V25.2823H310.147V26.4828Z" fill="#EF381F"/>
<path d="M303.833 10.974V12.1746H341.309V10.974H303.833Z" fill="#EF381F"/>
<path d="M357.528 12.1745L367.684 24.4817L377.839 12.1745H385.048L386.043 10.974H377.839L367.684 23.2786L357.528 10.974H349.317L350.315 12.1745H357.528Z" fill="url(#paint22_linear_191_2)"/>
<path d="M67.2177 49.388C63.7443 48.2396 59.7281 47.5781 55.438 47.5781C53.3604 47.5781 51.3469 47.7328 49.4271 48.0219C48.7391 48.3735 48.0495 48.7328 47.3625 49.0636C45.5807 50.1693 43.8073 51.2057 42.0495 52.1719C42.1599 62.4297 45.0661 65.1588 55.6375 65.1588C66.4167 65.1588 69.2349 62.3385 69.2349 51.5625C69.2349 44.4271 67.9828 40.7916 64.0235 39.1391C63.4203 39.5703 62.8177 40.0036 62.2104 40.4219C65.9469 41.3645 67.0265 43.7631 67.2177 49.388Z" fill="url(#paint23_linear_191_2)"/>
<path d="M55.438 47.5782C59.7281 47.5782 63.7443 48.2397 67.2177 49.3881C67.0265 43.7631 65.9469 41.3646 62.2104 40.4219C58.0027 43.3074 53.7052 45.8465 49.4271 48.0219C51.3469 47.7329 53.3604 47.5782 55.438 47.5782Z" fill="url(#paint24_linear_191_2)"/>
<path d="M96.1853 0.566157C91.4773 8.62082 85.7413 15.612 79.4817 21.5964C74.1145 27.7823 68.1792 33.4844 62.0448 38.5167C61.4079 39.0402 60.7683 39.5547 60.1271 40.0626C56.3973 43.0194 52.6093 45.7224 48.8437 48.1312C49.0412 48.0974 49.2281 48.0531 49.4271 48.0219C53.7052 45.8464 58.0027 43.3074 62.2104 40.4219C62.8177 40.0036 63.4203 39.5703 64.0235 39.1391C77.5131 29.5131 89.8373 16.5027 96.96 1.5531L96.1853 0.566157Z" fill="url(#paint25_linear_191_2)"/>
<path d="M42.7052 44.6913C42.6396 44.9465 42.5839 45.2189 42.5287 45.4907C43.2027 45.1433 43.8729 44.8022 44.5552 44.4334C44.6125 44.2459 44.6839 44.0782 44.7505 43.9037C45.7787 41.2214 47.9276 40.2355 52.2125 39.9621C53.2292 39.3203 54.2484 38.6522 55.2713 37.9662C47.5541 38.0157 44.024 39.599 42.7052 44.6913Z" fill="url(#paint26_linear_191_2)"/>
<path d="M47.7177 42.664C49.2041 41.8074 50.7011 40.9167 52.2125 39.9621C47.9276 40.2355 45.7787 41.2214 44.7505 43.9036C44.6839 44.0782 44.6125 44.2459 44.5552 44.4334C44.5547 44.436 44.5531 44.4375 44.5531 44.4402C45.0109 44.1927 45.4781 43.9178 45.9391 43.6626C46.5473 43.3255 47.1527 42.9984 47.7672 42.6432C47.75 42.6511 47.7339 42.6563 47.7177 42.664Z" fill="url(#paint27_linear_191_2)"/>
<path d="M55.6364 8.84648C44.8536 8.84648 42.036 11.6678 42.036 22.449C42.036 33.2225 44.8536 36.0454 55.6364 36.0454C56.5369 36.0454 57.362 36.0167 58.1541 35.975C61.7672 33.4167 65.3802 30.5965 68.927 27.5079C69.1396 26.0558 69.2349 24.3855 69.2349 22.449C69.2349 11.6678 66.4166 8.84648 55.6364 8.84648Z" fill="url(#paint28_linear_191_2)"/>
<path d="M25.9584 8.84648C17.8265 8.84648 14.2287 10.4558 12.9489 15.8673C6.34639 23.0479 -0.574539 34.5547 1.26093 44.1495C1.26199 44.1433 1.2636 44.1381 1.264 44.1313C1.9688 39.8474 3.83386 35.3137 6.2036 31.0689C6.21093 31.0558 6.21826 31.0427 6.226 31.0298C6.4844 30.5662 6.74839 30.1079 7.01879 29.6522C7.02133 29.6485 7.024 29.6443 7.026 29.6407C8.1208 27.7954 9.29999 26.0194 10.5068 24.3594C10.524 24.3345 10.5417 24.3099 10.5599 24.2865C10.8495 23.8881 11.1412 23.4959 11.4339 23.1121C11.4407 23.1017 11.4479 23.0922 11.4557 23.0834C11.7588 22.6834 12.064 22.3162 12.3677 21.9334C12.3656 22.1079 12.3588 22.2683 12.3588 22.449C12.3588 27.4933 12.9917 30.7798 14.7557 32.8646C16.7588 35.2318 20.2245 36.0454 25.9584 36.0454C36.738 36.0454 39.5568 33.2225 39.5568 22.449C39.5568 11.6678 36.738 8.84648 25.9584 8.84648Z" fill="url(#paint29_linear_191_2)"/>
<path d="M55.5604 10.7537C46.3193 10.7537 44.1959 12.1574 43.9109 20.1834C47.326 19.0897 51.2527 18.4637 55.438 18.4637C59.726 18.4637 63.7421 19.1261 67.2177 20.2709C66.9427 12.1651 64.8328 10.7537 55.5604 10.7537Z" fill="url(#paint30_linear_191_2)"/>
<path d="M37.5369 20.2709C37.2651 12.1651 35.1547 10.7537 25.8849 10.7537C16.6427 10.7537 14.5183 12.1574 14.2349 20.1834C17.6464 19.0897 21.5765 18.4637 25.7579 18.4637C30.0479 18.4637 34.0645 19.1261 37.5369 20.2709Z" fill="url(#paint31_linear_191_2)"/>
<path d="M39.1584 45.9557C38.0797 39.7683 34.5552 37.9593 25.9584 37.9593C16.2021 37.9593 12.976 40.2916 12.4478 48.712C11.2338 48.2344 10.2802 47.6104 9.69371 46.8125C9.24731 46.2031 8.94891 45.5505 8.71824 44.8787C8.17024 47.0079 8.09425 48.9792 8.74425 50.6416C8.76305 50.6901 8.78545 50.738 8.80518 50.7849C8.89171 50.9907 8.99211 51.1912 9.10211 51.3864C9.13798 51.4489 9.17131 51.5131 9.20878 51.574C9.35411 51.8109 9.51198 52.0401 9.69371 52.2604C9.91505 52.526 10.186 52.7615 10.5005 52.9697C10.5942 53.0312 10.7188 53.074 10.8208 53.1312C11.0604 53.264 11.2978 53.3995 11.5806 53.5052C11.7161 53.5547 11.8802 53.5844 12.0254 53.6287C12.1478 53.6651 12.277 53.6979 12.4068 53.7303V53.7355C12.5802 53.7787 12.739 53.8317 12.924 53.8672C13.0812 53.8969 13.2636 53.9088 13.4292 53.9323C13.7802 53.9817 14.1302 54.0323 14.5182 54.0557C14.6822 54.0661 14.8677 54.0599 15.0385 54.0651C15.4625 54.0765 15.888 54.0869 16.3494 54.0688C16.5104 54.0636 16.6869 54.0443 16.8521 54.0349C17.3557 54.0052 17.865 53.9697 18.4078 53.9063C18.5521 53.8891 18.7084 53.8631 18.8557 53.8437C19.4453 53.7667 20.0464 53.6807 20.6776 53.5661C20.7989 53.5443 20.9265 53.5156 21.0489 53.4921C21.7281 53.3631 22.4218 53.2188 23.1448 53.0479C23.2364 53.026 23.3317 53 23.424 52.9776C24.1921 52.7901 24.9792 52.5844 25.7917 52.35C25.851 52.3333 25.912 52.3136 25.9718 52.2969C26.8265 52.0479 27.703 51.776 28.6021 51.4749C28.6292 51.4672 28.6562 51.4568 28.6828 51.4479C30.8557 50.7213 33.1473 49.8448 35.5344 48.8188C36.1718 48.5453 36.8145 48.2615 37.4645 47.9661C38.0806 47.6875 38.6969 47.4073 39.3224 47.1093C39.3213 47.1 39.3202 47.0921 39.3197 47.0833C40.377 46.5792 41.4458 46.0479 42.5286 45.4907C42.5838 45.2188 42.6396 44.9464 42.7052 44.6912C41.5073 45.1443 40.325 45.5661 39.1584 45.9557Z" fill="url(#paint32_linear_191_2)"/>
<path d="M25.9584 65.1588C36.0526 65.1588 39.164 62.6849 39.5202 53.5219C29.8677 58.4896 20.8527 61.1703 13.9521 60.8188C15.7677 64.0948 19.3724 65.1588 25.9584 65.1588Z" fill="url(#paint33_linear_191_2)"/>
<path d="M37.3245 46.5574C36.5943 40.9427 33.9505 39.8698 25.8849 39.8698C16.6599 39.8698 14.5287 41.2708 14.2369 49.2588C14.2609 49.264 14.2823 49.2719 14.3068 49.2771C17.7063 48.1964 21.6073 47.5782 25.7625 47.5782C27.8984 47.5782 29.9677 47.7432 31.9355 48.0506C33.1771 48.2432 34.3604 48.5115 35.5136 48.8136C36.1593 48.5364 36.8052 48.2579 37.464 47.9583C37.4292 47.461 37.3812 46.9974 37.3245 46.5574Z" fill="url(#paint34_linear_191_2)"/>
<defs>
<linearGradient id="paint0_linear_191_2" x1="245.764" y1="54.457" x2="245.764" y2="62.9492" gradientUnits="userSpaceOnUse">
<stop stop-color="#0E2B58"/>
<stop offset="0.284024" stop-color="#0E2B58"/>
<stop offset="1" stop-color="#5B8FD2"/>
</linearGradient>
<linearGradient id="paint1_linear_191_2" x1="245.743" y1="57.4388" x2="245.743" y2="55.2578" gradientUnits="userSpaceOnUse">
<stop stop-color="#0E2B58"/>
<stop offset="1" stop-color="#2151A8"/>
</linearGradient>
<linearGradient id="paint2_linear_191_2" x1="215.28" y1="10.6945" x2="215.28" y2="64.2524" gradientUnits="userSpaceOnUse">
<stop stop-color="#06294A"/>
<stop offset="0.284024" stop-color="#06294A"/>
<stop offset="1" stop-color="#173A78"/>
</linearGradient>
<linearGradient id="paint3_linear_191_2" x1="163.012" y1="10.6945" x2="163.012" y2="64.2524" gradientUnits="userSpaceOnUse">
<stop stop-color="#06294A"/>
<stop offset="0.284024" stop-color="#06294A"/>
<stop offset="1" stop-color="#173A78"/>
</linearGradient>
<linearGradient id="paint4_linear_191_2" x1="248.731" y1="10.6945" x2="248.731" y2="64.2524" gradientUnits="userSpaceOnUse">
<stop stop-color="#06294A"/>
<stop offset="0.284024" stop-color="#06294A"/>
<stop offset="1" stop-color="#173A78"/>
</linearGradient>
<linearGradient id="paint5_linear_191_2" x1="367.684" y1="10.6945" x2="367.684" y2="64.2524" gradientUnits="userSpaceOnUse">
<stop stop-color="#06294A"/>
<stop offset="0.284024" stop-color="#06294A"/>
<stop offset="1" stop-color="#173A78"/>
</linearGradient>
<linearGradient id="paint6_linear_191_2" x1="277.86" y1="10.6945" x2="277.86" y2="64.2524" gradientUnits="userSpaceOnUse">
<stop stop-color="#06294A"/>
<stop offset="0.284024" stop-color="#06294A"/>
<stop offset="1" stop-color="#173A78"/>
</linearGradient>
<linearGradient id="paint7_linear_191_2" x1="115.571" y1="10.6945" x2="115.571" y2="64.2524" gradientUnits="userSpaceOnUse">
<stop stop-color="#06294A"/>
<stop offset="0.284024" stop-color="#06294A"/>
<stop offset="1" stop-color="#173A78"/>
</linearGradient>
<linearGradient id="paint8_linear_191_2" x1="115.571" y1="11.2368" x2="115.571" y2="26.4682" gradientUnits="userSpaceOnUse">
<stop stop-color="#0E2B58"/>
<stop offset="1" stop-color="#2151A8"/>
</linearGradient>
<linearGradient id="paint9_linear_191_2" x1="163.013" y1="11.2811" x2="163.013" y2="29.0985" gradientUnits="userSpaceOnUse">
<stop stop-color="#0E2B58"/>
<stop offset="1" stop-color="#2151A8"/>
</linearGradient>
<linearGradient id="paint10_linear_191_2" x1="228.087" y1="11.2889" x2="228.087" y2="29.5684" gradientUnits="userSpaceOnUse">
<stop stop-color="#0E2B58"/>
<stop offset="1" stop-color="#2151A8"/>
</linearGradient>
<linearGradient id="paint11_linear_191_2" x1="202.463" y1="11.287" x2="202.463" y2="29.448" gradientUnits="userSpaceOnUse">
<stop stop-color="#0E2B58"/>
<stop offset="1" stop-color="#2151A8"/>
</linearGradient>
<linearGradient id="paint12_linear_191_2" x1="248.729" y1="11.2889" x2="248.729" y2="29.5684" gradientUnits="userSpaceOnUse">
<stop stop-color="#0E2B58"/>
<stop offset="1" stop-color="#2151A8"/>
</linearGradient>
<linearGradient id="paint13_linear_191_2" x1="293.44" y1="11.2838" x2="293.44" y2="29.2309" gradientUnits="userSpaceOnUse">
<stop stop-color="#0E2B58"/>
<stop offset="1" stop-color="#2151A8"/>
</linearGradient>
<linearGradient id="paint14_linear_191_2" x1="270.995" y1="11.2883" x2="270.995" y2="29.5274" gradientUnits="userSpaceOnUse">
<stop stop-color="#0E2B58"/>
<stop offset="1" stop-color="#2151A8"/>
</linearGradient>
<linearGradient id="paint15_linear_191_2" x1="241.889" y1="9.77073" x2="241.889" y2="63.6777" gradientUnits="userSpaceOnUse">
<stop stop-color="#E45F16"/>
<stop offset="0.3" stop-color="#E45F16"/>
<stop offset="1" stop-color="#F68B1B"/>
</linearGradient>
<linearGradient id="paint16_linear_191_2" x1="367.681" y1="11.2506" x2="367.681" y2="27.2826" gradientUnits="userSpaceOnUse">
<stop stop-color="#0E2B58"/>
<stop offset="1" stop-color="#2151A8"/>
</linearGradient>
<linearGradient id="paint17_linear_191_2" x1="115.571" y1="11.1711" x2="115.571" y2="22.5944" gradientUnits="userSpaceOnUse">
<stop stop-color="#1266AC"/>
<stop offset="1" stop-color="#1477C6"/>
</linearGradient>
<linearGradient id="paint18_linear_191_2" x1="163.013" y1="11.1711" x2="163.013" y2="22.5944" gradientUnits="userSpaceOnUse">
<stop stop-color="#1266AC"/>
<stop offset="1" stop-color="#1477C6"/>
</linearGradient>
<linearGradient id="paint19_linear_191_2" x1="228.087" y1="11.2876" x2="228.087" y2="29.4927" gradientUnits="userSpaceOnUse">
<stop stop-color="#1266AC"/>
<stop offset="1" stop-color="#1477C6"/>
</linearGradient>
<linearGradient id="paint20_linear_191_2" x1="202.463" y1="11.287" x2="202.463" y2="29.448" gradientUnits="userSpaceOnUse">
<stop stop-color="#1266AC"/>
<stop offset="1" stop-color="#1477C6"/>
</linearGradient>
<linearGradient id="paint21_linear_191_2" x1="270.995" y1="11.2851" x2="270.995" y2="29.3379" gradientUnits="userSpaceOnUse">
<stop stop-color="#1266AC"/>
<stop offset="1" stop-color="#1477C6"/>
</linearGradient>
<linearGradient id="paint22_linear_191_2" x1="367.681" y1="11.199" x2="367.681" y2="24.2603" gradientUnits="userSpaceOnUse">
<stop stop-color="#1266AC"/>
<stop offset="1" stop-color="#1477C6"/>
</linearGradient>
<linearGradient id="paint23_linear_191_2" x1="55.6425" y1="37.9595" x2="55.6425" y2="65.1587" gradientUnits="userSpaceOnUse">
<stop stop-color="#5A749A"/>
<stop offset="0.3" stop-color="#5A749A"/>
<stop offset="1" stop-color="#8FA1BE"/>
</linearGradient>
<linearGradient id="paint24_linear_191_2" x1="58.3223" y1="47.5129" x2="58.3223" y2="40.5205" gradientUnits="userSpaceOnUse">
<stop stop-color="#7C91B1"/>
<stop offset="1" stop-color="#B4C0D5"/>
</linearGradient>
<linearGradient id="paint25_linear_191_2" x1="72.9017" y1="-11.515" x2="72.9017" y2="148.013" gradientUnits="userSpaceOnUse">
<stop stop-color="#5A749A"/>
<stop offset="0.3" stop-color="#5A749A"/>
<stop offset="1" stop-color="#8FA1BE"/>
</linearGradient>
<linearGradient id="paint26_linear_191_2" x1="48.9004" y1="-123.772" x2="48.9004" y2="487.528" gradientUnits="userSpaceOnUse">
<stop stop-color="#5A749A"/>
<stop offset="0.3" stop-color="#5A749A"/>
<stop offset="1" stop-color="#8FA1BE"/>
</linearGradient>
<linearGradient id="paint27_linear_191_2" x1="48.3828" y1="52.1418" x2="48.3828" y2="34.6531" gradientUnits="userSpaceOnUse">
<stop stop-color="#7C91B1"/>
<stop offset="1" stop-color="#B4C0D5"/>
</linearGradient>
<linearGradient id="paint28_linear_191_2" x1="55.6354" y1="9.30008" x2="55.6354" y2="35.6009" gradientUnits="userSpaceOnUse">
<stop stop-color="#06294A"/>
<stop offset="0.284024" stop-color="#06294A"/>
<stop offset="1" stop-color="#173A78"/>
</linearGradient>
<linearGradient id="paint29_linear_191_2" x1="20.2584" y1="8.84621" x2="20.2584" y2="44.1502" gradientUnits="userSpaceOnUse">
<stop stop-color="#E45F16"/>
<stop offset="0.3" stop-color="#E45F16"/>
<stop offset="1" stop-color="#F68B1B"/>
</linearGradient>
<linearGradient id="paint30_linear_191_2" x1="55.5644" y1="18.3963" x2="55.5644" y2="11.4049" gradientUnits="userSpaceOnUse">
<stop stop-color="#314980"/>
<stop offset="1" stop-color="#75B7E7"/>
</linearGradient>
<linearGradient id="paint31_linear_191_2" x1="25.8861" y1="18.3963" x2="25.8861" y2="11.4049" gradientUnits="userSpaceOnUse">
<stop stop-color="#C92D28"/>
<stop offset="0.970414" stop-color="#F36A46"/>
<stop offset="1" stop-color="#F36A46"/>
</linearGradient>
<linearGradient id="paint32_linear_191_2" x1="25.4934" y1="10.6945" x2="25.4934" y2="64.2524" gradientUnits="userSpaceOnUse">
<stop stop-color="#06294A"/>
<stop offset="0.284024" stop-color="#06294A"/>
<stop offset="1" stop-color="#173A78"/>
</linearGradient>
<linearGradient id="paint33_linear_191_2" x1="26.7362" y1="10.6945" x2="26.7362" y2="64.2524" gradientUnits="userSpaceOnUse">
<stop stop-color="#06294A"/>
<stop offset="0.284024" stop-color="#06294A"/>
<stop offset="1" stop-color="#173A78"/>
</linearGradient>
<linearGradient id="paint34_linear_191_2" x1="25.8509" y1="47.9439" x2="25.8509" y2="37.164" gradientUnits="userSpaceOnUse">
<stop stop-color="#314980"/>
<stop offset="1" stop-color="#75B7E7"/>
</linearGradient>
</defs>
</svg>
