<svg width="24" height="24" viewBox="0 0 24 24" fill="none" xmlns="http://www.w3.org/2000/svg">
<path d="M12 4C8.0025 7.64 6 10.784 6 13.44C6 17.424 8.85 20 12 20C15.15 20 18 17.424 18 13.44C18 10.784 15.9975 7.64 12 4ZM12 18.4C9.4875 18.4 7.5 16.344 7.5 13.44C7.5 11.568 8.9625 9.088 12 6.128C15.0375 9.088 16.5 11.56 16.5 13.44C16.5 16.344 14.5125 18.4 12 18.4ZM8.8725 13.6C9.15 13.6 9.375 13.808 9.4275 14.096C9.735 15.872 11.1375 16.48 12.1575 16.392C12.48 16.376 12.75 16.648 12.75 16.992C12.75 17.312 12.51 17.576 12.21 17.592C10.6125 17.696 8.745 16.72 8.3175 14.296C8.2575 13.936 8.5275 13.6 8.8725 13.6Z" fill="#0CA750"/>
</svg>
