<svg width="24" height="24" viewBox="0 0 24 24" fill="none" xmlns="http://www.w3.org/2000/svg">
<g clip-path="url(#clip0_1912_60)">
<path d="M12 24C18.6274 24 24 18.6274 24 12C24 5.37258 18.6274 0 12 0C5.37258 0 0 5.37258 0 12C0 18.6274 5.37258 24 12 24Z" fill="white"/>
<path d="M12.0678 8.18836C13.4609 8.18836 14.5903 7.06888 14.5903 5.68793C14.5903 4.30698 13.4609 3.1875 12.0678 3.1875C10.6747 3.1875 9.54541 4.30698 9.54541 5.68793C9.54541 7.06888 10.6747 8.18836 12.0678 8.18836Z" fill="#010101"/>
<path d="M8.90805 9.84193C8.48765 9.00846 8.47408 8.12121 8.46052 8.08088V4.62598H5.53125V8.08088C5.53125 8.22875 5.54481 9.59996 6.22288 11.0115C6.5348 11.6836 6.9552 12.2483 7.44341 12.7053C8.44696 11.7643 9.80311 11.2535 11.3898 11.2535C10.1828 11.2535 9.39626 10.7964 8.90805 9.84193Z" fill="#0078D4"/>
<path d="M15.0783 15.5821C15.4987 16.4156 15.5123 17.3029 15.5258 17.3432V20.7981H18.4687V17.3432C18.4687 17.1953 18.4551 15.8241 17.777 14.4126C17.4651 13.7404 17.0447 13.1758 16.5565 12.7188C15.5529 13.6598 14.1968 14.1706 12.6101 14.1706C13.8035 14.1706 14.5901 14.6142 15.0783 15.5821Z" fill="#0078D4"/>
<path d="M15.526 4.62598V8.08088C15.526 8.09432 15.5125 8.95468 15.1192 9.77472C14.6445 10.783 13.8444 11.2535 12.6103 11.2535H11.4169C9.83023 11.2535 8.47408 11.7643 7.47054 12.7053C6.98232 13.1624 6.56192 13.727 6.25001 14.3992C5.54481 15.8107 5.53125 17.1819 5.53125 17.3432V20.7981H8.47408V17.3432C8.47408 17.3298 8.48765 16.4694 8.88093 15.6494C9.35558 14.6412 10.1557 14.1706 11.3898 14.1706H12.5832C14.1699 14.1706 15.526 13.6598 16.5296 12.7188C17.0178 12.2617 17.4382 11.6971 17.7501 11.0249C18.4146 9.6134 18.4417 8.24219 18.4417 8.09432V4.62598H15.526Z" fill="#1C3490"/>
</g>
<defs>
<clipPath id="clip0_1912_60">
<rect width="24" height="24" fill="white"/>
</clipPath>
</defs>
</svg>
