<svg xmlns="http://www.w3.org/2000/svg" xmlns:xlink="http://www.w3.org/1999/xlink" xmlns:lucid="lucid" width="2760" height="1620"><g transform="translate(-12.771084337349293 -20)" lucid:page-tab-id="0_0"><path d="M0 0h2785.54v1802.4H0z" fill="#fff"/><path d="M33.18 46a6 6 0 0 1 6-6h148a6 6 0 0 1 6 6v108a6 6 0 0 1-6 6h-148a6 6 0 0 1-6-6z" stroke="#3a414a" fill="#fff"/><use xlink:href="#a" transform="matrix(1,0,0,1,45.18490776028867,52) translate(9.884203480589022 51.31593038821955)"/><use xlink:href="#b" transform="matrix(1,0,0,1,45.18490776028867,52) translate(88.52655064703258 51.31593038821955)"/><path d="M62.36 225.3a10 10 0 0 1 8.82-5.3h106c8.84 0 16 26.86 16 60s-7.16 60-16 60h-106a10 10 0 0 1-8.82-5.3L36 285.3a11.25 11.25 0 0 1 0-10.6z" stroke="#3a414a" fill="#fff"/><use xlink:href="#c" transform="matrix(1,0,0,1,38.18490776028867,225) translate(37.41075412762159 57.00343038821955)"/><path d="M61.95 405.3a10 10 0 0 1 8.82-5.3h106c8.84 0 16 26.86 16 60s-7.16 60-16 60h-106a10 10 0 0 1-8.82-5.3L35.6 465.3a11.25 11.25 0 0 1 0-10.6z" stroke="#3a414a" fill="#fff"/><use xlink:href="#d" transform="matrix(1,0,0,1,37.77108433734929,404.99999999999994) translate(2.8577272051167597 57.00343038821955)"/><use xlink:href="#e" transform="matrix(1,0,0,1,37.77108433734929,404.99999999999994) translate(83.12509296445039 57.00343038821955)"/><path d="M62.36 565.3a10 10 0 0 1 8.82-5.3h106c8.84 0 16 26.86 16 60s-7.16 60-16 60h-106a10 10 0 0 1-8.82-5.3L36 625.3a11.25 11.25 0 0 1 0-10.6z" stroke="#3a414a" fill="#fff"/><use xlink:href="#f" transform="matrix(1,0,0,1,38.18490776028867,565) translate(7.928546035995831 50.12843038821955)"/><use xlink:href="#g" transform="matrix(1,0,0,1,38.18490776028867,565) translate(42.909209430313844 50.12843038821955)"/><use xlink:href="#h" transform="matrix(1,0,0,1,38.18490776028867,565) translate(96.70587758441172 50.12843038821955)"/><use xlink:href="#e" transform="matrix(1,0,0,1,38.18490776028867,565) translate(45.99641008478358 68.60232597054886)"/><path d="M108.8 803.6a8 8 0 0 1 9.6 0l70.4 52.8a4.5 4.5 0 0 1 0 7.2l-70.4 52.8a8 8 0 0 1-9.6 0l-70.4-52.8a4.5 4.5 0 0 1 0-7.2z" stroke="#3a414a" fill="#fff"/><use xlink:href="#i" transform="matrix(1,0,0,1,38.59873118322804,805) translate(29.739679458575033 57.00343038821955)"/><use xlink:href="#j" transform="matrix(1,0,0,1,38.59873118322804,805) translate(80.11525583816749 57.00343038821955)"/><path d="M292.77 825.92a6.8 6.8 0 0 1 5.96-6.74l148.1-18.44a5.3 5.3 0 0 1 5.94 5.26v108a6 6 0 0 1-6 6h-148a6 6 0 0 1-6-6z" stroke="#3a414a" fill="#fff"/><use xlink:href="#k" transform="matrix(1,0,0,1,297.7710843373493,825) translate(16.071694184143986 48.87843038821955)"/><use xlink:href="#l" transform="matrix(1,0,0,1,297.7710843373493,825) translate(57.08203183102782 48.87843038821955)"/><use xlink:href="#m" transform="matrix(1,0,0,1,297.7710843373493,825) translate(92.9607318161535 48.87843038821955)"/><path d="M312.77 566a6 6 0 0 1 6-6h108a6 6 0 0 1 6 6v60a12.48 12.48 0 0 1-4.68 9.75l-50.64 40.5a7.5 7.5 0 0 1-9.37 0l-50.64-40.5a12.48 12.48 0 0 1-4.7-9.75z" stroke="#3a414a" fill="#fff"/><use xlink:href="#n" transform="matrix(1,0,0,1,317.7710850447886,565) translate(11.915625464822256 50.12843038821955)"/><use xlink:href="#o" transform="matrix(1,0,0,1,317.7710850447886,565) translate(51.985162873717094 50.12843038821955)"/><use xlink:href="#l" transform="matrix(1,0,0,1,317.7710850447886,565) translate(10.167315930388222 68.60232597054886)"/><use xlink:href="#p" transform="matrix(1,0,0,1,317.7710850447886,565) translate(46.04601591551391 68.60232597054886)"/><path d="M532.77 806a6 6 0 0 1 6-6h148a6 6 0 0 1 6 6v108a6 6 0 0 1-6 6h-148a6 6 0 0 1-6-6z" stroke="#3a414a" fill="#fff"/><use xlink:href="#q" transform="matrix(1,0,0,1,544.7710843373493,812) translate(26.19853488026179 51.31593038821955)"/><use xlink:href="#r" transform="matrix(1,0,0,1,544.7710843373493,812) translate(63.70225345827755 51.31593038821955)"/><path d="M781.95 805.3a10 10 0 0 1 8.82-5.3h106c8.84 0 16 26.86 16 60s-7.16 60-16 60h-106a10 10 0 0 1-8.82-5.3l-26.36-49.4a11.25 11.25 0 0 1 0-10.6z" stroke="#3a414a" fill="#fff"/><use xlink:href="#i" transform="matrix(1,0,0,1,757.7710843373493,805) translate(9.635765283355639 57.00343038821955)"/><use xlink:href="#l" transform="matrix(1,0,0,1,757.7710843373493,805) translate(60.011341662948084 57.00343038821955)"/><use xlink:href="#s" transform="matrix(1,0,0,1,757.7710843373493,805) translate(95.89004164807378 57.00343038821955)"/><use xlink:href="#t" transform="matrix(1,0,0,1,757.7710843373493,805) translate(131.8115052803808 57.00343038821955)"/><path d="M1107.97 803.6a8 8 0 0 1 9.6 0l70.4 52.8a4.5 4.5 0 0 1 0 7.2l-70.4 52.8a8 8 0 0 1-9.6 0l-70.4-52.8a4.5 4.5 0 0 1 0-7.2z" stroke="#3a414a" fill="#fff"/><use xlink:href="#u" transform="matrix(1,0,0,1,1037.7710843373493,805) translate(32.476552878179376 50.12843038821955)"/><use xlink:href="#v" transform="matrix(1,0,0,1,1037.7710843373493,805) translate(69.72368957310724 50.12843038821955)"/><use xlink:href="#w" transform="matrix(1,0,0,1,1037.7710843373493,805) translate(39.57531831027815 68.60232597054886)"/><path d="M1107.97 1023.6a8 8 0 0 1 9.6 0l70.4 52.8a4.5 4.5 0 0 1 0 7.2l-70.4 52.8a8 8 0 0 1-9.6 0l-70.4-52.8a4.5 4.5 0 0 1 0-7.2z" stroke="#3a414a" fill="#fff"/><use xlink:href="#x" transform="matrix(1,0,0,1,1037.7710843373493,1025) translate(27.601497099509142 50.12843038821955)"/><use xlink:href="#v" transform="matrix(1,0,0,1,1037.7710843373493,1025) translate(74.59874535177748 50.12843038821955)"/><use xlink:href="#w" transform="matrix(1,0,0,1,1037.7710843373493,1025) translate(39.57531831027815 68.60232597054886)"/><path d="M1292.77 806a6 6 0 0 1 6-6h148a6 6 0 0 1 6 6v108a6 6 0 0 1-6 6h-148a6 6 0 0 1-6-6z" stroke="#3a414a" fill="#fff"/><use xlink:href="#q" transform="matrix(1,0,0,1,1304.7710843373493,812) translate(22.77744310575636 51.31593038821955)"/><use xlink:href="#y" transform="matrix(1,0,0,1,1304.7710843373493,812) translate(60.281161683772126 51.31593038821955)"/><path d="M2621.95 1285.3a10 10 0 0 1 8.82-5.3h106c8.84 0 16 26.86 16 60s-7.16 60-16 60h-106a10 10 0 0 1-8.82-5.3l-26.36-49.4a11.25 11.25 0 0 1 0-10.6z" stroke="#3a414a" fill="#fff"/><use xlink:href="#z" transform="matrix(1,0,0,1,2597.7710843373493,1285) translate(12.204910754127619 50.12843038821955)"/><use xlink:href="#A" transform="matrix(1,0,0,1,2597.7710843373493,1285) translate(64.29103302097278 50.12843038821955)"/><use xlink:href="#B" transform="matrix(1,0,0,1,2597.7710843373493,1285) translate(130.8740316822847 50.12843038821955)"/><use xlink:href="#C" transform="matrix(1,0,0,1,2597.7710843373493,1285) translate(25.491241261341663 68.60232597054886)"/><use xlink:href="#D" transform="matrix(1,0,0,1,2597.7710843373493,1285) translate(79.33067306262086 68.60232597054886)"/><path d="M1301.95 1025.3a10 10 0 0 1 8.82-5.3h106c8.84 0 16 26.86 16 60s-7.16 60-16 60h-106a10 10 0 0 1-8.82-5.3l-26.36-49.4a11.25 11.25 0 0 1 0-10.6z" stroke="#3a414a" fill="#fff"/><use xlink:href="#E" transform="matrix(1,0,0,1,1277.7710843373493,1025) translate(15.604620705042388 50.12843038821955)"/><use xlink:href="#F" transform="matrix(1,0,0,1,1277.7710843373493,1025) translate(79.57903688829393 50.12843038821955)"/><use xlink:href="#G" transform="matrix(1,0,0,1,1277.7710843373493,1025) translate(20.808621894987347 68.60232597054886)"/><use xlink:href="#H" transform="matrix(1,0,0,1,1277.7710843373493,1025) translate(72.8947441618325 68.60232597054886)"/><path d="M1532.77 1026a6 6 0 0 1 6-6h148a6 6 0 0 1 6 6v108a6 6 0 0 1-6 6h-148a6 6 0 0 1-6-6z" stroke="#3a414a" fill="#fff"/><use xlink:href="#q" transform="matrix(1,0,0,1,1544.7710843373495,1032) translate(33.446973077495166 51.31593038821955)"/><use xlink:href="#I" transform="matrix(1,0,0,1,1544.7710843373495,1032) translate(70.95069165551092 51.31593038821955)"/><path d="M2107.97 243.6a8 8 0 0 1 9.6 0l70.4 52.8a4.5 4.5 0 0 1 0 7.2l-70.4 52.8a8 8 0 0 1-9.6 0l-70.4-52.8a4.5 4.5 0 0 1 0-7.2z" stroke="#3a414a" fill="#fff"/><use xlink:href="#J" transform="matrix(1,0,0,1,2037.7710843373493,245) translate(23.453423322921314 50.12843038821955)"/><use xlink:href="#K" transform="matrix(1,0,0,1,2037.7710843373493,245) translate(61.598596608656855 50.12843038821955)"/><use xlink:href="#L" transform="matrix(1,0,0,1,2037.7710843373493,245) translate(54.92746764837126 68.60232597054886)"/><path d="M2292.77 1305.92a6.8 6.8 0 0 1 5.96-6.74l148.1-18.44a5.3 5.3 0 0 1 5.94 5.26v108a6 6 0 0 1-6 6h-148a6 6 0 0 1-6-6z" stroke="#3a414a" fill="#fff"/><use xlink:href="#k" transform="matrix(1,0,0,1,2297.7710843373493,1305) translate(16.093076007734638 48.87843038821955)"/><use xlink:href="#M" transform="matrix(1,0,0,1,2297.7710843373493,1305) translate(57.10341365461847 48.87843038821955)"/><path d="M2292.77 485.92a6.8 6.8 0 0 1 5.96-6.74l148.1-18.44a5.3 5.3 0 0 1 5.94 5.26v108a6 6 0 0 1-6 6h-148a6 6 0 0 1-6-6z" stroke="#3a414a" fill="#fff"/><use xlink:href="#k" transform="matrix(1,0,0,1,2297.7710843373493,485) translate(2.3873270861222693 48.87843038821955)"/><use xlink:href="#N" transform="matrix(1,0,0,1,2297.7710843373493,485) translate(43.3976647330061 48.87843038821955)"/><use xlink:href="#O" transform="matrix(1,0,0,1,2297.7710843373493,485) translate(112.63200951955972 48.87843038821955)"/><path d="M2592.77 1071.33a6 6 0 0 1 6-6h148a6 6 0 0 1 6 6v108a6 6 0 0 1-6 6h-148a6 6 0 0 1-6-6z" stroke="#3a414a" fill="#fff"/><use xlink:href="#q" transform="matrix(1,0,0,1,2604.7710843373493,1077.3333333333333) translate(8.237803064108292 42.31593038821955)"/><use xlink:href="#P" transform="matrix(1,0,0,1,2604.7710843373493,1077.3333333333333) translate(45.741521642124056 42.31593038821955)"/><use xlink:href="#Q" transform="matrix(1,0,0,1,2604.7710843373493,1077.3333333333333) translate(77.38662055629926 42.31593038821955)"/><use xlink:href="#R" transform="matrix(1,0,0,1,2604.7710843373493,1077.3333333333333) translate(0.604492042243038 60.78982597054887)"/><use xlink:href="#S" transform="matrix(1,0,0,1,2604.7710843373493,1077.3333333333333) translate(73.94414695820318 60.78982597054887)"/><use xlink:href="#T" transform="matrix(1,0,0,1,2604.7710843373493,1077.3333333333333) translate(112.38866577420794 60.78982597054887)"/><path d="M2592.77 1506a6 6 0 0 1 6-6h148a6 6 0 0 1 6 6v108a6 6 0 0 1-6 6h-148a6 6 0 0 1-6-6z" stroke="#3a414a" fill="#fff"/><use xlink:href="#x" transform="matrix(1,0,0,1,2604.7710843373493,1512) translate(17.603041796816896 42.31593038821955)"/><use xlink:href="#U" transform="matrix(1,0,0,1,2604.7710843373493,1512) translate(64.60029004908523 42.31593038821955)"/><use xlink:href="#V" transform="matrix(1,0,0,1,2604.7710843373493,1512) translate(32.20682730923695 60.78982597054887)"/><path d="M2312.77 1506a6 6 0 0 1 6-6h108a6 6 0 0 1 6 6v60a12.48 12.48 0 0 1-4.68 9.75l-50.64 40.5a7.5 7.5 0 0 1-9.37 0l-50.64-40.5a12.48 12.48 0 0 1-4.7-9.75z" stroke="#3a414a" fill="#fff"/><use xlink:href="#W" transform="matrix(1,0,0,1,2317.7710843373493,1505) translate(8.152424512866276 57.00343038821955)"/><use xlink:href="#X" transform="matrix(1,0,0,1,2317.7710843373493,1505) translate(73.66633199464525 57.00343038821955)"/><path d="M113.18 160.96v42.2" stroke="#3a414a" fill="none"/><path d="M113.68 160.98h-1v-.52h1z" stroke="#3a414a" stroke-width=".05" fill="#3a414a"/><path d="M113.18 217.92l-4.63-14.27h9.27z" stroke="#3a414a" fill="#3a414a"/><path d="M113.6 341v28.8a.2.2 0 0 1-.2.22.2.2 0 0 0-.22.2v12.93" stroke="#3a414a" fill="none"/><path d="M114.1 341h-1v-.5h1z" stroke="#3a414a" stroke-width=".05" fill="#3a414a"/><path d="M113.18 397.92l-4.63-14.27h9.27z" stroke="#3a414a" fill="#3a414a"/><path d="M113.18 521v18.8a.2.2 0 0 0 .2.22.2.2 0 0 1 .22.2v2.93" stroke="#3a414a" fill="none"/><path d="M113.68 521h-1v-.5h1z" stroke="#3a414a" stroke-width=".05" fill="#3a414a"/><path d="M113.6 557.92l-4.64-14.27h9.27z" stroke="#3a414a" fill="#3a414a"/><path d="M113.6 681v104.12" stroke="#3a414a" fill="none"/><path d="M114.1 681h-1v-.5h1z" stroke="#3a414a" stroke-width=".05" fill="#3a414a"/><path d="M113.6 799.88l-4.64-14.26h9.27z" stroke="#3a414a" fill="#3a414a"/><path d="M232.27 860.5H191.6v-1h40.67zm43.65 0h-24.8v-1h24.8z" stroke="#3a414a" stroke-width=".05" fill="#3a414a"/><path d="M191.6 860.5h-.55l.05-.5-.05-.5h.56z" fill="#3a414a"/><path d="M191.64 860.52h-.6l.04-.52-.05-.52h.6zm-.56-1l.05.48-.05.48h.5v-.96z" stroke="#3a414a" stroke-width=".05" fill="#3a414a"/><path d="M290.68 860l-14.26 4.64v-9.28z" fill="#3a414a"/><path d="M292.3 860l-16.38 5.32v-10.64zm-15.38 3.95l12.14-3.95-12.14-3.95z" stroke="#3a414a" stroke-width=".05" fill="#3a414a"/><use xlink:href="#Y" transform="matrix(1,0,0,1,232.27055154642252,853.429718875502) translate(0 8.76037483266399)"/><path d="M108.8 1023.6a8 8 0 0 1 9.6 0l70.4 52.8a4.5 4.5 0 0 1 0 7.2l-70.4 52.8a8 8 0 0 1-9.6 0l-70.4-52.8a4.5 4.5 0 0 1 0-7.2z" stroke="#3a414a" fill="#fff"/><use xlink:href="#Z" transform="matrix(1,0,0,1,38.59873118322804,1025) translate(25.014296445039406 57.00343038821955)"/><use xlink:href="#j" transform="matrix(1,0,0,1,38.59873118322804,1025) translate(84.84063885170312 57.00343038821955)"/><path d="M114.5 1005.14h-1l-.02-28.56h1zm-.4-41.7h-1V919h1z" stroke="#3a414a" stroke-width=".05" fill="#3a414a"/><path d="M113.6 918.5l.5-.03v.54h-1v-.53z" fill="#3a414a"/><path d="M113.6 918.48l.52-.04v.6h-1.05v-.6zm-.48.5h.95v-.48l-.47.03-.48-.03z" stroke="#3a414a" stroke-width=".05" fill="#3a414a"/><path d="M114 1019.9l-4.62-14.26h9.27z" fill="#3a414a"/><path d="M114 1021.53l-5.3-16.4h10.64zm-3.93-15.4l3.94 12.16 3.96-12.16z" stroke="#3a414a" stroke-width=".05" fill="#3a414a"/><use xlink:href="#aa" transform="matrix(1,0,0,1,106.53574850231337,963.4430534177679) translate(0 8.76037483266399)"/><path d="M108.8 1263.6a8 8 0 0 1 9.6 0l70.4 52.8a4.5 4.5 0 0 1 0 7.2l-70.4 52.8a8 8 0 0 1-9.6 0l-70.4-52.8a4.5 4.5 0 0 1 0-7.2z" stroke="#3a414a" fill="#fff"/><use xlink:href="#Z" transform="matrix(1,0,0,1,38.59873118322804,1265) translate(25.014296445039406 57.00343038821955)"/><use xlink:href="#j" transform="matrix(1,0,0,1,38.59873118322804,1265) translate(84.84063885170312 57.00343038821955)"/><path d="M321.95 1025.3a10 10 0 0 1 8.82-5.3h106c8.84 0 16 26.86 16 60s-7.16 60-16 60h-106a10 10 0 0 1-8.82-5.3l-26.36-49.4a11.25 11.25 0 0 1 0-10.6z" stroke="#3a414a" fill="#fff"/><use xlink:href="#ab" transform="matrix(1,0,0,1,297.7710843373493,1025) translate(45.10821062025881 57.00343038821955)"/><use xlink:href="#ac" transform="matrix(1,0,0,1,297.7710843373493,1025) translate(80.98691060538451 57.00343038821955)"/><path d="M233 1080.5h-41.4v-1H233zm44.4 0h-25.53v-1h25.52z" stroke="#3a414a" stroke-width=".05" fill="#3a414a"/><path d="M191.6 1080.5h-.55l.05-.5-.05-.5h.56z" fill="#3a414a"/><path d="M191.64 1080.53h-.6l.04-.53-.05-.53h.6zm-.56-1l.05.47-.05.47h.5v-.94z" stroke="#3a414a" stroke-width=".05" fill="#3a414a"/><path d="M292.15 1080l-14.26 4.64v-9.28z" fill="#3a414a"/><path d="M293.77 1080l-16.38 5.32v-10.64zm-15.38 3.95l12.13-3.95-12.14-3.95z" stroke="#3a414a" stroke-width=".05" fill="#3a414a"/><use xlink:href="#Y" transform="matrix(1,0,0,1,233.0061008447189,1073.429718875502) translate(0 8.76037483266399)"/><path d="M652.77 1080c0 22.1-17.9 40-40 40s-40-17.9-40-40 17.9-40 40-40 40 17.9 40 40z" stroke="#3a414a" fill="#fff"/><use xlink:href="#ad" transform="matrix(1,0,0,1,577.7710843373493,1045) translate(18.79257771828053 38.56593038821955)"/><path d="M453.77 1080H555.9" stroke="#3a414a" fill="none"/><path d="M453.78 1080.5h-.53l.02-.5-.02-.5h.53z" stroke="#3a414a" stroke-width=".05" fill="#3a414a"/><path d="M570.65 1080l-14.26 4.64v-9.28z" stroke="#3a414a" fill="#3a414a"/><path d="M114.1 1245.12h-1v-38.55h1zm0-51.7h-1V1139h1z" stroke="#3a414a" stroke-width=".05" fill="#3a414a"/><path d="M113.6 1138.5l.5-.03v.54h-1v-.53z" fill="#3a414a"/><path d="M113.6 1138.48l.52-.04v.6h-1.05v-.6zm-.48.5h.95v-.48l-.47.03-.48-.03z" stroke="#3a414a" stroke-width=".05" fill="#3a414a"/><path d="M113.6 1259.88l-4.64-14.26h9.27z" fill="#3a414a"/><path d="M113.6 1261.5l-5.32-16.38h10.64zm-3.95-15.38l3.95 12.14 3.95-12.14z" stroke="#3a414a" stroke-width=".05" fill="#3a414a"/><use xlink:href="#aa" transform="matrix(1,0,0,1,106.32883679084368,1193.429718875502) translate(0 8.76037483266399)"/><path d="M312.36 1265.3a10 10 0 0 1 8.82-5.3h106c8.84 0 16 26.86 16 60s-7.16 60-16 60h-106a10 10 0 0 1-8.82-5.3L286 1325.3a11.25 11.25 0 0 1 0-10.6z" stroke="#3a414a" fill="#fff"/><use xlink:href="#ae" transform="matrix(1,0,0,1,288.18490776028864,1265) translate(17.89247582924289 50.12843038821955)"/><use xlink:href="#af" transform="matrix(1,0,0,1,288.18490776028864,1265) translate(95.55125911051614 50.12843038821955)"/><use xlink:href="#ac" transform="matrix(1,0,0,1,288.18490776028864,1265) translate(66.05256061282167 68.60232597054886)"/><path d="M228.2 1320.5h-36.6v-1h36.6zm39.6 0h-20.73v-1h20.73z" stroke="#3a414a" stroke-width=".05" fill="#3a414a"/><path d="M191.6 1320.5h-.55l.05-.5-.05-.5h.56z" fill="#3a414a"/><path d="M191.64 1320.53h-.6l.04-.53-.05-.53h.6zm-.56-1l.05.47-.05.47h.5v-.94z" stroke="#3a414a" stroke-width=".05" fill="#3a414a"/><path d="M282.57 1320l-14.27 4.64v-9.28z" fill="#3a414a"/><path d="M284.18 1320l-16.38 5.32v-10.64zm-15.38 3.95l12.15-3.95-12.15-3.95z" stroke="#3a414a" stroke-width=".05" fill="#3a414a"/><use xlink:href="#Y" transform="matrix(1,0,0,1,228.21301255618857,1313.429718875502) translate(0 8.76037483266399)"/><path d="M652.77 1320c0 22.1-17.9 40-40 40s-40-17.9-40-40 17.9-40 40-40 40 17.9 40 40z" stroke="#3a414a" fill="#fff"/><use xlink:href="#ad" transform="matrix(1,0,0,1,577.7710843373493,1285) translate(18.79257771828053 38.56593038821955)"/><path d="M444.2 1320h111.68" stroke="#3a414a" fill="none"/><path d="M444.2 1320.5h-.53l.02-.5-.03-.5h.53z" stroke="#3a414a" stroke-width=".05" fill="#3a414a"/><path d="M570.65 1320l-14.26 4.64v-9.28z" stroke="#3a414a" fill="#3a414a"/><path d="M372.77 678.9v116.72" stroke="#3a414a" fill="none"/><path d="M372.77 678.4l.5-.04v.55h-1v-.54z" stroke="#3a414a" stroke-width=".05" fill="#3a414a"/><path d="M372.77 810.38l-4.63-14.26h9.27z" stroke="#3a414a" fill="#3a414a"/><path d="M453.73 860.17h62.2" stroke="#3a414a" fill="none"/><path d="M453.75 860.67h-.52v-1h.52z" stroke="#3a414a" stroke-width=".05" fill="#3a414a"/><path d="M530.7 860.17l-14.28 4.63v-9.27z" stroke="#3a414a" fill="#3a414a"/><path d="M693.73 860h43.66" stroke="#3a414a" fill="none"/><path d="M693.75 860.5h-.52v-1h.52z" stroke="#3a414a" stroke-width=".05" fill="#3a414a"/><path d="M752.15 860l-14.26 4.64v-9.28z" stroke="#3a414a" fill="#3a414a"/><path d="M913.77 860h105.12" stroke="#3a414a" fill="none"/><path d="M913.78 860.5h-.53l.02-.5-.02-.5h.53z" stroke="#3a414a" stroke-width=".05" fill="#3a414a"/><path d="M1033.65 860l-14.26 4.64v-9.28z" stroke="#3a414a" fill="#3a414a"/><path d="M1231.86 860.5h-41.1v-1h41.1zm44.06 0h-25.2v-1h25.2z" stroke="#3a414a" stroke-width=".05" fill="#3a414a"/><path d="M1190.8 860.5h-.57l.04-.5-.04-.5h.56z" fill="#3a414a"/><path d="M1190.8 860.52h-.6l.05-.52-.05-.52h.6zm-.55-1l.05.48-.05.48h.5v-.96z" stroke="#3a414a" stroke-width=".05" fill="#3a414a"/><path d="M1290.7 860l-14.28 4.64v-9.28z" fill="#3a414a"/><path d="M1292.3 860l-16.38 5.32v-10.64zm-15.38 3.95l12.15-3.95-12.15-3.95z" stroke="#3a414a" stroke-width=".05" fill="#3a414a"/><use xlink:href="#Y" transform="matrix(1,0,0,1,1231.860901089999,853.429718875502) translate(0 8.76037483266399)"/><path d="M1113.27 1005.12h-1v-28.55h1zm0-41.7h-1V919h1z" stroke="#3a414a" stroke-width=".05" fill="#3a414a"/><path d="M1112.77 918.5l.5-.03v.54h-1v-.53z" fill="#3a414a"/><path d="M1112.77 918.48l.53-.04v.6h-1.05v-.6zm-.47.5h.95v-.48l-.48.03-.47-.03z" stroke="#3a414a" stroke-width=".05" fill="#3a414a"/><path d="M1112.77 1019.88l-4.63-14.26h9.27z" fill="#3a414a"/><path d="M1112.77 1021.5l-5.32-16.38h10.64zm-3.95-15.38l3.95 12.14 3.95-12.14z" stroke="#3a414a" stroke-width=".05" fill="#3a414a"/><use xlink:href="#aa" transform="matrix(1,0,0,1,1105.5011899449648,963.429718875502) translate(0 8.76037483266399)"/><path d="M1222.6 1080.5h-31.83v-1h31.82zm34.8 0h-15.95v-1h15.94z" stroke="#3a414a" stroke-width=".05" fill="#3a414a"/><path d="M1190.8 1080.5h-.57l.04-.5-.04-.5h.56z" fill="#3a414a"/><path d="M1190.8 1080.53h-.6l.05-.53-.05-.53h.6zm-.55-1l.05.47-.05.47h.5v-.94z" stroke="#3a414a" stroke-width=".05" fill="#3a414a"/><path d="M1272.15 1080l-14.26 4.64v-9.28z" fill="#3a414a"/><path d="M1273.77 1080l-16.38 5.32v-10.64zm-15.38 3.95l12.13-3.95-12.14-3.95z" stroke="#3a414a" stroke-width=".05" fill="#3a414a"/><use xlink:href="#Y" transform="matrix(1,0,0,1,1222.5922774217795,1073.429718875502) translate(0 8.76037483266399)"/><path d="M1801.95 1025.3a10 10 0 0 1 8.82-5.3h106c8.84 0 16 26.86 16 60s-7.16 60-16 60h-106a10 10 0 0 1-8.82-5.3l-26.36-49.4a11.25 11.25 0 0 1 0-10.6z" stroke="#3a414a" fill="#fff"/><use xlink:href="#i" transform="matrix(1,0,0,1,1777.771084337349,1025) translate(5.726218206157961 50.12843038821955)"/><use xlink:href="#l" transform="matrix(1,0,0,1,1777.771084337349,1025) translate(56.101794585750405 50.12843038821955)"/><use xlink:href="#s" transform="matrix(1,0,0,1,1777.771084337349,1025) translate(91.9804945708761 50.12843038821955)"/><use xlink:href="#ag" transform="matrix(1,0,0,1,1777.771084337349,1025) translate(127.9019582031831 50.12843038821955)"/><use xlink:href="#ah" transform="matrix(1,0,0,1,1777.771084337349,1025) translate(60.04426818384649 68.60232597054886)"/><use xlink:href="#ai" transform="matrix(1,0,0,1,1777.771084337349,1025) translate(74.58390822549457 68.60232597054886)"/><path d="M2373.27 455.62h-1l-.07-149.05h1zm-182.5-155.12v-1h167.32v1z" stroke="#3a414a" stroke-width=".05" fill="#3a414a"/><path d="M2190.8 300.5h-.57l.04-.5-.04-.5h.56z" fill="#3a414a"/><path d="M2190.8 300.52h-.6l.05-.52-.05-.52h.6zm-.55-1l.05.48-.05.48h.5v-.96z" stroke="#3a414a" stroke-width=".05" fill="#3a414a"/><path d="M2372.77 470.38l-4.63-14.26h9.27z" fill="#3a414a"/><path d="M2372.77 472l-5.32-16.38h10.64zm-3.95-15.38l3.95 12.14 3.95-12.14z" stroke="#3a414a" stroke-width=".05" fill="#3a414a"/><use xlink:href="#Y" transform="matrix(1,0,0,1,2358.0925716944716,293.42971887550203) translate(0 8.76037483266399)"/><path d="M2292.77 725.92a6.8 6.8 0 0 1 5.96-6.74l148.1-18.44a5.3 5.3 0 0 1 5.94 5.26v108a6 6 0 0 1-6 6h-148a6 6 0 0 1-6-6z" stroke="#3a414a" fill="#fff"/><use xlink:href="#k" transform="matrix(1,0,0,1,2297.7710843373493,725) translate(4.504127621597505 37.62843038821955)"/><use xlink:href="#aj" transform="matrix(1,0,0,1,2297.7710843373493,725) translate(45.51446526848134 37.62843038821955)"/><use xlink:href="#ak" transform="matrix(1,0,0,1,2297.7710843373493,725) translate(103.58749814071099 37.62843038821955)"/><use xlink:href="#O" transform="matrix(1,0,0,1,2297.7710843373493,725) translate(57.50966830284099 56.10232597054887)"/><path d="M2372.77 580.96V693.1" stroke="#3a414a" fill="none"/><path d="M2373.27 580.98h-1v-.52h1z" stroke="#3a414a" stroke-width=".05" fill="#3a414a"/><path d="M2372.77 707.87l-4.63-14.26h9.27z" stroke="#3a414a" fill="#3a414a"/><path d="M2107.97 463.6a8 8 0 0 1 9.6 0l70.4 52.8a4.5 4.5 0 0 1 0 7.2l-70.4 52.8a8 8 0 0 1-9.6 0l-70.4-52.8a4.5 4.5 0 0 1 0-7.2z" stroke="#3a414a" fill="#fff"/><use xlink:href="#J" transform="matrix(1,0,0,1,2037.7710843373493,465) translate(23.453423322921314 50.12843038821955)"/><use xlink:href="#K" transform="matrix(1,0,0,1,2037.7710843373493,465) translate(61.598596608656855 50.12843038821955)"/><use xlink:href="#L" transform="matrix(1,0,0,1,2037.7710843373493,465) translate(54.92746764837126 68.60232597054886)"/><path d="M2113.27 445.12h-1v-28.55h1zm0-41.7h-1V359h1z" stroke="#3a414a" stroke-width=".05" fill="#3a414a"/><path d="M2112.77 358.5l.5-.03v.54h-1v-.53z" fill="#3a414a"/><path d="M2112.77 358.48l.53-.04v.6h-1.05v-.6zm-.47.5h.95v-.48l-.48.03-.47-.03z" stroke="#3a414a" stroke-width=".05" fill="#3a414a"/><path d="M2112.77 459.88l-4.63-14.26h9.27z" fill="#3a414a"/><path d="M2112.77 461.5l-5.32-16.38h10.64zm-3.95-15.38l3.95 12.14 3.95-12.14z" stroke="#3a414a" stroke-width=".05" fill="#3a414a"/><use xlink:href="#aa" transform="matrix(1,0,0,1,2105.501189944965,403.42971887550203) translate(0 8.76037483266399)"/><path d="M2107.97 703.6a8 8 0 0 1 9.6 0l70.4 52.8a4.5 4.5 0 0 1 0 7.2l-70.4 52.8a8 8 0 0 1-9.6 0l-70.4-52.8a4.5 4.5 0 0 1 0-7.2z" stroke="#3a414a" fill="#fff"/><use xlink:href="#J" transform="matrix(1,0,0,1,2037.7710843373493,705) translate(34.97822623828648 50.12843038821955)"/><use xlink:href="#ak" transform="matrix(1,0,0,1,2037.7710843373493,705) translate(73.12339952402202 50.12843038821955)"/><use xlink:href="#L" transform="matrix(1,0,0,1,2037.7710843373493,705) translate(54.92746764837126 68.60232597054886)"/><path d="M2231.86 520.5h-41.1v-1h41.1zm44.06 0h-25.2v-1h25.2z" stroke="#3a414a" stroke-width=".05" fill="#3a414a"/><path d="M2190.8 520.5h-.57l.04-.5-.04-.5h.56z" fill="#3a414a"/><path d="M2190.8 520.52h-.6l.05-.52-.05-.52h.6zm-.55-1l.05.48-.05.48h.5v-.96z" stroke="#3a414a" stroke-width=".05" fill="#3a414a"/><path d="M2290.68 520l-14.26 4.64v-9.28z" fill="#3a414a"/><path d="M2292.3 520l-16.38 5.32v-10.64zm-15.38 3.95l12.14-3.95-12.14-3.95z" stroke="#3a414a" stroke-width=".05" fill="#3a414a"/><use xlink:href="#Y" transform="matrix(1,0,0,1,2231.856728123483,513.429718875502) translate(0 8.76037483266399)"/><path d="M2113.27 685.12h-1v-38.55h1zm0-51.7h-1V579h1z" stroke="#3a414a" stroke-width=".05" fill="#3a414a"/><path d="M2112.77 578.5l.5-.03v.54h-1v-.53z" fill="#3a414a"/><path d="M2112.77 578.48l.53-.04v.6h-1.05v-.6zm-.47.5h.95v-.48l-.48.03-.47-.03z" stroke="#3a414a" stroke-width=".05" fill="#3a414a"/><path d="M2112.77 699.88l-4.63-14.26h9.27z" fill="#3a414a"/><path d="M2112.77 701.5l-5.32-16.38h10.64zm-3.95-15.38l3.95 12.14 3.95-12.14z" stroke="#3a414a" stroke-width=".05" fill="#3a414a"/><use xlink:href="#aa" transform="matrix(1,0,0,1,2105.501189944965,633.429718875502) translate(0 8.76037483266399)"/><path d="M2231.86 760.5h-41.1v-1h41.1zm44.06 0h-25.2v-1h25.2z" stroke="#3a414a" stroke-width=".05" fill="#3a414a"/><path d="M2190.8 760.5h-.57l.04-.5-.04-.5h.56z" fill="#3a414a"/><path d="M2190.8 760.52h-.6l.05-.52-.05-.52h.6zm-.55-1l.05.48-.05.48h.5v-.96z" stroke="#3a414a" stroke-width=".05" fill="#3a414a"/><path d="M2290.68 760l-14.26 4.64v-9.28z" fill="#3a414a"/><path d="M2292.3 760l-16.38 5.32v-10.64zm-15.38 3.95l12.14-3.95-12.14-3.95z" stroke="#3a414a" stroke-width=".05" fill="#3a414a"/><use xlink:href="#Y" transform="matrix(1,0,0,1,2231.856728123483,753.429718875502) translate(0 8.76037483266399)"/><path d="M2292.77 885.92a6.8 6.8 0 0 1 5.96-6.74l148.1-18.44a5.3 5.3 0 0 1 5.94 5.26v108a6 6 0 0 1-6 6h-148a6 6 0 0 1-6-6z" stroke="#3a414a" fill="#fff"/><g><use xlink:href="#k" transform="matrix(1,0,0,1,2297.7710843373493,885) translate(7.882455748921615 48.87843038821955)"/><use xlink:href="#al" transform="matrix(1,0,0,1,2297.7710843373493,885) translate(48.89279339580545 48.87843038821955)"/><use xlink:href="#am" transform="matrix(1,0,0,1,2297.7710843373493,885) translate(95.07753235162875 48.87843038821955)"/></g><path d="M2372.77 820.96v32.15" stroke="#3a414a" fill="none"/><path d="M2373.27 820.98h-1v-.52h1z" stroke="#3a414a" stroke-width=".05" fill="#3a414a"/><path d="M2372.77 867.87l-4.63-14.26h9.27z" stroke="#3a414a" fill="#3a414a"/><path d="M2367.97 1063.6a8 8 0 0 1 9.6 0l70.4 52.8a4.5 4.5 0 0 1 0 7.2l-70.4 52.8a8 8 0 0 1-9.6 0l-70.4-52.8a4.5 4.5 0 0 1 0-7.2z" stroke="#3a414a" fill="#fff"/><g><use xlink:href="#an" transform="matrix(1,0,0,1,2297.7710843373493,1065) translate(32.305498289454114 39.81593038821955)"/><use xlink:href="#U" transform="matrix(1,0,0,1,2297.7710843373493,1065) translate(63.90783355644801 39.81593038821955)"/><use xlink:href="#ao" transform="matrix(1,0,0,1,2297.7710843373493,1065) translate(39.211827309236945 58.28982597054887)"/><use xlink:href="#w" transform="matrix(1,0,0,1,2297.7710843373493,1065) translate(39.57531831027814 76.76372155287818)"/></g><path d="M2372.77 980.96v64.16" stroke="#3a414a" fill="none"/><path d="M2373.27 980.98h-1v-.52h1z" stroke="#3a414a" stroke-width=".05" fill="#3a414a"/><path d="M2372.77 1059.88l-4.63-14.26h9.27z" stroke="#3a414a" fill="#3a414a"/><path d="M2575.92 1124.83v1l-45.2-.02v-1zm-125.15-4.33v-1h61.1v1z" stroke="#3a414a" stroke-width=".05" fill="#3a414a"/><path d="M2450.8 1120.5h-.57l.04-.5-.04-.5h.56z" fill="#3a414a"/><path d="M2450.8 1120.53h-.6l.05-.53-.05-.53h.6zm-.55-1l.05.47-.05.47h.5v-.94z" stroke="#3a414a" stroke-width=".05" fill="#3a414a"/><path d="M2590.7 1125.33l-14.28 4.64v-9.27z" fill="#3a414a"/><path d="M2592.3 1125.33l-16.38 5.33V1120zm-15.38 3.95l12.15-3.95-12.15-3.94z" stroke="#3a414a" stroke-width=".05" fill="#3a414a"/><g><use xlink:href="#Y" transform="matrix(1,0,0,1,2511.8609010899986,1116.096385542169) translate(0 8.76037483266399)"/></g><path d="M2672.77 1186.3v76.85" stroke="#3a414a" fill="none"/><path d="M2673.27 1186.3h-1v-.5h1z" stroke="#3a414a" stroke-width=".05" fill="#3a414a"/><path d="M2672.77 1277.92l-4.63-14.27h9.27z" stroke="#3a414a" fill="#3a414a"/><path d="M2373.27 1273.1h-1v-32.53h1zm0-45.67h-1V1179h1z" stroke="#3a414a" stroke-width=".05" fill="#3a414a"/><path d="M2372.77 1178.5l.5-.03v.54h-1v-.53z" fill="#3a414a"/><path d="M2372.77 1178.48l.53-.04v.6h-1.05v-.6zm-.47.5h.95v-.48l-.48.03-.47-.03z" stroke="#3a414a" stroke-width=".05" fill="#3a414a"/><path d="M2372.77 1287.87l-4.63-14.26h9.27z" fill="#3a414a"/><path d="M2372.77 1289.5l-5.32-16.4h10.64zm-3.95-15.4l3.95 12.16 3.95-12.15z" stroke="#3a414a" stroke-width=".05" fill="#3a414a"/><g><use xlink:href="#aa" transform="matrix(1,0,0,1,2365.501189944965,1227.4260692741916) translate(0 8.76037483266399)"/></g><path d="M2673.18 1401v82.15" stroke="#3a414a" fill="none"/><path d="M2673.68 1401h-1v-.5h1z" stroke="#3a414a" stroke-width=".05" fill="#3a414a"/><path d="M2673.18 1497.92l-4.63-14.27h9.27z" stroke="#3a414a" fill="#3a414a"/><path d="M2372.77 1400.96v82.2" stroke="#3a414a" fill="none"/><path d="M2373.27 1400.98h-1v-.52h1z" stroke="#3a414a" stroke-width=".05" fill="#3a414a"/><path d="M2372.77 1497.92l-4.63-14.27h9.27z" stroke="#3a414a" fill="#3a414a"/><path d="M2591.8 1560h-142.15" stroke="#3a414a" fill="none"/><path d="M2592.3 1560.5h-.5v-1h.5z" stroke="#3a414a" stroke-width=".05" fill="#3a414a"/><path d="M2434.88 1560l14.27-4.64v9.28z" stroke="#3a414a" fill="#3a414a"/><path d="M1433.77 1080h82.15" stroke="#3a414a" fill="none"/><path d="M1433.78 1080.5h-.53l.02-.5-.02-.5h.53z" stroke="#3a414a" stroke-width=".05" fill="#3a414a"/><path d="M1530.7 1080l-14.28 4.64v-9.28z" stroke="#3a414a" fill="#3a414a"/><path d="M1561.95 805.3a10 10 0 0 1 8.82-5.3h106c8.84 0 16 26.86 16 60s-7.16 60-16 60h-106a10 10 0 0 1-8.82-5.3l-26.36-49.4a11.25 11.25 0 0 1 0-10.6z" stroke="#3a414a" fill="#fff"/><g><use xlink:href="#E" transform="matrix(1,0,0,1,1537.7710843373495,805) translate(15.604620705042388 50.12843038821955)"/><use xlink:href="#F" transform="matrix(1,0,0,1,1537.7710843373495,805) translate(79.57903688829393 50.12843038821955)"/><use xlink:href="#G" transform="matrix(1,0,0,1,1537.7710843373495,805) translate(20.808621894987347 68.60232597054886)"/><use xlink:href="#H" transform="matrix(1,0,0,1,1537.7710843373495,805) translate(72.8947441618325 68.60232597054886)"/></g><path d="M1453.73 860h63.66" stroke="#3a414a" fill="none"/><path d="M1453.75 860.5h-.52v-1h.52z" stroke="#3a414a" stroke-width=".05" fill="#3a414a"/><path d="M1532.15 860l-14.26 4.64v-9.28z" stroke="#3a414a" fill="#3a414a"/><path d="M1613.2 799.03v-33.5a6 6 0 0 0-6-6h-488.43a6 6 0 0 0-6 6v19.6" stroke="#3a414a" fill="none"/><path d="M1613.7 799.53h-1v-.5h1z" stroke="#3a414a" stroke-width=".05" fill="#3a414a"/><path d="M1112.77 799.88l-4.63-14.26h9.27z" stroke="#3a414a" fill="#3a414a"/><path d="M995.84 1074.88l.2.82.33.8.45.73.56.66.66.55.73.45.8.33.84.2.9.07h33.47v1h-33.52l-1-.08-1-.24-.93-.4-.87-.52-.78-.66-.66-.78-.52-.87-.4-.94-.24-1-.03-98.43h1zm23.05-214.38l-18.5.07-.83.2-.8.33-.73.45-.66.56-.56.67-.45.73-.33.8-.2.84-.07.88.03 97.4h-1l-.03-97.44.08-1 .24-1 .38-.93.53-.87.67-.78.78-.66.87-.53.94-.38 1-.25 18.62-.07z" stroke="#3a414a" stroke-width=".05" fill="#3a414a"/><path d="M1035.27 1080l.05.5h-.56v-1h.56z" fill="#3a414a"/><path d="M1035.3 1080l.04.53h-.6v-1.06h.6zm-.52-.47v.94h.5l-.04-.47.05-.47z" stroke="#3a414a" stroke-width=".05" fill="#3a414a"/><path d="M1033.65 860l-14.26 4.64v-9.28z" fill="#3a414a"/><path d="M1035.27 860l-16.38 5.32v-10.64zm-15.38 3.95l12.13-3.95-12.14-3.95z" stroke="#3a414a" stroke-width=".05" fill="#3a414a"/><g><use xlink:href="#aa" transform="matrix(1,0,0,1,987.9990749659584,963.429745722867) translate(0 8.76037483266399)"/></g><path d="M1933.77 1080h44.5a6 6 0 0 0 6-6V306a6 6 0 0 1 6-6h28.62" stroke="#3a414a" fill="none"/><path d="M1933.78 1080.5h-.53l.02-.5-.02-.5h.53z" stroke="#3a414a" stroke-width=".05" fill="#3a414a"/><path d="M2033.65 300l-14.26 4.64v-9.28z" stroke="#3a414a" fill="#3a414a"/><path d="M1693.73 1080h63.66" stroke="#3a414a" fill="none"/><path d="M1693.75 1080.5h-.52v-1h.52z" stroke="#3a414a" stroke-width=".05" fill="#3a414a"/><path d="M1772.15 1080l-14.26 4.64v-9.28z" stroke="#3a414a" fill="#3a414a"/><defs><path fill="#3a414a" d="M185-189c-5-48-123-54-124 2 14 75 158 14 163 119 3 78-121 87-175 55-17-10-28-26-33-46l33-7c5 56 141 63 141-1 0-78-155-14-162-118-5-82 145-84 179-34 5 7 8 16 11 25" id="ap"/><path fill="#3a414a" d="M84 4C-5 8 30-112 23-190h32v120c0 31 7 50 39 49 72-2 45-101 50-169h31l1 190h-30c-1-10 1-25-2-33-11 22-28 36-60 37" id="aq"/><path fill="#3a414a" d="M96-169c-40 0-48 33-48 73s9 75 48 75c24 0 41-14 43-38l32 2c-6 37-31 61-74 61-59 0-76-41-82-99-10-93 101-131 147-64 4 7 5 14 7 22l-32 3c-4-21-16-35-41-35" id="ar"/><path fill="#3a414a" d="M100-194c63 0 86 42 84 106H49c0 40 14 67 53 68 26 1 43-12 49-29l28 8c-11 28-37 45-77 45C44 4 14-33 15-96c1-61 26-98 85-98zm52 81c6-60-76-77-97-28-3 7-6 17-6 28h103" id="as"/><path fill="#3a414a" d="M135-143c-3-34-86-38-87 0 15 53 115 12 119 90S17 21 10-45l28-5c4 36 97 45 98 0-10-56-113-15-118-90-4-57 82-63 122-42 12 7 21 19 24 35" id="at"/><path fill="#3a414a" d="M101-234c-31-9-42 10-38 44h38v23H63V0H32v-167H5v-23h27c-7-52 17-82 69-68v24" id="au"/><path fill="#3a414a" d="M24 0v-261h32V0H24" id="av"/><g id="a"><use transform="matrix(0.042763647181317865,0,0,0.042763647181317865,0,0)" xlink:href="#ap"/><use transform="matrix(0.042763647181317865,0,0,0.042763647181317865,10.263275323516288,0)" xlink:href="#aq"/><use transform="matrix(0.042763647181317865,0,0,0.042763647181317865,18.816004759779858,0)" xlink:href="#ar"/><use transform="matrix(0.042763647181317865,0,0,0.042763647181317865,26.513461252417073,0)" xlink:href="#ar"/><use transform="matrix(0.042763647181317865,0,0,0.042763647181317865,34.21091774505429,0)" xlink:href="#as"/><use transform="matrix(0.042763647181317865,0,0,0.042763647181317865,42.763647181317864,0)" xlink:href="#at"/><use transform="matrix(0.042763647181317865,0,0,0.042763647181317865,50.46110367395508,0)" xlink:href="#at"/><use transform="matrix(0.042763647181317865,0,0,0.042763647181317865,58.158560166592295,0)" xlink:href="#au"/><use transform="matrix(0.042763647181317865,0,0,0.042763647181317865,62.43492488472408,0)" xlink:href="#aq"/><use transform="matrix(0.042763647181317865,0,0,0.042763647181317865,70.98765432098766,0)" xlink:href="#av"/></g><path fill="#3a414a" d="M30 0v-248h33v221h125V0H30" id="aw"/><path fill="#3a414a" d="M100-194c62-1 85 37 85 99 1 63-27 99-86 99S16-35 15-95c0-66 28-99 85-99zM99-20c44 1 53-31 53-75 0-43-8-75-51-75s-53 32-53 75 10 74 51 75" id="ax"/><path fill="#3a414a" d="M177-190C167-65 218 103 67 71c-23-6-38-20-44-43l32-5c15 47 100 32 89-28v-30C133-14 115 1 83 1 29 1 15-40 15-95c0-56 16-97 71-98 29-1 48 16 59 35 1-10 0-23 2-32h30zM94-22c36 0 50-32 50-73 0-42-14-75-50-75-39 0-46 34-46 75s6 73 46 73" id="ay"/><path fill="#3a414a" d="M24-231v-30h32v30H24zM24 0v-190h32V0H24" id="az"/><path fill="#3a414a" d="M117-194c89-4 53 116 60 194h-32v-121c0-31-8-49-39-48C34-167 62-67 57 0H25l-1-190h30c1 10-1 24 2 32 11-22 29-35 61-36" id="aA"/><g id="b"><use transform="matrix(0.042763647181317865,0,0,0.042763647181317865,0,0)" xlink:href="#aw"/><use transform="matrix(0.042763647181317865,0,0,0.042763647181317865,8.552729436263572,0)" xlink:href="#ax"/><use transform="matrix(0.042763647181317865,0,0,0.042763647181317865,17.105458872527144,0)" xlink:href="#ay"/><use transform="matrix(0.042763647181317865,0,0,0.042763647181317865,25.658188308790713,0)" xlink:href="#az"/><use transform="matrix(0.042763647181317865,0,0,0.042763647181317865,29.036516436114827,0)" xlink:href="#aA"/></g><path fill="#3a414a" d="M30-248c118-7 216 8 213 122C240-48 200 0 122 0H30v-248zM63-27c89 8 146-16 146-99s-60-101-146-95v194" id="aB"/><path fill="#3a414a" d="M141-36C126-15 110 5 73 4 37 3 15-17 15-53c-1-64 63-63 125-63 3-35-9-54-41-54-24 1-41 7-42 31l-33-3c5-37 33-52 76-52 45 0 72 20 72 64v82c-1 20 7 32 28 27v20c-31 9-61-2-59-35zM48-53c0 20 12 33 32 33 41-3 63-29 60-74-43 2-92-5-92 41" id="aC"/><path fill="#3a414a" d="M106-169C34-169 62-67 57 0H25v-261h32l-1 103c12-21 28-36 61-36 89 0 53 116 60 194h-32v-121c2-32-8-49-39-48" id="aD"/><path fill="#3a414a" d="M115-194c53 0 69 39 70 98 0 66-23 100-70 100C84 3 66-7 56-30L54 0H23l1-261h32v101c10-23 28-34 59-34zm-8 174c40 0 45-34 45-75 0-40-5-75-45-74-42 0-51 32-51 76 0 43 10 73 51 73" id="aE"/><path fill="#3a414a" d="M114-163C36-179 61-72 57 0H25l-1-190h30c1 12-1 29 2 39 6-27 23-49 58-41v29" id="aF"/><path fill="#3a414a" d="M85-194c31 0 48 13 60 33l-1-100h32l1 261h-30c-2-10 0-23-3-31C134-8 116 4 85 4 32 4 16-35 15-94c0-66 23-100 70-100zm9 24c-40 0-46 34-46 75 0 40 6 74 45 74 42 0 51-32 51-76 0-42-9-74-50-73" id="aG"/><g id="c"><use transform="matrix(0.042763647181317865,0,0,0.042763647181317865,0,0)" xlink:href="#aB"/><use transform="matrix(0.042763647181317865,0,0,0.042763647181317865,11.075784619961327,0)" xlink:href="#aC"/><use transform="matrix(0.042763647181317865,0,0,0.042763647181317865,19.6285140562249,0)" xlink:href="#at"/><use transform="matrix(0.042763647181317865,0,0,0.042763647181317865,27.325970548862117,0)" xlink:href="#aD"/><use transform="matrix(0.042763647181317865,0,0,0.042763647181317865,35.87869998512569,0)" xlink:href="#aE"/><use transform="matrix(0.042763647181317865,0,0,0.042763647181317865,44.431429421389275,0)" xlink:href="#ax"/><use transform="matrix(0.042763647181317865,0,0,0.042763647181317865,52.984158857652844,0)" xlink:href="#aC"/><use transform="matrix(0.042763647181317865,0,0,0.042763647181317865,61.53688829391642,0)" xlink:href="#aF"/><use transform="matrix(0.042763647181317865,0,0,0.042763647181317865,66.62576230849325,0)" xlink:href="#aG"/></g><path fill="#3a414a" d="M205 0l-28-72H64L36 0H1l101-248h38L239 0h-34zm-38-99l-47-123c-12 45-31 82-46 123h93" id="aH"/><path fill="#3a414a" d="M108 0H70L1-190h34L89-25l56-165h34" id="aI"/><path fill="#3a414a" d="M59-47c-2 24 18 29 38 22v24C64 9 27 4 27-40v-127H5v-23h24l9-43h21v43h35v23H59v120" id="aJ"/><g id="d"><use transform="matrix(0.042763647181317865,0,0,0.042763647181317865,0,0)" xlink:href="#aH"/><use transform="matrix(0.042763647181317865,0,0,0.042763647181317865,10.263275323516288,0)" xlink:href="#aG"/><use transform="matrix(0.042763647181317865,0,0,0.042763647181317865,18.816004759779858,0)" xlink:href="#aI"/><use transform="matrix(0.042763647181317865,0,0,0.042763647181317865,26.513461252417073,0)" xlink:href="#as"/><use transform="matrix(0.042763647181317865,0,0,0.042763647181317865,35.06619068868065,0)" xlink:href="#aF"/><use transform="matrix(0.042763647181317865,0,0,0.042763647181317865,40.15506470325747,0)" xlink:href="#aJ"/><use transform="matrix(0.042763647181317865,0,0,0.042763647181317865,44.43142942138926,0)" xlink:href="#az"/><use transform="matrix(0.042763647181317865,0,0,0.042763647181317865,47.80975754871337,0)" xlink:href="#at"/><use transform="matrix(0.042763647181317865,0,0,0.042763647181317865,55.507214041350586,0)" xlink:href="#az"/><use transform="matrix(0.042763647181317865,0,0,0.042763647181317865,58.885542168674704,0)" xlink:href="#aA"/><use transform="matrix(0.042763647181317865,0,0,0.042763647181317865,67.43827160493827,0)" xlink:href="#ay"/></g><path fill="#3a414a" d="M140-251c81 0 123 46 123 126C263-46 219 4 140 4 59 4 17-45 17-125s42-126 123-126zm0 227c63 0 89-41 89-101s-29-99-89-99c-61 0-89 39-89 99S79-25 140-24" id="aK"/><path fill="#3a414a" d="M206 0h-36l-40-164L89 0H53L-1-190h32L70-26l43-164h34l41 164 42-164h31" id="aL"/><g id="e"><use transform="matrix(0.042763647181317865,0,0,0.042763647181317865,0,0)" xlink:href="#aK"/><use transform="matrix(0.042763647181317865,0,0,0.042763647181317865,11.973821210769003,0)" xlink:href="#aI"/><use transform="matrix(0.042763647181317865,0,0,0.042763647181317865,19.67127770340622,0)" xlink:href="#as"/><use transform="matrix(0.042763647181317865,0,0,0.042763647181317865,28.22400713966979,0)" xlink:href="#aF"/><use transform="matrix(0.042763647181317865,0,0,0.042763647181317865,33.31288115424662,0)" xlink:href="#aI"/><use transform="matrix(0.042763647181317865,0,0,0.042763647181317865,41.01033764688383,0)" xlink:href="#az"/><use transform="matrix(0.042763647181317865,0,0,0.042763647181317865,44.388665774207944,0)" xlink:href="#as"/><use transform="matrix(0.042763647181317865,0,0,0.042763647181317865,52.941395210471505,0)" xlink:href="#aL"/></g><path fill="#3a414a" d="M190 0L58-211 59 0H30v-248h39L202-35l-2-213h31V0h-41" id="aM"/><g id="f"><use transform="matrix(0.042763647181317865,0,0,0.042763647181317865,0,0)" xlink:href="#aM"/><use transform="matrix(0.042763647181317865,0,0,0.042763647181317865,11.075784619961327,0)" xlink:href="#as"/><use transform="matrix(0.042763647181317865,0,0,0.042763647181317865,19.6285140562249,0)" xlink:href="#aL"/></g><path fill="#3a414a" d="M137 0h-34L2-248h35l83 218 83-218h36" id="aN"/><g id="g"><use transform="matrix(0.042763647181317865,0,0,0.042763647181317865,0,0)" xlink:href="#aN"/><use transform="matrix(0.042763647181317865,0,0,0.042763647181317865,9.40800237988993,0)" xlink:href="#as"/><use transform="matrix(0.042763647181317865,0,0,0.042763647181317865,17.960731816153505,0)" xlink:href="#aD"/><use transform="matrix(0.042763647181317865,0,0,0.042763647181317865,26.513461252417077,0)" xlink:href="#az"/><use transform="matrix(0.042763647181317865,0,0,0.042763647181317865,29.891789379741187,0)" xlink:href="#ar"/><use transform="matrix(0.042763647181317865,0,0,0.042763647181317865,37.5892458723784,0)" xlink:href="#av"/><use transform="matrix(0.042763647181317865,0,0,0.042763647181317865,40.96757399970251,0)" xlink:href="#as"/></g><path fill="#3a414a" d="M115-194c55 1 70 41 70 98S169 2 115 4C84 4 66-9 55-30l1 105H24l-1-265h31l2 30c10-21 28-34 59-34zm-8 174c40 0 45-34 45-75s-6-73-45-74c-42 0-51 32-51 76 0 43 10 73 51 73" id="aO"/><g id="h"><use transform="matrix(0.042763647181317865,0,0,0.042763647181317865,0,0)" xlink:href="#ap"/><use transform="matrix(0.042763647181317865,0,0,0.042763647181317865,10.263275323516288,0)" xlink:href="#aO"/><use transform="matrix(0.042763647181317865,0,0,0.042763647181317865,18.816004759779858,0)" xlink:href="#as"/><use transform="matrix(0.042763647181317865,0,0,0.042763647181317865,27.36873419604343,0)" xlink:href="#ar"/><use transform="matrix(0.042763647181317865,0,0,0.042763647181317865,35.06619068868065,0)" xlink:href="#az"/><use transform="matrix(0.042763647181317865,0,0,0.042763647181317865,38.44451881600476,0)" xlink:href="#aC"/><use transform="matrix(0.042763647181317865,0,0,0.042763647181317865,46.997248252268335,0)" xlink:href="#av"/></g><path fill="#3a414a" d="M212-179c-10-28-35-45-73-45-59 0-87 40-87 99 0 60 29 101 89 101 43 0 62-24 78-52l27 14C228-24 195 4 139 4 59 4 22-46 18-125c-6-104 99-153 187-111 19 9 31 26 39 46" id="aP"/><g id="i"><use transform="matrix(0.042763647181317865,0,0,0.042763647181317865,0,0)" xlink:href="#aP"/><use transform="matrix(0.042763647181317865,0,0,0.042763647181317865,11.075784619961327,0)" xlink:href="#aF"/><use transform="matrix(0.042763647181317865,0,0,0.042763647181317865,16.164658634538153,0)" xlink:href="#as"/><use transform="matrix(0.042763647181317865,0,0,0.042763647181317865,24.717388070801725,0)" xlink:href="#aC"/><use transform="matrix(0.042763647181317865,0,0,0.042763647181317865,33.270117507065294,0)" xlink:href="#aJ"/><use transform="matrix(0.042763647181317865,0,0,0.042763647181317865,37.54648222519708,0)" xlink:href="#as"/></g><path fill="#3a414a" d="M103-251c84 0 111 97 45 133-19 10-37 24-39 52H78c0-63 77-55 77-114 0-30-21-42-52-43-32 0-53 17-56 46l-32-2c7-45 34-72 88-72zM77 0v-35h34V0H77" id="aQ"/><g id="j"><use transform="matrix(0.042763647181317865,0,0,0.042763647181317865,0,0)" xlink:href="#aM"/><use transform="matrix(0.042763647181317865,0,0,0.042763647181317865,11.075784619961327,0)" xlink:href="#aN"/><use transform="matrix(0.042763647181317865,0,0,0.042763647181317865,21.339059943477615,0)" xlink:href="#ap"/><use transform="matrix(0.042763647181317865,0,0,0.042763647181317865,31.6023352669939,0)" xlink:href="#aQ"/></g><path fill="#3a414a" d="M30 0v-248h187v28H63v79h144v27H63v87h162V0H30" id="aR"/><g id="k"><use transform="matrix(0.042763647181317865,0,0,0.042763647181317865,0,0)" xlink:href="#aR"/><use transform="matrix(0.042763647181317865,0,0,0.042763647181317865,10.263275323516288,0)" xlink:href="#aA"/><use transform="matrix(0.042763647181317865,0,0,0.042763647181317865,18.816004759779858,0)" xlink:href="#aJ"/><use transform="matrix(0.042763647181317865,0,0,0.042763647181317865,23.092369477911646,0)" xlink:href="#as"/><use transform="matrix(0.042763647181317865,0,0,0.042763647181317865,31.64509891417522,0)" xlink:href="#aF"/></g><g id="l"><use transform="matrix(0.042763647181317865,0,0,0.042763647181317865,0,0)" xlink:href="#aM"/><use transform="matrix(0.042763647181317865,0,0,0.042763647181317865,11.075784619961327,0)" xlink:href="#aN"/><use transform="matrix(0.042763647181317865,0,0,0.042763647181317865,21.339059943477615,0)" xlink:href="#ap"/></g><path fill="#3a414a" d="M210-169c-67 3-38 105-44 169h-31v-121c0-29-5-50-35-48C34-165 62-65 56 0H25l-1-190h30c1 10-1 24 2 32 10-44 99-50 107 0 11-21 27-35 58-36 85-2 47 119 55 194h-31v-121c0-29-5-49-35-48" id="aS"/><g id="m"><use transform="matrix(0.042763647181317865,0,0,0.042763647181317865,0,0)" xlink:href="#aM"/><use transform="matrix(0.042763647181317865,0,0,0.042763647181317865,11.075784619961327,0)" xlink:href="#aC"/><use transform="matrix(0.042763647181317865,0,0,0.042763647181317865,19.6285140562249,0)" xlink:href="#aS"/><use transform="matrix(0.042763647181317865,0,0,0.042763647181317865,32.41484456343894,0)" xlink:href="#as"/></g><path fill="#3a414a" d="M63-220v92h138v28H63V0H30v-248h175v28H63" id="aT"/><g id="n"><use transform="matrix(0.042763647181317865,0,0,0.042763647181317865,0,0)" xlink:href="#aT"/><use transform="matrix(0.042763647181317865,0,0,0.042763647181317865,9.365238732708612,0)" xlink:href="#aF"/><use transform="matrix(0.042763647181317865,0,0,0.042763647181317865,14.45411274728544,0)" xlink:href="#ax"/><use transform="matrix(0.042763647181317865,0,0,0.042763647181317865,23.00684218354901,0)" xlink:href="#aS"/></g><g id="o"><use transform="matrix(0.042763647181317865,0,0,0.042763647181317865,0,0)" xlink:href="#aP"/><use transform="matrix(0.042763647181317865,0,0,0.042763647181317865,11.075784619961327,0)" xlink:href="#aF"/><use transform="matrix(0.042763647181317865,0,0,0.042763647181317865,16.164658634538153,0)" xlink:href="#as"/><use transform="matrix(0.042763647181317865,0,0,0.042763647181317865,24.717388070801725,0)" xlink:href="#aC"/><use transform="matrix(0.042763647181317865,0,0,0.042763647181317865,33.270117507065294,0)" xlink:href="#aJ"/><use transform="matrix(0.042763647181317865,0,0,0.042763647181317865,37.54648222519708,0)" xlink:href="#as"/></g><path fill="#3a414a" d="M141 0L90-78 38 0H4l68-98-65-92h35l48 74 47-74h35l-64 92 68 98h-35" id="aU"/><g id="p"><use transform="matrix(0.042763647181317865,0,0,0.042763647181317865,0,0)" xlink:href="#aR"/><use transform="matrix(0.042763647181317865,0,0,0.042763647181317865,10.263275323516288,0)" xlink:href="#aU"/><use transform="matrix(0.042763647181317865,0,0,0.042763647181317865,17.960731816153505,0)" xlink:href="#az"/><use transform="matrix(0.042763647181317865,0,0,0.042763647181317865,21.339059943477615,0)" xlink:href="#at"/><use transform="matrix(0.042763647181317865,0,0,0.042763647181317865,29.03651643611483,0)" xlink:href="#aJ"/><use transform="matrix(0.042763647181317865,0,0,0.042763647181317865,33.31288115424662,0)" xlink:href="#az"/><use transform="matrix(0.042763647181317865,0,0,0.042763647181317865,36.69120928157073,0)" xlink:href="#aA"/><use transform="matrix(0.042763647181317865,0,0,0.042763647181317865,45.243938717834304,0)" xlink:href="#ay"/></g><path fill="#3a414a" d="M143 0L79-87 56-68V0H24v-261h32v163l83-92h37l-77 82L181 0h-38" id="aV"/><g id="q"><use transform="matrix(0.042763647181317865,0,0,0.042763647181317865,0,0)" xlink:href="#aP"/><use transform="matrix(0.042763647181317865,0,0,0.042763647181317865,11.075784619961327,0)" xlink:href="#av"/><use transform="matrix(0.042763647181317865,0,0,0.042763647181317865,14.45411274728544,0)" xlink:href="#az"/><use transform="matrix(0.042763647181317865,0,0,0.042763647181317865,17.83244087460955,0)" xlink:href="#ar"/><use transform="matrix(0.042763647181317865,0,0,0.042763647181317865,25.529897367246765,0)" xlink:href="#aV"/></g><g id="r"><use transform="matrix(0.042763647181317865,0,0,0.042763647181317865,0,0)" xlink:href="#aP"/><use transform="matrix(0.042763647181317865,0,0,0.042763647181317865,11.075784619961327,0)" xlink:href="#aF"/><use transform="matrix(0.042763647181317865,0,0,0.042763647181317865,16.164658634538153,0)" xlink:href="#as"/><use transform="matrix(0.042763647181317865,0,0,0.042763647181317865,24.717388070801725,0)" xlink:href="#aC"/><use transform="matrix(0.042763647181317865,0,0,0.042763647181317865,33.270117507065294,0)" xlink:href="#aJ"/><use transform="matrix(0.042763647181317865,0,0,0.042763647181317865,37.54648222519708,0)" xlink:href="#as"/></g><g id="s"><use transform="matrix(0.042763647181317865,0,0,0.042763647181317865,0,0)" xlink:href="#ap"/><use transform="matrix(0.042763647181317865,0,0,0.042763647181317865,10.263275323516288,0)" xlink:href="#aJ"/><use transform="matrix(0.042763647181317865,0,0,0.042763647181317865,14.539640041648074,0)" xlink:href="#as"/><use transform="matrix(0.042763647181317865,0,0,0.042763647181317865,23.092369477911646,0)" xlink:href="#aO"/></g><path fill="#3a414a" d="M27 0v-27h64v-190l-56 39v-29l58-41h29v221h61V0H27" id="aW"/><use transform="matrix(0.042763647181317865,0,0,0.042763647181317865,0,0)" xlink:href="#aW" id="t"/><g id="u"><use transform="matrix(0.042763647181317865,0,0,0.042763647181317865,0,0)" xlink:href="#aN"/><use transform="matrix(0.042763647181317865,0,0,0.042763647181317865,9.963929793247063,0)" xlink:href="#az"/><use transform="matrix(0.042763647181317865,0,0,0.042763647181317865,13.342257920571175,0)" xlink:href="#as"/><use transform="matrix(0.042763647181317865,0,0,0.042763647181317865,21.894987356834747,0)" xlink:href="#aL"/></g><g id="v"><use transform="matrix(0.042763647181317865,0,0,0.042763647181317865,0,0)" xlink:href="#aB"/><use transform="matrix(0.042763647181317865,0,0,0.042763647181317865,11.075784619961327,0)" xlink:href="#as"/><use transform="matrix(0.042763647181317865,0,0,0.042763647181317865,19.6285140562249,0)" xlink:href="#at"/><use transform="matrix(0.042763647181317865,0,0,0.042763647181317865,27.325970548862117,0)" xlink:href="#az"/><use transform="matrix(0.042763647181317865,0,0,0.042763647181317865,30.704298676186227,0)" xlink:href="#ay"/><use transform="matrix(0.042763647181317865,0,0,0.042763647181317865,39.2570281124498,0)" xlink:href="#aA"/></g><path fill="#3a414a" d="M127-220V0H93v-220H8v-28h204v28h-85" id="aX"/><g id="w"><use transform="matrix(0.042763647181317865,0,0,0.042763647181317865,0,0)" xlink:href="#aX"/><use transform="matrix(0.042763647181317865,0,0,0.042763647181317865,7.654692845455897,0)" xlink:href="#as"/><use transform="matrix(0.042763647181317865,0,0,0.042763647181317865,16.20742228171947,0)" xlink:href="#aS"/><use transform="matrix(0.042763647181317865,0,0,0.042763647181317865,28.993752788933513,0)" xlink:href="#aO"/><use transform="matrix(0.042763647181317865,0,0,0.042763647181317865,37.54648222519708,0)" xlink:href="#av"/><use transform="matrix(0.042763647181317865,0,0,0.042763647181317865,40.92481035252119,0)" xlink:href="#aC"/><use transform="matrix(0.042763647181317865,0,0,0.042763647181317865,49.47753978878477,0)" xlink:href="#aJ"/><use transform="matrix(0.042763647181317865,0,0,0.042763647181317865,53.753904506916555,0)" xlink:href="#as"/><use transform="matrix(0.042763647181317865,0,0,0.042763647181317865,62.30663394318013,0)" xlink:href="#aQ"/></g><g id="x"><use transform="matrix(0.042763647181317865,0,0,0.042763647181317865,0,0)" xlink:href="#ap"/><use transform="matrix(0.042763647181317865,0,0,0.042763647181317865,10.263275323516288,0)" xlink:href="#as"/><use transform="matrix(0.042763647181317865,0,0,0.042763647181317865,18.816004759779858,0)" xlink:href="#av"/><use transform="matrix(0.042763647181317865,0,0,0.042763647181317865,22.19433288710397,0)" xlink:href="#as"/><use transform="matrix(0.042763647181317865,0,0,0.042763647181317865,30.74706232336754,0)" xlink:href="#ar"/><use transform="matrix(0.042763647181317865,0,0,0.042763647181317865,38.44451881600476,0)" xlink:href="#aJ"/></g><g id="y"><use transform="matrix(0.042763647181317865,0,0,0.042763647181317865,0,0)" xlink:href="#aR"/><use transform="matrix(0.042763647181317865,0,0,0.042763647181317865,10.263275323516288,0)" xlink:href="#aA"/><use transform="matrix(0.042763647181317865,0,0,0.042763647181317865,18.816004759779858,0)" xlink:href="#av"/><use transform="matrix(0.042763647181317865,0,0,0.042763647181317865,22.19433288710397,0)" xlink:href="#aC"/><use transform="matrix(0.042763647181317865,0,0,0.042763647181317865,30.74706232336754,0)" xlink:href="#aF"/><use transform="matrix(0.042763647181317865,0,0,0.042763647181317865,35.83593633794437,0)" xlink:href="#ay"/><use transform="matrix(0.042763647181317865,0,0,0.042763647181317865,44.38866577420794,0)" xlink:href="#as"/></g><g id="z"><use transform="matrix(0.042763647181317865,0,0,0.042763647181317865,0,0)" xlink:href="#aB"/><use transform="matrix(0.042763647181317865,0,0,0.042763647181317865,11.075784619961327,0)" xlink:href="#as"/><use transform="matrix(0.042763647181317865,0,0,0.042763647181317865,19.6285140562249,0)" xlink:href="#at"/><use transform="matrix(0.042763647181317865,0,0,0.042763647181317865,27.325970548862117,0)" xlink:href="#az"/><use transform="matrix(0.042763647181317865,0,0,0.042763647181317865,30.704298676186227,0)" xlink:href="#ay"/><use transform="matrix(0.042763647181317865,0,0,0.042763647181317865,39.2570281124498,0)" xlink:href="#aA"/></g><g id="A"><use transform="matrix(0.042763647181317865,0,0,0.042763647181317865,0,0)" xlink:href="#aX"/><use transform="matrix(0.042763647181317865,0,0,0.042763647181317865,7.654692845455897,0)" xlink:href="#as"/><use transform="matrix(0.042763647181317865,0,0,0.042763647181317865,16.20742228171947,0)" xlink:href="#aS"/><use transform="matrix(0.042763647181317865,0,0,0.042763647181317865,28.993752788933513,0)" xlink:href="#aO"/><use transform="matrix(0.042763647181317865,0,0,0.042763647181317865,37.54648222519708,0)" xlink:href="#av"/><use transform="matrix(0.042763647181317865,0,0,0.042763647181317865,40.92481035252119,0)" xlink:href="#aC"/><use transform="matrix(0.042763647181317865,0,0,0.042763647181317865,49.47753978878477,0)" xlink:href="#aJ"/><use transform="matrix(0.042763647181317865,0,0,0.042763647181317865,53.753904506916555,0)" xlink:href="#as"/></g><g id="B"><use transform="matrix(0.042763647181317865,0,0,0.042763647181317865,0,0)" xlink:href="#az"/><use transform="matrix(0.042763647181317865,0,0,0.042763647181317865,3.3783281273241115,0)" xlink:href="#aA"/></g><path fill="#3a414a" d="M30-248c87 1 191-15 191 75 0 78-77 80-158 76V0H30v-248zm33 125c57 0 124 11 124-50 0-59-68-47-124-48v98" id="aY"/><path fill="#3a414a" d="M16-82v-28h88v28H16" id="aZ"/><g id="C"><use transform="matrix(0.042763647181317865,0,0,0.042763647181317865,0,0)" xlink:href="#aY"/><use transform="matrix(0.042763647181317865,0,0,0.042763647181317865,10.263275323516288,0)" xlink:href="#ax"/><use transform="matrix(0.042763647181317865,0,0,0.042763647181317865,18.816004759779858,0)" xlink:href="#aO"/><use transform="matrix(0.042763647181317865,0,0,0.042763647181317865,27.36873419604343,0)" xlink:href="#aZ"/><use transform="matrix(0.042763647181317865,0,0,0.042763647181317865,32.45760821062026,0)" xlink:href="#aq"/><use transform="matrix(0.042763647181317865,0,0,0.042763647181317865,41.010337646883826,0)" xlink:href="#aO"/></g><g id="D"><use transform="matrix(0.042763647181317865,0,0,0.042763647181317865,0,0)" xlink:href="#aL"/><use transform="matrix(0.042763647181317865,0,0,0.042763647181317865,11.075784619961327,0)" xlink:href="#az"/><use transform="matrix(0.042763647181317865,0,0,0.042763647181317865,14.45411274728544,0)" xlink:href="#aA"/><use transform="matrix(0.042763647181317865,0,0,0.042763647181317865,23.00684218354901,0)" xlink:href="#aG"/><use transform="matrix(0.042763647181317865,0,0,0.042763647181317865,31.559571619812584,0)" xlink:href="#ax"/><use transform="matrix(0.042763647181317865,0,0,0.042763647181317865,40.112301056076156,0)" xlink:href="#aL"/></g><path fill="#3a414a" d="M197 0v-115H63V0H30v-248h33v105h134v-105h34V0h-34" id="ba"/><g id="E"><use transform="matrix(0.042763647181317865,0,0,0.042763647181317865,0,0)" xlink:href="#ba"/><use transform="matrix(0.042763647181317865,0,0,0.042763647181317865,11.075784619961327,0)" xlink:href="#az"/><use transform="matrix(0.042763647181317865,0,0,0.042763647181317865,14.45411274728544,0)" xlink:href="#ay"/><use transform="matrix(0.042763647181317865,0,0,0.042763647181317865,23.00684218354901,0)" xlink:href="#aD"/><use transform="matrix(0.042763647181317865,0,0,0.042763647181317865,31.559571619812584,0)" xlink:href="#av"/><use transform="matrix(0.042763647181317865,0,0,0.042763647181317865,34.9378997471367,0)" xlink:href="#az"/><use transform="matrix(0.042763647181317865,0,0,0.042763647181317865,38.31622787446081,0)" xlink:href="#ay"/><use transform="matrix(0.042763647181317865,0,0,0.042763647181317865,46.86895731072438,0)" xlink:href="#aD"/><use transform="matrix(0.042763647181317865,0,0,0.042763647181317865,55.421686746987966,0)" xlink:href="#aJ"/></g><g id="F"><use transform="matrix(0.042763647181317865,0,0,0.042763647181317865,0,0)" xlink:href="#ap"/><use transform="matrix(0.042763647181317865,0,0,0.042763647181317865,10.263275323516288,0)" xlink:href="#as"/><use transform="matrix(0.042763647181317865,0,0,0.042763647181317865,18.816004759779858,0)" xlink:href="#av"/><use transform="matrix(0.042763647181317865,0,0,0.042763647181317865,22.19433288710397,0)" xlink:href="#as"/><use transform="matrix(0.042763647181317865,0,0,0.042763647181317865,30.74706232336754,0)" xlink:href="#ar"/><use transform="matrix(0.042763647181317865,0,0,0.042763647181317865,38.44451881600476,0)" xlink:href="#aJ"/><use transform="matrix(0.042763647181317865,0,0,0.042763647181317865,42.72088353413655,0)" xlink:href="#as"/><use transform="matrix(0.042763647181317865,0,0,0.042763647181317865,51.27361297040012,0)" xlink:href="#aG"/></g><g id="G"><use transform="matrix(0.042763647181317865,0,0,0.042763647181317865,0,0)" xlink:href="#aB"/><use transform="matrix(0.042763647181317865,0,0,0.042763647181317865,11.075784619961327,0)" xlink:href="#as"/><use transform="matrix(0.042763647181317865,0,0,0.042763647181317865,19.6285140562249,0)" xlink:href="#at"/><use transform="matrix(0.042763647181317865,0,0,0.042763647181317865,27.325970548862117,0)" xlink:href="#az"/><use transform="matrix(0.042763647181317865,0,0,0.042763647181317865,30.704298676186227,0)" xlink:href="#ay"/><use transform="matrix(0.042763647181317865,0,0,0.042763647181317865,39.2570281124498,0)" xlink:href="#aA"/></g><g id="H"><use transform="matrix(0.042763647181317865,0,0,0.042763647181317865,0,0)" xlink:href="#aX"/><use transform="matrix(0.042763647181317865,0,0,0.042763647181317865,7.654692845455897,0)" xlink:href="#as"/><use transform="matrix(0.042763647181317865,0,0,0.042763647181317865,16.20742228171947,0)" xlink:href="#aS"/><use transform="matrix(0.042763647181317865,0,0,0.042763647181317865,28.993752788933513,0)" xlink:href="#aO"/><use transform="matrix(0.042763647181317865,0,0,0.042763647181317865,37.54648222519708,0)" xlink:href="#av"/><use transform="matrix(0.042763647181317865,0,0,0.042763647181317865,40.92481035252119,0)" xlink:href="#aC"/><use transform="matrix(0.042763647181317865,0,0,0.042763647181317865,49.47753978878477,0)" xlink:href="#aJ"/><use transform="matrix(0.042763647181317865,0,0,0.042763647181317865,53.753904506916555,0)" xlink:href="#as"/></g><g id="I"><use transform="matrix(0.042763647181317865,0,0,0.042763647181317865,0,0)" xlink:href="#aM"/><use transform="matrix(0.042763647181317865,0,0,0.042763647181317865,11.075784619961327,0)" xlink:href="#as"/><use transform="matrix(0.042763647181317865,0,0,0.042763647181317865,19.6285140562249,0)" xlink:href="#aU"/><use transform="matrix(0.042763647181317865,0,0,0.042763647181317865,27.325970548862117,0)" xlink:href="#aJ"/></g><g id="J"><use transform="matrix(0.042763647181317865,0,0,0.042763647181317865,0,0)" xlink:href="#aK"/><use transform="matrix(0.042763647181317865,0,0,0.042763647181317865,11.973821210769003,0)" xlink:href="#au"/><use transform="matrix(0.042763647181317865,0,0,0.042763647181317865,15.950840398631565,0)" xlink:href="#au"/><use transform="matrix(0.042763647181317865,0,0,0.042763647181317865,20.22720511676335,0)" xlink:href="#as"/><use transform="matrix(0.042763647181317865,0,0,0.042763647181317865,28.779934553026923,0)" xlink:href="#aF"/></g><g id="K"><use transform="matrix(0.042763647181317865,0,0,0.042763647181317865,0,0)" xlink:href="#aY"/><use transform="matrix(0.042763647181317865,0,0,0.042763647181317865,10.263275323516288,0)" xlink:href="#aq"/><use transform="matrix(0.042763647181317865,0,0,0.042763647181317865,18.816004759779858,0)" xlink:href="#aF"/><use transform="matrix(0.042763647181317865,0,0,0.042763647181317865,23.904878774356682,0)" xlink:href="#ar"/><use transform="matrix(0.042763647181317865,0,0,0.042763647181317865,31.602335266993897,0)" xlink:href="#aD"/><use transform="matrix(0.042763647181317865,0,0,0.042763647181317865,40.155064703257466,0)" xlink:href="#aC"/><use transform="matrix(0.042763647181317865,0,0,0.042763647181317865,48.70779413952104,0)" xlink:href="#at"/><use transform="matrix(0.042763647181317865,0,0,0.042763647181317865,56.40525063215826,0)" xlink:href="#as"/></g><path fill="#3a414a" d="M179-190L93 31C79 59 56 82 12 73V49c39 6 53-20 64-50L1-190h34L92-34l54-156h33" id="bb"/><g id="L"><use transform="matrix(0.042763647181317865,0,0,0.042763647181317865,0,0)" xlink:href="#aK"/><use transform="matrix(0.042763647181317865,0,0,0.042763647181317865,11.973821210769003,0)" xlink:href="#aA"/><use transform="matrix(0.042763647181317865,0,0,0.042763647181317865,20.526550647032575,0)" xlink:href="#av"/><use transform="matrix(0.042763647181317865,0,0,0.042763647181317865,23.904878774356686,0)" xlink:href="#bb"/><use transform="matrix(0.042763647181317865,0,0,0.042763647181317865,31.6023352669939,0)" xlink:href="#aQ"/></g><g id="M"><use transform="matrix(0.042763647181317865,0,0,0.042763647181317865,0,0)" xlink:href="#aB"/><use transform="matrix(0.042763647181317865,0,0,0.042763647181317865,11.075784619961327,0)" xlink:href="#as"/><use transform="matrix(0.042763647181317865,0,0,0.042763647181317865,19.6285140562249,0)" xlink:href="#at"/><use transform="matrix(0.042763647181317865,0,0,0.042763647181317865,27.325970548862117,0)" xlink:href="#ar"/><use transform="matrix(0.042763647181317865,0,0,0.042763647181317865,35.02342704149933,0)" xlink:href="#aF"/><use transform="matrix(0.042763647181317865,0,0,0.042763647181317865,40.112301056076156,0)" xlink:href="#az"/><use transform="matrix(0.042763647181317865,0,0,0.042763647181317865,43.490629183400266,0)" xlink:href="#aO"/><use transform="matrix(0.042763647181317865,0,0,0.042763647181317865,52.043358619663834,0)" xlink:href="#aJ"/><use transform="matrix(0.042763647181317865,0,0,0.042763647181317865,56.31972333779562,0)" xlink:href="#az"/><use transform="matrix(0.042763647181317865,0,0,0.042763647181317865,59.69805146511973,0)" xlink:href="#ax"/><use transform="matrix(0.042763647181317865,0,0,0.042763647181317865,68.25078090138331,0)" xlink:href="#aA"/></g><g id="N"><use transform="matrix(0.042763647181317865,0,0,0.042763647181317865,0,0)" xlink:href="#aY"/><use transform="matrix(0.042763647181317865,0,0,0.042763647181317865,10.263275323516288,0)" xlink:href="#aq"/><use transform="matrix(0.042763647181317865,0,0,0.042763647181317865,18.816004759779858,0)" xlink:href="#aF"/><use transform="matrix(0.042763647181317865,0,0,0.042763647181317865,23.904878774356682,0)" xlink:href="#ar"/><use transform="matrix(0.042763647181317865,0,0,0.042763647181317865,31.602335266993897,0)" xlink:href="#aD"/><use transform="matrix(0.042763647181317865,0,0,0.042763647181317865,40.155064703257466,0)" xlink:href="#aC"/><use transform="matrix(0.042763647181317865,0,0,0.042763647181317865,48.70779413952104,0)" xlink:href="#at"/><use transform="matrix(0.042763647181317865,0,0,0.042763647181317865,56.40525063215826,0)" xlink:href="#as"/></g><g id="O"><use transform="matrix(0.042763647181317865,0,0,0.042763647181317865,0,0)" xlink:href="#aY"/><use transform="matrix(0.042763647181317865,0,0,0.042763647181317865,10.263275323516288,0)" xlink:href="#aF"/><use transform="matrix(0.042763647181317865,0,0,0.042763647181317865,15.352149338093113,0)" xlink:href="#az"/><use transform="matrix(0.042763647181317865,0,0,0.042763647181317865,18.730477465417223,0)" xlink:href="#ar"/><use transform="matrix(0.042763647181317865,0,0,0.042763647181317865,26.427933958054442,0)" xlink:href="#as"/></g><g id="P"><use transform="matrix(0.042763647181317865,0,0,0.042763647181317865,0,0)" xlink:href="#ap"/><use transform="matrix(0.042763647181317865,0,0,0.042763647181317865,10.263275323516288,0)" xlink:href="#as"/><use transform="matrix(0.042763647181317865,0,0,0.042763647181317865,18.816004759779858,0)" xlink:href="#as"/></g><g id="Q"><use transform="matrix(0.042763647181317865,0,0,0.042763647181317865,0,0)" xlink:href="#ay"/><use transform="matrix(0.042763647181317865,0,0,0.042763647181317865,8.552729436263572,0)" xlink:href="#as"/><use transform="matrix(0.042763647181317865,0,0,0.042763647181317865,17.105458872527144,0)" xlink:href="#aA"/><use transform="matrix(0.042763647181317865,0,0,0.042763647181317865,25.658188308790713,0)" xlink:href="#as"/><use transform="matrix(0.042763647181317865,0,0,0.042763647181317865,34.21091774505429,0)" xlink:href="#aF"/><use transform="matrix(0.042763647181317865,0,0,0.042763647181317865,39.29979175963111,0)" xlink:href="#az"/><use transform="matrix(0.042763647181317865,0,0,0.042763647181317865,42.67811988695522,0)" xlink:href="#ar"/></g><g id="R"><use transform="matrix(0.042763647181317865,0,0,0.042763647181317865,0,0)" xlink:href="#aG"/><use transform="matrix(0.042763647181317865,0,0,0.042763647181317865,8.552729436263572,0)" xlink:href="#az"/><use transform="matrix(0.042763647181317865,0,0,0.042763647181317865,11.931057563587684,0)" xlink:href="#at"/><use transform="matrix(0.042763647181317865,0,0,0.042763647181317865,19.6285140562249,0)" xlink:href="#ar"/><use transform="matrix(0.042763647181317865,0,0,0.042763647181317865,27.325970548862117,0)" xlink:href="#av"/><use transform="matrix(0.042763647181317865,0,0,0.042763647181317865,30.704298676186227,0)" xlink:href="#aC"/><use transform="matrix(0.042763647181317865,0,0,0.042763647181317865,39.2570281124498,0)" xlink:href="#az"/><use transform="matrix(0.042763647181317865,0,0,0.042763647181317865,42.63535623977391,0)" xlink:href="#aS"/><use transform="matrix(0.042763647181317865,0,0,0.042763647181317865,55.42168674698795,0)" xlink:href="#as"/><use transform="matrix(0.042763647181317865,0,0,0.042763647181317865,63.97441618325152,0)" xlink:href="#aF"/></g><g id="S"><use transform="matrix(0.042763647181317865,0,0,0.042763647181317865,0,0)" xlink:href="#aJ"/><use transform="matrix(0.042763647181317865,0,0,0.042763647181317865,4.276364718131786,0)" xlink:href="#as"/><use transform="matrix(0.042763647181317865,0,0,0.042763647181317865,12.829094154395356,0)" xlink:href="#aS"/><use transform="matrix(0.042763647181317865,0,0,0.042763647181317865,25.615424661609403,0)" xlink:href="#aO"/></g><g id="T"><use transform="matrix(0.042763647181317865,0,0,0.042763647181317865,0,0)" xlink:href="#av"/><use transform="matrix(0.042763647181317865,0,0,0.042763647181317865,3.3783281273241115,0)" xlink:href="#az"/><use transform="matrix(0.042763647181317865,0,0,0.042763647181317865,6.756656254648223,0)" xlink:href="#aA"/><use transform="matrix(0.042763647181317865,0,0,0.042763647181317865,15.309385690911796,0)" xlink:href="#aV"/></g><path fill="#3a414a" d="M143 4C61 4 22-44 18-125c-5-107 100-154 193-111 17 8 29 25 37 43l-32 9c-13-25-37-40-76-40-61 0-88 39-88 99 0 61 29 100 91 101 35 0 62-11 79-27v-45h-74v-28h105v86C228-13 192 4 143 4" id="bc"/><g id="U"><use transform="matrix(0.042763647181317865,0,0,0.042763647181317865,0,0)" xlink:href="#bc"/><use transform="matrix(0.042763647181317865,0,0,0.042763647181317865,11.973821210769003,0)" xlink:href="#as"/><use transform="matrix(0.042763647181317865,0,0,0.042763647181317865,20.526550647032575,0)" xlink:href="#aA"/><use transform="matrix(0.042763647181317865,0,0,0.042763647181317865,29.079280083296148,0)" xlink:href="#as"/><use transform="matrix(0.042763647181317865,0,0,0.042763647181317865,37.632009519559716,0)" xlink:href="#aF"/><use transform="matrix(0.042763647181317865,0,0,0.042763647181317865,42.72088353413654,0)" xlink:href="#az"/><use transform="matrix(0.042763647181317865,0,0,0.042763647181317865,46.09921166146065,0)" xlink:href="#ar"/></g><g id="V"><use transform="matrix(0.042763647181317865,0,0,0.042763647181317865,0,0)" xlink:href="#aB"/><use transform="matrix(0.042763647181317865,0,0,0.042763647181317865,11.075784619961327,0)" xlink:href="#az"/><use transform="matrix(0.042763647181317865,0,0,0.042763647181317865,14.45411274728544,0)" xlink:href="#at"/><use transform="matrix(0.042763647181317865,0,0,0.042763647181317865,22.151569239922654,0)" xlink:href="#ar"/><use transform="matrix(0.042763647181317865,0,0,0.042763647181317865,29.84902573255987,0)" xlink:href="#av"/><use transform="matrix(0.042763647181317865,0,0,0.042763647181317865,33.22735385988398,0)" xlink:href="#aC"/><use transform="matrix(0.042763647181317865,0,0,0.042763647181317865,41.78008329614755,0)" xlink:href="#az"/><use transform="matrix(0.042763647181317865,0,0,0.042763647181317865,45.15841142347166,0)" xlink:href="#aS"/><use transform="matrix(0.042763647181317865,0,0,0.042763647181317865,57.944741930685694,0)" xlink:href="#as"/><use transform="matrix(0.042763647181317865,0,0,0.042763647181317865,66.49747136694927,0)" xlink:href="#aF"/></g><g id="W"><use transform="matrix(0.042763647181317865,0,0,0.042763647181317865,0,0)" xlink:href="#aK"/><use transform="matrix(0.042763647181317865,0,0,0.042763647181317865,11.973821210769003,0)" xlink:href="#au"/><use transform="matrix(0.042763647181317865,0,0,0.042763647181317865,15.950840398631565,0)" xlink:href="#au"/><use transform="matrix(0.042763647181317865,0,0,0.042763647181317865,20.22720511676335,0)" xlink:href="#aZ"/><use transform="matrix(0.042763647181317865,0,0,0.042763647181317865,25.316079131340175,0)" xlink:href="#aY"/><use transform="matrix(0.042763647181317865,0,0,0.042763647181317865,35.579354454856464,0)" xlink:href="#aC"/><use transform="matrix(0.042763647181317865,0,0,0.042763647181317865,44.13208389112004,0)" xlink:href="#ay"/><use transform="matrix(0.042763647181317865,0,0,0.042763647181317865,52.68481332738361,0)" xlink:href="#as"/></g><g id="X"><use transform="matrix(0.042763647181317865,0,0,0.042763647181317865,0,0)" xlink:href="#aw"/><use transform="matrix(0.042763647181317865,0,0,0.042763647181317865,8.552729436263572,0)" xlink:href="#az"/><use transform="matrix(0.042763647181317865,0,0,0.042763647181317865,11.931057563587684,0)" xlink:href="#aA"/><use transform="matrix(0.042763647181317865,0,0,0.042763647181317865,20.483786999851255,0)" xlink:href="#aV"/></g><path fill="#333" d="M146-102V0H94v-102L6-248h54l60 105 60-105h54" id="bd"/><path fill="#333" d="M185-48c-13 30-37 53-82 52C43 2 14-33 14-96s30-98 90-98c62 0 83 45 84 108H66c0 31 8 55 39 56 18 0 30-7 34-22zm-45-69c5-46-57-63-70-21-2 6-4 13-4 21h74" id="be"/><path fill="#333" d="M137-138c1-29-70-34-71-4 15 46 118 7 119 86 1 83-164 76-172 9l43-7c4 19 20 25 44 25 33 8 57-30 24-41C81-84 22-81 20-136c-2-80 154-74 161-7" id="bf"/><g id="Y"><use transform="matrix(0.030417968168972187,0,0,0.030417968168972187,0,0)" xlink:href="#bd"/><use transform="matrix(0.030417968168972187,0,0,0.030417968168972187,6.691952997173881,0)" xlink:href="#be"/><use transform="matrix(0.030417968168972187,0,0,0.030417968168972187,12.775546630968318,0)" xlink:href="#bf"/></g><path fill="#3a414a" d="M240 0l2-218c-23 76-54 145-80 218h-23L58-218 59 0H30v-248h44l77 211c21-75 51-140 76-211h43V0h-30" id="bg"/><g id="Z"><use transform="matrix(0.042763647181317865,0,0,0.042763647181317865,0,0)" xlink:href="#bg"/><use transform="matrix(0.042763647181317865,0,0,0.042763647181317865,12.786330507214041,0)" xlink:href="#aC"/><use transform="matrix(0.042763647181317865,0,0,0.042763647181317865,21.339059943477615,0)" xlink:href="#aA"/><use transform="matrix(0.042763647181317865,0,0,0.042763647181317865,29.891789379741187,0)" xlink:href="#aC"/><use transform="matrix(0.042763647181317865,0,0,0.042763647181317865,38.44451881600476,0)" xlink:href="#ay"/><use transform="matrix(0.042763647181317865,0,0,0.042763647181317865,46.997248252268335,0)" xlink:href="#as"/></g><path fill="#333" d="M175 0L67-191c6 58 2 128 3 191H24v-248h59L193-55c-6-58-2-129-3-193h46V0h-61" id="bh"/><path fill="#333" d="M110-194c64 0 96 36 96 99 0 64-35 99-97 99-61 0-95-36-95-99 0-62 34-99 96-99zm-1 164c35 0 45-28 45-65 0-40-10-65-43-65-34 0-45 26-45 65 0 36 10 65 43 65" id="bi"/><g id="aa"><use transform="matrix(0.030417968168972187,0,0,0.030417968168972187,0,0)" xlink:href="#bh"/><use transform="matrix(0.030417968168972187,0,0,0.030417968168972187,7.878253755763796,0)" xlink:href="#bi"/></g><g id="ab"><use transform="matrix(0.042763647181317865,0,0,0.042763647181317865,0,0)" xlink:href="#aM"/><use transform="matrix(0.042763647181317865,0,0,0.042763647181317865,11.075784619961327,0)" xlink:href="#aN"/><use transform="matrix(0.042763647181317865,0,0,0.042763647181317865,21.339059943477615,0)" xlink:href="#ap"/></g><g id="ac"><use transform="matrix(0.042763647181317865,0,0,0.042763647181317865,0,0)" xlink:href="#aw"/><use transform="matrix(0.042763647181317865,0,0,0.042763647181317865,8.552729436263572,0)" xlink:href="#az"/><use transform="matrix(0.042763647181317865,0,0,0.042763647181317865,11.931057563587684,0)" xlink:href="#at"/><use transform="matrix(0.042763647181317865,0,0,0.042763647181317865,19.6285140562249,0)" xlink:href="#aJ"/></g><path fill="#3a414a" d="M266 0h-40l-56-210L115 0H75L2-248h35L96-30l15-64 43-154h32l59 218 59-218h35" id="bj"/><path fill="#3a414a" d="M101-251c82-7 93 87 43 132L82-64C71-53 59-42 53-27h129V0H18c2-99 128-94 128-182 0-28-16-43-45-43s-46 15-49 41l-32-3c6-41 34-60 81-64" id="bk"/><g id="ad"><use transform="matrix(0.042763647181317865,0,0,0.042763647181317865,0,0)" xlink:href="#bj"/><use transform="matrix(0.042763647181317865,0,0,0.042763647181317865,14.496876394466756,0)" xlink:href="#aT"/><use transform="matrix(0.042763647181317865,0,0,0.042763647181317865,23.862115127175368,0)" xlink:href="#bk"/></g><g id="ae"><use transform="matrix(0.042763647181317865,0,0,0.042763647181317865,0,0)" xlink:href="#aB"/><use transform="matrix(0.042763647181317865,0,0,0.042763647181317865,11.075784619961327,0)" xlink:href="#as"/><use transform="matrix(0.042763647181317865,0,0,0.042763647181317865,19.6285140562249,0)" xlink:href="#aC"/><use transform="matrix(0.042763647181317865,0,0,0.042763647181317865,28.181243492488473,0)" xlink:href="#av"/><use transform="matrix(0.042763647181317865,0,0,0.042763647181317865,31.559571619812584,0)" xlink:href="#as"/><use transform="matrix(0.042763647181317865,0,0,0.042763647181317865,40.112301056076156,0)" xlink:href="#aF"/><use transform="matrix(0.042763647181317865,0,0,0.042763647181317865,45.20117507065299,0)" xlink:href="#at"/><use transform="matrix(0.042763647181317865,0,0,0.042763647181317865,52.8986315632902,0)" xlink:href="#aD"/><use transform="matrix(0.042763647181317865,0,0,0.042763647181317865,61.45136099955377,0)" xlink:href="#az"/><use transform="matrix(0.042763647181317865,0,0,0.042763647181317865,64.82968912687788,0)" xlink:href="#aO"/></g><g id="af"><use transform="matrix(0.042763647181317865,0,0,0.042763647181317865,0,0)" xlink:href="#aK"/><use transform="matrix(0.042763647181317865,0,0,0.042763647181317865,11.973821210769003,0)" xlink:href="#au"/><use transform="matrix(0.042763647181317865,0,0,0.042763647181317865,15.950840398631565,0)" xlink:href="#au"/><use transform="matrix(0.042763647181317865,0,0,0.042763647181317865,20.22720511676335,0)" xlink:href="#as"/><use transform="matrix(0.042763647181317865,0,0,0.042763647181317865,28.779934553026923,0)" xlink:href="#aF"/><use transform="matrix(0.042763647181317865,0,0,0.042763647181317865,33.86880856760375,0)" xlink:href="#at"/></g><path fill="#3a414a" d="M126-127c33 6 58 20 58 59 0 88-139 92-164 29-3-8-5-16-6-25l32-3c6 27 21 44 54 44 32 0 52-15 52-46 0-38-36-46-79-43v-28c39 1 72-4 72-42 0-27-17-43-46-43-28 0-47 15-49 41l-32-3c6-42 35-63 81-64 48-1 79 21 79 65 0 36-21 52-52 59" id="bl"/><path fill="#3a414a" d="M33 0v-38h34V0H33" id="bm"/><g id="ag"><use transform="matrix(0.042763647181317865,0,0,0.042763647181317865,0,0)" xlink:href="#bl"/><use transform="matrix(0.042763647181317865,0,0,0.042763647181317865,8.552729436263572,0)" xlink:href="#bm"/><use transform="matrix(0.042763647181317865,0,0,0.042763647181317865,12.829094154395356,0)" xlink:href="#bl"/></g><path fill="#3a414a" d="M234-2c-28 10-62 0-77-18C117 19 8 12 13-65c3-43 29-61 60-76-25-40-17-114 47-108 35 3 59 15 59 50 0 44-40 53-71 69 14 26 32 50 51 72 14-21 24-43 30-72l26 8c-9 33-21 57-38 82 13 13 33 22 57 15v23zM97-151c25-10 52-18 56-48-1-18-13-29-33-29-42 0-39 50-23 77zM42-66c-3 51 71 58 98 28-20-24-41-51-56-80-23 10-40 24-42 52" id="bn"/><use transform="matrix(0.042763647181317865,0,0,0.042763647181317865,0,0)" xlink:href="#bn" id="ah"/><path fill="#3a414a" d="M155-56V0h-30v-56H8v-25l114-167h33v167h35v25h-35zm-30-156c-27 46-58 90-88 131h88v-131" id="bo"/><g id="ai"><use transform="matrix(0.042763647181317865,0,0,0.042763647181317865,0,0)" xlink:href="#bl"/><use transform="matrix(0.042763647181317865,0,0,0.042763647181317865,8.552729436263572,0)" xlink:href="#bm"/><use transform="matrix(0.042763647181317865,0,0,0.042763647181317865,12.829094154395356,0)" xlink:href="#bo"/></g><g id="aj"><use transform="matrix(0.042763647181317865,0,0,0.042763647181317865,0,0)" xlink:href="#bg"/><use transform="matrix(0.042763647181317865,0,0,0.042763647181317865,12.786330507214041,0)" xlink:href="#ax"/><use transform="matrix(0.042763647181317865,0,0,0.042763647181317865,21.339059943477615,0)" xlink:href="#aA"/><use transform="matrix(0.042763647181317865,0,0,0.042763647181317865,29.891789379741187,0)" xlink:href="#aJ"/><use transform="matrix(0.042763647181317865,0,0,0.042763647181317865,34.16815409787297,0)" xlink:href="#aD"/><use transform="matrix(0.042763647181317865,0,0,0.042763647181317865,42.72088353413655,0)" xlink:href="#av"/><use transform="matrix(0.042763647181317865,0,0,0.042763647181317865,46.09921166146066,0)" xlink:href="#bb"/></g><g id="ak"><use transform="matrix(0.042763647181317865,0,0,0.042763647181317865,0,0)" xlink:href="#aw"/><use transform="matrix(0.042763647181317865,0,0,0.042763647181317865,8.552729436263572,0)" xlink:href="#as"/><use transform="matrix(0.042763647181317865,0,0,0.042763647181317865,17.105458872527144,0)" xlink:href="#aC"/><use transform="matrix(0.042763647181317865,0,0,0.042763647181317865,25.658188308790713,0)" xlink:href="#at"/><use transform="matrix(0.042763647181317865,0,0,0.042763647181317865,33.35564480142793,0)" xlink:href="#as"/></g><g id="al"><use transform="matrix(0.042763647181317865,0,0,0.042763647181317865,0,0)" xlink:href="#aw"/><use transform="matrix(0.042763647181317865,0,0,0.042763647181317865,8.552729436263572,0)" xlink:href="#as"/><use transform="matrix(0.042763647181317865,0,0,0.042763647181317865,17.105458872527144,0)" xlink:href="#aC"/><use transform="matrix(0.042763647181317865,0,0,0.042763647181317865,25.658188308790713,0)" xlink:href="#at"/><use transform="matrix(0.042763647181317865,0,0,0.042763647181317865,33.35564480142793,0)" xlink:href="#as"/></g><g id="am"><use transform="matrix(0.042763647181317865,0,0,0.042763647181317865,0,0)" xlink:href="#aw"/><use transform="matrix(0.042763647181317865,0,0,0.042763647181317865,8.552729436263572,0)" xlink:href="#as"/><use transform="matrix(0.042763647181317865,0,0,0.042763647181317865,17.105458872527144,0)" xlink:href="#aA"/><use transform="matrix(0.042763647181317865,0,0,0.042763647181317865,25.658188308790713,0)" xlink:href="#ay"/><use transform="matrix(0.042763647181317865,0,0,0.042763647181317865,34.21091774505429,0)" xlink:href="#aJ"/><use transform="matrix(0.042763647181317865,0,0,0.042763647181317865,38.48728246318608,0)" xlink:href="#aD"/></g><path fill="#3a414a" d="M232-93c-1 65-40 97-104 97C67 4 28-28 28-90v-158h33c8 89-33 224 67 224 102 0 64-133 71-224h33v155" id="bp"/><g id="an"><use transform="matrix(0.042763647181317865,0,0,0.042763647181317865,0,0)" xlink:href="#bp"/><use transform="matrix(0.042763647181317865,0,0,0.042763647181317865,11.075784619961327,0)" xlink:href="#at"/><use transform="matrix(0.042763647181317865,0,0,0.042763647181317865,18.77324111259854,0)" xlink:href="#as"/></g><g id="ao"><use transform="matrix(0.042763647181317865,0,0,0.042763647181317865,0,0)" xlink:href="#aB"/><use transform="matrix(0.042763647181317865,0,0,0.042763647181317865,11.075784619961327,0)" xlink:href="#az"/><use transform="matrix(0.042763647181317865,0,0,0.042763647181317865,14.45411274728544,0)" xlink:href="#at"/><use transform="matrix(0.042763647181317865,0,0,0.042763647181317865,22.151569239922654,0)" xlink:href="#ar"/><use transform="matrix(0.042763647181317865,0,0,0.042763647181317865,29.84902573255987,0)" xlink:href="#av"/><use transform="matrix(0.042763647181317865,0,0,0.042763647181317865,33.22735385988398,0)" xlink:href="#aC"/><use transform="matrix(0.042763647181317865,0,0,0.042763647181317865,41.78008329614755,0)" xlink:href="#az"/><use transform="matrix(0.042763647181317865,0,0,0.042763647181317865,45.15841142347166,0)" xlink:href="#aS"/><use transform="matrix(0.042763647181317865,0,0,0.042763647181317865,57.944741930685694,0)" xlink:href="#as"/><use transform="matrix(0.042763647181317865,0,0,0.042763647181317865,66.49747136694927,0)" xlink:href="#aF"/></g></defs></g></svg>