<svg width="1156" height="496" viewBox="0 0 1156 496" fill="none" xmlns="http://www.w3.org/2000/svg">
<g id="hancock-horizontal">
<path id="top" d="M168.246 0.0270981V0L168.207 0.0150546L168.171 0V0.0270981L0 56.5145V161.541L168.207 110.747L336.42 161.541V56.5145L168.246 0.0270981Z" fill="black"/>
<path id="h-symbol" d="M231.318 279.182H105.023V167.385L0 199.258V496H105.023V384.205H231.318V496H336.344V199.258L231.318 167.385V279.182Z" fill="black"/>
<path id="letter-1" d="M465.193 282.497H515.005V234.934H543.843V359.835H515.005V306.84H465.193V359.835H436.354V234.934H465.193V282.497Z" fill="black"/>
<path id="letter-2" d="M597.783 303.721C594.974 306.53 591.602 311.399 591.602 318.89C591.602 326.378 594.788 331.25 597.223 333.869C600.966 337.801 606.774 340.424 613.139 340.424C618.568 340.424 623.626 338.178 627.185 334.619C630.741 331.25 633.739 326.005 633.739 318.89C633.739 312.895 631.49 307.28 627.558 303.534C623.439 299.602 617.444 297.729 612.576 297.729C606.774 297.729 601.342 300.162 597.783 303.721ZM632.053 277.319H659.019V360.835H632.053V350.724C624.749 361.958 614.262 363.644 607.334 363.644C595.351 363.644 585.237 360.648 576.06 350.911C567.259 341.547 563.887 330.687 563.887 319.64C563.887 305.594 569.135 293.611 576.809 285.933C584.114 278.628 594.227 274.509 605.834 274.509C612.949 274.509 624.373 276.193 632.053 286.682V277.319Z" fill="black"/>
<path id="letter-3" d="M680.002 277.319H706.964V287.243C715.205 276.756 724.943 275.069 732.807 275.069C740.111 275.069 749.662 276.382 756.777 283.497C764.641 291.361 765.204 301.285 765.204 308.027V360.835H738.239V317.954C738.239 312.522 738.052 305.594 733.743 301.285C731.684 299.229 728.315 297.543 723.446 297.543C717.825 297.543 714.269 299.789 712.209 302.035C707.714 306.53 706.964 312.522 706.964 317.954V360.835H680.002V277.319Z" fill="black"/>
<path id="letter-4" d="M848.916 303.721C842.364 298.292 835.62 297.356 831.314 297.356C822.887 297.356 817.832 301.472 815.959 303.348C812.4 306.904 809.778 312.335 809.778 319.077C809.778 325.255 812.024 330.5 815.399 334.056C819.518 338.551 825.696 340.797 831.691 340.797C836.37 340.797 842.738 339.488 848.916 334.246V358.589C841.801 362.521 835.06 363.644 827.569 363.644C813.523 363.644 802.852 358.589 795.175 351.098C788.807 344.919 782.059 334.432 782.059 319.263C782.059 305.031 788.054 293.797 795.921 286.306C805.285 277.505 816.332 274.509 827.756 274.509C835.06 274.509 841.801 275.819 848.916 279.191V303.721Z" fill="black"/>
<path id="letter-5" d="M896.678 303.348C892.743 307.28 890.497 312.335 890.497 319.077C890.497 326.754 893.493 331.623 896.678 334.806C900.047 338.178 904.916 340.797 912.031 340.797C918.025 340.797 923.081 338.738 927.013 334.806C930.948 330.873 933.194 325.818 933.194 319.077C933.194 312.335 930.948 307.28 927.013 303.348C923.081 299.416 918.025 297.356 911.847 297.356C905.666 297.356 900.607 299.416 896.678 303.348ZM948.363 350.161C940.869 357.652 928.136 363.644 911.847 363.644C895.555 363.644 882.819 357.652 875.328 350.161C866.9 341.737 862.781 329.75 862.781 319.077C862.781 308.403 866.9 296.42 875.328 287.992C882.819 280.501 895.555 274.509 911.847 274.509C928.136 274.509 940.869 280.501 948.363 287.992C956.788 296.42 960.91 308.403 960.91 319.077C960.91 329.75 956.788 341.737 948.363 350.161Z" fill="black"/>
<path id="letter-6" d="M1040.5 303.721C1033.95 298.292 1027.21 297.356 1022.9 297.356C1014.47 297.356 1009.42 301.472 1007.55 303.348C1003.99 306.904 1001.36 312.335 1001.36 319.077C1001.36 325.255 1003.61 330.5 1006.98 334.056C1011.1 338.551 1017.28 340.797 1023.28 340.797C1027.96 340.797 1034.32 339.488 1040.5 334.246V358.589C1033.39 362.521 1026.65 363.644 1019.15 363.644C1005.11 363.644 994.436 358.589 986.761 351.098C980.39 344.919 973.649 334.432 973.649 319.263C973.649 305.031 979.64 293.797 987.508 286.306C996.872 277.505 1007.92 274.509 1019.34 274.509C1026.65 274.509 1033.39 275.819 1040.5 279.191V303.721Z" fill="black"/>
<path id="letter-7" d="M1086.2 224.324V308.027L1116.54 277.319H1151.93L1112.23 315.142L1154.74 360.835H1118.41L1086.2 324.882V360.835H1059.24V224.324H1086.2Z" fill="black"/>
<path id="letter-8" d="M485.088 433.373V444.956C479.428 440.217 473.569 437.851 467.514 437.851C460.842 437.851 455.223 440.247 450.653 445.041C446.055 449.807 443.758 455.636 443.758 462.531C443.758 469.341 446.055 475.089 450.653 479.771C455.247 484.453 460.884 486.793 467.556 486.793C471.003 486.793 473.93 486.233 476.342 485.11C477.688 484.55 479.082 483.794 480.527 482.839C481.969 481.888 483.49 480.738 485.088 479.392V491.228C479.482 494.41 473.596 496 467.43 496C458.15 496 450.231 492.763 443.674 486.287C437.143 479.756 433.876 471.88 433.876 462.657C433.876 454.389 436.61 447.016 442.075 440.539C448.804 432.609 457.506 428.643 468.185 428.643C474.017 428.643 479.651 430.218 485.088 433.373Z" fill="black"/>
<path id="letter-9" d="M505.102 423.808H495.642V494.823H505.102V423.808Z" fill="black"/>
<path id="letter-10" d="M524.823 474.219C524.823 478.145 525.871 481.34 527.976 483.809C530.132 486.302 532.853 487.548 536.132 487.548C539.637 487.548 542.467 486.344 544.626 483.935C546.785 481.439 547.863 478.272 547.863 474.43C547.863 470.591 546.785 467.424 544.626 464.927C542.467 462.489 539.664 461.269 536.217 461.269C532.965 461.269 530.246 462.504 528.06 464.97C525.901 467.466 524.823 470.549 524.823 474.219ZM547.276 453.871H556.778V494.823H547.276V490.535C543.379 494.178 539.185 496 534.702 496C529.039 496 524.357 493.956 520.659 489.861C516.986 485.685 515.152 480.473 515.152 474.219C515.152 468.08 516.986 462.967 520.659 458.873C524.333 454.781 528.927 452.733 534.449 452.733C539.215 452.733 543.491 454.697 547.276 458.62V453.871Z" fill="black"/>
<path id="letter-11" d="M578.176 453.871V494.823H568.719V453.871H578.176ZM567.286 436.842C567.286 435.189 567.888 433.759 569.095 432.551C570.3 431.347 571.745 430.745 573.425 430.745C575.138 430.745 576.593 431.347 577.797 432.551C579.004 433.729 579.607 435.174 579.607 436.884C579.607 438.591 579.004 440.051 577.797 441.256C576.623 442.463 575.178 443.062 573.467 443.062C571.76 443.062 570.3 442.463 569.095 441.256C567.888 440.051 567.286 438.579 567.286 436.842Z" fill="black"/>
<path id="letter-12" d="M590.163 453.871H599.623V457.656C601.445 455.747 603.001 454.459 604.287 453.784C605.66 453.086 607.388 452.733 609.46 452.733C614.084 452.733 617.743 454.754 620.437 458.788C623.406 454.754 627.429 452.733 632.502 452.733C641.724 452.733 646.334 458.328 646.334 469.513V494.823H636.835V472.075C636.835 468.152 636.356 465.376 635.401 463.75C634.423 462.097 632.809 461.269 630.569 461.269C627.962 461.269 626.062 462.251 624.869 464.214C623.68 466.177 623.084 469.329 623.084 473.674V494.823H613.582V472.202C613.582 464.915 611.48 461.269 607.277 461.269C604.612 461.269 602.67 462.266 601.451 464.256C600.231 466.246 599.623 469.387 599.623 473.674V494.823H590.163V453.871Z" fill="black"/>
<path id="letter-13" d="M682.073 460.851L674.257 465.012C673.02 462.519 671.493 461.269 669.671 461.269C668.801 461.269 668.061 461.555 667.443 462.13C666.826 462.705 666.516 463.44 666.516 464.334C666.516 465.903 668.341 467.457 671.984 468.998C677.003 471.154 680.378 473.141 682.119 474.963C683.856 476.781 684.723 479.232 684.723 482.309C684.723 486.26 683.266 489.563 680.351 492.221C677.521 494.741 674.1 496 670.093 496C663.225 496 658.36 492.652 655.502 485.95L663.574 482.21C664.697 484.173 665.55 485.42 666.14 485.95C667.287 487.015 668.663 487.548 670.259 487.548C673.456 487.548 675.052 486.091 675.052 483.177C675.052 481.493 673.82 479.925 671.355 478.468C670.4 477.992 669.446 477.528 668.497 477.08C667.54 476.631 666.573 476.167 665.595 475.691C662.846 474.346 660.913 473.003 659.79 471.654C658.36 469.947 657.646 467.746 657.646 465.054C657.646 461.495 658.865 458.55 661.304 456.223C663.8 453.899 666.826 452.733 670.385 452.733C675.63 452.733 679.526 455.44 682.073 460.851Z" fill="black"/>
<path id="letter-14" d="M769.576 433.373V444.956C763.913 440.217 758.056 437.851 751.998 437.851C745.326 437.851 739.708 440.247 735.137 445.041C730.54 449.807 728.242 455.636 728.242 462.531C728.242 469.341 730.54 475.089 735.137 479.771C739.735 484.453 745.371 486.793 752.044 486.793C755.488 486.793 758.418 486.233 760.829 485.11C762.175 484.55 763.569 483.794 765.012 482.839C766.457 481.888 767.977 480.738 769.576 479.392V491.228C763.967 494.41 758.08 496 751.917 496C742.638 496 734.719 492.763 728.158 486.287C721.628 479.756 718.361 471.88 718.361 462.657C718.361 454.389 721.095 447.016 726.562 440.539C733.289 432.609 741.993 428.643 752.673 428.643C758.502 428.643 764.135 430.218 769.576 433.373Z" fill="black"/>
<path id="letter-15" d="M787.867 474.219C787.867 478.314 788.96 481.551 791.146 483.935C793.389 486.344 796.343 487.548 800.016 487.548C803.72 487.548 806.676 486.359 808.889 483.974C811.105 481.593 812.213 478.413 812.213 474.43C812.213 470.453 811.105 467.27 808.889 464.885C806.646 462.477 803.69 461.269 800.016 461.269C796.403 461.269 793.471 462.477 791.23 464.885C788.987 467.297 787.867 470.407 787.867 474.219ZM778.193 474.054C778.193 468.137 780.307 463.106 784.543 458.957C788.777 454.811 793.937 452.733 800.016 452.733C806.128 452.733 811.313 454.823 815.577 458.999C819.783 463.175 821.881 468.306 821.881 474.388C821.881 480.527 819.768 485.673 815.531 489.822C811.271 493.941 806.044 496 799.848 496C793.711 496 788.563 493.898 784.417 489.695C780.268 485.546 778.193 480.331 778.193 474.054Z" fill="black"/>
<path id="letter-16" d="M831.89 453.871H841.389V457.656C844.698 454.374 848.425 452.733 852.574 452.733C857.341 452.733 861.056 454.236 863.718 457.235C866.015 459.785 867.165 463.946 867.165 469.721V494.823H857.663V471.979C857.663 467.947 857.103 465.162 855.98 463.621C854.89 462.055 852.9 461.269 850.012 461.269C846.872 461.269 844.641 462.305 843.325 464.377C842.036 466.421 841.389 469.992 841.389 475.086V494.823H831.89V453.871Z" fill="black"/>
<path id="letter-17" d="M902.905 460.851L895.085 465.012C893.851 462.519 892.321 461.269 890.503 461.269C889.633 461.269 888.892 461.555 888.275 462.13C887.657 462.705 887.347 463.44 887.347 464.334C887.347 465.903 889.172 467.457 892.812 468.998C897.831 471.154 901.209 473.141 902.95 474.963C904.687 476.781 905.554 479.232 905.554 482.309C905.554 486.26 904.097 489.563 901.182 492.221C898.349 494.741 894.932 496 890.924 496C884.053 496 879.191 492.652 876.333 485.95L884.403 482.21C885.529 484.173 886.381 485.42 886.971 485.95C888.118 487.015 889.494 487.548 891.09 487.548C894.287 487.548 895.883 486.091 895.883 483.177C895.883 481.493 894.652 479.925 892.183 478.468C891.231 477.992 890.277 477.528 889.325 477.08C888.371 476.631 887.404 476.167 886.423 475.691C883.674 474.346 881.744 473.003 880.621 471.654C879.191 469.947 878.477 467.746 878.477 465.054C878.477 461.495 879.697 458.55 882.135 456.223C884.631 453.899 887.657 452.733 891.216 452.733C896.458 452.733 900.354 455.44 902.905 460.851Z" fill="black"/>
<path id="letter-18" d="M923.508 453.871V477.375C923.508 484.158 926.182 487.548 931.538 487.548C936.892 487.548 939.571 484.158 939.571 477.375V453.871H949.028V477.585C949.028 480.864 948.625 483.694 947.812 486.076C947.023 488.208 945.665 490.129 943.732 491.839C940.538 494.612 936.47 496 931.538 496C926.633 496 922.584 494.612 919.389 491.839C917.423 490.129 916.035 488.208 915.225 486.076C914.439 484.173 914.048 481.34 914.048 477.585V453.871H923.508Z" fill="black"/>
<path id="letter-19" d="M970.433 423.808H960.973V494.823H970.433V423.808Z" fill="black"/>
<path id="letter-20" d="M992.169 462.699V494.823H982.711V462.699H978.674V453.871H982.711V438.859H992.169V453.871H999.53V462.699H992.169Z" fill="black"/>
<path id="letter-21" d="M1014.46 474.219C1014.46 478.145 1015.5 481.34 1017.61 483.809C1019.77 486.302 1022.49 487.548 1025.76 487.548C1029.27 487.548 1032.1 486.344 1034.26 483.935C1036.42 481.439 1037.49 478.272 1037.49 474.43C1037.49 470.591 1036.42 467.424 1034.26 464.927C1032.1 462.489 1029.3 461.269 1025.85 461.269C1022.6 461.269 1019.88 462.504 1017.69 464.97C1015.53 467.466 1014.46 470.549 1014.46 474.219ZM1036.91 453.871H1046.41V494.823H1036.91V490.535C1033.01 494.178 1028.82 496 1024.33 496C1018.67 496 1013.99 493.956 1010.29 489.861C1006.62 485.685 1004.78 480.473 1004.78 474.219C1004.78 468.08 1006.62 462.967 1010.29 458.873C1013.96 454.781 1018.56 452.733 1024.08 452.733C1028.85 452.733 1033.12 454.697 1036.91 458.62V453.871Z" fill="black"/>
<path id="letter-22" d="M1058.35 453.871H1067.85V457.656C1071.16 454.374 1074.89 452.733 1079.04 452.733C1083.8 452.733 1087.51 454.236 1090.18 457.235C1092.48 459.785 1093.63 463.946 1093.63 469.721V494.823H1084.12V471.979C1084.12 467.947 1083.56 465.162 1082.44 463.621C1081.35 462.055 1079.36 461.269 1076.47 461.269C1073.33 461.269 1071.1 462.305 1069.79 464.377C1068.5 466.421 1067.85 469.992 1067.85 475.086V494.823H1058.35V453.871Z" fill="black"/>
<path id="letter-23" d="M1115.32 462.699V494.823H1105.86V462.699H1101.83V453.871H1105.86V438.859H1115.32V453.871H1122.68V462.699H1115.32Z" fill="black"/>
<path id="letter-24" d="M1152.91 460.851L1145.1 465.012C1143.86 462.519 1142.33 461.269 1140.51 461.269C1139.64 461.269 1138.9 461.555 1138.28 462.13C1137.66 462.705 1137.35 463.44 1137.35 464.334C1137.35 465.903 1139.18 467.457 1142.82 468.998C1147.84 471.154 1151.22 473.141 1152.96 474.963C1154.69 476.781 1155.56 479.232 1155.56 482.309C1155.56 486.26 1154.1 489.563 1151.19 492.221C1148.36 494.741 1144.94 496 1140.93 496C1134.06 496 1129.2 492.652 1126.34 485.95L1134.41 482.21C1135.54 484.173 1136.39 485.42 1136.98 485.95C1138.12 487.015 1139.5 487.548 1141.1 487.548C1144.29 487.548 1145.89 486.091 1145.89 483.177C1145.89 481.493 1144.66 479.925 1142.19 478.468C1141.24 477.992 1140.28 477.528 1139.33 477.08C1138.38 476.631 1137.41 476.167 1136.43 475.691C1133.68 474.346 1131.75 473.003 1130.63 471.654C1129.2 469.947 1128.48 467.746 1128.48 465.054C1128.48 461.495 1129.7 458.55 1132.14 456.223C1134.64 453.899 1137.66 452.733 1141.22 452.733C1146.47 452.733 1150.36 455.44 1152.91 460.851Z" fill="black"/>
<path id="divider-line" d="M1154.41 393.608H433.756V398.883H1154.41V393.608Z" fill="black"/>
</g>
</svg>
