<svg width="424" height="496" viewBox="0 0 424 496" fill="none" xmlns="http://www.w3.org/2000/svg">
<g id="hancock">
<mask id="mask0_2361_67" style="mask-type:luminance" maskUnits="userSpaceOnUse" x="0" y="0" width="424" height="496">
<g id="mask">
<path id="background" d="M424 0H0V496H424V0Z" fill="white"/>
</g>
</mask>
<g mask="url(#mask0_2361_67)">
<g id="shapes">
<path id="top" d="M210.951 0.0322266H210.927H210.903L112.117 33.0784V94.5018L210.927 64.789L309.736 94.5018V33.0625L210.951 0.0322266Z" fill="black"/>
<path id="h-symbol" d="M248 162.325H173.813V96.9349L112.121 115.583V289.171H173.813V223.781H248V289.171H309.692V115.571L248 96.9229V162.325Z" fill="black"/>
<path id="letter-1" d="M19.4648 371.678H48.7272V343.852H65.6664V416.92H48.7272V385.921H19.4648V416.92H2.52539V343.852H19.4648V371.678Z" fill="black"/>
<path id="letter-2" d="M117.481 368.062H133.32V416.921H117.481V411.005C115.944 413.429 113.792 415.405 111.243 416.737C108.693 418.065 105.836 418.701 102.96 418.581C99.536 418.765 96.114 418.193 92.938 416.905C89.7624 415.617 86.912 413.645 84.5912 411.133C79.8848 406.209 77.316 399.633 77.4408 392.835C77.2744 385.521 80.0072 378.436 85.0476 373.114C87.3 370.927 89.968 369.209 92.8952 368.061C95.8224 366.914 98.95 366.36 102.095 366.431C105.043 366.3 107.979 366.875 110.656 368.11C113.334 369.344 115.674 371.201 117.481 373.525V368.062ZM97.3508 383.509C96.1768 384.668 95.25 386.051 94.6268 387.576C94.0036 389.1 93.6964 390.734 93.7236 392.38C93.6504 395.618 94.832 398.759 97.0224 401.153C98.2448 402.381 99.7016 403.353 101.307 404.013C102.913 404.669 104.635 405.001 106.371 404.989C109.464 404.985 112.429 403.761 114.622 401.593C117.048 399.195 118.431 395.945 118.472 392.543C118.514 389.141 117.21 385.859 114.843 383.405C112.425 381.234 109.29 380.025 106.035 380.008C102.796 380.004 99.682 381.254 97.3508 383.493V383.509Z" fill="black"/>
<path id="letter-3" d="M145.646 368.066H161.485V373.872C163.24 371.54 165.54 369.672 168.187 368.431C170.833 367.19 173.745 366.613 176.667 366.75C179.263 366.47 181.89 366.78 184.35 367.655C186.809 368.53 189.038 369.948 190.868 371.804C192.699 373.659 194.084 375.902 194.92 378.367C195.757 380.831 196.022 383.452 195.696 386.032V416.924H179.858V391.85C180.271 388.383 179.326 384.891 177.219 382.101C176.408 381.354 175.455 380.774 174.416 380.398C173.378 380.021 172.274 379.855 171.17 379.908C169.944 379.853 168.722 380.06 167.583 380.514C166.445 380.967 165.417 381.658 164.568 382.54C163.45 383.804 162.601 385.281 162.071 386.881C161.542 388.481 161.342 390.171 161.485 391.85V416.936H145.646V368.066Z" fill="black"/>
<path id="letter-4" d="M244.872 383.492C241.979 381.066 238.313 379.745 234.531 379.768C232.869 379.732 231.217 380.023 229.669 380.625C228.121 381.226 226.708 382.126 225.51 383.273C224.327 384.493 223.397 385.935 222.775 387.514C222.152 389.093 221.849 390.779 221.883 392.475C221.815 395.712 222.996 398.852 225.182 401.248C226.422 402.52 227.911 403.528 229.556 404.204C231.202 404.884 232.97 405.22 234.751 405.192C238.479 405.168 242.073 403.808 244.872 401.356V415.596C241.031 417.688 236.697 418.72 232.321 418.58C228.818 418.676 225.331 418.08 222.064 416.816C218.796 415.556 215.814 413.66 213.291 411.24C210.803 408.82 208.837 405.92 207.513 402.716C206.189 399.515 205.533 396.078 205.588 392.615C205.511 389.11 206.156 385.627 207.483 382.38C208.811 379.133 210.793 376.192 213.307 373.738C215.821 371.284 218.813 369.369 222.099 368.113C225.385 366.856 228.895 366.283 232.413 366.431C236.713 366.381 240.966 367.318 244.844 369.17L244.872 383.492Z" fill="black"/>
<path id="letter-5" d="M303.29 410.676C297.312 415.768 289.705 418.564 281.839 418.564C273.973 418.564 266.366 415.768 260.388 410.676C255.66 405.792 253.018 399.275 253.018 392.492C253.018 385.708 255.66 379.189 260.388 374.306C266.366 369.215 273.973 366.418 281.839 366.418C289.705 366.418 297.312 369.215 303.29 374.306C308.018 379.189 310.66 385.708 310.66 392.492C310.66 399.275 308.018 405.792 303.29 410.676ZM272.931 383.289C270.597 385.79 269.3 389.078 269.3 392.492C269.3 395.906 270.597 399.194 272.931 401.692C274.114 402.86 275.525 403.772 277.076 404.376C278.628 404.98 280.287 405.26 281.951 405.2C283.581 405.24 285.203 404.952 286.717 404.348C288.231 403.748 289.606 402.844 290.759 401.692C293.093 399.194 294.39 395.906 294.39 392.492C294.39 389.078 293.093 385.79 290.759 383.289C288.344 381.037 285.158 379.783 281.849 379.783C278.54 379.783 275.354 381.037 272.939 383.289H272.931Z" fill="black"/>
<path id="letter-6" d="M357.415 382.493C354.522 380.066 350.855 378.746 347.073 378.769C345.412 378.732 343.76 379.023 342.212 379.625C340.664 380.226 339.251 381.126 338.053 382.273C336.869 383.493 335.939 384.935 335.316 386.514C334.693 388.093 334.389 389.779 334.422 391.476C334.355 394.713 335.537 397.853 337.725 400.249C338.965 401.521 340.453 402.529 342.099 403.205C343.745 403.885 345.513 404.221 347.293 404.193C351.02 404.169 354.613 402.809 357.411 400.357V414.597C353.571 416.681 349.241 417.701 344.871 417.557C341.369 417.653 337.882 417.057 334.615 415.793C331.347 414.533 328.365 412.637 325.842 410.217C323.355 407.797 321.388 404.897 320.064 401.693C318.739 398.492 318.085 395.054 318.139 391.591C318.061 388.087 318.707 384.603 320.034 381.356C321.361 378.109 323.343 375.168 325.857 372.714C328.371 370.26 331.364 368.346 334.65 367.089C337.936 365.832 341.447 365.26 344.963 365.407C349.257 365.359 353.503 366.297 357.375 368.147L357.415 382.493Z" fill="black"/>
<path id="letter-7" d="M384.254 337.061V386.032L402.076 368.065H422.864L399.544 390.195L424.516 416.908H403.172L384.251 395.876V416.908H368.412V337.061H384.254Z" fill="black"/>
<path id="letter-8" d="M31.1597 459.34V466.12C28.3305 463.544 24.6654 462.072 20.8344 461.964C18.9787 461.928 17.1366 462.288 15.4293 463.012C13.7221 463.736 12.1884 464.812 10.9294 466.172C9.60389 467.524 8.56265 469.124 7.86689 470.88C7.17109 472.636 6.83477 474.516 6.87769 476.404C6.83513 478.268 7.17217 480.124 7.86845 481.856C8.56477 483.588 9.60601 485.165 10.9294 486.489C12.209 487.817 13.7521 488.872 15.4612 489.576C17.1703 490.284 19.0081 490.633 20.8584 490.593C22.6298 490.645 24.3909 490.308 26.019 489.612C26.8787 489.248 27.7017 488.804 28.4773 488.284C29.4098 487.664 30.3054 486.992 31.1597 486.268V493.192C28.0085 495.016 24.4304 495.981 20.7863 495.985C18.1948 496.029 15.6215 495.548 13.2224 494.568C10.8233 493.592 8.64845 492.14 6.82969 490.304C4.97346 488.512 3.50533 486.361 2.51584 483.985C1.52634 481.609 1.03649 479.053 1.07648 476.481C1.04162 471.729 2.75003 467.125 5.88081 463.541C7.73613 461.293 10.0824 459.496 12.7406 458.292C15.3988 457.084 18.2986 456.5 21.2187 456.58C24.721 456.596 28.1544 457.552 31.1597 459.34Z" fill="black"/>
<path id="letter-9" d="M42.9105 453.744V495.288H37.3574V453.744H42.9105Z" fill="black"/>
<path id="letter-10" d="M67.6813 471.352H73.2625V495.312H67.6813V492.804C66.6553 493.848 65.4237 494.672 64.0637 495.22C62.7037 495.768 61.2441 496.032 59.7769 495.996C58.3097 495.96 56.8661 495.62 55.5361 495.004C54.2061 494.384 53.0185 493.5 52.0473 492.404C49.8553 489.864 48.7005 486.6 48.8121 483.252C48.7029 479.96 49.8597 476.748 52.0473 474.272C53.0497 473.12 54.2953 472.2 55.6949 471.58C57.0949 470.96 58.6149 470.652 60.1465 470.684C61.5745 470.704 62.9821 471.02 64.2801 471.612C65.5777 472.208 66.7365 473.064 67.6813 474.128V471.352ZM54.4933 483.256C54.4041 485.288 55.0633 487.284 56.3473 488.868C56.9301 489.568 57.6653 490.132 58.4973 490.508C59.3293 490.888 60.2369 491.076 61.1513 491.056C62.0841 491.088 63.0121 490.912 63.8701 490.548C64.7277 490.18 65.4945 489.632 66.1161 488.94C67.3485 487.344 68.0165 485.392 68.0165 483.38C68.0165 481.368 67.3485 479.416 66.1161 477.82C65.5033 477.124 64.7421 476.568 63.8877 476.196C63.0333 475.828 62.1069 475.652 61.1757 475.68C60.2637 475.664 59.3593 475.848 58.5281 476.224C57.6973 476.6 56.9605 477.152 56.3713 477.844C55.0997 479.356 54.4349 481.284 54.5053 483.252L54.4933 483.256Z" fill="black"/>
<path id="letter-11" d="M79.4339 461.376C79.4455 460.428 79.8295 459.524 80.5031 458.856C81.1771 458.188 82.0871 457.812 83.0371 457.808C83.5147 457.8 83.9887 457.888 84.4303 458.072C84.8715 458.252 85.2707 458.52 85.6035 458.864C85.9471 459.188 86.2187 459.58 86.4015 460.016C86.5839 460.452 86.6735 460.924 86.6647 461.396C86.6723 461.872 86.5823 462.344 86.3999 462.784C86.2175 463.224 85.9463 463.624 85.6035 463.956C85.2759 464.296 84.8807 464.568 84.4423 464.748C84.0039 464.932 83.5319 465.02 83.0571 465.012C82.5783 465.012 82.1039 464.916 81.6615 464.736C81.2191 464.552 80.8175 464.284 80.4799 463.944C80.1423 463.608 79.8751 463.204 79.6943 462.764C79.5135 462.32 79.4223 461.848 79.4259 461.372L79.4339 461.376ZM85.8399 471.344V495.304H80.2627V471.344H85.8399Z" fill="black"/>
<path id="letter-12" d="M92.875 471.353H98.4322V473.565C99.2242 472.673 100.149 471.909 101.175 471.301C102.125 470.861 103.166 470.649 104.213 470.685C105.505 470.661 106.781 470.977 107.913 471.597C109.045 472.217 109.994 473.125 110.663 474.225C111.457 473.097 112.521 472.181 113.759 471.561C114.997 470.945 116.369 470.645 117.753 470.685C123.169 470.685 125.877 473.957 125.877 480.501V495.313H120.296V482.001C120.417 480.333 120.129 478.665 119.455 477.133C119.163 476.653 118.743 476.265 118.242 476.009C117.741 475.753 117.178 475.637 116.617 475.681C115.954 475.637 115.291 475.773 114.701 476.077C114.111 476.381 113.615 476.841 113.269 477.405C112.449 479.129 112.087 481.033 112.221 482.937V495.301H106.635V482.065C106.635 477.813 105.401 475.685 102.932 475.685C102.256 475.637 101.579 475.777 100.976 476.085C100.372 476.389 99.865 476.857 99.509 477.433C98.6742 479.145 98.3042 481.045 98.4362 482.941V495.305H92.879L92.875 471.353Z" fill="black"/>
<path id="letter-13" d="M146.864 475.42L142.272 477.856C141.546 476.4 140.648 475.668 139.577 475.668C139.092 475.66 138.622 475.84 138.268 476.172C138.09 476.336 137.949 476.536 137.855 476.756C137.762 476.98 137.716 477.22 137.724 477.46C137.724 478.376 138.791 479.284 140.927 480.188C143.106 480.98 145.124 482.164 146.88 483.676C147.94 484.852 148.49 486.396 148.409 487.972C148.43 489.068 148.211 490.152 147.768 491.156C147.325 492.156 146.668 493.048 145.843 493.772C144.724 494.728 143.39 495.404 141.953 495.74C140.517 496.08 139.02 496.068 137.589 495.708C136.158 495.348 134.835 494.652 133.731 493.676C132.627 492.7 131.775 491.476 131.246 490.104L135.986 487.912C136.391 488.704 136.899 489.44 137.496 490.104C138.143 490.716 139.005 491.052 139.898 491.04C141.766 491.04 142.7 490.188 142.7 488.484C142.7 487.5 141.977 486.58 140.53 485.728C139.97 485.448 139.409 485.18 138.853 484.932C138.296 484.684 137.724 484.396 137.147 484.132C135.863 483.584 134.703 482.78 133.736 481.772C132.864 480.68 132.416 479.308 132.475 477.912C132.445 476.948 132.621 475.984 132.992 475.092C133.362 474.2 133.919 473.392 134.625 472.732C136.066 471.38 137.983 470.644 139.962 470.688C141.462 470.672 142.93 471.12 144.165 471.968C145.401 472.812 146.344 474.02 146.864 475.42Z" fill="black"/>
<path id="letter-14" d="M198.263 459.34V466.12C195.434 463.544 191.769 462.072 187.938 461.964C186.083 461.928 184.241 462.288 182.534 463.012C180.828 463.736 179.295 464.812 178.037 466.172C176.711 467.52 175.669 469.124 174.974 470.88C174.278 472.636 173.942 474.516 173.985 476.404C173.942 478.268 174.279 480.124 174.975 481.856C175.672 483.592 176.713 485.165 178.037 486.489C179.316 487.821 180.859 488.872 182.568 489.576C184.278 490.284 186.115 490.633 187.966 490.593C189.737 490.645 191.498 490.308 193.126 489.612C193.986 489.248 194.809 488.804 195.585 488.284C196.518 487.664 197.413 486.992 198.267 486.268V493.192C195.116 495.016 191.538 495.981 187.894 495.985C185.302 496.029 182.729 495.548 180.33 494.568C177.931 493.592 175.756 492.14 173.937 490.304C172.081 488.512 170.613 486.361 169.623 483.985C168.634 481.609 168.144 479.053 168.184 476.481C168.149 471.729 169.858 467.125 172.988 463.541C174.844 461.293 177.19 459.496 179.848 458.292C182.506 457.084 185.406 456.5 188.326 456.58C191.827 456.596 195.259 457.552 198.263 459.34Z" fill="black"/>
<path id="letter-15" d="M203.327 483.157C203.301 481.509 203.619 479.873 204.261 478.353C204.903 476.833 205.856 475.461 207.059 474.325C209.512 471.985 212.78 470.681 216.178 470.685C219.576 470.689 222.84 472.001 225.287 474.349C227.665 476.753 228.996 479.997 228.991 483.369C228.987 486.745 227.647 489.981 225.263 492.381C224.048 493.565 222.607 494.493 221.026 495.113C219.445 495.737 217.755 496.037 216.055 495.997C214.37 496.037 212.695 495.729 211.135 495.093C209.576 494.457 208.165 493.509 206.991 492.305C205.786 491.109 204.839 489.681 204.209 488.109C203.579 486.537 203.279 484.849 203.327 483.157ZM209.009 483.257C208.896 485.329 209.585 487.361 210.934 488.941C212.327 490.289 214.192 491.045 216.134 491.049C218.077 491.053 219.945 490.305 221.344 488.965C222.607 487.373 223.293 485.409 223.293 483.381C223.293 481.353 222.607 479.389 221.344 477.801C219.961 476.445 218.098 475.685 216.157 475.685C214.217 475.685 212.354 476.445 210.971 477.801C209.628 479.293 208.924 481.253 209.009 483.257Z" fill="black"/>
<path id="letter-16" d="M234.868 471.353H240.448V473.565C241.291 472.665 242.307 471.949 243.437 471.453C244.566 470.957 245.785 470.697 247.018 470.685C248.237 470.617 249.455 470.821 250.586 471.273C251.718 471.729 252.735 472.425 253.564 473.317C255.103 475.429 255.822 478.025 255.586 480.621V495.309H250.005V481.941C250.159 480.253 249.815 478.553 249.016 477.053C248.59 476.557 248.047 476.169 247.435 475.929C246.824 475.689 246.162 475.601 245.509 475.677C244.751 475.605 243.988 475.737 243.298 476.057C242.608 476.377 242.016 476.873 241.582 477.497C240.666 479.453 240.274 481.609 240.444 483.761V495.325H234.863L234.868 471.353Z" fill="black"/>
<path id="letter-17" d="M276.585 475.42L271.993 477.86C271.267 476.4 270.369 475.668 269.298 475.668C268.813 475.66 268.342 475.84 267.989 476.172C267.811 476.336 267.671 476.536 267.577 476.756C267.483 476.98 267.438 477.22 267.445 477.46C267.445 478.376 268.512 479.284 270.648 480.188C272.828 480.98 274.844 482.164 276.601 483.676C277.661 484.852 278.21 486.396 278.13 487.972C278.151 489.068 277.932 490.152 277.489 491.156C277.046 492.156 276.389 493.048 275.564 493.772C274.445 494.728 273.111 495.404 271.674 495.74C270.238 496.08 268.741 496.068 267.31 495.708C265.879 495.348 264.556 494.652 263.452 493.676C262.348 492.7 261.496 491.476 260.967 490.104L265.707 487.912C266.112 488.704 266.618 489.44 267.212 490.104C267.861 490.716 268.722 491.052 269.615 491.04C271.483 491.04 272.417 490.188 272.417 488.484C272.417 487.5 271.694 486.584 270.247 485.728C269.687 485.464 269.126 485.196 268.566 484.932C268.005 484.664 267.438 484.4 266.864 484.132C265.58 483.584 264.42 482.78 263.453 481.772C262.58 480.68 262.133 479.308 262.192 477.912C262.162 476.948 262.338 475.988 262.709 475.092C263.08 474.2 263.636 473.392 264.342 472.732C265.782 471.38 267.697 470.648 269.675 470.688C271.176 470.672 272.646 471.116 273.884 471.964C275.121 472.812 276.064 474.02 276.585 475.42Z" fill="black"/>
<path id="letter-18" d="M288.689 471.353V485.105C288.689 489.069 290.261 491.053 293.406 491.057C296.55 491.061 298.123 489.077 298.126 485.105V471.353H303.683V485.225C303.718 486.909 303.476 488.585 302.966 490.193C302.462 491.497 301.636 492.657 300.564 493.561C298.518 495.141 296.002 495.997 293.414 495.997C290.824 495.997 288.309 495.141 286.263 493.561C285.179 492.657 284.338 491.501 283.817 490.193C283.281 488.593 283.046 486.909 283.124 485.225V471.353H288.689Z" fill="black"/>
<path id="letter-19" d="M316.254 453.744V495.288H310.697V453.744H316.254Z" fill="black"/>
<path id="letter-20" d="M329.021 476.509V495.301H323.464V476.509H321.094V471.325H323.464V462.553H329.021V471.325H333.345V476.509H329.021Z" fill="black"/>
<path id="letter-21" d="M355.3 471.352H360.881V495.312H355.3V492.804C354.274 493.848 353.042 494.672 351.682 495.22C350.322 495.768 348.863 496.032 347.396 495.996C345.929 495.96 344.485 495.62 343.155 495.004C341.825 494.384 340.637 493.5 339.666 492.404C337.475 489.864 336.32 486.6 336.431 483.252C336.323 479.96 337.48 476.748 339.666 474.272C340.668 473.12 341.914 472.2 343.314 471.58C344.714 470.96 346.234 470.652 347.766 470.684C349.193 470.704 350.601 471.02 351.899 471.612C353.196 472.208 354.355 473.064 355.3 474.128V471.352ZM342.112 483.256C342.022 485.288 342.68 487.284 343.962 488.868C344.545 489.568 345.28 490.132 346.112 490.508C346.944 490.888 347.852 491.076 348.766 491.056C349.703 491.088 350.636 490.916 351.498 490.552C352.36 490.184 353.131 489.636 353.755 488.94C354.987 487.344 355.656 485.392 355.656 483.38C355.656 481.368 354.987 479.416 353.755 477.82C353.142 477.124 352.381 476.568 351.527 476.196C350.672 475.828 349.746 475.652 348.814 475.68C347.902 475.664 346.998 475.848 346.167 476.224C345.336 476.6 344.6 477.152 344.01 477.844C342.727 479.352 342.051 481.284 342.112 483.256Z" fill="black"/>
<path id="letter-22" d="M367.897 471.352H373.477V473.564C374.32 472.664 375.337 471.948 376.466 471.452C377.595 470.96 378.814 470.696 380.047 470.684C381.266 470.616 382.484 470.816 383.616 471.272C384.747 471.728 385.764 472.424 386.593 473.316C388.135 475.428 388.855 478.024 388.619 480.62V495.308H383.034V481.94C383.188 480.252 382.844 478.552 382.045 477.052C381.619 476.556 381.076 476.168 380.465 475.928C379.853 475.688 379.191 475.6 378.538 475.676C377.781 475.604 377.017 475.736 376.327 476.056C375.637 476.376 375.045 476.872 374.611 477.496C373.695 479.452 373.303 481.608 373.473 483.76V495.324H367.893L367.897 471.352Z" fill="black"/>
<path id="letter-23" d="M401.364 476.509V495.301H395.806V476.509H393.436V471.325H395.806V462.553H401.364V471.325H405.688V476.509H401.364Z" fill="black"/>
<path id="letter-24" d="M423.448 475.42L418.856 477.856C418.128 476.4 417.232 475.668 416.16 475.668C415.676 475.66 415.204 475.84 414.852 476.172C414.672 476.336 414.532 476.536 414.44 476.756C414.344 476.98 414.3 477.22 414.308 477.46C414.308 478.376 415.372 479.284 417.508 480.188C419.688 480.98 421.704 482.164 423.464 483.676C424.524 484.852 425.072 486.396 424.992 487.972C425.012 489.068 424.792 490.152 424.352 491.156C423.908 492.156 423.252 493.048 422.424 493.772C421.308 494.728 419.972 495.404 418.536 495.74C417.1 496.08 415.604 496.068 414.172 495.708C412.74 495.348 411.416 494.652 410.312 493.676C409.208 492.7 408.356 491.476 407.828 490.104L412.568 487.912C412.972 488.704 413.48 489.44 414.076 490.104C414.724 490.716 415.584 491.052 416.476 491.04C418.344 491.04 419.28 490.188 419.28 488.484C419.28 487.5 418.556 486.58 417.108 485.728C416.548 485.464 415.988 485.196 415.432 484.932C414.872 484.664 414.304 484.4 413.724 484.132C412.44 483.584 411.28 482.78 410.316 481.772C409.44 480.68 408.996 479.308 409.052 477.912C409.024 476.948 409.2 475.984 409.572 475.092C409.94 474.2 410.496 473.392 411.204 472.732C412.644 471.38 414.56 470.644 416.54 470.688C418.04 470.672 419.512 471.116 420.748 471.964C421.984 472.812 422.928 474.02 423.448 475.42Z" fill="black"/>
<path id="divider-line" d="M424.328 436.097H1V439.181H424.328V436.097Z" fill="black"/>
</g>
</g>
</g>
</svg>
