<svg width="512" height="512" viewBox="0 0 512 512" fill="none" xmlns="http://www.w3.org/2000/svg">
<g id="promise-logomark">
<g id="icon-leaves">
<g id="shapes">
<path id="two" d="M350.399 418.003C353.065 385.336 362.399 342.003 374.399 306.67C385.732 275.336 393.065 248.003 391.732 246.003C385.065 240.003 327.732 372.003 319.732 411.336L311.732 452.003L296.399 428.67C256.399 371.336 265.065 314.003 321.065 258.67C350.399 230.003 427.732 178.67 442.399 178.67C443.732 178.67 445.065 200.67 445.732 226.67C445.732 253.336 448.399 305.336 451.065 342.003C454.399 386.003 453.732 414.67 449.065 426.67C439.732 451.336 404.399 472.003 372.399 472.003H346.399L350.399 418.003Z" fill="#95BA3D"/>
<path id="one" d="M176.398 439.334C47.7309 394.667 20.3976 263.334 103.064 85.3337L129.064 29.3337L148.398 63.3337C159.731 82.6671 196.398 123.334 234.398 158.667L300.398 220L275.064 253.334C248.398 289.334 235.064 323.334 235.064 359.334C234.398 381.334 234.398 381.334 224.398 368.667C205.064 344 170.398 269.334 151.731 213.334C141.731 182.667 131.731 159.334 130.398 161.334C124.398 167.334 155.731 301.334 175.064 350.667C185.064 377.334 201.731 409.334 211.064 422C237.731 457.334 233.731 459.334 176.398 439.334Z" fill="#95BA3D"/>
</g>
</g>
</g>
</svg>
