<svg width="155" height="44" viewBox="0 0 155 44" fill="none" xmlns="http://www.w3.org/2000/svg">
<path d="M65.8621 9.23657V27.9785C65.8621 31.2365 64.7779 33.7556 62.5757 35.5694C60.3735 37.3495 57.5276 38.2564 54.0041 38.2564C50.4128 38.2564 47.533 37.3495 45.3647 35.5694C43.1625 33.7892 42.0784 31.2365 42.0784 27.9785V9.23657H48.7866V27.9785C48.7866 29.7251 49.227 31.035 50.1418 31.8747C51.0566 32.7144 52.344 33.151 54.0041 33.151C55.6642 33.151 56.9178 32.748 57.8325 31.9083C58.7134 31.0686 59.1539 29.7587 59.1539 28.0121V9.23657H65.8621Z" fill="#010101"/>
<path d="M78.3976 18.8763L83.1408 9.23657H90.8654L82.5987 23.4106L91.5091 37.8197H83.3779L78.4653 27.9785L73.5528 37.8197H65.8281L74.2981 23.4106L66.0653 9.23657H73.7222L78.3976 18.8763Z" fill="#010101"/>
<path d="M95.2024 35.8381H109.466V37.8533H92.8308V9.23657H95.2024V35.8381Z" fill="#010101"/>
<path d="M128.439 29.8594H115.225L112.244 37.8197H109.771L120.714 9.23657H122.95L133.826 37.8197H131.352L128.439 29.8594ZM116.005 27.7434H127.659L121.9 12.2595H121.764L116.005 27.7434Z" fill="#010101"/>
<path d="M135.824 37.8197V9.23657H144.226C147.208 9.23657 149.545 9.87474 151.239 11.1175C152.899 12.3602 153.746 14.2411 153.746 16.7602C153.746 18.2381 153.34 19.5144 152.493 20.5892C151.646 21.664 150.528 22.4366 149.071 22.8396C150.833 23.1419 152.256 23.9816 153.34 25.2915C154.424 26.6014 155 28.1465 155 29.8594C155 32.4121 154.153 34.3602 152.493 35.7373C150.833 37.1144 148.597 37.7861 145.785 37.7861H135.824V37.8197ZM138.196 22.0671H144.836C146.937 22.0671 148.529 21.5969 149.681 20.69C150.833 19.7831 151.409 18.4396 151.409 16.6595C151.409 14.8457 150.799 13.5022 149.579 12.5953C148.36 11.6885 146.598 11.2182 144.26 11.2182H138.196V22.0671ZM138.196 24.0488V35.8045H145.819C147.953 35.8045 149.613 35.3007 150.833 34.2594C152.052 33.2182 152.662 31.7739 152.662 29.893C152.662 28.1801 152.12 26.7694 151.002 25.6946C149.884 24.6198 148.292 24.0488 146.191 24.0488H138.196Z" fill="#010101"/>
<path d="M16.33 12.4946C19.8103 12.4946 22.6317 9.69762 22.6317 6.24732C22.6317 2.79702 19.8103 0 16.33 0C12.8497 0 10.0283 2.79702 10.0283 6.24732C10.0283 9.69762 12.8497 12.4946 16.33 12.4946Z" fill="#010101"/>
<path d="M8.4361 16.626C7.38583 14.5436 7.35195 12.3268 7.31807 12.226V3.59399H0V12.226C0 12.5955 0.0338799 16.0215 1.72788 19.5482C2.50712 21.2276 3.55739 22.6382 4.77707 23.7802C7.28419 21.4291 10.6722 20.1527 14.6361 20.1527C11.6208 20.1527 9.65578 19.0108 8.4361 16.626Z" fill="#0078D4"/>
<path d="M23.8512 30.9679C24.9015 33.0503 24.9354 35.2671 24.9692 35.3679V43.9999H32.3212V35.3679C32.3212 34.9984 32.2873 31.5725 30.5933 28.0458C29.8141 26.3664 28.7638 24.9557 27.5441 23.8137C25.037 26.1649 21.649 27.4412 17.6851 27.4412C20.6665 27.4412 22.6315 28.5496 23.8512 30.9679Z" fill="#0078D4"/>
<path d="M24.9695 3.59399V12.226C24.9695 12.2596 24.9356 14.4092 23.9531 16.4581C22.7673 18.9772 20.7684 20.1527 17.6853 20.1527H14.7039C10.7399 20.1527 7.35195 21.4291 4.84483 23.7802C3.62515 24.9222 2.57488 26.3329 1.79564 28.0123C0.0338801 31.539 0 34.9649 0 35.368V44H7.35195V35.368C7.35195 35.3344 7.38583 33.1848 8.36834 31.1359C9.55414 28.6169 11.5531 27.4413 14.6361 27.4413H17.6176C21.5815 27.4413 24.9695 26.165 27.4766 23.8138C28.6963 22.6718 29.7466 21.2611 30.5258 19.5818C32.1859 16.055 32.2537 12.6291 32.2537 12.2596V3.59399H24.9695Z" fill="#1C3490"/>
</svg>
