<svg width="386" height="800" viewBox="0 0 386 800" fill="none" xmlns="http://www.w3.org/2000/svg">
<g id="Color Range">
<rect id="rect-1" width="100" height="100"         fill="#C63842"/>
<rect id="rect-2" y="100" width="100" height="100" fill="#E0892D"/>
<rect id="rect-3" y="200" width="100" height="100" fill="#889D41"/>
<rect id="rect-4" y="300" width="100" height="100" fill="#B2C05F"/>
<rect id="rect-5" y="400" width="100" height="100" fill="#7FCBD5"/>
<rect id="rect-6" y="500" width="100" height="100" fill="#3791A1"/>
<rect id="rect-7" y="600" width="100" height="100" fill="#1A5971"/>
<rect id="rect-8" y="700" width="100" height="100" fill="#804075"/>
<path id="label-1" d="M139.33 65.3977C137.379 65.3977 135.655 65.0521 134.159 64.3608C132.672 63.66 131.512 62.6989 130.679 61.4773C129.846 60.2462 129.434 58.8447 129.443 57.2727C129.434 56.0417 129.675 54.9053 130.168 53.8636C130.66 52.8125 131.332 51.9366 132.185 51.2358C133.046 50.5256 134.008 50.0758 135.068 49.8864V49.7159C133.676 49.3561 132.568 48.5748 131.744 47.3722C130.92 46.16 130.513 44.7822 130.523 43.2386C130.513 41.7614 130.887 40.4403 131.645 39.2756C132.402 38.1108 133.444 37.1922 134.77 36.5199C136.105 35.8475 137.625 35.5114 139.33 35.5114C141.015 35.5114 142.521 35.8475 143.847 36.5199C145.172 37.1922 146.214 38.1108 146.972 39.2756C147.739 40.4403 148.127 41.7614 148.136 43.2386C148.127 44.7822 147.705 46.16 146.872 47.3722C146.048 48.5748 144.955 49.3561 143.591 49.7159V49.8864C144.642 50.0758 145.589 50.5256 146.432 51.2358C147.275 51.9366 147.947 52.8125 148.449 53.8636C148.951 54.9053 149.206 56.0417 149.216 57.2727C149.206 58.8447 148.78 60.2462 147.938 61.4773C147.104 62.6989 145.944 63.66 144.457 64.3608C142.98 65.0521 141.271 65.3977 139.33 65.3977ZM139.33 62.2727C140.646 62.2727 141.782 62.0597 142.739 61.6335C143.695 61.2074 144.434 60.6061 144.955 59.8295C145.475 59.053 145.741 58.1439 145.75 57.1023C145.741 56.0038 145.456 55.0331 144.898 54.1903C144.339 53.3475 143.577 52.6847 142.611 52.2017C141.654 51.7187 140.561 51.4773 139.33 51.4773C138.089 51.4773 136.981 51.7187 136.006 52.2017C135.04 52.6847 134.277 53.3475 133.719 54.1903C133.17 55.0331 132.9 56.0038 132.909 57.1023C132.9 58.1439 133.151 59.053 133.662 59.8295C134.183 60.6061 134.926 61.2074 135.892 61.6335C136.858 62.0597 138.004 62.2727 139.33 62.2727ZM139.33 48.4659C140.371 48.4659 141.295 48.2576 142.099 47.8409C142.914 47.4242 143.553 46.8419 144.017 46.0938C144.481 45.3456 144.718 44.4697 144.727 43.4659C144.718 42.4811 144.486 41.6241 144.031 40.8949C143.577 40.1562 142.947 39.5881 142.142 39.1903C141.337 38.7831 140.4 38.5795 139.33 38.5795C138.241 38.5795 137.289 38.7831 136.474 39.1903C135.66 39.5881 135.03 40.1562 134.585 40.8949C134.14 41.6241 133.922 42.4811 133.932 43.4659C133.922 44.4697 134.145 45.3456 134.599 46.0938C135.063 46.8419 135.703 47.4242 136.517 47.8409C137.331 48.2576 138.269 48.4659 139.33 48.4659ZM163.921 35.5114C165.114 35.5208 166.308 35.7481 167.501 36.1932C168.694 36.6383 169.783 37.3769 170.768 38.4091C171.753 39.4318 172.543 40.8286 173.14 42.5994C173.737 44.3703 174.035 46.5909 174.035 49.2614C174.035 51.8466 173.789 54.143 173.296 56.1506C172.813 58.1487 172.112 59.8343 171.194 61.2074C170.285 62.5805 169.177 63.6222 167.87 64.3324C166.573 65.0426 165.105 65.3977 163.467 65.3977C161.838 65.3977 160.384 65.0758 159.106 64.4318C157.837 63.7784 156.795 62.8741 155.981 61.7188C155.176 60.554 154.66 59.2045 154.433 57.6705H157.898C158.211 59.0057 158.831 60.1089 159.759 60.9801C160.697 61.8419 161.933 62.2727 163.467 62.2727C165.711 62.2727 167.482 61.2926 168.779 59.3324C170.086 57.3722 170.739 54.6023 170.739 51.0227H170.512C169.982 51.8182 169.352 52.5047 168.623 53.0824C167.894 53.66 167.084 54.1051 166.194 54.4176C165.304 54.7301 164.357 54.8864 163.353 54.8864C161.686 54.8864 160.157 54.4744 158.765 53.6506C157.382 52.8172 156.274 51.6761 155.441 50.2273C154.617 48.7689 154.205 47.1023 154.205 45.2273C154.205 43.447 154.603 41.8182 155.398 40.3409C156.203 38.8542 157.33 37.6705 158.779 36.7898C160.237 35.9091 161.951 35.483 163.921 35.5114ZM163.921 38.6364C162.728 38.6364 161.653 38.9347 160.697 39.5312C159.75 40.1184 158.997 40.9138 158.438 41.9176C157.889 42.9119 157.614 44.0152 157.614 45.2273C157.614 46.4394 157.879 47.5426 158.41 48.5369C158.95 49.5218 159.683 50.3078 160.612 50.8949C161.549 51.4725 162.614 51.7614 163.808 51.7614C164.707 51.7614 165.545 51.5862 166.322 51.2358C167.098 50.8759 167.775 50.3883 168.353 49.7727C168.94 49.1477 169.399 48.4422 169.731 47.6562C170.062 46.8608 170.228 46.0322 170.228 45.1705C170.228 44.0341 169.953 42.9687 169.404 41.9744C168.864 40.9801 168.116 40.1752 167.16 39.5597C166.213 38.9441 165.133 38.6364 163.921 38.6364ZM197.348 65.5114C195.965 65.5114 194.711 65.2509 193.584 64.7301C192.457 64.1998 191.562 63.4375 190.899 62.4432C190.236 61.4394 189.905 60.2273 189.905 58.8068C189.905 57.5568 190.151 56.5436 190.643 55.767C191.136 54.9811 191.794 54.3655 192.618 53.9205C193.442 53.4754 194.351 53.1439 195.345 52.9261C196.349 52.6989 197.357 52.5189 198.371 52.3864C199.696 52.2159 200.771 52.0881 201.595 52.0028C202.429 51.9081 203.035 51.7519 203.413 51.5341C203.802 51.3163 203.996 50.9375 203.996 50.3977V50.2841C203.996 48.8826 203.612 47.7936 202.845 47.017C202.088 46.2405 200.937 45.8523 199.393 45.8523C197.793 45.8523 196.538 46.2027 195.629 46.9034C194.72 47.6042 194.081 48.3523 193.712 49.1477L190.53 48.0114C191.098 46.6856 191.856 45.6534 192.803 44.9148C193.759 44.1667 194.801 43.6458 195.928 43.3523C197.064 43.0492 198.181 42.8977 199.28 42.8977C199.981 42.8977 200.786 42.983 201.695 43.1534C202.613 43.3144 203.499 43.6506 204.351 44.1619C205.213 44.6733 205.928 45.4451 206.496 46.4773C207.064 47.5095 207.348 48.892 207.348 50.625V65H203.996V62.0455H203.825C203.598 62.5189 203.219 63.0256 202.689 63.5653C202.159 64.1051 201.453 64.5644 200.572 64.9432C199.692 65.322 198.617 65.5114 197.348 65.5114ZM197.859 62.5C199.185 62.5 200.303 62.2396 201.212 61.7188C202.13 61.1979 202.821 60.5256 203.286 59.7017C203.759 58.8778 203.996 58.0114 203.996 57.1023V54.0341C203.854 54.2045 203.541 54.3608 203.058 54.5028C202.585 54.6354 202.036 54.7538 201.411 54.858C200.795 54.9527 200.194 55.0379 199.607 55.1136C199.029 55.1799 198.56 55.2367 198.2 55.2841C197.329 55.3977 196.515 55.5824 195.757 55.8381C195.009 56.0843 194.403 56.4583 193.939 56.9602C193.484 57.4527 193.257 58.125 193.257 58.9773C193.257 60.142 193.688 61.0227 194.55 61.6193C195.421 62.2064 196.524 62.5 197.859 62.5ZM216.819 51.875V65H213.467V43.1818H216.705V46.5909H216.989C217.501 45.483 218.277 44.5928 219.319 43.9205C220.361 43.2386 221.705 42.8977 223.353 42.8977C224.83 42.8977 226.123 43.2008 227.231 43.8068C228.339 44.4034 229.201 45.3125 229.816 46.5341C230.432 47.7462 230.739 49.2803 230.739 51.1364V65H227.387V51.3636C227.387 49.6496 226.942 48.3144 226.052 47.358C225.162 46.392 223.94 45.9091 222.387 45.9091C221.317 45.9091 220.361 46.1411 219.518 46.6051C218.684 47.0691 218.026 47.7462 217.543 48.6364C217.06 49.5265 216.819 50.6061 216.819 51.875ZM245.104 65.4545C243.286 65.4545 241.68 64.9953 240.288 64.0767C238.896 63.1487 237.807 61.8419 237.021 60.1562C236.235 58.4612 235.842 56.4583 235.842 54.1477C235.842 51.8561 236.235 49.8674 237.021 48.1818C237.807 46.4962 238.901 45.1941 240.303 44.2756C241.704 43.357 243.323 42.8977 245.161 42.8977C246.581 42.8977 247.703 43.1345 248.527 43.608C249.36 44.072 249.995 44.6023 250.43 45.1989C250.875 45.786 251.221 46.2689 251.467 46.6477H251.751V35.9091H255.104V65H251.865V61.6477H251.467C251.221 62.0455 250.871 62.5473 250.416 63.1534C249.962 63.75 249.313 64.285 248.47 64.7585C247.627 65.2225 246.505 65.4545 245.104 65.4545ZM245.558 62.4432C246.903 62.4432 248.039 62.0928 248.967 61.392C249.895 60.6818 250.601 59.7017 251.084 58.4517C251.567 57.1922 251.808 55.7386 251.808 54.0909C251.808 52.4621 251.571 51.0369 251.098 49.8153C250.625 48.5843 249.924 47.6278 248.996 46.946C248.068 46.2547 246.922 45.9091 245.558 45.9091C244.138 45.9091 242.954 46.2737 242.007 47.0028C241.07 47.7225 240.364 48.7027 239.891 49.9432C239.427 51.1742 239.195 52.5568 239.195 54.0909C239.195 55.6439 239.431 57.0549 239.905 58.3239C240.388 59.5833 241.098 60.5871 242.036 61.3352C242.982 62.0739 244.157 62.4432 245.558 62.4432ZM279.379 65.5114C277.997 65.5114 276.742 65.2509 275.615 64.7301C274.488 64.1998 273.593 63.4375 272.93 62.4432C272.268 61.4394 271.936 60.2273 271.936 58.8068C271.936 57.5568 272.182 56.5436 272.675 55.767C273.167 54.9811 273.825 54.3655 274.649 53.9205C275.473 53.4754 276.382 53.1439 277.376 52.9261C278.38 52.6989 279.389 52.5189 280.402 52.3864C281.728 52.2159 282.803 52.0881 283.626 52.0028C284.46 51.9081 285.066 51.7519 285.445 51.5341C285.833 51.3163 286.027 50.9375 286.027 50.3977V50.2841C286.027 48.8826 285.643 47.7936 284.876 47.017C284.119 46.2405 282.968 45.8523 281.425 45.8523C279.824 45.8523 278.57 46.2027 277.661 46.9034C276.751 47.6042 276.112 48.3523 275.743 49.1477L272.561 48.0114C273.129 46.6856 273.887 45.6534 274.834 44.9148C275.79 44.1667 276.832 43.6458 277.959 43.3523C279.095 43.0492 280.213 42.8977 281.311 42.8977C282.012 42.8977 282.817 42.983 283.726 43.1534C284.644 43.3144 285.53 43.6506 286.382 44.1619C287.244 44.6733 287.959 45.4451 288.527 46.4773C289.095 47.5095 289.379 48.892 289.379 50.625V65H286.027V62.0455H285.857C285.629 62.5189 285.25 63.0256 284.72 63.5653C284.19 64.1051 283.484 64.5644 282.604 64.9432C281.723 65.322 280.648 65.5114 279.379 65.5114ZM279.891 62.5C281.216 62.5 282.334 62.2396 283.243 61.7188C284.161 61.1979 284.853 60.5256 285.317 59.7017C285.79 58.8778 286.027 58.0114 286.027 57.1023V54.0341C285.885 54.2045 285.572 54.3608 285.089 54.5028C284.616 54.6354 284.067 54.7538 283.442 54.858C282.826 54.9527 282.225 55.0379 281.638 55.1136C281.06 55.1799 280.591 55.2367 280.232 55.2841C279.36 55.3977 278.546 55.5824 277.788 55.8381C277.04 56.0843 276.434 56.4583 275.97 56.9602C275.516 57.4527 275.288 58.125 275.288 58.9773C275.288 60.142 275.719 61.0227 276.581 61.6193C277.452 62.2064 278.555 62.5 279.891 62.5ZM295.952 65V35.9091H299.305V46.6477H299.589C299.835 46.2689 300.176 45.786 300.612 45.1989C301.057 44.6023 301.691 44.072 302.515 43.608C303.348 43.1345 304.475 42.8977 305.896 42.8977C307.733 42.8977 309.352 43.357 310.754 44.2756C312.155 45.1941 313.249 46.4962 314.035 48.1818C314.821 49.8674 315.214 51.8561 315.214 54.1477C315.214 56.4583 314.821 58.4612 314.035 60.1562C313.249 61.8419 312.16 63.1487 310.768 64.0767C309.376 64.9953 307.771 65.4545 305.952 65.4545C304.551 65.4545 303.429 65.2225 302.586 64.7585C301.743 64.285 301.094 63.75 300.64 63.1534C300.185 62.5473 299.835 62.0455 299.589 61.6477H299.191V65H295.952ZM299.248 54.0909C299.248 55.7386 299.489 57.1922 299.972 58.4517C300.455 59.7017 301.161 60.6818 302.089 61.392C303.017 62.0928 304.153 62.4432 305.498 62.4432C306.899 62.4432 308.069 62.0739 309.006 61.3352C309.953 60.5871 310.664 59.5833 311.137 58.3239C311.62 57.0549 311.862 55.6439 311.862 54.0909C311.862 52.5568 311.625 51.1742 311.151 49.9432C310.687 48.7027 309.982 47.7225 309.035 47.0028C308.097 46.2737 306.918 45.9091 305.498 45.9091C304.134 45.9091 302.988 46.2547 302.06 46.946C301.132 47.6278 300.432 48.5843 299.958 49.8153C299.485 51.0369 299.248 52.4621 299.248 54.0909ZM329.205 65.4545C327.236 65.4545 325.507 64.9858 324.021 64.0483C322.543 63.1108 321.388 61.7992 320.555 60.1136C319.731 58.428 319.319 56.4583 319.319 54.2045C319.319 51.9318 319.731 49.9479 320.555 48.2528C321.388 46.5578 322.543 45.2415 324.021 44.304C325.507 43.3665 327.236 42.8977 329.205 42.8977C331.175 42.8977 332.898 43.3665 334.376 44.304C335.862 45.2415 337.018 46.5578 337.842 48.2528C338.675 49.9479 339.092 51.9318 339.092 54.2045C339.092 56.4583 338.675 58.428 337.842 60.1136C337.018 61.7992 335.862 63.1108 334.376 64.0483C332.898 64.9858 331.175 65.4545 329.205 65.4545ZM329.205 62.4432C330.701 62.4432 331.933 62.0597 332.898 61.2926C333.864 60.5256 334.579 59.517 335.043 58.267C335.507 57.017 335.739 55.6629 335.739 54.2045C335.739 52.7462 335.507 51.3873 335.043 50.1278C334.579 48.8684 333.864 47.8504 332.898 47.0739C331.933 46.2973 330.701 45.9091 329.205 45.9091C327.709 45.9091 326.478 46.2973 325.512 47.0739C324.546 47.8504 323.831 48.8684 323.367 50.1278C322.903 51.3873 322.671 52.7462 322.671 54.2045C322.671 55.6629 322.903 57.017 323.367 58.267C323.831 59.517 324.546 60.5256 325.512 61.2926C326.478 62.0597 327.709 62.4432 329.205 62.4432ZM361.268 43.1818L353.2 65H349.791L341.723 43.1818H345.359L351.382 60.5682H351.609L357.632 43.1818H361.268ZM374.06 65.4545C371.957 65.4545 370.144 64.9905 368.619 64.0625C367.104 63.125 365.935 61.8182 365.111 60.142C364.296 58.4564 363.889 56.4962 363.889 54.2614C363.889 52.0265 364.296 50.0568 365.111 48.3523C365.935 46.6383 367.08 45.303 368.548 44.3466C370.026 43.3807 371.749 42.8977 373.719 42.8977C374.855 42.8977 375.977 43.0871 377.085 43.4659C378.193 43.8447 379.202 44.4602 380.111 45.3125C381.02 46.1553 381.744 47.2727 382.284 48.6648C382.824 50.0568 383.094 51.7708 383.094 53.8068V55.2273H366.276V52.3295H379.685C379.685 51.0985 379.438 50 378.946 49.0341C378.463 48.0682 377.772 47.3059 376.872 46.7472C375.982 46.1884 374.931 45.9091 373.719 45.9091C372.384 45.9091 371.228 46.2405 370.253 46.9034C369.287 47.5568 368.544 48.4091 368.023 49.4602C367.502 50.5114 367.241 51.6383 367.241 52.8409V54.7727C367.241 56.4205 367.526 57.8172 368.094 58.9631C368.671 60.0994 369.472 60.9659 370.494 61.5625C371.517 62.1496 372.705 62.4432 374.06 62.4432C374.94 62.4432 375.736 62.3201 376.446 62.0739C377.166 61.8182 377.786 61.4394 378.307 60.9375C378.828 60.4261 379.23 59.7917 379.514 59.0341L382.753 59.9432C382.412 61.0417 381.839 62.0076 381.034 62.8409C380.229 63.6648 379.235 64.3087 378.051 64.7727C376.867 65.2273 375.537 65.4545 374.06 65.4545Z" fill="black"/>
<path id="label-2" d="M130.92 165L143.932 139.261V139.034H128.932V135.909H147.568V139.205L134.614 165H130.92ZM161.595 165.398C159.644 165.398 157.921 165.052 156.425 164.361C154.938 163.66 153.778 162.699 152.945 161.477C152.111 160.246 151.699 158.845 151.709 157.273C151.699 156.042 151.941 154.905 152.433 153.864C152.926 152.812 153.598 151.937 154.45 151.236C155.312 150.526 156.273 150.076 157.334 149.886V149.716C155.942 149.356 154.834 148.575 154.01 147.372C153.186 146.16 152.779 144.782 152.788 143.239C152.779 141.761 153.153 140.44 153.911 139.276C154.668 138.111 155.71 137.192 157.036 136.52C158.371 135.848 159.891 135.511 161.595 135.511C163.281 135.511 164.786 135.848 166.112 136.52C167.438 137.192 168.48 138.111 169.237 139.276C170.004 140.44 170.393 141.761 170.402 143.239C170.393 144.782 169.971 146.16 169.138 147.372C168.314 148.575 167.22 149.356 165.857 149.716V149.886C166.908 150.076 167.855 150.526 168.697 151.236C169.54 151.937 170.213 152.812 170.714 153.864C171.216 154.905 171.472 156.042 171.482 157.273C171.472 158.845 171.046 160.246 170.203 161.477C169.37 162.699 168.21 163.66 166.723 164.361C165.246 165.052 163.536 165.398 161.595 165.398ZM161.595 162.273C162.911 162.273 164.048 162.06 165.004 161.634C165.961 161.207 166.699 160.606 167.22 159.83C167.741 159.053 168.006 158.144 168.016 157.102C168.006 156.004 167.722 155.033 167.163 154.19C166.605 153.348 165.842 152.685 164.876 152.202C163.92 151.719 162.826 151.477 161.595 151.477C160.355 151.477 159.247 151.719 158.271 152.202C157.305 152.685 156.543 153.348 155.984 154.19C155.435 155.033 155.165 156.004 155.175 157.102C155.165 158.144 155.416 159.053 155.928 159.83C156.448 160.606 157.192 161.207 158.158 161.634C159.124 162.06 160.269 162.273 161.595 162.273ZM161.595 148.466C162.637 148.466 163.56 148.258 164.365 147.841C165.179 147.424 165.819 146.842 166.283 146.094C166.747 145.346 166.983 144.47 166.993 143.466C166.983 142.481 166.751 141.624 166.297 140.895C165.842 140.156 165.213 139.588 164.408 139.19C163.603 138.783 162.665 138.58 161.595 138.58C160.506 138.58 159.554 138.783 158.74 139.19C157.926 139.588 157.296 140.156 156.851 140.895C156.406 141.624 156.188 142.481 156.197 143.466C156.188 144.47 156.411 145.346 156.865 146.094C157.329 146.842 157.968 147.424 158.783 147.841C159.597 148.258 160.535 148.466 161.595 148.466ZM200.732 148.892V152.017H188.005V148.892H200.732ZM227.142 165.398C225.191 165.398 223.468 165.052 221.972 164.361C220.485 163.66 219.325 162.699 218.491 161.477C217.658 160.246 217.246 158.845 217.256 157.273C217.246 156.042 217.488 154.905 217.98 153.864C218.473 152.812 219.145 151.937 219.997 151.236C220.859 150.526 221.82 150.076 222.881 149.886V149.716C221.489 149.356 220.381 148.575 219.557 147.372C218.733 146.16 218.326 144.782 218.335 143.239C218.326 141.761 218.7 140.44 219.457 139.276C220.215 138.111 221.257 137.192 222.582 136.52C223.918 135.848 225.438 135.511 227.142 135.511C228.828 135.511 230.333 135.848 231.659 136.52C232.985 137.192 234.027 138.111 234.784 139.276C235.551 140.44 235.939 141.761 235.949 143.239C235.939 144.782 235.518 146.16 234.685 147.372C233.861 148.575 232.767 149.356 231.403 149.716V149.886C232.455 150.076 233.402 150.526 234.244 151.236C235.087 151.937 235.759 152.812 236.261 153.864C236.763 154.905 237.019 156.042 237.028 157.273C237.019 158.845 236.593 160.246 235.75 161.477C234.917 162.699 233.757 163.66 232.27 164.361C230.793 165.052 229.083 165.398 227.142 165.398ZM227.142 162.273C228.458 162.273 229.595 162.06 230.551 161.634C231.508 161.207 232.246 160.606 232.767 159.83C233.288 159.053 233.553 158.144 233.562 157.102C233.553 156.004 233.269 155.033 232.71 154.19C232.152 153.348 231.389 152.685 230.423 152.202C229.467 151.719 228.373 151.477 227.142 151.477C225.902 151.477 224.794 151.719 223.818 152.202C222.852 152.685 222.09 153.348 221.531 154.19C220.982 155.033 220.712 156.004 220.722 157.102C220.712 158.144 220.963 159.053 221.474 159.83C221.995 160.606 222.739 161.207 223.705 161.634C224.67 162.06 225.816 162.273 227.142 162.273ZM227.142 148.466C228.184 148.466 229.107 148.258 229.912 147.841C230.726 147.424 231.366 146.842 231.83 146.094C232.294 145.346 232.53 144.47 232.54 143.466C232.53 142.481 232.298 141.624 231.844 140.895C231.389 140.156 230.759 139.588 229.955 139.19C229.15 138.783 228.212 138.58 227.142 138.58C226.053 138.58 225.101 138.783 224.287 139.19C223.473 139.588 222.843 140.156 222.398 140.895C221.953 141.624 221.735 142.481 221.744 143.466C221.735 144.47 221.957 145.346 222.412 146.094C222.876 146.842 223.515 147.424 224.33 147.841C225.144 148.258 226.081 148.466 227.142 148.466ZM251.79 165.398C249.84 165.398 248.116 165.052 246.62 164.361C245.133 163.66 243.973 162.699 243.14 161.477C242.307 160.246 241.895 158.845 241.904 157.273C241.895 156.042 242.136 154.905 242.629 153.864C243.121 152.812 243.793 151.937 244.646 151.236C245.507 150.526 246.469 150.076 247.529 149.886V149.716C246.137 149.356 245.029 148.575 244.205 147.372C243.381 146.16 242.974 144.782 242.984 143.239C242.974 141.761 243.348 140.44 244.106 139.276C244.863 138.111 245.905 137.192 247.231 136.52C248.566 135.848 250.086 135.511 251.79 135.511C253.476 135.511 254.982 135.848 256.308 136.52C257.633 137.192 258.675 138.111 259.433 139.276C260.2 140.44 260.588 141.761 260.597 143.239C260.588 144.782 260.166 146.16 259.333 147.372C258.509 148.575 257.415 149.356 256.052 149.716V149.886C257.103 150.076 258.05 150.526 258.893 151.236C259.736 151.937 260.408 152.812 260.91 153.864C261.412 154.905 261.667 156.042 261.677 157.273C261.667 158.845 261.241 160.246 260.398 161.477C259.565 162.699 258.405 163.66 256.918 164.361C255.441 165.052 253.732 165.398 251.79 165.398ZM251.79 162.273C253.107 162.273 254.243 162.06 255.2 161.634C256.156 161.207 256.895 160.606 257.415 159.83C257.936 159.053 258.201 158.144 258.211 157.102C258.201 156.004 257.917 155.033 257.359 154.19C256.8 153.348 256.038 152.685 255.072 152.202C254.115 151.719 253.022 151.477 251.79 151.477C250.55 151.477 249.442 151.719 248.467 152.202C247.501 152.685 246.738 153.348 246.18 154.19C245.63 155.033 245.361 156.004 245.37 157.102C245.361 158.144 245.612 159.053 246.123 159.83C246.644 160.606 247.387 161.207 248.353 161.634C249.319 162.06 250.465 162.273 251.79 162.273ZM251.79 148.466C252.832 148.466 253.755 148.258 254.56 147.841C255.375 147.424 256.014 146.842 256.478 146.094C256.942 145.346 257.179 144.47 257.188 143.466C257.179 142.481 256.947 141.624 256.492 140.895C256.038 140.156 255.408 139.588 254.603 139.19C253.798 138.783 252.861 138.58 251.79 138.58C250.701 138.58 249.75 138.783 248.935 139.19C248.121 139.588 247.491 140.156 247.046 140.895C246.601 141.624 246.383 142.481 246.393 143.466C246.383 144.47 246.606 145.346 247.06 146.094C247.524 146.842 248.164 147.424 248.978 147.841C249.792 148.258 250.73 148.466 251.79 148.466Z" fill="black"/>
<path id="label-3" d="M140.67 265.398C139.477 265.379 138.284 265.152 137.091 264.716C135.898 264.28 134.809 263.546 133.824 262.514C132.839 261.473 132.048 260.066 131.452 258.295C130.855 256.515 130.557 254.28 130.557 251.591C130.557 249.015 130.798 246.733 131.281 244.744C131.764 242.746 132.465 241.065 133.384 239.702C134.302 238.329 135.41 237.287 136.707 236.577C138.014 235.866 139.487 235.511 141.125 235.511C142.754 235.511 144.203 235.838 145.472 236.491C146.75 237.135 147.792 238.035 148.597 239.19C149.402 240.346 149.922 241.676 150.159 243.182H146.693C146.371 241.875 145.746 240.791 144.818 239.929C143.89 239.067 142.659 238.636 141.125 238.636C138.871 238.636 137.096 239.616 135.798 241.577C134.51 243.537 133.862 246.288 133.852 249.83H134.08C134.61 249.025 135.24 248.338 135.969 247.77C136.707 247.192 137.522 246.747 138.412 246.435C139.302 246.122 140.244 245.966 141.239 245.966C142.905 245.966 144.43 246.383 145.812 247.216C147.195 248.04 148.303 249.181 149.136 250.639C149.97 252.088 150.386 253.75 150.386 255.625C150.386 257.424 149.984 259.072 149.179 260.568C148.374 262.055 147.242 263.239 145.784 264.119C144.335 264.991 142.631 265.417 140.67 265.398ZM140.67 262.273C141.864 262.273 142.934 261.974 143.881 261.378C144.837 260.781 145.59 259.981 146.139 258.977C146.698 257.973 146.977 256.856 146.977 255.625C146.977 254.422 146.707 253.329 146.168 252.344C145.637 251.349 144.903 250.559 143.966 249.972C143.038 249.384 141.977 249.091 140.784 249.091C139.884 249.091 139.046 249.271 138.27 249.631C137.493 249.981 136.812 250.464 136.224 251.08C135.647 251.695 135.192 252.401 134.861 253.196C134.529 253.982 134.364 254.811 134.364 255.682C134.364 256.837 134.634 257.917 135.173 258.92C135.723 259.924 136.471 260.734 137.418 261.349C138.374 261.965 139.458 262.273 140.67 262.273ZM156.881 265L169.893 239.261V239.034H154.893V235.909H173.529V239.205L160.575 265H156.881ZM202.631 248.892V252.017H189.903V248.892H202.631ZM220.631 265L233.643 239.261V239.034H218.643V235.909H237.279V239.205L224.325 265H220.631ZM244.264 265L257.276 239.261V239.034H242.276V235.909H260.912V239.205L247.957 265H244.264Z" fill="black"/>
<path id="label-4" d="M139.102 365.398C137.436 365.398 135.935 365.066 134.599 364.403C133.264 363.741 132.194 362.831 131.389 361.676C130.584 360.521 130.144 359.205 130.068 357.727H133.477C133.61 359.044 134.206 360.133 135.267 360.994C136.337 361.847 137.616 362.273 139.102 362.273C140.295 362.273 141.356 361.993 142.284 361.435C143.222 360.876 143.955 360.109 144.486 359.134C145.026 358.149 145.295 357.036 145.295 355.795C145.295 354.527 145.016 353.395 144.457 352.401C143.908 351.397 143.151 350.606 142.185 350.028C141.219 349.451 140.116 349.157 138.875 349.148C137.985 349.138 137.071 349.276 136.134 349.56C135.196 349.834 134.424 350.189 133.818 350.625L130.523 350.227L132.284 335.909H147.398V339.034H135.239L134.216 347.614H134.386C134.983 347.14 135.731 346.747 136.631 346.435C137.53 346.122 138.468 345.966 139.443 345.966C141.223 345.966 142.81 346.392 144.202 347.244C145.603 348.087 146.702 349.242 147.497 350.71C148.302 352.178 148.705 353.854 148.705 355.739C148.705 357.595 148.288 359.252 147.455 360.71C146.631 362.159 145.494 363.305 144.045 364.148C142.597 364.981 140.949 365.398 139.102 365.398ZM153.665 359.034V356.136L166.45 335.909H168.552V340.398H167.131L157.472 355.682V355.909H174.688V359.034H153.665ZM167.359 365V358.153V356.804V335.909H170.711V365H167.359ZM203.818 348.892V352.017H191.091V348.892H203.818ZM230.569 365.398C229.376 365.379 228.183 365.152 226.989 364.716C225.796 364.28 224.707 363.546 223.722 362.514C222.737 361.473 221.947 360.066 221.35 358.295C220.754 356.515 220.455 354.28 220.455 351.591C220.455 349.015 220.697 346.733 221.18 344.744C221.663 342.746 222.363 341.065 223.282 339.702C224.201 338.329 225.308 337.287 226.606 336.577C227.913 335.866 229.385 335.511 231.023 335.511C232.652 335.511 234.101 335.838 235.37 336.491C236.648 337.135 237.69 338.035 238.495 339.19C239.3 340.346 239.821 341.676 240.058 343.182H236.592C236.27 341.875 235.645 340.791 234.717 339.929C233.789 339.067 232.558 338.636 231.023 338.636C228.77 338.636 226.994 339.616 225.697 341.577C224.409 343.537 223.76 346.288 223.751 349.83H223.978C224.508 349.025 225.138 348.338 225.867 347.77C226.606 347.192 227.42 346.747 228.31 346.435C229.201 346.122 230.143 345.966 231.137 345.966C232.804 345.966 234.328 346.383 235.711 347.216C237.094 348.04 238.201 349.181 239.035 350.639C239.868 352.088 240.285 353.75 240.285 355.625C240.285 357.424 239.882 359.072 239.077 360.568C238.272 362.055 237.141 363.239 235.683 364.119C234.234 364.991 232.529 365.417 230.569 365.398ZM230.569 362.273C231.762 362.273 232.832 361.974 233.779 361.378C234.736 360.781 235.488 359.981 236.038 358.977C236.596 357.973 236.876 356.856 236.876 355.625C236.876 354.422 236.606 353.329 236.066 352.344C235.536 351.349 234.802 350.559 233.864 349.972C232.936 349.384 231.876 349.091 230.683 349.091C229.783 349.091 228.945 349.271 228.168 349.631C227.392 349.981 226.71 350.464 226.123 351.08C225.545 351.695 225.091 352.401 224.759 353.196C224.428 353.982 224.262 354.811 224.262 355.682C224.262 356.837 224.532 357.917 225.072 358.92C225.621 359.924 226.369 360.734 227.316 361.349C228.272 361.965 229.357 362.273 230.569 362.273ZM255.53 365.398C254.337 365.379 253.143 365.152 251.95 364.716C250.757 364.28 249.668 363.546 248.683 362.514C247.698 361.473 246.908 360.066 246.311 358.295C245.714 356.515 245.416 354.28 245.416 351.591C245.416 349.015 245.658 346.733 246.141 344.744C246.624 342.746 247.324 341.065 248.243 339.702C249.161 338.329 250.269 337.287 251.567 336.577C252.874 335.866 254.346 335.511 255.984 335.511C257.613 335.511 259.062 335.838 260.331 336.491C261.609 337.135 262.651 338.035 263.456 339.19C264.261 340.346 264.782 341.676 265.018 343.182H261.553C261.231 341.875 260.606 340.791 259.678 339.929C258.75 339.067 257.518 338.636 255.984 338.636C253.731 338.636 251.955 339.616 250.658 341.577C249.37 343.537 248.721 346.288 248.712 349.83H248.939C249.469 349.025 250.099 348.338 250.828 347.77C251.567 347.192 252.381 346.747 253.271 346.435C254.161 346.122 255.104 345.966 256.098 345.966C257.765 345.966 259.289 346.383 260.672 347.216C262.054 348.04 263.162 349.181 263.996 350.639C264.829 352.088 265.246 353.75 265.246 355.625C265.246 357.424 264.843 359.072 264.038 360.568C263.233 362.055 262.102 363.239 260.643 364.119C259.195 364.991 257.49 365.417 255.53 365.398ZM255.53 362.273C256.723 362.273 257.793 361.974 258.74 361.378C259.696 360.781 260.449 359.981 260.999 358.977C261.557 357.973 261.837 356.856 261.837 355.625C261.837 354.422 261.567 353.329 261.027 352.344C260.497 351.349 259.763 350.559 258.825 349.972C257.897 349.384 256.837 349.091 255.643 349.091C254.744 349.091 253.906 349.271 253.129 349.631C252.353 349.981 251.671 350.464 251.084 351.08C250.506 351.695 250.052 352.401 249.72 353.196C249.389 353.982 249.223 354.811 249.223 355.682C249.223 356.837 249.493 357.917 250.033 358.92C250.582 359.924 251.33 360.734 252.277 361.349C253.233 361.965 254.318 362.273 255.53 362.273Z" fill="black"/>
<path id="label-5" d="M129.33 459.034V456.136L142.114 435.909H144.216V440.398H142.795L133.136 455.682V455.909H150.352V459.034H129.33ZM143.023 465V458.153V456.804V435.909H146.375V465H143.023ZM154.994 459.034V456.136L167.778 435.909H169.88V440.398H168.46L158.8 455.682V455.909H176.016V459.034H154.994ZM168.687 465V458.153V456.804V435.909H172.039V465H168.687ZM205.146 448.892V452.017H192.419V448.892H205.146ZM231.329 465.398C229.662 465.398 228.161 465.066 226.826 464.403C225.491 463.741 224.421 462.831 223.616 461.676C222.811 460.521 222.371 459.205 222.295 457.727H225.704C225.836 459.044 226.433 460.133 227.494 460.994C228.564 461.847 229.842 462.273 231.329 462.273C232.522 462.273 233.583 461.993 234.511 461.435C235.448 460.876 236.182 460.109 236.712 459.134C237.252 458.149 237.522 457.036 237.522 455.795C237.522 454.527 237.243 453.395 236.684 452.401C236.135 451.397 235.377 450.606 234.411 450.028C233.445 449.451 232.342 449.157 231.102 449.148C230.211 449.138 229.298 449.276 228.36 449.56C227.423 449.834 226.651 450.189 226.045 450.625L222.749 450.227L224.511 435.909H239.624V439.034H227.465L226.442 447.614H226.613C227.21 447.14 227.958 446.747 228.857 446.435C229.757 446.122 230.694 445.966 231.67 445.966C233.45 445.966 235.036 446.392 236.428 447.244C237.83 448.087 238.928 449.242 239.724 450.71C240.529 452.178 240.931 453.854 240.931 455.739C240.931 457.595 240.514 459.252 239.681 460.71C238.857 462.159 237.721 463.305 236.272 464.148C234.823 464.981 233.175 465.398 231.329 465.398ZM256.403 465.398C254.528 465.398 252.857 465.076 251.389 464.432C249.931 463.788 248.771 462.893 247.909 461.747C247.057 460.592 246.593 459.252 246.517 457.727H250.097C250.172 458.665 250.494 459.474 251.062 460.156C251.631 460.829 252.374 461.349 253.293 461.719C254.211 462.088 255.229 462.273 256.347 462.273C257.597 462.273 258.705 462.055 259.67 461.619C260.636 461.184 261.394 460.578 261.943 459.801C262.492 459.025 262.767 458.125 262.767 457.102C262.767 456.032 262.502 455.09 261.972 454.276C261.441 453.452 260.665 452.808 259.642 452.344C258.619 451.88 257.369 451.648 255.892 451.648H253.562V448.523H255.892C257.047 448.523 258.061 448.314 258.932 447.898C259.813 447.481 260.499 446.894 260.991 446.136C261.493 445.379 261.744 444.489 261.744 443.466C261.744 442.481 261.527 441.624 261.091 440.895C260.655 440.166 260.04 439.598 259.244 439.19C258.458 438.783 257.53 438.58 256.46 438.58C255.456 438.58 254.509 438.764 253.619 439.134C252.739 439.493 252.019 440.019 251.46 440.71C250.902 441.392 250.598 442.216 250.551 443.182H247.142C247.199 441.657 247.658 440.322 248.52 439.176C249.382 438.021 250.509 437.121 251.901 436.477C253.302 435.833 254.841 435.511 256.517 435.511C258.316 435.511 259.86 435.876 261.148 436.605C262.436 437.325 263.425 438.277 264.116 439.46C264.808 440.644 265.153 441.922 265.153 443.295C265.153 444.934 264.723 446.33 263.861 447.486C263.009 448.641 261.848 449.441 260.381 449.886V450.114C262.218 450.417 263.652 451.198 264.685 452.457C265.717 453.707 266.233 455.256 266.233 457.102C266.233 458.684 265.802 460.104 264.94 461.364C264.088 462.614 262.923 463.598 261.446 464.318C259.969 465.038 258.288 465.398 256.403 465.398Z" fill="black"/>
<path id="label-6" d="M139.841 565.398C137.966 565.398 136.295 565.076 134.827 564.432C133.368 563.788 132.208 562.893 131.347 561.747C130.494 560.592 130.03 559.252 129.955 557.727H133.534C133.61 558.665 133.932 559.474 134.5 560.156C135.068 560.829 135.812 561.349 136.73 561.719C137.649 562.088 138.667 562.273 139.784 562.273C141.034 562.273 142.142 562.055 143.108 561.619C144.074 561.184 144.831 560.578 145.381 559.801C145.93 559.025 146.205 558.125 146.205 557.102C146.205 556.032 145.939 555.09 145.409 554.276C144.879 553.452 144.102 552.808 143.08 552.344C142.057 551.88 140.807 551.648 139.33 551.648H137V548.523H139.33C140.485 548.523 141.498 548.314 142.369 547.898C143.25 547.481 143.937 546.894 144.429 546.136C144.931 545.379 145.182 544.489 145.182 543.466C145.182 542.481 144.964 541.624 144.528 540.895C144.093 540.166 143.477 539.598 142.682 539.19C141.896 538.783 140.968 538.58 139.898 538.58C138.894 538.58 137.947 538.764 137.057 539.134C136.176 539.493 135.456 540.019 134.898 540.71C134.339 541.392 134.036 542.216 133.989 543.182H130.58C130.636 541.657 131.096 540.322 131.957 539.176C132.819 538.021 133.946 537.121 135.338 536.477C136.74 535.833 138.278 535.511 139.955 535.511C141.754 535.511 143.297 535.876 144.585 536.605C145.873 537.325 146.863 538.277 147.554 539.46C148.245 540.644 148.591 541.922 148.591 543.295C148.591 544.934 148.16 546.33 147.298 547.486C146.446 548.641 145.286 549.441 143.818 549.886V550.114C145.655 550.417 147.09 551.198 148.122 552.457C149.154 553.707 149.67 555.256 149.67 557.102C149.67 558.684 149.24 560.104 148.378 561.364C147.526 562.614 146.361 563.598 144.884 564.318C143.406 565.038 141.725 565.398 139.841 565.398ZM165.31 565.398C163.435 565.398 161.763 565.076 160.295 564.432C158.837 563.788 157.677 562.893 156.815 561.747C155.963 560.592 155.499 559.252 155.423 557.727H159.003C159.079 558.665 159.401 559.474 159.969 560.156C160.537 560.829 161.28 561.349 162.199 561.719C163.117 562.088 164.135 562.273 165.253 562.273C166.503 562.273 167.611 562.055 168.577 561.619C169.543 561.184 170.3 560.578 170.849 559.801C171.399 559.025 171.673 558.125 171.673 557.102C171.673 556.032 171.408 555.09 170.878 554.276C170.348 553.452 169.571 552.808 168.548 552.344C167.526 551.88 166.276 551.648 164.798 551.648H162.469V548.523H164.798C165.954 548.523 166.967 548.314 167.838 547.898C168.719 547.481 169.405 546.894 169.898 546.136C170.4 545.379 170.651 544.489 170.651 543.466C170.651 542.481 170.433 541.624 169.997 540.895C169.562 540.166 168.946 539.598 168.151 539.19C167.365 538.783 166.437 538.58 165.366 538.58C164.363 538.58 163.416 538.764 162.526 539.134C161.645 539.493 160.925 540.019 160.366 540.71C159.808 541.392 159.505 542.216 159.457 543.182H156.048C156.105 541.657 156.564 540.322 157.426 539.176C158.288 538.021 159.415 537.121 160.807 536.477C162.208 535.833 163.747 535.511 165.423 535.511C167.223 535.511 168.766 535.876 170.054 536.605C171.342 537.325 172.331 538.277 173.023 539.46C173.714 540.644 174.06 541.922 174.06 543.295C174.06 544.934 173.629 546.33 172.767 547.486C171.915 548.641 170.755 549.441 169.287 549.886V550.114C171.124 550.417 172.559 551.198 173.591 552.457C174.623 553.707 175.139 555.256 175.139 557.102C175.139 558.684 174.708 560.104 173.847 561.364C172.994 562.614 171.83 563.598 170.352 564.318C168.875 565.038 167.194 565.398 165.31 565.398ZM204.756 548.892V552.017H192.028V548.892H204.756ZM221.165 559.034V556.136L233.95 535.909H236.052V540.398H234.631L224.972 555.682V555.909H242.188V559.034H221.165ZM234.859 565V558.153V556.804V535.909H238.211V565H234.859ZM257.341 565.398C255.466 565.398 253.795 565.076 252.327 564.432C250.868 563.788 249.708 562.893 248.847 561.747C247.994 560.592 247.53 559.252 247.455 557.727H251.034C251.11 558.665 251.432 559.474 252 560.156C252.568 560.829 253.312 561.349 254.23 561.719C255.149 562.088 256.167 562.273 257.284 562.273C258.534 562.273 259.642 562.055 260.608 561.619C261.574 561.184 262.331 560.578 262.881 559.801C263.43 559.025 263.705 558.125 263.705 557.102C263.705 556.032 263.439 555.09 262.909 554.276C262.379 553.452 261.602 552.808 260.58 552.344C259.557 551.88 258.307 551.648 256.83 551.648H254.5V548.523H256.83C257.985 548.523 258.998 548.314 259.869 547.898C260.75 547.481 261.437 546.894 261.929 546.136C262.431 545.379 262.682 544.489 262.682 543.466C262.682 542.481 262.464 541.624 262.028 540.895C261.593 540.166 260.977 539.598 260.182 539.19C259.396 538.783 258.468 538.58 257.398 538.58C256.394 538.58 255.447 538.764 254.557 539.134C253.676 539.493 252.956 540.019 252.398 540.71C251.839 541.392 251.536 542.216 251.489 543.182H248.08C248.136 541.657 248.596 540.322 249.457 539.176C250.319 538.021 251.446 537.121 252.838 536.477C254.24 535.833 255.778 535.511 257.455 535.511C259.254 535.511 260.797 535.876 262.085 536.605C263.373 537.325 264.363 538.277 265.054 539.46C265.745 540.644 266.091 541.922 266.091 543.295C266.091 544.934 265.66 546.33 264.798 547.486C263.946 548.641 262.786 549.441 261.318 549.886V550.114C263.155 550.417 264.59 551.198 265.622 552.457C266.654 553.707 267.17 555.256 267.17 557.102C267.17 558.684 266.74 560.104 265.878 561.364C265.026 562.614 263.861 563.598 262.384 564.318C260.906 565.038 259.225 565.398 257.341 565.398Z" fill="black"/>
<path id="label-7" d="M130.011 665V662.443L139.614 651.932C140.741 650.701 141.669 649.631 142.398 648.722C143.127 647.803 143.667 646.941 144.017 646.136C144.377 645.322 144.557 644.47 144.557 643.58C144.557 642.557 144.311 641.671 143.818 640.923C143.335 640.175 142.672 639.598 141.83 639.19C140.987 638.783 140.04 638.58 138.989 638.58C137.871 638.58 136.896 638.812 136.062 639.276C135.239 639.73 134.599 640.369 134.145 641.193C133.7 642.017 133.477 642.983 133.477 644.091H130.125C130.125 642.386 130.518 640.89 131.304 639.602C132.09 638.314 133.16 637.311 134.514 636.591C135.878 635.871 137.407 635.511 139.102 635.511C140.807 635.511 142.317 635.871 143.634 636.591C144.95 637.311 145.982 638.281 146.73 639.503C147.478 640.724 147.852 642.083 147.852 643.58C147.852 644.65 147.658 645.696 147.27 646.719C146.891 647.732 146.228 648.864 145.281 650.114C144.344 651.354 143.042 652.869 141.375 654.659L134.841 661.648V661.875H148.364V665H130.011ZM164.06 665.398C162.185 665.398 160.513 665.076 159.045 664.432C157.587 663.788 156.427 662.893 155.565 661.747C154.713 660.592 154.249 659.252 154.173 657.727H157.753C157.829 658.665 158.151 659.474 158.719 660.156C159.287 660.829 160.03 661.349 160.949 661.719C161.867 662.088 162.885 662.273 164.003 662.273C165.253 662.273 166.361 662.055 167.327 661.619C168.293 661.184 169.05 660.578 169.599 659.801C170.149 659.025 170.423 658.125 170.423 657.102C170.423 656.032 170.158 655.09 169.628 654.276C169.098 653.452 168.321 652.808 167.298 652.344C166.276 651.88 165.026 651.648 163.548 651.648H161.219V648.523H163.548C164.704 648.523 165.717 648.314 166.588 647.898C167.469 647.481 168.155 646.894 168.648 646.136C169.15 645.379 169.401 644.489 169.401 643.466C169.401 642.481 169.183 641.624 168.747 640.895C168.312 640.166 167.696 639.598 166.901 639.19C166.115 638.783 165.187 638.58 164.116 638.58C163.113 638.58 162.166 638.764 161.276 639.134C160.395 639.493 159.675 640.019 159.116 640.71C158.558 641.392 158.255 642.216 158.207 643.182H154.798C154.855 641.657 155.314 640.322 156.176 639.176C157.038 638.021 158.165 637.121 159.557 636.477C160.958 635.833 162.497 635.511 164.173 635.511C165.973 635.511 167.516 635.876 168.804 636.605C170.092 637.325 171.081 638.277 171.773 639.46C172.464 640.644 172.81 641.922 172.81 643.295C172.81 644.934 172.379 646.33 171.517 647.486C170.665 648.641 169.505 649.441 168.037 649.886V650.114C169.874 650.417 171.309 651.198 172.341 652.457C173.373 653.707 173.889 655.256 173.889 657.102C173.889 658.684 173.458 660.104 172.597 661.364C171.744 662.614 170.58 663.598 169.102 664.318C167.625 665.038 165.944 665.398 164.06 665.398ZM203.506 648.892V652.017H190.778V648.892H203.506ZM230.427 665.398C228.552 665.398 226.88 665.076 225.413 664.432C223.954 663.788 222.794 662.893 221.933 661.747C221.08 660.592 220.616 659.252 220.54 657.727H224.12C224.196 658.665 224.518 659.474 225.086 660.156C225.654 660.829 226.397 661.349 227.316 661.719C228.235 662.088 229.253 662.273 230.37 662.273C231.62 662.273 232.728 662.055 233.694 661.619C234.66 661.184 235.417 660.578 235.967 659.801C236.516 659.025 236.79 658.125 236.79 657.102C236.79 656.032 236.525 655.09 235.995 654.276C235.465 653.452 234.688 652.808 233.665 652.344C232.643 651.88 231.393 651.648 229.915 651.648H227.586V648.523H229.915C231.071 648.523 232.084 648.314 232.955 647.898C233.836 647.481 234.522 646.894 235.015 646.136C235.517 645.379 235.768 644.489 235.768 643.466C235.768 642.481 235.55 641.624 235.114 640.895C234.679 640.166 234.063 639.598 233.268 639.19C232.482 638.783 231.554 638.58 230.484 638.58C229.48 638.58 228.533 638.764 227.643 639.134C226.762 639.493 226.042 640.019 225.484 640.71C224.925 641.392 224.622 642.216 224.575 643.182H221.165C221.222 641.657 221.682 640.322 222.543 639.176C223.405 638.021 224.532 637.121 225.924 636.477C227.326 635.833 228.864 635.511 230.54 635.511C232.34 635.511 233.883 635.876 235.171 636.605C236.459 637.325 237.449 638.277 238.14 639.46C238.831 640.644 239.177 641.922 239.177 643.295C239.177 644.934 238.746 646.33 237.884 647.486C237.032 648.641 235.872 649.441 234.404 649.886V650.114C236.241 650.417 237.676 651.198 238.708 652.457C239.74 653.707 240.256 655.256 240.256 657.102C240.256 658.684 239.826 660.104 238.964 661.364C238.112 662.614 236.947 663.598 235.469 664.318C233.992 665.038 232.311 665.398 230.427 665.398ZM246.066 665V662.443L255.668 651.932C256.795 650.701 257.723 649.631 258.452 648.722C259.182 647.803 259.721 646.941 260.072 646.136C260.432 645.322 260.612 644.47 260.612 643.58C260.612 642.557 260.365 641.671 259.873 640.923C259.39 640.175 258.727 639.598 257.884 639.19C257.041 638.783 256.094 638.58 255.043 638.58C253.926 638.58 252.951 638.812 252.117 639.276C251.293 639.73 250.654 640.369 250.2 641.193C249.754 642.017 249.532 642.983 249.532 644.091H246.18C246.18 642.386 246.573 640.89 247.359 639.602C248.145 638.314 249.215 637.311 250.569 636.591C251.933 635.871 253.462 635.511 255.157 635.511C256.862 635.511 258.372 635.871 259.688 636.591C261.004 637.311 262.037 638.281 262.785 639.503C263.533 640.724 263.907 642.083 263.907 643.58C263.907 644.65 263.713 645.696 263.325 646.719C262.946 647.732 262.283 648.864 261.336 650.114C260.398 651.354 259.096 652.869 257.43 654.659L250.896 661.648V661.875H264.418V665H246.066Z" fill="black"/>
<path id="label-8" d="M130.523 765V735.909H133.875V746.648H134.159C134.405 746.269 134.746 745.786 135.182 745.199C135.627 744.602 136.261 744.072 137.085 743.608C137.919 743.134 139.045 742.898 140.466 742.898C142.303 742.898 143.922 743.357 145.324 744.276C146.725 745.194 147.819 746.496 148.605 748.182C149.391 749.867 149.784 751.856 149.784 754.148C149.784 756.458 149.391 758.461 148.605 760.156C147.819 761.842 146.73 763.149 145.338 764.077C143.946 764.995 142.341 765.455 140.523 765.455C139.121 765.455 137.999 765.223 137.156 764.759C136.313 764.285 135.665 763.75 135.21 763.153C134.756 762.547 134.405 762.045 134.159 761.648H133.761V765H130.523ZM133.818 754.091C133.818 755.739 134.06 757.192 134.543 758.452C135.026 759.702 135.731 760.682 136.659 761.392C137.587 762.093 138.723 762.443 140.068 762.443C141.47 762.443 142.639 762.074 143.577 761.335C144.524 760.587 145.234 759.583 145.707 758.324C146.19 757.055 146.432 755.644 146.432 754.091C146.432 752.557 146.195 751.174 145.722 749.943C145.258 748.703 144.552 747.723 143.605 747.003C142.668 746.274 141.489 745.909 140.068 745.909C138.705 745.909 137.559 746.255 136.631 746.946C135.703 747.628 135.002 748.584 134.528 749.815C134.055 751.037 133.818 752.462 133.818 754.091ZM164.06 765.455C161.957 765.455 160.144 764.991 158.619 764.062C157.104 763.125 155.935 761.818 155.111 760.142C154.296 758.456 153.889 756.496 153.889 754.261C153.889 752.027 154.296 750.057 155.111 748.352C155.935 746.638 157.08 745.303 158.548 744.347C160.026 743.381 161.749 742.898 163.719 742.898C164.855 742.898 165.977 743.087 167.085 743.466C168.193 743.845 169.202 744.46 170.111 745.312C171.02 746.155 171.744 747.273 172.284 748.665C172.824 750.057 173.094 751.771 173.094 753.807V755.227H156.276V752.33H169.685C169.685 751.098 169.438 750 168.946 749.034C168.463 748.068 167.772 747.306 166.872 746.747C165.982 746.188 164.931 745.909 163.719 745.909C162.384 745.909 161.228 746.241 160.253 746.903C159.287 747.557 158.544 748.409 158.023 749.46C157.502 750.511 157.241 751.638 157.241 752.841V754.773C157.241 756.42 157.526 757.817 158.094 758.963C158.671 760.099 159.472 760.966 160.494 761.562C161.517 762.15 162.705 762.443 164.06 762.443C164.94 762.443 165.736 762.32 166.446 762.074C167.166 761.818 167.786 761.439 168.307 760.938C168.828 760.426 169.23 759.792 169.514 759.034L172.753 759.943C172.412 761.042 171.839 762.008 171.034 762.841C170.229 763.665 169.235 764.309 168.051 764.773C166.867 765.227 165.537 765.455 164.06 765.455ZM181.545 735.909V765H178.193V735.909H181.545ZM196.549 765.455C194.579 765.455 192.851 764.986 191.364 764.048C189.887 763.111 188.732 761.799 187.898 760.114C187.075 758.428 186.663 756.458 186.663 754.205C186.663 751.932 187.075 749.948 187.898 748.253C188.732 746.558 189.887 745.241 191.364 744.304C192.851 743.366 194.579 742.898 196.549 742.898C198.519 742.898 200.242 743.366 201.719 744.304C203.206 745.241 204.362 746.558 205.185 748.253C206.019 749.948 206.435 751.932 206.435 754.205C206.435 756.458 206.019 758.428 205.185 760.114C204.362 761.799 203.206 763.111 201.719 764.048C200.242 764.986 198.519 765.455 196.549 765.455ZM196.549 762.443C198.045 762.443 199.276 762.06 200.242 761.293C201.208 760.526 201.923 759.517 202.387 758.267C202.851 757.017 203.083 755.663 203.083 754.205C203.083 752.746 202.851 751.387 202.387 750.128C201.923 748.868 201.208 747.85 200.242 747.074C199.276 746.297 198.045 745.909 196.549 745.909C195.053 745.909 193.822 746.297 192.856 747.074C191.89 747.85 191.175 748.868 190.711 750.128C190.247 751.387 190.015 752.746 190.015 754.205C190.015 755.663 190.247 757.017 190.711 758.267C191.175 759.517 191.89 760.526 192.856 761.293C193.822 762.06 195.053 762.443 196.549 762.443ZM215.754 765L209.106 743.182H212.629L217.344 759.886H217.572L222.231 743.182H225.81L230.413 759.83H230.64L235.356 743.182H238.879L232.231 765H228.935L224.163 748.239H223.822L219.049 765H215.754ZM254.504 765V762.443L264.106 751.932C265.233 750.701 266.161 749.631 266.89 748.722C267.619 747.803 268.159 746.941 268.509 746.136C268.869 745.322 269.049 744.47 269.049 743.58C269.049 742.557 268.803 741.671 268.31 740.923C267.827 740.175 267.165 739.598 266.322 739.19C265.479 738.783 264.532 738.58 263.481 738.58C262.363 738.58 261.388 738.812 260.555 739.276C259.731 739.73 259.092 740.369 258.637 741.193C258.192 742.017 257.969 742.983 257.969 744.091H254.617C254.617 742.386 255.01 740.89 255.796 739.602C256.582 738.314 257.652 737.311 259.006 736.591C260.37 735.871 261.899 735.511 263.594 735.511C265.299 735.511 266.809 735.871 268.126 736.591C269.442 737.311 270.474 738.281 271.222 739.503C271.97 740.724 272.344 742.083 272.344 743.58C272.344 744.65 272.15 745.696 271.762 746.719C271.383 747.732 270.72 748.864 269.773 750.114C268.836 751.354 267.534 752.869 265.867 754.659L259.333 761.648V761.875H272.856V765H254.504ZM288.552 765.398C286.677 765.398 285.005 765.076 283.538 764.432C282.079 763.788 280.919 762.893 280.058 761.747C279.205 760.592 278.741 759.252 278.665 757.727H282.245C282.321 758.665 282.643 759.474 283.211 760.156C283.779 760.829 284.522 761.349 285.441 761.719C286.36 762.088 287.378 762.273 288.495 762.273C289.745 762.273 290.853 762.055 291.819 761.619C292.785 761.184 293.542 760.578 294.092 759.801C294.641 759.025 294.915 758.125 294.915 757.102C294.915 756.032 294.65 755.09 294.12 754.276C293.59 753.452 292.813 752.808 291.79 752.344C290.768 751.88 289.518 751.648 288.04 751.648H285.711V748.523H288.04C289.196 748.523 290.209 748.314 291.08 747.898C291.961 747.481 292.647 746.894 293.14 746.136C293.642 745.379 293.893 744.489 293.893 743.466C293.893 742.481 293.675 741.624 293.239 740.895C292.804 740.166 292.188 739.598 291.393 739.19C290.607 738.783 289.679 738.58 288.609 738.58C287.605 738.58 286.658 738.764 285.768 739.134C284.887 739.493 284.167 740.019 283.609 740.71C283.05 741.392 282.747 742.216 282.7 743.182H279.29C279.347 741.657 279.807 740.322 280.668 739.176C281.53 738.021 282.657 737.121 284.049 736.477C285.451 735.833 286.989 735.511 288.665 735.511C290.465 735.511 292.008 735.876 293.296 736.605C294.584 737.325 295.574 738.277 296.265 739.46C296.956 740.644 297.302 741.922 297.302 743.295C297.302 744.934 296.871 746.33 296.009 747.486C295.157 748.641 293.997 749.441 292.529 749.886V750.114C294.366 750.417 295.801 751.198 296.833 752.457C297.865 753.707 298.381 755.256 298.381 757.102C298.381 758.684 297.951 760.104 297.089 761.364C296.237 762.614 295.072 763.598 293.594 764.318C292.117 765.038 290.436 765.398 288.552 765.398Z" fill="black"/>
</g>
</svg>
