<svg width="134" height="135" viewBox="0 0 134 135" xmlns="http://www.w3.org/2000/svg">
    <defs>
        <linearGradient x1="84.443%" y1="4.569%" x2="21.89%" y2="87.09%" id="olz6xk5e4a">
            <stop stop-color="#0095FF" offset="0%"/>
            <stop stop-color="#1550EF" offset="100%"/>
        </linearGradient>
        <linearGradient x1="84.345%" y1="4.569%" x2="21.97%" y2="87.09%" id="0jav2ec4bb">
            <stop stop-color="#0095FF" offset="0%"/>
            <stop stop-color="#1550EF" offset="100%"/>
        </linearGradient>
    </defs>
    <g fill="none" fill-rule="evenodd">
        <path d="M66.87 4.925c-25.085.009-47.693 15.25-57.284 38.615-9.59 23.365-4.273 50.253 13.472 68.126 17.745 17.872 44.423 23.209 67.593 13.52 23.17-9.687 38.269-32.491 38.256-57.777-.018-34.523-27.792-62.496-62.038-62.484zm0 122.542c-32.881-.006-59.534-26.876-59.536-60.022-.002-33.146 26.647-60.02 59.528-60.03 32.88-.01 59.546 26.848 59.564 59.994.009 15.927-6.263 31.205-17.433 42.47-11.17 11.264-26.324 17.591-42.124 17.588z"/>
        <path d="M131.581 73.062h-.064a3.202 3.202 0 0 1-1.635-2.962c.062-1.221.81-2.3 1.926-2.778a3.198 3.198 0 0 0 1.97-3.081 3.193 3.193 0 0 0-2.197-2.921h-.075a3.19 3.19 0 0 1-2.132-2.618 3.206 3.206 0 0 1 1.399-3.08 3.208 3.208 0 0 0 1.345-3.358 3.181 3.181 0 0 0-2.629-2.469h-.065a3.178 3.178 0 0 1-2.53-2.178 3.214 3.214 0 0 1 .794-3.258 3.215 3.215 0 0 0 .727-3.547 3.17 3.17 0 0 0-3.024-1.954h-.076a3.167 3.167 0 0 1-2.946-1.731 3.218 3.218 0 0 1 .315-3.423 3.218 3.218 0 0 0 .089-3.623 3.16 3.16 0 0 0-3.325-1.378h-.076a3.157 3.157 0 0 1-3.152-1.144 3.218 3.218 0 0 1-.374-3.357 3.216 3.216 0 0 0-.546-3.597 3.153 3.153 0 0 0-3.531-.752h-.065a3.151 3.151 0 0 1-3.345-.525 3.213 3.213 0 0 1-.97-3.27 3.21 3.21 0 0 0-1.188-3.415 3.15 3.15 0 0 0-3.589-.107h-.065a3.15 3.15 0 0 1-3.3.021 3.204 3.204 0 0 1-1.532-2.946 3.201 3.201 0 0 0-1.773-3.153 3.152 3.152 0 0 0-3.555.544 3.152 3.152 0 0 1-3.289.662A3.193 3.193 0 0 1 87.06 4.98a3.19 3.19 0 0 0-2.307-2.777 3.157 3.157 0 0 0-3.398 1.178 3.159 3.159 0 0 1-3.118 1.24 3.18 3.18 0 0 1-2.48-2.273A3.177 3.177 0 0 0 72.988.036a3.166 3.166 0 0 0-3.131 1.78 3.169 3.169 0 0 1-2.848 1.79 3.169 3.169 0 0 1-2.847-1.79A3.166 3.166 0 0 0 61.027.04a3.178 3.178 0 0 0-2.764 2.32 3.18 3.18 0 0 1-2.48 2.272 3.159 3.159 0 0 1-3.118-1.24 3.157 3.157 0 0 0-3.398-1.178A3.19 3.19 0 0 0 46.96 4.99a3.193 3.193 0 0 1-2.038 2.685 3.152 3.152 0 0 1-3.29-.662 3.152 3.152 0 0 0-3.549-.545 3.201 3.201 0 0 0-1.778 3.143 3.204 3.204 0 0 1-1.525 3.008 3.15 3.15 0 0 1-3.35-.05h-.065a3.15 3.15 0 0 0-3.59.107 3.21 3.21 0 0 0-1.188 3.415 3.213 3.213 0 0 1-.969 3.27 3.151 3.151 0 0 1-3.345.525h-.065a3.153 3.153 0 0 0-3.532.752 3.216 3.216 0 0 0-.545 3.596c.52 1.1.375 2.402-.374 3.357a3.157 3.157 0 0 1-3.153 1.145h-.075a3.16 3.16 0 0 0-3.325 1.378 3.218 3.218 0 0 0 .09 3.623c.708.988.796 2.297.228 3.373a3.167 3.167 0 0 1-2.903 1.693h-.27a3.17 3.17 0 0 0-2.997 1.944 3.215 3.215 0 0 0 .689 3.525 3.214 3.214 0 0 1 .793 3.258 3.178 3.178 0 0 1-2.53 2.178H4.24a3.181 3.181 0 0 0-2.63 2.47 3.208 3.208 0 0 0 1.346 3.358 3.206 3.206 0 0 1 1.398 3.08 3.19 3.19 0 0 1-2.131 2.617l-.065.087a3.193 3.193 0 0 0-2.153 2.906 3.198 3.198 0 0 0 1.927 3.063 3.196 3.196 0 0 1 1.926 2.778 3.202 3.202 0 0 1-1.635 2.963l-.065.032a3.204 3.204 0 0 0-1.606 3.246 3.187 3.187 0 0 0 2.437 2.669 3.183 3.183 0 0 1 2.406 2.38 3.211 3.211 0 0 1-1.08 3.219H4.26a3.212 3.212 0 0 0-1.011 3.487 3.174 3.174 0 0 0 2.877 2.188 3.172 3.172 0 0 1 2.767 1.923 3.217 3.217 0 0 1-.502 3.35 3.217 3.217 0 0 0-.381 3.614 3.164 3.164 0 0 0 3.218 1.638 3.161 3.161 0 0 1 3.063 1.396 3.218 3.218 0 0 1 .097 3.388 3.217 3.217 0 0 0 .267 3.62 3.155 3.155 0 0 0 3.454 1.033 3.153 3.153 0 0 1 3.265.822 3.215 3.215 0 0 1 .693 3.32 3.215 3.215 0 0 0 .709 3.644 3.152 3.152 0 0 0 3.648.51 3.15 3.15 0 0 1 3.362.222 3.209 3.209 0 0 1 1.265 3.148 3.206 3.206 0 0 0 1.503 3.306 3.15 3.15 0 0 0 3.599-.25 3.15 3.15 0 0 1 3.34-.383 3.198 3.198 0 0 1 1.804 2.861 3.195 3.195 0 0 0 2.063 2.975 3.154 3.154 0 0 0 3.492-.888 3.155 3.155 0 0 1 3.222-.974 3.187 3.187 0 0 1 2.278 2.497 3.184 3.184 0 0 0 2.545 2.577 3.161 3.161 0 0 0 3.29-1.49 3.164 3.164 0 0 1 3-1.54 3.174 3.174 0 0 1 2.684 2.05 3.172 3.172 0 0 0 2.966 2.067c1.319 0 2.5-.823 2.966-2.066a3.174 3.174 0 0 1 2.683-2.05 3.164 3.164 0 0 1 3 1.539 3.161 3.161 0 0 0 3.291 1.49 3.184 3.184 0 0 0 2.545-2.577 3.187 3.187 0 0 1 2.277-2.497 3.155 3.155 0 0 1 3.223.974 3.154 3.154 0 0 0 3.492.888 3.195 3.195 0 0 0 2.063-2.975 3.198 3.198 0 0 1 1.803-2.861 3.15 3.15 0 0 1 3.341.382 3.15 3.15 0 0 0 3.599.25 3.206 3.206 0 0 0 1.503-3.305 3.209 3.209 0 0 1 1.265-3.148 3.15 3.15 0 0 1 3.362-.222 3.15 3.15 0 0 0 3.575-.403 3.213 3.213 0 0 0 .9-3.511 3.215 3.215 0 0 1 .693-3.321 3.153 3.153 0 0 1 3.266-.822 3.155 3.155 0 0 0 3.453-1.032 3.217 3.217 0 0 0 .268-3.621 3.218 3.218 0 0 1 .096-3.388 3.161 3.161 0 0 1 3.064-1.396 3.164 3.164 0 0 0 3.218-1.638 3.217 3.217 0 0 0-.382-3.613 3.217 3.217 0 0 1-.502-3.35 3.172 3.172 0 0 1 2.767-1.923 3.174 3.174 0 0 0 2.878-2.189 3.212 3.212 0 0 0-1.012-3.487h-.054a3.211 3.211 0 0 1-1.09-3.208 3.184 3.184 0 0 1 2.385-2.391 3.183 3.183 0 0 0 2.796-2.757 3.2 3.2 0 0 0-1.988-3.397zM66.87 129.957c-34.243-.012-61.996-28-61.994-62.52.002-34.519 27.758-62.504 62.001-62.512 34.244-.008 62.013 27.964 62.03 62.484.01 16.59-6.524 32.502-18.16 44.234-11.635 11.731-27.42 18.32-43.877 18.314z" fill="url(#olz6xk5e4a)" fill-rule="nonzero"/>
        <circle fill="#FFF" cx="68.237" cy="64.616" r="41.262"/>
        <path d="M66.87 7.426c-24.088.004-45.8 14.637-55.01 37.073-9.211 22.436-4.106 48.255 12.934 65.417s42.658 22.285 64.906 12.98c22.248-9.306 36.744-31.206 36.726-55.487-.024-33.14-26.683-59.99-59.557-59.983zm0 93.393c-18.282-.006-33.099-14.946-33.101-33.374-.002-18.429 14.812-33.372 33.093-33.382 18.281-.01 33.111 14.917 33.13 33.346A33.515 33.515 0 0 1 90.3 91.035a32.977 32.977 0 0 1-23.432 9.784z" fill="url(#0jav2ec4bb)" fill-rule="nonzero"/>
        <path fill="#0681FB" fill-rule="nonzero" d="M48.933 60.483V74.03h-3.106V63.005h-2.686v-2.522zM54.056 73.432a5.565 5.565 0 0 1-2.049-2.414 9.957 9.957 0 0 1 0-7.524 5.576 5.576 0 0 1 2.05-2.413 5.741 5.741 0 0 1 5.953 0 5.576 5.576 0 0 1 2.049 2.413 9.957 9.957 0 0 1 0 7.524 5.565 5.565 0 0 1-2.05 2.414 5.73 5.73 0 0 1-5.953 0zm4.908-2.881c.532-1 .775-2.13.7-3.262a6.096 6.096 0 0 0-.7-3.262 2.271 2.271 0 0 0-1.92-1.062c-.778 0-1.502.4-1.92 1.062-.532 1-.775 2.13-.701 3.262a6.086 6.086 0 0 0 .701 3.262 2.271 2.271 0 0 0 1.92 1.062c.778 0 1.502-.4 1.92-1.062zM67.096 73.432a5.565 5.565 0 0 1-2.05-2.414 9.957 9.957 0 0 1 0-7.524 5.576 5.576 0 0 1 2.05-2.413 5.73 5.73 0 0 1 5.953 0 5.576 5.576 0 0 1 2.05 2.413 9.946 9.946 0 0 1 0 7.524 5.565 5.565 0 0 1-2.05 2.414 5.73 5.73 0 0 1-5.953 0zm4.907-2.881c.532-1 .775-2.13.701-3.262a6.107 6.107 0 0 0-.7-3.262 2.271 2.271 0 0 0-1.92-1.062c-.779 0-1.503.4-1.92 1.062-.532 1-.775 2.13-.702 3.262a6.107 6.107 0 0 0 .702 3.262 2.271 2.271 0 0 0 1.92 1.062c.777 0 1.501-.4 1.92-1.062zM78.043 66.789a4.431 4.431 0 0 1 0-5.436 3.362 3.362 0 0 1 2.405-1.015c.904 0 1.77.365 2.405 1.015a4.475 4.475 0 0 1 0 5.436 3.362 3.362 0 0 1-2.405 1.015c-.904 0-1.77-.366-2.405-1.015zm3.44-1.087a3.636 3.636 0 0 0 0-3.262 1.227 1.227 0 0 0-1.024-.554c-.412 0-.797.208-1.025.554a3.504 3.504 0 0 0 0 3.196c.228.347.613.555 1.025.555.412 0 .797-.208 1.024-.555v.066zm6.957-5.22h2.286L81.57 74.03h-2.287l9.157-13.547zm-.604 13.243a3.057 3.057 0 0 1-1.176-1.304 4.819 4.819 0 0 1 0-3.947 3.068 3.068 0 0 1 1.176-1.305 3.27 3.27 0 0 1 1.715-.456c.91-.03 1.787.338 2.405 1.01a4.431 4.431 0 0 1 0 5.437 3.116 3.116 0 0 1-2.405 1.011 3.28 3.28 0 0 1-1.693-.435l-.022-.01zm2.761-1.674c.5-1.006.5-2.19 0-3.196a1.173 1.173 0 0 0-1.078-.555 1.184 1.184 0 0 0-1.014.544 3.548 3.548 0 0 0 0 3.261c.228.347.612.555 1.024.555.412 0 .797-.208 1.025-.555l.043-.054z"/>
        <path d="m29.768 100.82 1.283-1.338 3.042 2.979-2.643 2.74a8.705 8.705 0 0 1-2.33-.696 7.338 7.338 0 0 1-1.8-1.348 5.438 5.438 0 0 1-1.478-2.175 3.747 3.747 0 0 1 0-2.25 5.335 5.335 0 0 1 1.316-2.175 5.13 5.13 0 0 1 2.157-1.413 3.875 3.875 0 0 1 2.405 0c.776.311 1.476.79 2.049 1.402a6.872 6.872 0 0 1 1.391 1.74c.22.449.32.947.291 1.446a3.729 3.729 0 0 1-.474 1.533l-2.233-1.522c.152-.29.202-.624.14-.946a1.752 1.752 0 0 0-.528-.837c-.38-.4-.92-.605-1.467-.555a3.016 3.016 0 0 0-1.769 1.088 3.148 3.148 0 0 0-1.078 1.87 1.92 1.92 0 0 0 .658 1.51c.212.212.456.388.722.523.32.153.657.27 1.004.348l.582-.61-1.24-1.315zM42.408 103.418l2.308 1.478-2.847 4.502a4.498 4.498 0 0 1-1.003 1.087c-.383.303-.83.515-1.305.62a3.05 3.05 0 0 1-1.327 0 5.532 5.532 0 0 1-1.78-.783c-.397-.26-.779-.543-1.143-.848a3.72 3.72 0 0 1-.884-1 3.28 3.28 0 0 1-.388-1.164 2.86 2.86 0 0 1 .054-1.185c.129-.497.329-.973.593-1.413l2.847-4.502 2.308 1.49-2.912 4.61a1.576 1.576 0 0 0-.259 1.261 1.736 1.736 0 0 0 1.877 1.218c.404-.11.747-.38.949-.75l2.912-4.621zM47.78 114.16l-2.902-1.088-.938 1.218-2.61-1.087 6.374-7.1 2.782 1.087-.161 9.579-2.675-1.087.13-1.522zm.172-2.012.259-3.36-2.082 2.643 1.823.717zM52.277 117.27l1.65-8.807 4.497.837c.65.098 1.283.292 1.877.576.408.22.73.573.917 1 .285.64.295 1.37.028 2.016a2.522 2.522 0 0 1-1.441 1.398c-.327.11-.67.17-1.014.174.447.19.803.55.992 1 .113.197.207.405.28.62l.842 2.794-3.052-.565-.95-2.968a2.117 2.117 0 0 0-.366-.772 1.15 1.15 0 0 0-.626-.326h-.237l-.669 3.533-2.728-.51zm3.677-4.741 1.144.217c.244.023.49.023.733 0a.72.72 0 0 0 .485-.195.84.84 0 0 0 .26-.479.831.831 0 0 0-.152-.707 1.633 1.633 0 0 0-.97-.413l-1.187-.217-.313 1.794zM68.25 117.421h-3.117l-.42 1.522h-2.805l3.236-8.98h2.998l3.397 8.937h-2.88l-.41-1.479zm-.583-1.935-1.003-3.262-.949 3.262h1.952zM71.766 109.81l2.513-.521 4.314 4.175-.992-4.86 2.534-.533 1.801 8.774-2.534.533-4.25-4.143.993 4.817-2.535.522zM80.653 107.94l7.7-3.261.853 2.044-2.589 1.087 2.589 6.22-2.535 1.086-2.545-6.23-2.589 1.088zM88.904 104.375l6.18-4.034 1.078 1.609-3.915 2.425.766 1.195 3.592-2.283.981 1.533-3.592 2.349.917 1.467 3.98-2.598 1.079 1.707-6.288 4.11zM95.882 99.634l5.393-5.066 1.294 1.402-3.344 3.164.971 1.087 3.128-2.946 1.24 1.337-3.182 2.903 1.198 1.294 3.462-3.262 1.38 1.479-5.479 5.164zM15.671 66.06l9.038-.108v2.522l-5.889.022c.287.367.54.76.755 1.174.226.458.414.935.561 1.424H18.11a6.04 6.04 0 0 0-1.003-1.957 3.983 3.983 0 0 0-1.424-1.087l-.01-1.99zM23.846 59.124l-.787 4.468-1.995-.358-4.487-5.437.378-2.174 5.392.957.194-1.088 1.888.337-.194 1.088 1.64.293-.378 2.175-1.65-.261zm-1.887-.337-2.75-.49 2.362 2.85.388-2.36zM19.65 47.523l1.856-3.664c.27-.605.66-1.149 1.143-1.598a3.15 3.15 0 0 1 1.392-.674 3.874 3.874 0 0 1 1.585 0 6.556 6.556 0 0 1 1.629.598c.7.31 1.333.752 1.865 1.304.356.409.618.891.766 1.414.139.465.161.958.065 1.435a6.461 6.461 0 0 1-.529 1.587l-1.855 3.664-7.916-4.066zm3-1.544 4.313 2.229.302-.609c.215-.361.348-.766.389-1.185a1.31 1.31 0 0 0-.335-.815 4.162 4.162 0 0 0-1.283-.892 2.969 2.969 0 0 0-1.93-.478c-.524.18-.948.575-1.166 1.087l-.29.663zM33.888 38.651l-1.963 2.446.873 1.305-1.758 2.175-4.832-8.252 1.834-2.36 9.07 3.001-1.8 2.261-1.424-.576zm-1.855-.772-3.107-1.25 1.877 2.783 1.23-1.533zM30.372 31.171l2.34-1.979 3.3 1.153-.56-3.48 2.297-1.978.68 6.23 2.394 2.87-2.157 1.783-2.32-2.86zM44.058 21.136l3.398-1.294 3.235 4.599-.636-5.588 3.376-1.294 3.16 8.372-2.157.804-2.416-6.393.83 7.013-1.898.728-4.034-5.762 2.416 6.393-2.103.804zM56.958 21.31a4.65 4.65 0 0 1 .82-3.534 4.549 4.549 0 0 1 3.235-1.598 4.62 4.62 0 0 1 3.537.805 4.536 4.536 0 0 1 1.575 3.207 5.565 5.565 0 0 1-.248 2.642 3.769 3.769 0 0 1-1.327 1.729 4.968 4.968 0 0 1-2.394.837 5.63 5.63 0 0 1-2.524-.196 3.746 3.746 0 0 1-1.758-1.337 5.103 5.103 0 0 1-.916-2.555zm2.728-.305c.016.691.268 1.355.712 1.881a1.888 1.888 0 0 0 2.718-.304 3.34 3.34 0 0 0 .248-2.175 2.784 2.784 0 0 0-.712-1.783 1.727 1.727 0 0 0-1.434-.424 1.67 1.67 0 0 0-1.262.74 3.033 3.033 0 0 0-.27 2.065zM68.703 15.841l2.545.304 2.75 5.317.572-4.925 2.567.304-1.079 8.905-2.567-.305-2.739-5.284-.528 4.85-2.567-.305zM80.351 17.668l6.946 2.446-.626 1.805-4.314-1.533-.496 1.359 4.034 1.424-.604 1.729-4.034-1.425-.582 1.664 4.53 1.565-.67 1.914-7.118-2.522zM89.314 20.962l2.61 1.598v3.523l3.095-1.642 2.589 1.598-5.641 2.631-1.942 3.208-2.383-1.435 1.941-3.262zM102.946 30.801l3.365 3.925c.504.514.793 1.203.81 1.925a2.083 2.083 0 0 1-.745 1.565c-.368.339-.85.525-1.348.522a2.145 2.145 0 0 1-1.079-.337c.282.482.395 1.044.324 1.598-.08.513-.341.98-.733 1.316a2.42 2.42 0 0 1-1.155.576c-.414.08-.842.046-1.24-.098a2.9 2.9 0 0 1-.906-.609c-.313-.27-.611-.557-.895-.858l-3.106-3.621 6.708-5.904zm-3.462 6.72.917 1.087c.204.29.501.501.841.598a.848.848 0 0 0 .701-.229.796.796 0 0 0 .291-.641 1.635 1.635 0 0 0-.474-.924l-.917-1.087-1.359 1.195zm2.643-2.305.787.913c.183.26.45.448.755.533a.805.805 0 0 0 .647-.229.774.774 0 0 0 .302-.554 1.374 1.374 0 0 0-.41-.816l-.798-.924-1.283 1.077zM105.923 47.74l-1.5-2.761-1.498.326-1.348-2.479 9.404-1.348 1.435 2.653-6.18 7.263-1.38-2.545 1.067-1.109zm1.413-1.435 2.33-2.413-3.236.685.906 1.728zM111.38 56.308v2.533a4.39 4.39 0 0 1-1.844-.26 3.311 3.311 0 0 1-1.359-.958 4.887 4.887 0 0 1-.884-1.804 5.806 5.806 0 0 1-.27-2.414 3.806 3.806 0 0 1 .97-1.957 5.017 5.017 0 0 1 2.417-1.413 4.582 4.582 0 0 1 3.58.173 4.5 4.5 0 0 1 2.071 2.87 4.58 4.58 0 0 1 .097 2.751 4.016 4.016 0 0 1-1.596 1.98l-1.197-2.175c.187-.114.355-.257.496-.424.153-.201.257-.436.302-.685a1.752 1.752 0 0 0-1.176-1.935 3.147 3.147 0 0 0-1.79.13 3.325 3.325 0 0 0-1.823 1.011 1.791 1.791 0 0 0 .594 2.403 2.72 2.72 0 0 0 1.412.174zM117.56 60.004l.173 2.762-3.354.207 3.527 2.685.226 3.675-3.537-3.012-5.318 3.751-.205-3.403 3.538-2.109-1.52-1.37-2.158.13-.172-2.761zM24.051 79.499c.453.768.888 1.536 1.305 2.305.885.052 1.764.169 2.632.347l-.95.87-.916.968.453 2.577-2.157-1.088-2.082 1.338.173-2.61a25.093 25.093 0 0 0-2.05-1.609l1.274-.391 1.294-.261c.316-.82.658-1.635 1.024-2.446z" fill="#FFF" fill-rule="nonzero"/>
        <path d="M67.107 83.097c.438.776.855 1.555 1.25 2.338a18.51 18.51 0 0 1 2.621.413l-.97.848-.982.935.443 2.61-2.158-1.164-2.157 1.283.238-2.61a25.107 25.107 0 0 0-2.006-1.652l1.326-.37 1.305-.228a54.15 54.15 0 0 1 1.09-2.403zM58.759 84.087c.316.565.618 1.13.906 1.696.642.052 1.28.15 1.909.293l-.701.62-.68.685.291 1.88-1.585-.847-1.532.935.173-1.903c-.465-.42-.951-.815-1.456-1.185l.938-.26.95-.164c.244-.58.506-1.163.787-1.75zM75.206 84.087c.317.565.619 1.13.906 1.696.643.052 1.28.15 1.91.293l-.702.62-.68.685.292 1.88-1.585-.847-1.532.935.173-1.903a18.27 18.27 0 0 0-1.456-1.207l.938-.26.949-.087c.244-.617.507-1.218.787-1.805zM67.107 41.989c.438.776.855 1.555 1.25 2.338a18.51 18.51 0 0 1 2.621.413l-.97.848-.982.946.4 2.587-2.158-1.163-2.157 1.283.238-2.61a25.107 25.107 0 0 0-2.007-1.652l1.37-.402 1.305-.229a73.78 73.78 0 0 1 1.09-2.359zM58.759 42.99c.316.565.618 1.13.906 1.695.642.052 1.28.15 1.909.294l-.701.62-.68.685.291 1.88-1.585-.848-1.532.935.173-1.902c-.465-.42-.951-.816-1.456-1.185l.938-.261.95-.163c.244-.587.506-1.17.787-1.75zM75.206 42.99c.317.565.619 1.13.906 1.695.643.052 1.28.15 1.91.294l-.702.62-.68.685.292 1.88-1.585-.848-1.532.935.173-1.902a18.27 18.27 0 0 0-1.456-1.207l.938-.261.949-.163c.244-.573.507-1.149.787-1.729z" fill="#0681FB" fill-rule="nonzero"/>
        <path d="M110.69 79.499c.453.768.888 1.536 1.305 2.305.885.052 1.764.169 2.632.347l-.95.87-.916.968.453 2.577-2.157-1.088-2.125 1.316.173-2.61a25.093 25.093 0 0 0-2.05-1.609l1.273-.39 1.294-.262c.346-.804.702-1.613 1.068-2.424z" fill="#FFF" fill-rule="nonzero"/>
    </g>
</svg>
