<?xml version="1.0" encoding="UTF-8" standalone="no"?>
<!DOCTYPE svg PUBLIC "-//W3C//DTD SVG 1.1//EN" "http://www.w3.org/Graphics/SVG/1.1/DTD/svg11.dtd">
<svg width="100%" height="100%" viewBox="0 0 1600 688" version="1.1" xmlns="http://www.w3.org/2000/svg" xmlns:xlink="http://www.w3.org/1999/xlink" xml:space="preserve" xmlns:serif="http://www.serif.com/" style="fill-rule:evenodd;clip-rule:evenodd;stroke-linejoin:round;stroke-miterlimit:2;">
    <g transform="matrix(4.16667,0,0,4.16667,0,0)">
        <path d="M55.879,0.274L55.879,0.265L55.866,0.27L55.854,0.265L55.854,0.274L0,19.035L0,53.917L55.866,37.047L111.734,53.917L111.734,19.035L55.879,0.274Z" style="fill:white;fill-rule:nonzero;"/>
        <path d="M76.827,92.989L34.881,92.989L34.881,55.858L0,66.444L0,165L34.881,165L34.881,127.87L76.827,127.87L76.827,165L111.709,165L111.709,66.444L76.827,55.858L76.827,92.989Z" style="fill:white;fill-rule:nonzero;"/>
        <path d="M154.503,94.422L171.047,94.422L171.047,78.625L180.625,78.625L180.625,120.108L171.047,120.108L171.047,102.507L154.503,102.507L154.503,120.108L144.925,120.108L144.925,78.625L154.503,78.625L154.503,94.422Z" style="fill:white;fill-rule:nonzero;"/>
        <path d="M198.54,101.139C197.607,102.072 196.487,103.689 196.487,106.177C196.487,108.664 197.545,110.282 198.354,111.152C199.597,112.458 201.526,113.329 203.64,113.329C205.443,113.329 207.123,112.583 208.305,111.401C209.486,110.282 210.482,108.54 210.482,106.177C210.482,104.186 209.735,102.321 208.429,101.077C207.061,99.771 205.07,99.149 203.453,99.149C201.526,99.149 199.722,99.957 198.54,101.139ZM209.922,92.37L218.878,92.37L218.878,120.108L209.922,120.108L209.922,116.75C207.496,120.481 204.013,121.041 201.712,121.041C197.732,121.041 194.373,120.046 191.325,116.812C188.402,113.702 187.282,110.095 187.282,106.426C187.282,101.761 189.025,97.781 191.574,95.231C194,92.805 197.359,91.437 201.214,91.437C203.577,91.437 207.371,91.996 209.922,95.48L209.922,92.37Z" style="fill:white;fill-rule:nonzero;"/>
        <path d="M225.847,92.37L234.802,92.37L234.802,95.666C237.539,92.183 240.773,91.623 243.385,91.623C245.811,91.623 248.983,92.059 251.346,94.422C253.958,97.034 254.145,100.33 254.145,102.569L254.145,120.108L245.189,120.108L245.189,105.866C245.189,104.062 245.127,101.761 243.696,100.33C243.012,99.647 241.893,99.087 240.276,99.087C238.409,99.087 237.228,99.833 236.544,100.579C235.051,102.072 234.802,104.062 234.802,105.866L234.802,120.108L225.847,120.108L225.847,92.37Z" style="fill:white;fill-rule:nonzero;"/>
        <path d="M281.948,101.139C279.772,99.336 277.532,99.025 276.102,99.025C273.303,99.025 271.624,100.392 271.002,101.015C269.82,102.196 268.949,104 268.949,106.239C268.949,108.291 269.695,110.033 270.816,111.214C272.184,112.707 274.236,113.453 276.227,113.453C277.781,113.453 279.896,113.018 281.948,111.277L281.948,119.362C279.585,120.668 277.346,121.041 274.858,121.041C270.193,121.041 266.649,119.362 264.099,116.874C261.984,114.822 259.743,111.339 259.743,106.301C259.743,101.574 261.734,97.843 264.347,95.355C267.457,92.432 271.126,91.437 274.92,91.437C277.346,91.437 279.585,91.872 281.948,92.992L281.948,101.139Z" style="fill:white;fill-rule:nonzero;"/>
        <path d="M297.811,101.015C296.504,102.321 295.758,104 295.758,106.239C295.758,108.789 296.753,110.406 297.811,111.463C298.93,112.583 300.547,113.453 302.91,113.453C304.901,113.453 306.58,112.769 307.886,111.463C309.193,110.157 309.939,108.478 309.939,106.239C309.939,104 309.193,102.321 307.886,101.015C306.58,99.709 304.901,99.025 302.849,99.025C300.796,99.025 299.116,99.709 297.811,101.015ZM314.977,116.563C312.488,119.051 308.259,121.041 302.849,121.041C297.438,121.041 293.208,119.051 290.72,116.563C287.921,113.765 286.553,109.784 286.553,106.239C286.553,102.694 287.921,98.714 290.72,95.915C293.208,93.427 297.438,91.437 302.849,91.437C308.259,91.437 312.488,93.427 314.977,95.915C317.775,98.714 319.144,102.694 319.144,106.239C319.144,109.784 317.775,113.765 314.977,116.563Z" style="fill:white;fill-rule:nonzero;"/>
        <path d="M345.579,101.139C343.402,99.336 341.163,99.025 339.733,99.025C336.934,99.025 335.255,100.392 334.633,101.015C333.451,102.196 332.58,104 332.58,106.239C332.58,108.291 333.326,110.033 334.446,111.214C335.815,112.707 337.867,113.453 339.858,113.453C341.412,113.453 343.526,113.018 345.579,111.277L345.579,119.362C343.216,120.668 340.977,121.041 338.488,121.041C333.824,121.041 330.279,119.362 327.73,116.874C325.614,114.822 323.375,111.339 323.375,106.301C323.375,101.574 325.365,97.843 327.978,95.355C331.088,92.432 334.757,91.437 338.551,91.437C340.977,91.437 343.216,91.872 345.579,92.992L345.579,101.139Z" style="fill:white;fill-rule:nonzero;"/>
        <path d="M360.757,74.769L360.757,102.569L370.833,92.37L382.588,92.37L369.402,104.932L383.521,120.108L371.454,120.108L360.757,108.167L360.757,120.108L351.801,120.108L351.801,74.769L360.757,74.769Z" style="fill:white;fill-rule:nonzero;"/>
        <path d="M161.111,144.2L161.111,148.047C159.231,146.473 157.285,145.687 155.274,145.687C153.058,145.687 151.192,146.483 149.674,148.075C148.147,149.658 147.384,151.594 147.384,153.884C147.384,156.146 148.147,158.055 149.674,159.61C151.2,161.165 153.072,161.942 155.288,161.942C156.433,161.942 157.405,161.756 158.206,161.383C158.653,161.197 159.116,160.946 159.596,160.629C160.075,160.313 160.58,159.931 161.111,159.484L161.111,163.415C159.249,164.472 157.294,165 155.246,165C152.164,165 149.534,163.925 147.356,161.774C145.187,159.605 144.102,156.989 144.102,153.926C144.102,151.18 145.01,148.731 146.825,146.58C149.06,143.946 151.95,142.629 155.497,142.629C157.434,142.629 159.305,143.152 161.111,144.2Z" style="fill:white;fill-rule:nonzero;"/>
        <rect x="164.616" y="141.023" width="3.142" height="23.586" style="fill:white;fill-rule:nonzero;"/>
        <path d="M174.308,157.766C174.308,159.07 174.656,160.131 175.355,160.951C176.071,161.779 176.975,162.193 178.064,162.193C179.228,162.193 180.168,161.793 180.885,160.993C181.602,160.164 181.96,159.112 181.96,157.836C181.96,156.561 181.602,155.509 180.885,154.68C180.168,153.87 179.237,153.465 178.092,153.465C177.012,153.465 176.109,153.875 175.383,154.694C174.666,155.523 174.308,156.547 174.308,157.766ZM181.765,151.008L184.921,151.008L184.921,164.609L181.765,164.609L181.765,163.185C180.471,164.395 179.078,165 177.589,165C175.708,165 174.153,164.321 172.925,162.961C171.705,161.574 171.096,159.843 171.096,157.766C171.096,155.727 171.705,154.029 172.925,152.669C174.145,151.31 175.671,150.63 177.505,150.63C179.088,150.63 180.508,151.282 181.765,152.585L181.765,151.008Z" style="fill:white;fill-rule:nonzero;"/>
        <path d="M192.028,151.008L192.028,164.609L188.887,164.609L188.887,151.008L192.028,151.008ZM188.411,145.352C188.411,144.803 188.611,144.328 189.012,143.927C189.412,143.527 189.892,143.327 190.45,143.327C191.019,143.327 191.502,143.527 191.902,143.927C192.303,144.318 192.503,144.798 192.503,145.366C192.503,145.933 192.303,146.418 191.902,146.818C191.512,147.219 191.032,147.418 190.464,147.418C189.897,147.418 189.412,147.219 189.012,146.818C188.611,146.418 188.411,145.929 188.411,145.352Z" style="fill:white;fill-rule:nonzero;"/>
        <path d="M196.009,151.008L199.151,151.008L199.151,152.265C199.756,151.631 200.273,151.203 200.7,150.979C201.156,150.747 201.73,150.63 202.418,150.63C203.954,150.63 205.169,151.301 206.064,152.641C207.05,151.301 208.386,150.63 210.071,150.63C213.134,150.63 214.665,152.488 214.665,156.203L214.665,164.609L211.51,164.609L211.51,157.054C211.51,155.751 211.351,154.829 211.034,154.289C210.709,153.74 210.173,153.465 209.429,153.465C208.563,153.465 207.932,153.791 207.536,154.443C207.141,155.095 206.943,156.142 206.943,157.585L206.943,164.609L203.787,164.609L203.787,157.096C203.787,154.676 203.089,153.465 201.693,153.465C200.808,153.465 200.163,153.796 199.758,154.457C199.353,155.118 199.151,156.161 199.151,157.585L199.151,164.609L196.009,164.609L196.009,151.008Z" style="fill:white;fill-rule:nonzero;"/>
        <path d="M226.535,153.326L223.939,154.708C223.528,153.88 223.021,153.465 222.416,153.465C222.127,153.465 221.881,153.56 221.676,153.751C221.471,153.942 221.368,154.186 221.368,154.483C221.368,155.004 221.974,155.52 223.184,156.032C224.851,156.748 225.972,157.408 226.55,158.013C227.127,158.617 227.415,159.431 227.415,160.453C227.415,161.765 226.931,162.862 225.963,163.745C225.023,164.582 223.887,165 222.556,165C220.275,165 218.659,163.888 217.71,161.662L220.391,160.42C220.764,161.072 221.047,161.486 221.243,161.662C221.624,162.016 222.081,162.193 222.611,162.193C223.673,162.193 224.203,161.709 224.203,160.741C224.203,160.182 223.794,159.661 222.975,159.177C222.658,159.019 222.341,158.865 222.026,158.716C221.708,158.567 221.387,158.413 221.062,158.255C220.149,157.808 219.507,157.362 219.134,156.914C218.659,156.347 218.422,155.616 218.422,154.722C218.422,153.54 218.827,152.562 219.637,151.789C220.466,151.017 221.471,150.63 222.653,150.63C224.395,150.63 225.689,151.529 226.535,153.326Z" style="fill:white;fill-rule:nonzero;"/>
        <path d="M255.597,144.2L255.597,148.047C253.716,146.473 251.771,145.687 249.759,145.687C247.543,145.687 245.677,146.483 244.159,148.075C242.632,149.658 241.869,151.594 241.869,153.884C241.869,156.146 242.632,158.055 244.159,159.61C245.686,161.165 247.558,161.942 249.774,161.942C250.918,161.942 251.891,161.756 252.692,161.383C253.139,161.197 253.602,160.946 254.081,160.629C254.561,160.313 255.066,159.931 255.597,159.484L255.597,163.415C253.734,164.472 251.779,165 249.732,165C246.65,165 244.02,163.925 241.841,161.774C239.672,159.605 238.587,156.989 238.587,153.926C238.587,151.18 239.495,148.731 241.311,146.58C243.545,143.946 246.436,142.629 249.983,142.629C251.919,142.629 253.79,143.152 255.597,144.2Z" style="fill:white;fill-rule:nonzero;"/>
        <path d="M261.672,157.766C261.672,159.126 262.035,160.201 262.761,160.993C263.506,161.793 264.487,162.193 265.707,162.193C266.937,162.193 267.919,161.798 268.654,161.006C269.39,160.215 269.758,159.159 269.758,157.836C269.758,156.515 269.39,155.458 268.654,154.666C267.909,153.866 266.927,153.465 265.707,153.465C264.507,153.465 263.533,153.866 262.789,154.666C262.044,155.467 261.672,156.5 261.672,157.766ZM258.459,157.711C258.459,155.746 259.161,154.075 260.568,152.697C261.974,151.32 263.688,150.63 265.707,150.63C267.737,150.63 269.459,151.324 270.875,152.711C272.272,154.098 272.969,155.802 272.969,157.822C272.969,159.861 272.267,161.57 270.86,162.948C269.445,164.316 267.709,165 265.651,165C263.613,165 261.903,164.302 260.526,162.906C259.148,161.528 258.459,159.796 258.459,157.711Z" style="fill:white;fill-rule:nonzero;"/>
        <path d="M276.293,151.008L279.448,151.008L279.448,152.265C280.547,151.175 281.785,150.63 283.163,150.63C284.746,150.63 285.98,151.129 286.864,152.125C287.627,152.972 288.009,154.354 288.009,156.272L288.009,164.609L284.853,164.609L284.853,157.022C284.853,155.683 284.667,154.758 284.294,154.246C283.932,153.726 283.271,153.465 282.312,153.465C281.269,153.465 280.528,153.809 280.091,154.497C279.663,155.176 279.448,156.362 279.448,158.054L279.448,164.609L276.293,164.609L276.293,151.008Z" style="fill:white;fill-rule:nonzero;"/>
        <path d="M299.879,153.326L297.282,154.708C296.872,153.88 296.364,153.465 295.76,153.465C295.471,153.465 295.225,153.56 295.02,153.751C294.815,153.942 294.712,154.186 294.712,154.483C294.712,155.004 295.318,155.52 296.527,156.032C298.194,156.748 299.316,157.408 299.894,158.013C300.471,158.617 300.759,159.431 300.759,160.453C300.759,161.765 300.275,162.862 299.307,163.745C298.366,164.582 297.231,165 295.9,165C293.618,165 292.003,163.888 291.054,161.662L293.734,160.42C294.108,161.072 294.391,161.486 294.587,161.662C294.968,162.016 295.425,162.193 295.955,162.193C297.017,162.193 297.547,161.709 297.547,160.741C297.547,160.182 297.138,159.661 296.318,159.177C296.002,159.019 295.685,158.865 295.369,158.716C295.052,158.567 294.731,158.413 294.405,158.255C293.492,157.808 292.851,157.362 292.478,156.914C292.003,156.347 291.766,155.616 291.766,154.722C291.766,153.54 292.171,152.562 292.981,151.789C293.81,151.017 294.815,150.63 295.997,150.63C297.738,150.63 299.032,151.529 299.879,153.326Z" style="fill:white;fill-rule:nonzero;"/>
        <path d="M306.722,151.008L306.722,158.814C306.722,161.067 307.61,162.193 309.389,162.193C311.167,162.193 312.057,161.067 312.057,158.814L312.057,151.008L315.198,151.008L315.198,158.884C315.198,159.973 315.064,160.913 314.794,161.704C314.532,162.412 314.081,163.05 313.439,163.618C312.378,164.539 311.027,165 309.389,165C307.76,165 306.415,164.539 305.354,163.618C304.701,163.05 304.24,162.412 303.971,161.704C303.71,161.072 303.58,160.131 303.58,158.884L303.58,151.008L306.722,151.008Z" style="fill:white;fill-rule:nonzero;"/>
        <rect x="319.165" y="141.023" width="3.142" height="23.586" style="fill:white;fill-rule:nonzero;"/>
        <path d="M329.526,153.94L329.526,164.609L326.385,164.609L326.385,153.94L325.044,153.94L325.044,151.008L326.385,151.008L326.385,146.022L329.526,146.022L329.526,151.008L331.971,151.008L331.971,153.94L329.526,153.94Z" style="fill:white;fill-rule:nonzero;"/>
        <path d="M336.928,157.766C336.928,159.07 337.276,160.131 337.975,160.951C338.692,161.779 339.595,162.193 340.684,162.193C341.848,162.193 342.788,161.793 343.505,160.993C344.222,160.164 344.58,159.112 344.58,157.836C344.58,156.561 344.222,155.509 343.505,154.68C342.788,153.87 341.858,153.465 340.712,153.465C339.632,153.465 338.729,153.875 338.003,154.694C337.286,155.523 336.928,156.547 336.928,157.766ZM344.385,151.008L347.541,151.008L347.541,164.609L344.385,164.609L344.385,163.185C343.091,164.395 341.698,165 340.209,165C338.328,165 336.774,164.321 335.545,162.961C334.325,161.574 333.716,159.843 333.716,157.766C333.716,155.727 334.325,154.029 335.545,152.669C336.765,151.31 338.291,150.63 340.125,150.63C341.708,150.63 343.128,151.282 344.385,152.585L344.385,151.008Z" style="fill:white;fill-rule:nonzero;"/>
        <path d="M351.507,151.008L354.662,151.008L354.662,152.265C355.761,151.175 356.999,150.63 358.377,150.63C359.96,150.63 361.193,151.129 362.078,152.125C362.841,152.972 363.223,154.354 363.223,156.272L363.223,164.609L360.067,164.609L360.067,157.022C360.067,155.683 359.881,154.758 359.508,154.246C359.146,153.726 358.484,153.465 357.526,153.465C356.483,153.465 355.742,153.809 355.305,154.497C354.877,155.176 354.662,156.362 354.662,158.054L354.662,164.609L351.507,164.609L351.507,151.008Z" style="fill:white;fill-rule:nonzero;"/>
        <path d="M370.429,153.94L370.429,164.609L367.287,164.609L367.287,153.94L365.946,153.94L365.946,151.008L367.287,151.008L367.287,146.022L370.429,146.022L370.429,151.008L372.873,151.008L372.873,153.94L370.429,153.94Z" style="fill:white;fill-rule:nonzero;"/>
        <path d="M382.913,153.326L380.317,154.708C379.906,153.88 379.399,153.465 378.794,153.465C378.505,153.465 378.259,153.56 378.054,153.751C377.849,153.942 377.746,154.186 377.746,154.483C377.746,155.004 378.352,155.52 379.562,156.032C381.229,156.748 382.35,157.408 382.928,158.013C383.505,158.617 383.793,159.431 383.793,160.453C383.793,161.765 383.309,162.862 382.341,163.745C381.401,164.582 380.265,165 378.934,165C376.652,165 375.037,163.888 374.088,161.662L376.769,160.42C377.142,161.072 377.425,161.486 377.621,161.662C378.002,162.016 378.459,162.193 378.989,162.193C380.051,162.193 380.581,161.709 380.581,160.741C380.581,160.182 380.172,159.661 379.353,159.177C379.036,159.019 378.719,158.865 378.403,158.716C378.086,158.567 377.765,158.413 377.44,158.255C376.526,157.808 375.885,157.362 375.512,156.914C375.037,156.347 374.8,155.616 374.8,154.722C374.8,153.54 375.205,152.562 376.015,151.789C376.844,151.017 377.849,150.63 379.031,150.63C380.773,150.63 382.067,151.529 382.913,153.326Z" style="fill:white;fill-rule:nonzero;"/>
        <rect x="144.062" y="130.993" width="239.349" height="1.752" style="fill:white;fill-rule:nonzero;"/>
    </g>
</svg>
