<?xml version="1.0" encoding="UTF-8" standalone="no"?>
<!DOCTYPE svg PUBLIC "-//W3C//DTD SVG 1.1//EN" "http://www.w3.org/Graphics/SVG/1.1/DTD/svg11.dtd">
<svg width="100%" height="100%" viewBox="0 0 1000 1175" version="1.1" xmlns="http://www.w3.org/2000/svg" xmlns:xlink="http://www.w3.org/1999/xlink" xml:space="preserve" xmlns:serif="http://www.serif.com/" style="fill-rule:evenodd;clip-rule:evenodd;stroke-linejoin:round;stroke-miterlimit:2;">
    <g transform="matrix(4.16667,0,0,4.16667,0,0)">
        <path d="M118.707,0.419L118.707,0.411L118.695,0.415L118.683,0.411L118.683,0.419L62.828,19.18L62.828,54.062L118.695,37.192L174.561,54.062L174.561,19.18L118.707,0.419Z" style="fill:rgb(28,67,136);fill-rule:nonzero;"/>
        <path d="M139.655,93.133L97.709,93.133L97.709,56.003L62.828,66.589L62.828,165.146L97.709,165.146L97.709,128.015L139.655,128.015L139.655,165.146L174.537,165.146L174.537,66.589L139.655,56.003L139.655,93.133Z" style="fill:rgb(28,67,136);fill-rule:nonzero;"/>
        <path d="M10.44,211.422L26.984,211.422L26.984,195.624L36.562,195.624L36.562,237.108L26.984,237.108L26.984,219.507L10.44,219.507L10.44,237.108L0.862,237.108L0.862,195.624L10.44,195.624L10.44,211.422Z" style="fill:rgb(28,67,136);fill-rule:nonzero;"/>
        <path d="M54.477,218.139C53.544,219.071 52.425,220.689 52.425,223.177C52.425,225.664 53.482,227.281 54.291,228.152C55.534,229.458 57.463,230.329 59.577,230.329C61.381,230.329 63.06,229.583 64.242,228.401C65.424,227.281 66.419,225.54 66.419,223.177C66.419,221.187 65.673,219.32 64.366,218.076C62.998,216.771 61.008,216.149 59.391,216.149C57.463,216.149 55.659,216.957 54.477,218.139ZM65.859,209.369L74.815,209.369L74.815,237.108L65.859,237.108L65.859,233.75C63.434,237.482 59.95,238.041 57.649,238.041C53.669,238.041 50.31,237.046 47.263,233.812C44.34,230.702 43.22,227.095 43.22,223.426C43.22,218.761 44.962,214.78 47.512,212.231C49.937,209.805 53.296,208.437 57.151,208.437C59.515,208.437 63.309,208.996 65.859,212.48L65.859,209.369Z" style="fill:rgb(28,67,136);fill-rule:nonzero;"/>
        <path d="M81.784,209.369L90.739,209.369L90.739,212.666C93.476,209.183 96.71,208.623 99.322,208.623C101.748,208.623 104.92,209.059 107.284,211.422C109.896,214.034 110.082,217.33 110.082,219.569L110.082,237.108L101.126,237.108L101.126,222.865C101.126,221.062 101.065,218.761 99.634,217.33C98.949,216.647 97.83,216.086 96.213,216.086C94.347,216.086 93.165,216.833 92.481,217.579C90.988,219.071 90.739,221.062 90.739,222.865L90.739,237.108L81.784,237.108L81.784,209.369Z" style="fill:rgb(28,67,136);fill-rule:nonzero;"/>
        <path d="M137.886,218.139C135.709,216.335 133.47,216.025 132.039,216.025C129.24,216.025 127.561,217.393 126.939,218.015C125.758,219.196 124.887,221 124.887,223.238C124.887,225.291 125.633,227.032 126.753,228.214C128.121,229.707 130.173,230.453 132.164,230.453C133.719,230.453 135.833,230.018 137.886,228.276L137.886,236.362C135.522,237.668 133.283,238.041 130.795,238.041C126.131,238.041 122.586,236.362 120.037,233.874C117.921,231.821 115.682,228.339 115.682,223.301C115.682,218.574 117.672,214.843 120.285,212.355C123.394,209.432 127.063,208.437 130.856,208.437C133.283,208.437 135.522,208.872 137.886,209.991L137.886,218.139Z" style="fill:rgb(28,67,136);fill-rule:nonzero;"/>
        <path d="M153.748,218.015C152.441,219.32 151.695,221 151.695,223.238C151.695,225.789 152.69,227.406 153.748,228.463C154.867,229.583 156.484,230.453 158.848,230.453C160.838,230.453 162.517,229.77 163.823,228.463C165.13,227.157 165.876,225.478 165.876,223.238C165.876,221 165.13,219.32 163.823,218.015C162.517,216.708 160.838,216.025 158.786,216.025C156.733,216.025 155.054,216.708 153.748,218.015ZM170.914,233.564C168.426,236.051 164.196,238.041 158.786,238.041C153.375,238.041 149.145,236.051 146.657,233.564C143.858,230.765 142.49,226.784 142.49,223.238C142.49,219.693 143.858,215.713 146.657,212.914C149.145,210.427 153.375,208.437 158.786,208.437C164.196,208.437 168.426,210.427 170.914,212.914C173.712,215.713 175.081,219.693 175.081,223.238C175.081,226.784 173.712,230.765 170.914,233.564Z" style="fill:rgb(28,67,136);fill-rule:nonzero;"/>
        <path d="M201.516,218.139C199.34,216.335 197.1,216.025 195.67,216.025C192.871,216.025 191.192,217.393 190.57,218.015C189.389,219.196 188.517,221 188.517,223.238C188.517,225.291 189.264,227.032 190.384,228.214C191.752,229.707 193.805,230.453 195.795,230.453C197.35,230.453 199.464,230.018 201.516,228.276L201.516,236.362C199.153,237.668 196.914,238.041 194.426,238.041C189.762,238.041 186.217,236.362 183.667,233.874C181.552,231.821 179.312,228.339 179.312,223.301C179.312,218.574 181.303,214.843 183.915,212.355C187.025,209.432 190.694,208.437 194.488,208.437C196.914,208.437 199.153,208.872 201.516,209.991L201.516,218.139Z" style="fill:rgb(28,67,136);fill-rule:nonzero;"/>
        <path d="M216.694,191.769L216.694,219.569L226.77,209.369L238.525,209.369L225.34,221.933L239.458,237.108L227.391,237.108L216.694,225.167L216.694,237.108L207.738,237.108L207.738,191.769L216.694,191.769Z" style="fill:rgb(28,67,136);fill-rule:nonzero;"/>
        <path d="M17.049,261.199L17.049,265.047C15.168,263.474 13.223,262.687 11.211,262.687C8.995,262.687 7.129,263.483 5.611,265.075C4.084,266.657 3.321,268.594 3.321,270.884C3.321,273.147 4.084,275.055 5.611,276.609C7.138,278.165 9.01,278.941 11.226,278.941C12.37,278.941 13.343,278.756 14.143,278.383C14.591,278.197 15.054,277.945 15.533,277.629C16.013,277.313 16.518,276.931 17.049,276.484L17.049,280.415C15.186,281.472 13.231,282 11.184,282C8.101,282 5.472,280.925 3.293,278.775C1.124,276.606 0.039,273.989 0.039,270.926C0.039,268.18 0.947,265.732 2.763,263.58C4.997,260.947 7.888,259.629 11.435,259.629C13.371,259.629 15.242,260.152 17.049,261.199Z" style="fill:rgb(28,67,136);fill-rule:nonzero;"/>
        <rect x="20.554" y="258.023" width="3.141" height="23.586" style="fill:rgb(28,67,136);fill-rule:nonzero;"/>
        <path d="M30.245,274.767C30.245,276.07 30.594,277.131 31.292,277.95C32.009,278.779 32.912,279.193 34.001,279.193C35.165,279.193 36.105,278.793 36.822,277.992C37.539,277.164 37.897,276.111 37.897,274.836C37.897,273.561 37.539,272.509 36.822,271.68C36.105,270.87 35.175,270.465 34.029,270.465C32.949,270.465 32.046,270.875 31.32,271.694C30.603,272.523 30.245,273.547 30.245,274.767ZM37.702,268.008L40.858,268.008L40.858,281.609L37.702,281.609L37.702,280.185C36.408,281.396 35.016,282 33.526,282C31.645,282 30.091,281.32 28.862,279.961C27.643,278.574 27.033,276.843 27.033,274.767C27.033,272.728 27.643,271.028 28.862,269.669C30.082,268.31 31.608,267.63 33.442,267.63C35.025,267.63 36.445,268.282 37.702,269.585L37.702,268.008Z" style="fill:rgb(28,67,136);fill-rule:nonzero;"/>
        <path d="M47.966,268.008L47.966,281.609L44.824,281.609L44.824,268.008L47.966,268.008ZM44.349,262.352C44.349,261.803 44.549,261.327 44.949,260.927C45.35,260.527 45.829,260.327 46.388,260.327C46.956,260.327 47.439,260.527 47.84,260.927C48.24,261.318 48.44,261.798 48.44,262.365C48.44,262.934 48.24,263.418 47.84,263.818C47.449,264.219 46.97,264.418 46.401,264.418C45.834,264.418 45.35,264.219 44.949,263.818C44.549,263.418 44.349,262.929 44.349,262.352Z" style="fill:rgb(28,67,136);fill-rule:nonzero;"/>
        <path d="M51.946,268.008L55.088,268.008L55.088,269.265C55.693,268.631 56.21,268.203 56.638,267.98C57.094,267.747 57.667,267.63 58.355,267.63C59.892,267.63 61.106,268.301 62.001,269.642C62.987,268.301 64.323,267.63 66.009,267.63C69.071,267.63 70.602,269.487 70.602,273.202L70.602,281.609L67.447,281.609L67.447,274.054C67.447,272.751 67.288,271.829 66.972,271.289C66.646,270.74 66.11,270.465 65.366,270.465C64.5,270.465 63.869,270.791 63.474,271.442C63.078,272.095 62.881,273.142 62.881,274.585L62.881,281.609L59.725,281.609L59.725,274.096C59.725,271.676 59.026,270.465 57.63,270.465C56.745,270.465 56.101,270.796 55.695,271.457C55.29,272.118 55.088,273.16 55.088,274.585L55.088,281.609L51.946,281.609L51.946,268.008Z" style="fill:rgb(28,67,136);fill-rule:nonzero;"/>
        <path d="M82.473,270.325L79.876,271.708C79.466,270.88 78.958,270.465 78.353,270.465C78.064,270.465 77.818,270.561 77.613,270.751C77.408,270.942 77.306,271.186 77.306,271.483C77.306,272.004 77.911,272.521 79.121,273.031C80.788,273.748 81.909,274.408 82.487,275.013C83.064,275.616 83.352,276.431 83.352,277.453C83.352,278.765 82.868,279.861 81.9,280.745C80.96,281.582 79.824,282 78.493,282C76.212,282 74.597,280.888 73.647,278.662L76.328,277.42C76.701,278.071 76.984,278.485 77.181,278.662C77.561,279.017 78.018,279.193 78.549,279.193C79.61,279.193 80.141,278.709 80.141,277.741C80.141,277.183 79.731,276.661 78.912,276.177C78.596,276.019 78.278,275.865 77.963,275.716C77.645,275.567 77.324,275.413 76.999,275.255C76.086,274.809 75.444,274.361 75.071,273.914C74.597,273.347 74.359,272.616 74.359,271.722C74.359,270.54 74.765,269.563 75.574,268.789C76.403,268.017 77.408,267.63 78.591,267.63C80.332,267.63 81.626,268.529 82.473,270.325Z" style="fill:rgb(28,67,136);fill-rule:nonzero;"/>
        <path d="M111.535,261.199L111.535,265.047C109.654,263.474 107.708,262.687 105.697,262.687C103.481,262.687 101.615,263.483 100.097,265.075C98.569,266.657 97.807,268.594 97.807,270.884C97.807,273.147 98.569,275.055 100.097,276.609C101.623,278.165 103.495,278.941 105.711,278.941C106.856,278.941 107.829,278.756 108.629,278.383C109.077,278.197 109.539,277.945 110.019,277.629C110.498,277.313 111.003,276.931 111.535,276.484L111.535,280.415C109.672,281.472 107.717,282 105.669,282C102.587,282 99.957,280.925 97.778,278.775C95.609,276.606 94.524,273.989 94.524,270.926C94.524,268.18 95.433,265.732 97.248,263.58C99.482,260.947 102.373,259.629 105.92,259.629C107.857,259.629 109.728,260.152 111.535,261.199Z" style="fill:rgb(28,67,136);fill-rule:nonzero;"/>
        <path d="M117.61,274.767C117.61,276.126 117.973,277.201 118.699,277.992C119.444,278.793 120.425,279.193 121.644,279.193C122.874,279.193 123.856,278.798 124.592,278.006C125.327,277.215 125.695,276.158 125.695,274.836C125.695,273.515 125.327,272.458 124.592,271.666C123.847,270.865 122.864,270.465 121.644,270.465C120.445,270.465 119.471,270.865 118.727,271.666C117.982,272.467 117.61,273.5 117.61,274.767ZM114.398,274.711C114.398,272.746 115.1,271.075 116.506,269.697C117.912,268.319 119.625,267.63 121.644,267.63C123.675,267.63 125.396,268.324 126.812,269.711C128.209,271.099 128.906,272.802 128.906,274.822C128.906,276.861 128.203,278.569 126.798,279.947C125.383,281.316 123.646,282 121.589,282C119.551,282 117.842,281.302 116.464,279.905C115.086,278.527 114.398,276.796 114.398,274.711Z" style="fill:rgb(28,67,136);fill-rule:nonzero;"/>
        <path d="M132.23,268.008L135.386,268.008L135.386,269.265C136.484,268.175 137.723,267.63 139.1,267.63C140.683,267.63 141.917,268.129 142.802,269.125C143.564,269.972 143.946,271.355 143.946,273.273L143.946,281.609L140.79,281.609L140.79,274.022C140.79,272.683 140.604,271.758 140.231,271.246C139.869,270.726 139.208,270.465 138.249,270.465C137.206,270.465 136.466,270.81 136.028,271.497C135.6,272.176 135.386,273.361 135.386,275.054L135.386,281.609L132.23,281.609L132.23,268.008Z" style="fill:rgb(28,67,136);fill-rule:nonzero;"/>
        <path d="M155.816,270.325L153.22,271.708C152.809,270.88 152.302,270.465 151.697,270.465C151.408,270.465 151.162,270.561 150.957,270.751C150.752,270.942 150.649,271.186 150.649,271.483C150.649,272.004 151.255,272.521 152.465,273.031C154.132,273.748 155.253,274.408 155.831,275.013C156.408,275.616 156.696,276.431 156.696,277.453C156.696,278.765 156.212,279.861 155.244,280.745C154.304,281.582 153.168,282 151.837,282C149.556,282 147.94,280.888 146.991,278.662L149.672,277.42C150.045,278.071 150.328,278.485 150.524,278.662C150.905,279.017 151.362,279.193 151.892,279.193C152.954,279.193 153.484,278.709 153.484,277.741C153.484,277.183 153.075,276.661 152.256,276.177C151.939,276.019 151.622,275.865 151.307,275.716C150.989,275.567 150.668,275.413 150.343,275.255C149.43,274.809 148.788,274.361 148.415,273.914C147.94,273.347 147.703,272.616 147.703,271.722C147.703,270.54 148.108,269.563 148.918,268.789C149.747,268.017 150.752,267.63 151.934,267.63C153.676,267.63 154.97,268.529 155.816,270.325Z" style="fill:rgb(28,67,136);fill-rule:nonzero;"/>
        <path d="M162.659,268.008L162.659,275.814C162.659,278.066 163.548,279.193 165.326,279.193C167.104,279.193 167.994,278.066 167.994,275.814L167.994,268.008L171.136,268.008L171.136,275.884C171.136,276.973 171.001,277.913 170.731,278.704C170.47,279.412 170.018,280.05 169.376,280.617C168.315,281.539 166.965,282 165.326,282C163.697,282 162.352,281.539 161.291,280.617C160.639,280.05 160.178,279.412 159.908,278.704C159.647,278.071 159.517,277.131 159.517,275.884L159.517,268.008L162.659,268.008Z" style="fill:rgb(28,67,136);fill-rule:nonzero;"/>
        <rect x="175.102" y="258.023" width="3.142" height="23.586" style="fill:rgb(28,67,136);fill-rule:nonzero;"/>
        <path d="M185.464,270.941L185.464,281.609L182.322,281.609L182.322,270.941L180.981,270.941L180.981,268.008L182.322,268.008L182.322,263.022L185.464,263.022L185.464,268.008L187.908,268.008L187.908,270.941L185.464,270.941Z" style="fill:rgb(28,67,136);fill-rule:nonzero;"/>
        <path d="M192.865,274.767C192.865,276.07 193.214,277.131 193.912,277.95C194.629,278.779 195.532,279.193 196.621,279.193C197.785,279.193 198.725,278.793 199.442,277.992C200.159,277.164 200.517,276.111 200.517,274.836C200.517,273.561 200.159,272.509 199.442,271.68C198.725,270.87 197.795,270.465 196.649,270.465C195.569,270.465 194.666,270.875 193.94,271.694C193.224,272.523 192.865,273.547 192.865,274.767ZM200.322,268.008L203.478,268.008L203.478,281.609L200.322,281.609L200.322,280.185C199.028,281.396 197.636,282 196.146,282C194.266,282 192.711,281.32 191.482,279.961C190.263,278.574 189.653,276.843 189.653,274.767C189.653,272.728 190.263,271.028 191.482,269.669C192.702,268.31 194.228,267.63 196.062,267.63C197.645,267.63 199.065,268.282 200.322,269.585L200.322,268.008Z" style="fill:rgb(28,67,136);fill-rule:nonzero;"/>
        <path d="M207.444,268.008L210.6,268.008L210.6,269.265C211.698,268.175 212.936,267.63 214.314,267.63C215.897,267.63 217.131,268.129 218.016,269.125C218.778,269.972 219.16,271.355 219.16,273.273L219.16,281.609L216.004,281.609L216.004,274.022C216.004,272.683 215.818,271.758 215.445,271.246C215.083,270.726 214.422,270.465 213.463,270.465C212.42,270.465 211.68,270.81 211.242,271.497C210.814,272.176 210.6,273.361 210.6,275.054L210.6,281.609L207.444,281.609L207.444,268.008Z" style="fill:rgb(28,67,136);fill-rule:nonzero;"/>
        <path d="M226.366,270.941L226.366,281.609L223.225,281.609L223.225,270.941L221.884,270.941L221.884,268.008L223.225,268.008L223.225,263.022L226.366,263.022L226.366,268.008L228.81,268.008L228.81,270.941L226.366,270.941Z" style="fill:rgb(28,67,136);fill-rule:nonzero;"/>
        <path d="M238.85,270.325L236.254,271.708C235.844,270.88 235.336,270.465 234.731,270.465C234.442,270.465 234.196,270.561 233.991,270.751C233.786,270.942 233.683,271.186 233.683,271.483C233.683,272.004 234.289,272.521 235.499,273.031C237.166,273.748 238.287,274.408 238.865,275.013C239.442,275.616 239.73,276.431 239.73,277.453C239.73,278.765 239.246,279.861 238.278,280.745C237.338,281.582 236.202,282 234.871,282C232.59,282 230.975,280.888 230.025,278.662L232.706,277.42C233.079,278.071 233.362,278.485 233.558,278.662C233.939,279.017 234.396,279.193 234.927,279.193C235.988,279.193 236.518,278.709 236.518,277.741C236.518,277.183 236.109,276.661 235.29,276.177C234.974,276.019 234.656,275.865 234.341,275.716C234.023,275.567 233.702,275.413 233.377,275.255C232.464,274.809 231.822,274.361 231.449,273.914C230.975,273.347 230.737,272.616 230.737,271.722C230.737,270.54 231.142,269.563 231.952,268.789C232.781,268.017 233.786,267.63 234.969,267.63C236.71,267.63 238.004,268.529 238.85,270.325Z" style="fill:rgb(28,67,136);fill-rule:nonzero;"/>
        <rect x="0" y="247.993" width="239.349" height="1.752" style="fill:rgb(28,67,136);fill-rule:nonzero;"/>
    </g>
</svg>
