<svg xmlns="http://www.w3.org/2000/svg" xmlns:xlink="http://www.w3.org/1999/xlink" x="0px" y="0px" viewBox="0 0 328.9 766.5" xml:space="preserve"><g id="h">	<path id="Path_35446" fill="#FFFFFF" d="M226.2,554.5H102.7V445.2L0,476.4v290.1h102.7V657.2h123.5  v109.3h102.7V476.4l-102.7-31.2V554.5z"></path></g><g id="roof_bottom">	<path id="Path_35445" fill="#E9F1FA" d="M164.5,281.6L164.5,281.6L164.5,281.6L164.5,281.6L164.5,281.6L0,336.8v102.7l164.5-49.7  l164.5,49.7V336.8L164.5,281.6z"></path></g><g id="roof_middle">	<path id="Path_38959" fill="#FFFFFF" d="M164.5,140.3L164.5,140.3L164.5,140.3L164.5,140.3  L164.5,140.3L0,195.5v102.7l164.5-49.7l164.5,49.7V195.5L164.5,140.3z"></path></g><g id="roof_top">	<path id="Path_38960" fill="#FFFFFF" d="M164.5,0L164.5,0L164.5,0L164.5,0L164.5,0L0,55.3v102.7  l164.5-49.7l164.5,49.7V55.3L164.5,0z"></path></g></svg>