<?xml version="1.0" encoding="UTF-8" standalone="no"?>
<!DOCTYPE svg PUBLIC "-//W3C//DTD SVG 1.1//EN" "http://www.w3.org/Graphics/SVG/1.1/DTD/svg11.dtd">
<svg width="100%" height="100%" viewBox="0 0 2250 1030" version="1.1" xmlns="http://www.w3.org/2000/svg" xmlns:xlink="http://www.w3.org/1999/xlink" xml:space="preserve" xmlns:serif="http://www.serif.com/" style="fill-rule:evenodd;clip-rule:evenodd;stroke-linejoin:round;stroke-miterlimit:2;">
    <g transform="matrix(4.16667,0,0,4.16667,0,0)">
        <rect x="200.218" y="104.557" width="339.205" height="3.298" style="fill:rgb(35,62,142);fill-rule:nonzero;"/>
        <path d="M281.608,94.29C283.039,93.789 284.326,93.146 285.399,92.216C286.472,91.286 287.331,90.141 288.046,88.854L288.332,88.854L288.332,94.29L300.064,94.29L300.064,67.751C300.064,65.676 299.635,63.888 298.776,62.243C297.918,60.669 296.702,59.31 295.128,58.165C293.554,57.092 291.766,56.234 289.691,55.661C287.545,55.089 285.256,54.731 282.753,54.731C279.319,54.731 276.314,55.304 273.811,56.377C271.307,57.45 269.376,58.952 267.945,60.812C266.586,62.672 265.656,64.818 265.37,67.179L276.815,67.536C277.101,66.32 277.745,65.319 278.747,64.603C279.677,63.888 281.036,63.53 282.681,63.53C284.183,63.53 285.399,63.888 286.329,64.603C287.188,65.319 287.688,66.32 287.688,67.608L287.688,67.751C287.688,68.538 287.331,69.181 286.758,69.611C286.115,70.04 285.113,70.398 283.754,70.612C282.395,70.827 280.606,71.041 278.389,71.256C276.457,71.399 274.598,71.757 272.809,72.257C271.092,72.687 269.519,73.402 268.159,74.332C266.872,75.262 265.799,76.478 265.012,77.98C264.297,79.482 263.867,81.271 263.867,83.488C263.867,86.064 264.44,88.21 265.584,89.855C266.657,91.572 268.159,92.859 270.091,93.718C272.022,94.505 274.24,94.934 276.744,94.934C278.532,94.934 280.177,94.719 281.608,94.29ZM277.03,85.778C276.1,85.134 275.671,84.132 275.671,82.845C275.671,81.986 275.885,81.271 276.314,80.627C276.744,80.055 277.387,79.554 278.174,79.125C279.033,78.767 280.034,78.481 281.179,78.266C281.751,78.195 282.323,78.123 282.967,77.98C283.611,77.909 284.183,77.766 284.827,77.623C285.399,77.551 285.972,77.336 286.472,77.193C286.973,77.05 287.402,76.907 287.76,76.693L287.76,80.412C287.76,81.7 287.402,82.773 286.758,83.775C286.115,84.705 285.256,85.491 284.183,85.992C283.11,86.564 281.894,86.851 280.535,86.851C279.176,86.851 277.96,86.493 277.03,85.778Z" style="fill:rgb(35,62,142);fill-rule:nonzero;"/>
        <path d="M320.85,68.252C321.422,67.179 322.138,66.392 323.139,65.819C324.14,65.247 325.285,64.961 326.573,64.961C328.576,64.961 330.078,65.533 331.222,66.749C332.295,67.965 332.868,69.682 332.868,71.828L332.868,94.29L345.243,94.29L345.243,69.396C345.315,66.463 344.742,63.959 343.598,61.742C342.453,59.524 340.88,57.807 338.877,56.591C336.874,55.375 334.441,54.731 331.723,54.731C328.862,54.731 326.358,55.447 324.284,56.806C322.209,58.165 320.707,60.025 319.848,62.457L319.419,62.457L319.419,55.304L307.616,55.304L307.616,94.29L320.063,94.29L320.063,72.043C320.063,70.541 320.349,69.253 320.85,68.252Z" style="fill:rgb(35,62,142);fill-rule:nonzero;"/>
        <path d="M380.67,93.003C383.388,91.715 385.463,89.855 386.893,87.423C388.396,84.991 389.183,82.201 389.326,78.982L377.737,78.982C377.522,80.341 377.165,81.557 376.593,82.487C376.02,83.417 375.305,84.204 374.446,84.633C373.517,85.134 372.515,85.42 371.37,85.42C369.94,85.42 368.652,84.991 367.579,84.204C366.506,83.417 365.648,82.201 365.075,80.627C364.432,79.053 364.145,77.05 364.145,74.761C364.145,72.472 364.432,70.541 365.075,68.967C365.648,67.393 366.506,66.249 367.579,65.39C368.652,64.603 369.94,64.246 371.37,64.246C373.159,64.246 374.59,64.746 375.663,65.891C376.807,67.035 377.451,68.609 377.737,70.612L389.326,70.612C389.254,67.393 388.396,64.603 386.893,62.243C385.391,59.882 383.317,58.022 380.598,56.734C377.952,55.447 374.804,54.731 371.156,54.731C367.078,54.731 363.573,55.59 360.64,57.307C357.707,59.024 355.418,61.384 353.844,64.389C352.271,67.393 351.484,70.898 351.484,74.904C351.484,78.91 352.271,82.415 353.844,85.42C355.418,88.424 357.707,90.785 360.64,92.502C363.573,94.147 367.078,95.006 371.227,95.006C374.876,95.006 378.023,94.362 380.67,93.003Z" style="fill:rgb(35,62,142);fill-rule:nonzero;"/>
        <path d="M424.445,92.502C427.378,90.785 429.667,88.424 431.241,85.42C432.815,82.415 433.602,78.91 433.602,74.904C433.602,70.898 432.815,67.393 431.241,64.317C429.667,61.313 427.378,58.952 424.445,57.307C421.512,55.59 418.007,54.731 413.93,54.731C409.781,54.731 406.275,55.59 403.342,57.307C400.409,58.952 398.12,61.313 396.547,64.317C394.973,67.393 394.186,70.898 394.186,74.904C394.186,78.91 394.973,82.415 396.547,85.42C398.12,88.424 400.409,90.785 403.342,92.502C406.275,94.219 409.781,95.006 413.93,95.006C418.007,95.006 421.512,94.219 424.445,92.502ZM410.067,84.275C408.994,83.345 408.207,82.129 407.634,80.484C407.134,78.839 406.848,76.979 406.848,74.833C406.848,72.687 407.134,70.755 407.634,69.11C408.207,67.536 408.994,66.249 410.067,65.319C411.14,64.389 412.427,63.959 414.001,63.959C415.503,63.959 416.719,64.389 417.792,65.319C418.794,66.249 419.581,67.536 420.153,69.11C420.725,70.755 420.94,72.687 420.94,74.833C420.94,76.979 420.725,78.839 420.153,80.484C419.581,82.129 418.794,83.345 417.792,84.275C416.719,85.205 415.503,85.634 414.001,85.634C412.427,85.634 411.14,85.205 410.067,84.275Z" style="fill:rgb(35,62,142);fill-rule:nonzero;"/>
        <path d="M467.674,93.003C470.392,91.715 472.467,89.855 473.897,87.423C475.4,84.991 476.187,82.201 476.33,78.982L464.741,78.982C464.526,80.341 464.169,81.557 463.596,82.487C463.024,83.417 462.309,84.204 461.45,84.633C460.52,85.134 459.519,85.42 458.374,85.42C456.944,85.42 455.656,84.991 454.583,84.204C453.51,83.417 452.652,82.201 452.079,80.627C451.436,79.053 451.149,77.05 451.149,74.761C451.149,72.472 451.436,70.541 452.079,68.967C452.652,67.393 453.51,66.249 454.583,65.39C455.656,64.603 456.944,64.246 458.374,64.246C460.163,64.246 461.593,64.746 462.666,65.891C463.811,67.035 464.455,68.609 464.741,70.612L476.33,70.612C476.258,67.393 475.4,64.603 473.897,62.243C472.395,59.882 470.321,58.022 467.602,56.734C464.956,55.447 461.808,54.731 458.16,54.731C454.082,54.731 450.577,55.59 447.644,57.307C444.711,59.024 442.422,61.384 440.848,64.389C439.275,67.393 438.488,70.898 438.488,74.904C438.488,78.91 439.275,82.415 440.848,85.42C442.422,88.424 444.711,90.785 447.644,92.502C450.577,94.147 454.082,95.006 458.231,95.006C461.88,95.006 465.027,94.362 467.674,93.003Z" style="fill:rgb(35,62,142);fill-rule:nonzero;"/>
        <path d="M521.249,94.29L506.871,72.329L520.749,55.304L506.656,55.304L495.711,69.253L495.139,69.253L495.139,42.284L482.692,42.284L482.692,94.29L495.139,94.29L495.139,82.558L497.643,79.554L506.942,94.29L521.249,94.29Z" style="fill:rgb(35,62,142);fill-rule:nonzero;"/>
        <path d="M247.343,127.824C245.912,125.122 244.084,122.896 241.859,120.989C239.633,119.161 237.01,117.73 233.99,116.776C231.049,115.822 227.79,115.346 224.293,115.346C219.126,115.346 214.516,116.458 210.383,118.763C206.25,121.068 202.991,124.407 200.527,128.858C198.143,133.309 196.871,138.634 196.871,144.993C196.871,151.351 198.063,156.756 200.448,161.128C202.832,165.579 206.091,168.917 210.224,171.222C214.357,173.527 219.047,174.719 224.293,174.719C228.267,174.719 231.764,174.083 234.864,172.891C237.964,171.699 240.587,170.109 242.733,168.043C244.879,165.976 246.548,163.751 247.74,161.287C249.012,158.743 249.727,156.279 249.966,153.656L235.897,153.577C235.659,155.008 235.182,156.279 234.546,157.313C233.91,158.425 233.115,159.379 232.162,160.174C231.208,160.889 230.095,161.446 228.823,161.843C227.552,162.24 226.121,162.479 224.611,162.479C221.829,162.479 219.444,161.843 217.457,160.492C215.47,159.22 213.881,157.233 212.768,154.69C211.655,152.067 211.178,148.887 211.178,144.993C211.178,141.336 211.655,138.157 212.768,135.614C213.881,132.991 215.391,131.004 217.457,129.652C219.444,128.301 221.829,127.586 224.69,127.586C226.28,127.586 227.711,127.824 228.982,128.222C230.334,128.699 231.446,129.335 232.4,130.129C233.354,131.004 234.149,131.957 234.705,133.15C235.262,134.342 235.659,135.614 235.897,137.044L249.966,137.044C249.648,133.627 248.774,130.527 247.343,127.824Z" style="fill:rgb(20,147,210);fill-rule:nonzero;"/>
        <path d="M289.866,171.937C293.125,170.03 295.669,167.407 297.417,164.069C299.166,160.73 300.04,156.836 300.04,152.385C300.04,147.934 299.166,144.039 297.417,140.621C295.669,137.283 293.125,134.66 289.866,132.832C286.608,130.924 282.713,129.97 278.182,129.97C273.572,129.97 269.678,130.924 266.419,132.832C263.16,134.66 260.617,137.283 258.868,140.621C257.119,144.039 256.245,147.934 256.245,152.385C256.245,156.836 257.119,160.73 258.868,164.069C260.617,167.407 263.16,170.03 266.419,171.937C269.678,173.845 273.572,174.719 278.182,174.719C282.713,174.719 286.608,173.845 289.866,171.937ZM273.89,162.797C272.698,161.764 271.824,160.412 271.188,158.584C270.631,156.756 270.314,154.69 270.314,152.305C270.314,149.921 270.631,147.775 271.188,145.946C271.824,144.198 272.698,142.767 273.89,141.734C275.082,140.701 276.513,140.224 278.262,140.224C279.931,140.224 281.282,140.701 282.474,141.734C283.587,142.767 284.461,144.198 285.097,145.946C285.733,147.775 285.972,149.921 285.972,152.305C285.972,154.69 285.733,156.756 285.097,158.584C284.461,160.412 283.587,161.764 282.474,162.797C281.282,163.83 279.931,164.307 278.262,164.307C276.513,164.307 275.082,163.83 273.89,162.797Z" style="fill:rgb(20,147,210);fill-rule:nonzero;"/>
        <path d="M321.818,144.993C322.454,143.8 323.249,142.926 324.362,142.29C325.475,141.654 326.746,141.336 328.177,141.336C330.403,141.336 332.072,141.972 333.344,143.324C334.536,144.675 335.172,146.582 335.172,148.967L335.172,173.924L348.922,173.924L348.922,146.264C349.002,143.006 348.366,140.224 347.094,137.76C345.822,135.296 344.074,133.388 341.848,132.037C339.623,130.686 336.92,129.97 333.9,129.97C330.721,129.97 327.939,130.765 325.634,132.275C323.329,133.786 321.66,135.852 320.706,138.555L320.229,138.555L320.229,130.606L307.114,130.606L307.114,173.924L320.944,173.924L320.944,149.205C320.944,147.536 321.262,146.105 321.818,144.993Z" style="fill:rgb(20,147,210);fill-rule:nonzero;"/>
        <path d="M372.275,144.993C372.911,143.8 373.706,142.926 374.819,142.29C375.932,141.654 377.203,141.336 378.634,141.336C380.86,141.336 382.529,141.972 383.8,143.324C384.993,144.675 385.629,146.582 385.629,148.967L385.629,173.924L399.379,173.924L399.379,146.264C399.459,143.006 398.823,140.224 397.551,137.76C396.279,135.296 394.531,133.388 392.305,132.037C390.08,130.686 387.377,129.97 384.357,129.97C381.178,129.97 378.396,130.765 376.091,132.275C373.786,133.786 372.116,135.852 371.163,138.555L370.686,138.555L370.686,130.606L357.571,130.606L357.571,173.924L371.401,173.924L371.401,149.205C371.401,147.536 371.719,146.105 372.275,144.993Z" style="fill:rgb(20,147,210);fill-rule:nonzero;"/>
        <path d="M438.265,172.971C441.127,171.858 443.432,170.189 445.26,168.122C447.008,166.056 448.121,163.592 448.678,160.73L436.04,160.333C435.642,161.287 435.086,162.082 434.371,162.797C433.655,163.433 432.86,163.91 431.827,164.307C430.873,164.625 429.761,164.784 428.489,164.784C426.74,164.784 425.23,164.387 423.958,163.671C422.687,162.956 421.653,161.923 420.938,160.571C420.302,159.3 419.905,157.71 419.905,155.961L419.905,155.564L448.836,155.564L448.836,152.146C448.836,148.569 448.28,145.39 447.247,142.688C446.214,139.906 444.783,137.601 442.955,135.693C441.047,133.865 438.822,132.434 436.278,131.481C433.735,130.447 430.953,129.97 427.853,129.97C423.481,129.97 419.666,130.924 416.487,132.832C413.228,134.66 410.764,137.283 408.936,140.621C407.187,144.039 406.313,147.934 406.313,152.385C406.313,156.995 407.187,160.969 408.936,164.307C410.685,167.645 413.228,170.268 416.487,172.017C419.825,173.845 423.72,174.719 428.25,174.719C432.066,174.719 435.404,174.163 438.265,172.971ZM435.96,147.536L419.905,147.536C419.984,146.105 420.382,144.913 421.017,143.8C421.733,142.608 422.766,141.654 423.958,141.019C425.151,140.303 426.581,139.985 428.091,139.985C429.602,139.985 430.953,140.303 432.145,140.939C433.337,141.575 434.291,142.529 434.927,143.641C435.642,144.754 435.96,146.105 435.96,147.536Z" style="fill:rgb(20,147,210);fill-rule:nonzero;"/>
        <path d="M486.669,172.494C489.689,171.063 491.994,168.997 493.584,166.294C495.253,163.592 496.127,160.492 496.286,156.915L483.41,156.915C483.172,158.425 482.774,159.777 482.138,160.81C481.503,161.843 480.708,162.717 479.754,163.194C478.721,163.751 477.608,164.069 476.336,164.069C474.746,164.069 473.316,163.592 472.124,162.717C470.931,161.843 469.978,160.492 469.342,158.743C468.626,156.995 468.308,154.769 468.308,152.226C468.308,149.682 468.626,147.536 469.342,145.788C469.978,144.039 470.931,142.767 472.124,141.813C473.316,140.939 474.746,140.542 476.336,140.542C478.323,140.542 479.913,141.098 481.105,142.37C482.377,143.642 483.092,145.39 483.41,147.616L496.286,147.616C496.207,144.039 495.253,140.939 493.584,138.316C491.915,135.693 489.61,133.627 486.589,132.196C483.649,130.765 480.151,129.97 476.098,129.97C471.567,129.97 467.673,130.924 464.414,132.832C461.155,134.739 458.611,137.362 456.863,140.701C455.114,144.039 454.24,147.934 454.24,152.385C454.24,156.836 455.114,160.73 456.863,164.069C458.611,167.407 461.155,170.03 464.414,171.937C467.673,173.766 471.567,174.719 476.177,174.719C480.231,174.719 483.728,174.004 486.669,172.494Z" style="fill:rgb(20,147,210);fill-rule:nonzero;"/>
        <path d="M506.217,161.843C506.137,164.784 506.773,167.168 507.965,169.156C509.158,171.063 510.986,172.494 513.291,173.368C515.596,174.322 518.298,174.719 521.557,174.56C523.226,174.481 524.657,174.322 525.849,174.004C527.041,173.766 527.995,173.527 528.631,173.289L526.564,163.353C526.246,163.433 525.77,163.512 525.213,163.592C524.577,163.751 524.021,163.751 523.544,163.751C522.749,163.751 522.113,163.671 521.636,163.433C521.08,163.194 520.683,162.876 520.444,162.32C520.126,161.843 520.047,161.128 520.047,160.253L520.047,140.701L527.836,140.701L527.836,130.606L520.047,130.606L520.047,120.194L506.217,120.194L506.217,130.606L500.494,130.606L500.494,140.701L506.217,140.701L506.217,161.843Z" style="fill:rgb(20,147,210);fill-rule:nonzero;"/>
        <path d="M8.23,116.583L8.23,40.844L152.178,40.844L152.178,71.445C154.969,73.081 157.526,75.086 159.781,77.406C160.004,77.62 160.214,77.849 160.409,78.089L160.409,16.653C160.382,7.885 153.281,0.783 144.512,0.756L15.896,0.756C7.128,0.783 0.026,7.885 0,16.653L0,116.583" style="fill:rgb(35,62,142);fill-rule:nonzero;"/>
        <path d="M20.665,25.758L19.354,25.758C16.61,25.913 14.26,23.815 14.105,21.071C13.95,18.328 16.048,15.978 18.791,15.823C18.979,15.812 19.166,15.812 19.354,15.823L20.665,15.823C23.409,15.667 25.759,17.766 25.914,20.509C26.069,23.253 23.971,25.603 21.227,25.758C21.04,25.769 20.852,25.769 20.665,25.758Z" style="fill:white;fill-rule:nonzero;"/>
        <path d="M37.798,25.758L36.554,25.758C33.81,25.913 31.46,23.815 31.305,21.071C31.15,18.328 33.248,15.978 35.992,15.823C36.179,15.812 36.367,15.812 36.554,15.823L37.798,15.823C40.541,15.667 42.891,17.766 43.047,20.509C43.202,23.253 41.104,25.603 38.36,25.758C38.173,25.769 37.985,25.769 37.798,25.758Z" style="fill:white;fill-rule:nonzero;"/>
        <path d="M54.871,25.758L53.678,25.758C50.935,25.913 48.585,23.815 48.43,21.071C48.274,18.328 50.373,15.978 53.116,15.823C53.303,15.812 53.491,15.812 53.678,15.823L54.871,15.823C57.614,15.667 59.964,17.766 60.119,20.509C60.275,23.253 58.176,25.603 55.433,25.758C55.246,25.769 55.058,25.769 54.871,25.758Z" style="fill:white;fill-rule:nonzero;"/>
        <path d="M140.633,25.297L110.505,25.297C108.034,25.275 106.036,23.277 106.014,20.806C106.041,18.348 108.047,16.372 110.505,16.383L140.629,16.383C143.066,16.376 145.046,18.346 145.053,20.782L145.053,20.806C145.064,23.265 143.088,25.271 140.629,25.297L140.633,25.297Z" style="fill:white;fill-rule:nonzero;"/>
        <path d="M46.624,94.288L46.624,112.41C46.646,114.49 44.978,116.195 42.897,116.217L20.204,116.217C18.103,116.213 16.401,114.511 16.397,112.41L16.397,94.288C16.401,92.187 18.103,90.485 20.204,90.481L42.817,90.481C44.898,90.459 46.602,92.128 46.624,94.208C46.625,94.235 46.625,94.262 46.624,94.288Z" style="fill:rgb(30,60,114);fill-rule:nonzero;"/>
        <path d="M46.624,130.568L46.624,148.69C46.646,150.77 44.978,152.475 42.897,152.497L20.204,152.497C18.103,152.493 16.401,150.791 16.397,148.69L16.397,130.568C16.401,128.467 18.103,126.765 20.204,126.761L42.817,126.761C44.898,126.739 46.602,128.407 46.624,130.488C46.625,130.515 46.625,130.541 46.624,130.568Z" style="fill:rgb(30,60,114);fill-rule:nonzero;"/>
        <path d="M119.896,112.163C119.864,114.253 118.178,115.939 116.089,115.971L57.621,115.971C55.519,115.903 53.871,114.144 53.938,112.042C54.003,110.036 55.615,108.425 57.621,108.36L116.093,108.36C118.191,108.367 119.89,110.066 119.896,112.163Z" style="fill:rgb(30,60,114);fill-rule:nonzero;"/>
        <path d="M108.784,126.816C105.316,128.775 102.138,131.208 99.341,134.045C99.216,134.157 99.113,134.292 99.039,134.442L57.621,134.442C55.519,134.374 53.871,132.615 53.939,130.514C54.004,128.508 55.615,126.897 57.621,126.832L108.784,126.816Z" style="fill:rgb(30,60,114);fill-rule:nonzero;"/>
        <path d="M91.278,144.676C89.936,147.098 88.838,149.648 87.999,152.286L57.621,152.286C55.519,152.218 53.871,150.459 53.939,148.358C54.004,146.352 55.615,144.741 57.621,144.676L91.278,144.676Z" style="fill:rgb(30,60,114);fill-rule:nonzero;"/>
        <path d="M86.004,170.405L57.621,170.405C55.519,170.473 53.76,168.824 53.692,166.723C53.624,164.621 55.272,162.862 57.374,162.794C57.456,162.791 57.539,162.791 57.621,162.794L85.945,162.794C85.865,163.939 85.79,165.151 85.79,166.371C85.792,167.721 85.868,169.07 86.016,170.413L86.004,170.405Z" style="fill:rgb(30,60,114);fill-rule:nonzero;"/>
        <path d="M0,77.946L0,177.872C0,186.651 7.117,193.769 15.896,193.769L96.619,193.769C94.66,191.237 93.015,188.477 91.719,185.55L15.896,185.55C11.666,185.535 8.241,182.11 8.226,177.88L8.226,102.133" style="fill:rgb(35,62,142);fill-rule:nonzero;"/>
        <path d="M152.186,132.765C154.977,134.401 157.534,136.406 159.789,138.727C160.012,138.941 160.222,139.169 160.417,139.41L160.417,77.946L152.186,40.844L151.757,102.141" style="fill:rgb(35,62,142);fill-rule:nonzero;"/>
        <path d="M46.624,58.008L46.624,76.13C46.646,78.211 44.978,79.915 42.897,79.937C42.87,79.938 42.844,79.938 42.817,79.937L20.204,79.937C18.103,79.933 16.401,78.231 16.397,76.13L16.397,58.008C16.401,55.907 18.103,54.205 20.204,54.201L42.817,54.201C44.898,54.179 46.602,55.848 46.624,57.928C46.625,57.955 46.625,57.981 46.624,58.008Z" style="fill:rgb(30,60,114);fill-rule:nonzero;"/>
        <path d="M120.083,94.288C120.051,96.377 118.365,98.063 116.276,98.095L57.808,98.095C55.706,98.163 53.947,96.515 53.879,94.413C53.811,92.311 55.46,90.553 57.562,90.485C57.644,90.482 57.726,90.482 57.808,90.485L116.28,90.485C118.377,90.491 120.076,92.19 120.083,94.288Z" style="fill:rgb(30,60,114);fill-rule:nonzero;"/>
        <path d="M119.066,76.134C119.034,78.223 117.348,79.909 115.258,79.941L56.79,79.941C54.689,80.009 52.93,78.361 52.862,76.259C52.794,74.158 54.443,72.399 56.544,72.331C56.626,72.328 56.708,72.328 56.79,72.331L115.262,72.331C117.36,72.337 119.059,74.036 119.066,76.134Z" style="fill:rgb(30,60,114);fill-rule:nonzero;"/>
        <path d="M119.066,58.672C119.034,60.761 117.348,62.447 115.258,62.479L56.79,62.479C54.689,62.547 52.93,60.898 52.862,58.797C52.794,56.695 54.443,54.936 56.544,54.868C56.626,54.866 56.708,54.866 56.79,54.868L115.262,54.868C117.36,54.875 119.059,56.574 119.066,58.672Z" style="fill:rgb(30,60,114);fill-rule:nonzero;"/>
        <rect x="200.218" y="104.557" width="339.205" height="3.298" style="fill:rgb(35,62,142);fill-rule:nonzero;"/>
        <path d="M247.343,127.824C245.912,125.122 244.084,122.896 241.859,120.989C239.633,119.161 237.01,117.73 233.99,116.776C231.049,115.822 227.79,115.346 224.293,115.346C219.126,115.346 214.516,116.458 210.383,118.763C206.25,121.068 202.991,124.407 200.527,128.858C198.143,133.309 196.871,138.634 196.871,144.993C196.871,151.351 198.063,156.756 200.448,161.128C202.832,165.579 206.091,168.917 210.224,171.222C214.357,173.527 219.047,174.719 224.293,174.719C228.267,174.719 231.764,174.083 234.864,172.891C237.964,171.699 240.587,170.109 242.733,168.043C244.879,165.976 246.548,163.751 247.74,161.287C249.012,158.743 249.727,156.279 249.966,153.656L235.897,153.577C235.659,155.008 235.182,156.279 234.546,157.313C233.91,158.425 233.115,159.379 232.162,160.174C231.208,160.889 230.095,161.446 228.823,161.843C227.552,162.24 226.121,162.479 224.611,162.479C221.829,162.479 219.444,161.843 217.457,160.492C215.47,159.22 213.881,157.233 212.768,154.69C211.655,152.067 211.178,148.887 211.178,144.993C211.178,141.336 211.655,138.157 212.768,135.614C213.881,132.991 215.391,131.004 217.457,129.652C219.444,128.301 221.829,127.586 224.69,127.586C226.28,127.586 227.711,127.824 228.982,128.222C230.334,128.699 231.446,129.335 232.4,130.129C233.354,131.004 234.149,131.957 234.705,133.15C235.262,134.342 235.659,135.614 235.897,137.044L249.966,137.044C249.648,133.627 248.774,130.527 247.343,127.824Z" style="fill:rgb(20,147,210);fill-rule:nonzero;"/>
        <path d="M289.866,171.937C293.125,170.03 295.669,167.407 297.417,164.069C299.166,160.73 300.04,156.836 300.04,152.385C300.04,147.934 299.166,144.039 297.417,140.621C295.669,137.283 293.125,134.66 289.866,132.832C286.608,130.924 282.713,129.97 278.182,129.97C273.572,129.97 269.678,130.924 266.419,132.832C263.16,134.66 260.617,137.283 258.868,140.621C257.119,144.039 256.245,147.934 256.245,152.385C256.245,156.836 257.119,160.73 258.868,164.069C260.617,167.407 263.16,170.03 266.419,171.937C269.678,173.845 273.572,174.719 278.182,174.719C282.713,174.719 286.608,173.845 289.866,171.937ZM273.89,162.797C272.698,161.764 271.824,160.412 271.188,158.584C270.631,156.756 270.314,154.69 270.314,152.305C270.314,149.921 270.631,147.775 271.188,145.946C271.824,144.198 272.698,142.767 273.89,141.734C275.082,140.701 276.513,140.224 278.262,140.224C279.931,140.224 281.282,140.701 282.474,141.734C283.587,142.767 284.461,144.198 285.097,145.946C285.733,147.775 285.972,149.921 285.972,152.305C285.972,154.69 285.733,156.756 285.097,158.584C284.461,160.412 283.587,161.764 282.474,162.797C281.282,163.83 279.931,164.307 278.262,164.307C276.513,164.307 275.082,163.83 273.89,162.797Z" style="fill:rgb(20,147,210);fill-rule:nonzero;"/>
        <path d="M321.818,144.993C322.454,143.8 323.249,142.926 324.362,142.29C325.475,141.654 326.746,141.336 328.177,141.336C330.403,141.336 332.072,141.972 333.344,143.324C334.536,144.675 335.172,146.582 335.172,148.967L335.172,173.924L348.922,173.924L348.922,146.264C349.002,143.006 348.366,140.224 347.094,137.76C345.822,135.296 344.074,133.388 341.848,132.037C339.623,130.686 336.92,129.97 333.9,129.97C330.721,129.97 327.939,130.765 325.634,132.275C323.329,133.786 321.66,135.852 320.706,138.555L320.229,138.555L320.229,130.606L307.114,130.606L307.114,173.924L320.944,173.924L320.944,149.205C320.944,147.536 321.262,146.105 321.818,144.993Z" style="fill:rgb(20,147,210);fill-rule:nonzero;"/>
        <path d="M372.275,144.993C372.911,143.8 373.706,142.926 374.819,142.29C375.932,141.654 377.203,141.336 378.634,141.336C380.86,141.336 382.529,141.972 383.8,143.324C384.993,144.675 385.629,146.582 385.629,148.967L385.629,173.924L399.379,173.924L399.379,146.264C399.459,143.006 398.823,140.224 397.551,137.76C396.279,135.296 394.531,133.388 392.305,132.037C390.08,130.686 387.377,129.97 384.357,129.97C381.178,129.97 378.396,130.765 376.091,132.275C373.786,133.786 372.116,135.852 371.163,138.555L370.686,138.555L370.686,130.606L357.571,130.606L357.571,173.924L371.401,173.924L371.401,149.205C371.401,147.536 371.719,146.105 372.275,144.993Z" style="fill:rgb(20,147,210);fill-rule:nonzero;"/>
        <path d="M438.265,172.971C441.127,171.858 443.432,170.189 445.26,168.122C447.008,166.056 448.121,163.592 448.678,160.73L436.04,160.333C435.642,161.287 435.086,162.082 434.371,162.797C433.655,163.433 432.86,163.91 431.827,164.307C430.873,164.625 429.761,164.784 428.489,164.784C426.74,164.784 425.23,164.387 423.958,163.671C422.687,162.956 421.653,161.923 420.938,160.571C420.302,159.3 419.905,157.71 419.905,155.961L419.905,155.564L448.836,155.564L448.836,152.146C448.836,148.569 448.28,145.39 447.247,142.688C446.214,139.906 444.783,137.601 442.955,135.693C441.047,133.865 438.822,132.434 436.278,131.481C433.735,130.447 430.953,129.97 427.853,129.97C423.481,129.97 419.666,130.924 416.487,132.832C413.228,134.66 410.764,137.283 408.936,140.621C407.187,144.039 406.313,147.934 406.313,152.385C406.313,156.995 407.187,160.969 408.936,164.307C410.685,167.645 413.228,170.268 416.487,172.017C419.825,173.845 423.72,174.719 428.25,174.719C432.066,174.719 435.404,174.163 438.265,172.971ZM435.96,147.536L419.905,147.536C419.984,146.105 420.382,144.913 421.017,143.8C421.733,142.608 422.766,141.654 423.958,141.019C425.151,140.303 426.581,139.985 428.091,139.985C429.602,139.985 430.953,140.303 432.145,140.939C433.337,141.575 434.291,142.529 434.927,143.641C435.642,144.754 435.96,146.105 435.96,147.536Z" style="fill:rgb(20,147,210);fill-rule:nonzero;"/>
        <path d="M486.669,172.494C489.689,171.063 491.994,168.997 493.584,166.294C495.253,163.592 496.127,160.492 496.286,156.915L483.41,156.915C483.172,158.425 482.774,159.777 482.138,160.81C481.503,161.843 480.708,162.717 479.754,163.194C478.721,163.751 477.608,164.069 476.336,164.069C474.746,164.069 473.316,163.592 472.124,162.717C470.931,161.843 469.978,160.492 469.342,158.743C468.626,156.995 468.308,154.769 468.308,152.226C468.308,149.682 468.626,147.536 469.342,145.788C469.978,144.039 470.931,142.767 472.124,141.813C473.316,140.939 474.746,140.542 476.336,140.542C478.323,140.542 479.913,141.098 481.105,142.37C482.377,143.642 483.092,145.39 483.41,147.616L496.286,147.616C496.207,144.039 495.253,140.939 493.584,138.316C491.915,135.693 489.61,133.627 486.589,132.196C483.649,130.765 480.151,129.97 476.098,129.97C471.567,129.97 467.673,130.924 464.414,132.832C461.155,134.739 458.611,137.362 456.863,140.701C455.114,144.039 454.24,147.934 454.24,152.385C454.24,156.836 455.114,160.73 456.863,164.069C458.611,167.407 461.155,170.03 464.414,171.937C467.673,173.766 471.567,174.719 476.177,174.719C480.231,174.719 483.728,174.004 486.669,172.494Z" style="fill:rgb(20,147,210);fill-rule:nonzero;"/>
        <path d="M506.217,161.843C506.137,164.784 506.773,167.168 507.965,169.156C509.158,171.063 510.986,172.494 513.291,173.368C515.596,174.322 518.298,174.719 521.557,174.56C523.226,174.481 524.657,174.322 525.849,174.004C527.041,173.766 527.995,173.527 528.631,173.289L526.564,163.353C526.246,163.433 525.77,163.512 525.213,163.592C524.577,163.751 524.021,163.751 523.544,163.751C522.749,163.751 522.113,163.671 521.636,163.433C521.08,163.194 520.683,162.876 520.444,162.32C520.126,161.843 520.047,161.128 520.047,160.253L520.047,140.701L527.836,140.701L527.836,130.606L520.047,130.606L520.047,120.194L506.217,120.194L506.217,130.606L500.494,130.606L500.494,140.701L506.217,140.701L506.217,161.843Z" style="fill:rgb(20,147,210);fill-rule:nonzero;"/>
        <path d="M229.034,9.343L200.218,19.02L200.218,37.003L229.023,28.303L257.827,37.003L257.827,19.02L229.034,9.343Z" style="fill:rgb(35,62,142);fill-rule:nonzero;"/>
        <path d="M239.84,57.16L218.209,57.16L218.209,38.012L200.226,43.473L200.226,94.29L218.209,94.29L218.209,75.143L239.84,75.143L239.84,94.29L257.823,94.29L257.823,43.473L239.84,38.012L239.84,57.16Z" style="fill:rgb(35,62,142);fill-rule:nonzero;"/>
        <path d="M8.23,116.583L8.23,40.844L152.178,40.844L152.178,71.445C154.969,73.081 157.526,75.086 159.781,77.406C160.004,77.62 160.214,77.849 160.409,78.089L160.409,16.653C160.382,7.885 153.281,0.783 144.512,0.756L15.896,0.756C7.128,0.783 0.026,7.885 0,16.653L0,116.583" style="fill:rgb(35,62,142);fill-rule:nonzero;"/>
        <path d="M20.665,25.758L19.354,25.758C16.61,25.913 14.26,23.815 14.105,21.071C13.95,18.328 16.048,15.978 18.791,15.823C18.979,15.812 19.166,15.812 19.354,15.823L20.665,15.823C23.409,15.667 25.759,17.766 25.914,20.509C26.069,23.253 23.971,25.603 21.227,25.758C21.04,25.769 20.852,25.769 20.665,25.758Z" style="fill:white;fill-rule:nonzero;"/>
        <path d="M37.798,25.758L36.554,25.758C33.81,25.913 31.46,23.815 31.305,21.071C31.15,18.328 33.248,15.978 35.992,15.823C36.179,15.812 36.367,15.812 36.554,15.823L37.798,15.823C40.541,15.667 42.891,17.766 43.047,20.509C43.202,23.253 41.104,25.603 38.36,25.758C38.173,25.769 37.985,25.769 37.798,25.758Z" style="fill:white;fill-rule:nonzero;"/>
        <path d="M54.871,25.758L53.678,25.758C50.935,25.913 48.585,23.815 48.43,21.071C48.274,18.328 50.373,15.978 53.116,15.823C53.303,15.812 53.491,15.812 53.678,15.823L54.871,15.823C57.614,15.667 59.964,17.766 60.119,20.509C60.275,23.253 58.176,25.603 55.433,25.758C55.246,25.769 55.058,25.769 54.871,25.758Z" style="fill:white;fill-rule:nonzero;"/>
        <path d="M140.633,25.297L110.505,25.297C108.034,25.275 106.036,23.277 106.014,20.806C106.041,18.348 108.047,16.372 110.505,16.383L140.629,16.383C143.066,16.376 145.046,18.346 145.053,20.782L145.053,20.806C145.064,23.265 143.088,25.271 140.629,25.297L140.633,25.297Z" style="fill:white;fill-rule:nonzero;"/>
        <path d="M46.624,94.288L46.624,112.41C46.646,114.49 44.978,116.195 42.897,116.217L20.204,116.217C18.103,116.213 16.401,114.511 16.397,112.41L16.397,94.288C16.401,92.187 18.103,90.485 20.204,90.481L42.817,90.481C44.898,90.459 46.602,92.128 46.624,94.208C46.625,94.235 46.625,94.262 46.624,94.288Z" style="fill:rgb(30,60,114);fill-rule:nonzero;"/>
        <path d="M46.624,130.568L46.624,148.69C46.646,150.77 44.978,152.475 42.897,152.497L20.204,152.497C18.103,152.493 16.401,150.791 16.397,148.69L16.397,130.568C16.401,128.467 18.103,126.765 20.204,126.761L42.817,126.761C44.898,126.739 46.602,128.407 46.624,130.488C46.625,130.515 46.625,130.541 46.624,130.568Z" style="fill:rgb(30,60,114);fill-rule:nonzero;"/>
        <path d="M119.896,112.163C119.864,114.253 118.178,115.939 116.089,115.971L57.621,115.971C55.519,115.903 53.871,114.144 53.938,112.042C54.003,110.036 55.615,108.425 57.621,108.36L116.093,108.36C118.191,108.367 119.89,110.066 119.896,112.163Z" style="fill:rgb(30,60,114);fill-rule:nonzero;"/>
        <path d="M108.784,126.816C105.316,128.775 102.138,131.208 99.341,134.045C99.216,134.157 99.113,134.292 99.039,134.442L57.621,134.442C55.519,134.374 53.871,132.615 53.939,130.514C54.004,128.508 55.615,126.897 57.621,126.832L108.784,126.816Z" style="fill:rgb(30,60,114);fill-rule:nonzero;"/>
        <path d="M91.278,144.676C89.936,147.098 88.838,149.648 87.999,152.286L57.621,152.286C55.519,152.218 53.871,150.459 53.939,148.358C54.004,146.352 55.615,144.741 57.621,144.676L91.278,144.676Z" style="fill:rgb(30,60,114);fill-rule:nonzero;"/>
        <path d="M86.004,170.405L57.621,170.405C55.519,170.473 53.76,168.824 53.692,166.723C53.624,164.621 55.272,162.862 57.374,162.794C57.456,162.791 57.539,162.791 57.621,162.794L85.945,162.794C85.865,163.939 85.79,165.151 85.79,166.371C85.792,167.721 85.868,169.07 86.016,170.413L86.004,170.405Z" style="fill:rgb(30,60,114);fill-rule:nonzero;"/>
        <path d="M102.247,178.222C95.533,163.18 102.285,145.544 117.327,138.83C132.37,132.117 150.006,138.868 156.72,153.911C159.965,161.181 160.168,169.447 157.284,176.869L161.908,180.772C170.031,162.867 162.102,141.767 144.197,133.643C126.293,125.519 105.192,133.448 97.068,151.353C88.944,169.258 96.873,190.358 114.779,198.482C116.245,199.147 117.755,199.712 119.298,200.173L119.484,194.145C111.797,191.427 105.568,185.665 102.258,178.214L102.247,178.222Z" style="fill:rgb(20,147,210);fill-rule:nonzero;"/>
        <path d="M172.952,236.337L160.187,207.666L174.738,206.177C176.465,205.998 177.72,204.453 177.541,202.726C177.457,201.915 177.061,201.168 176.437,200.644L130.822,162.101C129.632,161.102 127.857,161.257 126.858,162.447C126.454,162.928 126.223,163.53 126.201,164.158L124.315,223.843C124.256,225.579 125.614,227.033 127.349,227.092C128.164,227.12 128.957,226.83 129.563,226.284L140.407,216.467L153.172,245.137C153.88,246.72 155.735,247.432 157.32,246.729L171.362,240.477C172.945,239.769 173.657,237.914 172.955,236.329L172.952,236.337Z" style="fill:rgb(20,147,210);fill-rule:nonzero;"/>
        <path d="M143.053,160.048C143.882,161.908 144.316,163.92 144.327,165.956L149.654,170.453C152.101,159.305 145.047,148.285 133.899,145.838C122.751,143.391 111.73,150.445 109.284,161.593C107.296,170.651 111.585,179.923 119.774,184.274L119.981,177.478C118.229,176.03 116.838,174.193 115.919,172.113C112.481,164.669 115.729,155.847 123.173,152.409C130.618,148.971 139.44,152.218 142.878,159.663C142.935,159.787 142.991,159.911 143.044,160.037L143.053,160.048Z" style="fill:rgb(20,147,210);fill-rule:nonzero;"/>
        <path d="M0,77.946L0,177.872C0,186.651 7.117,193.769 15.896,193.769L96.619,193.769C94.66,191.237 93.015,188.477 91.719,185.55L15.896,185.55C11.666,185.535 8.241,182.11 8.226,177.88L8.226,102.133" style="fill:rgb(35,62,142);fill-rule:nonzero;"/>
        <path d="M152.186,132.765C154.977,134.401 157.534,136.406 159.789,138.727C160.012,138.941 160.222,139.169 160.417,139.41L160.417,77.946L152.186,40.844L151.757,102.141" style="fill:rgb(35,62,142);fill-rule:nonzero;"/>
        <path d="M46.624,58.008L46.624,76.13C46.646,78.211 44.978,79.915 42.897,79.937C42.87,79.938 42.844,79.938 42.817,79.937L20.204,79.937C18.103,79.933 16.401,78.231 16.397,76.13L16.397,58.008C16.401,55.907 18.103,54.205 20.204,54.201L42.817,54.201C44.898,54.179 46.602,55.848 46.624,57.928C46.625,57.955 46.625,57.981 46.624,58.008Z" style="fill:rgb(30,60,114);fill-rule:nonzero;"/>
        <path d="M120.083,94.288C120.051,96.377 118.365,98.063 116.276,98.095L57.808,98.095C55.706,98.163 53.947,96.515 53.879,94.413C53.811,92.311 55.46,90.553 57.562,90.485C57.644,90.482 57.726,90.482 57.808,90.485L116.28,90.485C118.377,90.491 120.076,92.19 120.083,94.288Z" style="fill:rgb(30,60,114);fill-rule:nonzero;"/>
        <path d="M119.066,76.134C119.034,78.223 117.348,79.909 115.258,79.941L56.79,79.941C54.689,80.009 52.93,78.361 52.862,76.259C52.794,74.158 54.443,72.399 56.544,72.331C56.626,72.328 56.708,72.328 56.79,72.331L115.262,72.331C117.36,72.337 119.059,74.036 119.066,76.134Z" style="fill:rgb(30,60,114);fill-rule:nonzero;"/>
        <path d="M119.066,58.672C119.034,60.761 117.348,62.447 115.258,62.479L56.79,62.479C54.689,62.547 52.93,60.898 52.862,58.797C52.794,56.695 54.443,54.936 56.544,54.868C56.626,54.866 56.708,54.866 56.79,54.868L115.262,54.868C117.36,54.875 119.059,56.574 119.066,58.672Z" style="fill:rgb(30,60,114);fill-rule:nonzero;"/>
    </g>
</svg>
