<?xml version="1.0" encoding="UTF-8" standalone="no"?>
<!DOCTYPE svg PUBLIC "-//W3C//DTD SVG 1.1//EN" "http://www.w3.org/Graphics/SVG/1.1/DTD/svg11.dtd">
<svg width="100%" height="100%" viewBox="0 0 1917 763" version="1.1" xmlns="http://www.w3.org/2000/svg" xmlns:xlink="http://www.w3.org/1999/xlink" xml:space="preserve" xmlns:serif="http://www.serif.com/" style="fill-rule:evenodd;clip-rule:evenodd;stroke-linejoin:round;stroke-miterlimit:2;">
    <g transform="matrix(4.16667,0,0,4.16667,0,0)">
        <rect x="177.1" y="87.375" width="260.481" height="2.532" style="fill:white;fill-rule:nonzero;"/>
        <path d="M241.186,71.89C242.343,71.485 243.383,70.965 244.25,70.214C245.117,69.462 245.811,68.537 246.389,67.497L246.62,67.497L246.62,71.89L256.1,71.89L256.1,50.444C256.1,48.768 255.753,47.323 255.06,45.993C254.366,44.721 253.383,43.623 252.112,42.698C250.84,41.831 249.395,41.137 247.719,40.675C245.984,40.212 244.135,39.923 242.111,39.923C239.337,39.923 236.909,40.386 234.886,41.253C232.862,42.12 231.302,43.334 230.146,44.837C229.047,46.34 228.296,48.074 228.065,49.982L237.313,50.271C237.545,49.288 238.065,48.479 238.874,47.901C239.626,47.323 240.724,47.033 242.054,47.033C243.267,47.033 244.25,47.323 245.002,47.901C245.695,48.479 246.1,49.288 246.1,50.328L246.1,50.444C246.1,51.08 245.811,51.6 245.348,51.947C244.828,52.294 244.019,52.583 242.921,52.756C241.822,52.93 240.377,53.103 238.585,53.276C237.024,53.392 235.522,53.681 234.076,54.086C232.689,54.433 231.417,55.011 230.319,55.762C229.279,56.514 228.411,57.496 227.776,58.71C227.198,59.924 226.851,61.369 226.851,63.161C226.851,65.242 227.313,66.976 228.238,68.306C229.105,69.693 230.319,70.734 231.88,71.427C233.441,72.063 235.232,72.41 237.256,72.41C238.701,72.41 240.03,72.237 241.186,71.89ZM237.487,65.011C236.735,64.491 236.389,63.681 236.389,62.641C236.389,61.947 236.562,61.369 236.909,60.849C237.256,60.387 237.776,59.982 238.412,59.635C239.105,59.346 239.915,59.115 240.84,58.941C241.302,58.884 241.765,58.826 242.285,58.71C242.805,58.652 243.267,58.537 243.788,58.421C244.25,58.363 244.713,58.19 245.117,58.074C245.522,57.959 245.869,57.843 246.158,57.67L246.158,60.676C246.158,61.716 245.869,62.583 245.348,63.392C244.828,64.144 244.135,64.78 243.267,65.184C242.4,65.647 241.418,65.878 240.319,65.878C239.221,65.878 238.238,65.589 237.487,65.011Z" style="fill:white;fill-rule:nonzero;"/>
        <path d="M272.942,50.849C273.404,49.982 273.982,49.346 274.792,48.883C275.601,48.421 276.526,48.19 277.566,48.19C279.185,48.19 280.399,48.652 281.324,49.635C282.191,50.617 282.653,52.005 282.653,53.739L282.653,71.89L292.654,71.89L292.654,51.774C292.711,49.404 292.249,47.38 291.324,45.588C290.399,43.796 289.127,42.409 287.509,41.426C285.89,40.444 283.925,39.923 281.728,39.923C279.416,39.923 277.393,40.501 275.717,41.6C274.04,42.698 272.826,44.201 272.133,46.166L271.786,46.166L271.786,40.386L262.248,40.386L262.248,71.89L272.306,71.89L272.306,53.912C272.306,52.698 272.537,51.658 272.942,50.849Z" style="fill:white;fill-rule:nonzero;"/>
        <path d="M321.281,70.849C323.477,69.809 325.154,68.306 326.31,66.341C327.524,64.375 328.16,62.121 328.275,59.52L318.911,59.52C318.737,60.618 318.448,61.601 317.986,62.352C317.523,63.103 316.945,63.739 316.252,64.086C315.5,64.491 314.691,64.722 313.766,64.722C312.61,64.722 311.569,64.375 310.702,63.739C309.835,63.103 309.142,62.121 308.679,60.849C308.159,59.577 307.928,57.959 307.928,56.109C307.928,54.259 308.159,52.698 308.679,51.427C309.142,50.155 309.835,49.23 310.702,48.536C311.569,47.901 312.61,47.612 313.766,47.612C315.211,47.612 316.367,48.016 317.234,48.941C318.159,49.866 318.679,51.138 318.911,52.756L328.275,52.756C328.217,50.155 327.524,47.901 326.31,45.993C325.096,44.085 323.42,42.582 321.223,41.542C319.084,40.501 316.541,39.923 313.593,39.923C310.298,39.923 307.465,40.617 305.095,42.004C302.725,43.392 300.875,45.299 299.604,47.727C298.332,50.155 297.696,52.987 297.696,56.225C297.696,59.462 298.332,62.294 299.604,64.722C300.875,67.15 302.725,69.057 305.095,70.445C307.465,71.774 310.298,72.468 313.65,72.468C316.598,72.468 319.142,71.948 321.281,70.849Z" style="fill:white;fill-rule:nonzero;"/>
        <path d="M356.655,70.445C359.025,69.057 360.874,67.15 362.146,64.722C363.418,62.294 364.054,59.462 364.054,56.225C364.054,52.987 363.418,50.155 362.146,47.669C360.874,45.242 359.025,43.334 356.655,42.004C354.285,40.617 351.452,39.923 348.157,39.923C344.804,39.923 341.972,40.617 339.602,42.004C337.232,43.334 335.382,45.242 334.11,47.669C332.839,50.155 332.203,52.987 332.203,56.225C332.203,59.462 332.839,62.294 334.11,64.722C335.382,67.15 337.232,69.057 339.602,70.445C341.972,71.832 344.804,72.468 348.157,72.468C351.452,72.468 354.285,71.832 356.655,70.445ZM345.036,63.797C344.169,63.046 343.533,62.063 343.07,60.733C342.666,59.404 342.434,57.901 342.434,56.167C342.434,54.433 342.666,52.872 343.07,51.542C343.533,50.271 344.169,49.23 345.036,48.479C345.903,47.727 346.943,47.38 348.215,47.38C349.429,47.38 350.412,47.727 351.279,48.479C352.088,49.23 352.724,50.271 353.186,51.542C353.649,52.872 353.822,54.433 353.822,56.167C353.822,57.901 353.649,59.404 353.186,60.733C352.724,62.063 352.088,63.046 351.279,63.797C350.412,64.549 349.429,64.895 348.215,64.895C346.943,64.895 345.903,64.549 345.036,63.797Z" style="fill:white;fill-rule:nonzero;"/>
        <path d="M391.587,70.849C393.784,69.809 395.46,68.306 396.616,66.341C397.83,64.375 398.466,62.121 398.582,59.52L389.217,59.52C389.044,60.618 388.755,61.601 388.292,62.352C387.83,63.103 387.252,63.739 386.558,64.086C385.807,64.491 384.998,64.722 384.073,64.722C382.917,64.722 381.876,64.375 381.009,63.739C380.142,63.103 379.448,62.121 378.986,60.849C378.465,59.577 378.234,57.959 378.234,56.109C378.234,54.259 378.465,52.698 378.986,51.427C379.448,50.155 380.142,49.23 381.009,48.536C381.876,47.901 382.917,47.612 384.073,47.612C385.518,47.612 386.674,48.016 387.541,48.941C388.466,49.866 388.986,51.138 389.217,52.756L398.582,52.756C398.524,50.155 397.83,47.901 396.616,45.993C395.403,44.085 393.726,42.582 391.53,41.542C389.391,40.501 386.847,39.923 383.899,39.923C380.604,39.923 377.772,40.617 375.402,42.004C373.032,43.392 371.182,45.299 369.91,47.727C368.639,50.155 368.003,52.987 368.003,56.225C368.003,59.462 368.639,62.294 369.91,64.722C371.182,67.15 373.032,69.057 375.402,70.445C377.772,71.774 380.604,72.468 383.957,72.468C386.905,72.468 389.449,71.948 391.587,70.849Z" style="fill:white;fill-rule:nonzero;"/>
        <path d="M434.881,71.89L423.262,54.144L434.476,40.386L423.088,40.386L414.244,51.658L413.782,51.658L413.782,29.865L403.723,29.865L403.723,71.89L413.782,71.89L413.782,62.41L415.805,59.982L423.32,71.89L434.881,71.89Z" style="fill:white;fill-rule:nonzero;"/>
        <path d="M215.99,108.072C214.82,105.862 213.325,104.042 211.505,102.482C209.685,100.987 207.54,99.817 205.07,99.037C202.665,98.257 200,97.867 197.14,97.867C192.915,97.867 189.145,98.777 185.765,100.662C182.385,102.547 179.72,105.277 177.705,108.917C175.755,112.557 174.715,116.912 174.715,122.112C174.715,127.312 175.69,131.732 177.64,135.307C179.59,138.947 182.255,141.677 185.635,143.562C189.015,145.447 192.85,146.422 197.14,146.422C200.39,146.422 203.25,145.902 205.785,144.927C208.32,143.952 210.465,142.652 212.22,140.962C213.975,139.272 215.34,137.452 216.315,135.437C217.355,133.357 217.94,131.342 218.135,129.197L206.63,129.132C206.435,130.302 206.045,131.342 205.525,132.187C205.005,133.097 204.355,133.877 203.575,134.527C202.795,135.112 201.885,135.567 200.845,135.892C199.805,136.217 198.635,136.412 197.4,136.412C195.125,136.412 193.175,135.892 191.55,134.787C189.925,133.747 188.625,132.122 187.715,130.042C186.805,127.897 186.415,125.297 186.415,122.112C186.415,119.122 186.805,116.522 187.715,114.442C188.625,112.297 189.86,110.672 191.55,109.567C193.175,108.462 195.125,107.877 197.465,107.877C198.765,107.877 199.935,108.072 200.975,108.397C202.08,108.787 202.99,109.307 203.77,109.957C204.55,110.672 205.2,111.452 205.655,112.427C206.11,113.402 206.435,114.442 206.63,115.612L218.135,115.612C217.875,112.817 217.16,110.282 215.99,108.072Z" style="fill:white;fill-rule:nonzero;"/>
        <path d="M250.783,144.148C253.448,142.588 255.528,140.443 256.958,137.713C258.388,134.983 259.103,131.798 259.103,128.158C259.103,124.518 258.388,121.333 256.958,118.538C255.528,115.808 253.448,113.663 250.783,112.168C248.118,110.608 244.933,109.828 241.228,109.828C237.458,109.828 234.273,110.608 231.608,112.168C228.943,113.663 226.863,115.808 225.433,118.538C224.003,121.333 223.288,124.518 223.288,128.158C223.288,131.798 224.003,134.983 225.433,137.713C226.863,140.443 228.943,142.588 231.608,144.148C234.273,145.708 237.458,146.423 241.228,146.423C244.933,146.423 248.118,145.708 250.783,144.148ZM237.718,136.673C236.743,135.828 236.028,134.723 235.508,133.228C235.053,131.733 234.793,130.043 234.793,128.093C234.793,126.143 235.053,124.388 235.508,122.893C236.028,121.463 236.743,120.293 237.718,119.448C238.693,118.603 239.863,118.213 241.293,118.213C242.658,118.213 243.763,118.603 244.738,119.448C245.648,120.293 246.363,121.463 246.883,122.893C247.403,124.388 247.598,126.143 247.598,128.093C247.598,130.043 247.403,131.733 246.883,133.228C246.363,134.723 245.648,135.828 244.738,136.673C243.763,137.518 242.658,137.908 241.293,137.908C239.863,137.908 238.693,137.518 237.718,136.673Z" style="fill:white;fill-rule:nonzero;"/>
        <path d="M276.933,122.113C277.453,121.138 278.103,120.423 279.013,119.903C279.923,119.383 280.963,119.123 282.133,119.123C283.953,119.123 285.318,119.643 286.358,120.748C287.333,121.853 287.853,123.413 287.853,125.363L287.853,145.773L299.098,145.773L299.098,123.153C299.163,120.488 298.643,118.213 297.603,116.198C296.563,114.183 295.133,112.623 293.313,111.518C291.493,110.413 289.283,109.828 286.813,109.828C284.213,109.828 281.938,110.478 280.053,111.713C278.168,112.948 276.803,114.638 276.023,116.848L275.633,116.848L275.633,110.348L264.908,110.348L264.908,145.773L276.218,145.773L276.218,125.558C276.218,124.193 276.478,123.023 276.933,122.113Z" style="fill:white;fill-rule:nonzero;"/>
        <path d="M318.158,122.113C318.678,121.138 319.328,120.423 320.238,119.903C321.148,119.383 322.188,119.123 323.358,119.123C325.178,119.123 326.543,119.643 327.583,120.748C328.558,121.853 329.078,123.413 329.078,125.363L329.078,145.773L340.323,145.773L340.323,123.153C340.388,120.488 339.868,118.213 338.828,116.198C337.788,114.183 336.358,112.623 334.538,111.518C332.718,110.413 330.508,109.828 328.038,109.828C325.438,109.828 323.163,110.478 321.278,111.713C319.393,112.948 318.028,114.638 317.248,116.848L316.858,116.848L316.858,110.348L306.133,110.348L306.133,145.773L317.443,145.773L317.443,125.558C317.443,124.193 317.703,123.023 318.158,122.113Z" style="fill:white;fill-rule:nonzero;"/>
        <path d="M372.123,144.993C374.463,144.083 376.348,142.718 377.843,141.028C379.273,139.338 380.183,137.323 380.638,134.983L370.303,134.658C369.978,135.438 369.523,136.088 368.938,136.673C368.353,137.193 367.703,137.583 366.858,137.908C366.078,138.168 365.168,138.298 364.128,138.298C362.698,138.298 361.463,137.973 360.423,137.388C359.383,136.803 358.538,135.958 357.953,134.853C357.433,133.813 357.108,132.513 357.108,131.083L357.108,130.758L380.768,130.758L380.768,127.963C380.768,125.038 380.313,122.438 379.468,120.228C378.623,117.953 377.453,116.068 375.958,114.508C374.398,113.013 372.578,111.843 370.498,111.063C368.418,110.218 366.143,109.828 363.608,109.828C360.033,109.828 356.913,110.608 354.313,112.168C351.648,113.663 349.633,115.808 348.138,118.538C346.708,121.333 345.993,124.518 345.993,128.158C345.993,131.928 346.708,135.178 348.138,137.908C349.568,140.638 351.648,142.783 354.313,144.213C357.043,145.708 360.228,146.423 363.933,146.423C367.053,146.423 369.783,145.968 372.123,144.993ZM370.238,124.193L357.108,124.193C357.173,123.023 357.498,122.048 358.018,121.138C358.603,120.163 359.448,119.383 360.423,118.863C361.398,118.278 362.568,118.018 363.803,118.018C365.038,118.018 366.143,118.278 367.118,118.798C368.093,119.318 368.873,120.098 369.393,121.008C369.978,121.918 370.238,123.023 370.238,124.193Z" style="fill:white;fill-rule:nonzero;"/>
        <path d="M411.706,144.603C414.176,143.433 416.061,141.743 417.361,139.533C418.726,137.323 419.441,134.788 419.571,131.863L409.041,131.863C408.846,133.098 408.521,134.203 408.001,135.048C407.481,135.893 406.831,136.608 406.051,136.998C405.206,137.453 404.296,137.713 403.256,137.713C401.956,137.713 400.786,137.323 399.811,136.608C398.836,135.893 398.056,134.788 397.536,133.358C396.951,131.928 396.691,130.108 396.691,128.028C396.691,125.948 396.951,124.193 397.536,122.763C398.056,121.333 398.836,120.293 399.811,119.513C400.786,118.798 401.956,118.473 403.256,118.473C404.881,118.473 406.181,118.928 407.156,119.968C408.196,121.008 408.781,122.438 409.041,124.258L419.571,124.258C419.506,121.333 418.726,118.798 417.361,116.653C415.996,114.508 414.111,112.818 411.641,111.648C409.236,110.478 406.376,109.828 403.061,109.828C399.356,109.828 396.171,110.608 393.506,112.168C390.841,113.728 388.761,115.873 387.331,118.603C385.901,121.333 385.186,124.518 385.186,128.158C385.186,131.798 385.901,134.983 387.331,137.713C388.761,140.443 390.841,142.588 393.506,144.148C396.171,145.643 399.356,146.423 403.126,146.423C406.441,146.423 409.301,145.838 411.706,144.603Z" style="fill:white;fill-rule:nonzero;"/>
        <path d="M427.692,135.893C427.627,138.298 428.147,140.248 429.122,141.873C430.097,143.433 431.592,144.603 433.477,145.318C435.362,146.098 437.572,146.423 440.237,146.293C441.602,146.228 442.772,146.098 443.747,145.838C444.722,145.643 445.502,145.448 446.022,145.253L444.332,137.128C444.072,137.193 443.682,137.258 443.227,137.323C442.707,137.453 442.252,137.453 441.862,137.453C441.212,137.453 440.692,137.388 440.302,137.193C439.847,136.998 439.522,136.738 439.327,136.283C439.067,135.893 439.002,135.308 439.002,134.593L439.002,118.603L445.372,118.603L445.372,110.348L439.002,110.348L439.002,101.833L427.692,101.833L427.692,110.348L423.012,110.348L423.012,118.603L427.692,118.603L427.692,135.893Z" style="fill:white;fill-rule:nonzero;"/>
        <path d="M199.227,7.666L199.227,7.662L199.222,7.664L199.217,7.662L199.217,7.666L177.1,15.095L177.1,28.907L199.222,22.227L221.344,28.907L221.344,15.095L199.227,7.666Z" style="fill:white;fill-rule:nonzero;"/>
        <path d="M207.522,44.379L190.912,44.379L190.912,29.676L177.1,33.868L177.1,72.894L190.912,72.894L190.912,58.191L207.522,58.191L207.522,72.894L221.334,72.894L221.334,33.868L207.522,29.676L207.522,44.379Z" style="fill:white;fill-rule:nonzero;"/>
        <path d="M38.183,64.09L38.183,87.306C38.183,90.036 36.853,92.184 35.161,92.184L17.209,92.184C15.577,92.184 14.187,90.036 14.187,87.306L14.187,64.09C14.187,61.356 15.577,59.213 17.209,59.213L35.161,59.213C36.853,59.213 38.183,61.356 38.183,64.09Z" style="fill:white;fill-rule:nonzero;"/>
        <path d="M38.183,110.622L38.183,133.838C38.183,136.567 36.853,138.715 35.161,138.715L17.209,138.715C15.577,138.715 14.187,136.567 14.187,133.838L14.187,110.622C14.187,107.888 15.577,105.744 17.209,105.744L35.161,105.744C36.853,105.744 38.183,107.888 38.183,110.622Z" style="fill:white;fill-rule:nonzero;"/>
        <path d="M101.016,64.09C101.016,66.724 99.544,68.968 97.817,68.968L48.695,68.968C46.904,68.968 45.497,66.724 45.497,64.09C45.497,61.356 46.904,59.213 48.695,59.213L97.817,59.213C99.544,59.213 101.016,61.356 101.016,64.09Z" style="fill:white;fill-rule:nonzero;"/>
        <path d="M84.664,84.951C82.223,87.39 79.999,90.51 77.937,94.22C77.829,94.416 77.775,94.511 77.721,94.706L48.209,94.706C46.69,94.706 45.497,92.558 45.497,89.829C45.497,87.195 46.69,84.951 48.209,84.951L84.664,84.951Z" style="fill:white;fill-rule:nonzero;"/>
        <path d="M72.053,105.744C71.082,108.864 70.326,112.179 69.732,115.499L48.195,115.499C46.684,115.499 45.497,113.256 45.497,110.622C45.497,107.888 46.684,105.744 48.195,105.744L72.053,105.744Z" style="fill:white;fill-rule:nonzero;"/>
        <path d="M68.817,138.715L48.253,138.715C46.709,138.715 45.497,136.567 45.497,133.838C45.497,131.205 46.709,128.96 48.253,128.96L68.762,128.96C68.707,130.423 68.652,131.985 68.652,133.543C68.652,135.3 68.707,136.958 68.817,138.715Z" style="fill:white;fill-rule:nonzero;"/>
        <path d="M121.547,116.26C122.875,117.556 123.85,119.051 124.496,120.656L130.369,122.65C129.797,119.005 128.078,115.499 125.203,112.695C118.013,105.689 106.338,105.689 99.147,112.695C91.969,119.693 91.969,131.073 99.16,138.082C102.182,141.026 105.972,142.725 109.909,143.188L107.91,137.606C106.045,137.001 104.303,135.966 102.816,134.517C97.648,129.483 97.636,121.296 102.804,116.26C107.971,111.225 116.379,111.222 121.547,116.26Z" style="fill:white;fill-rule:nonzero;"/>
        <path d="M93.359,143.736C82.988,133.627 82.988,117.163 93.359,107.055C103.73,96.947 120.621,96.947 130.991,107.055C136.195,112.125 138.791,118.814 138.767,125.489L143.861,127.224C144.396,118.696 141.314,109.988 134.647,103.49C122.254,91.411 102.097,91.411 89.703,103.49C77.321,115.558 77.309,135.219 89.703,147.298C96.503,153.928 105.655,156.91 114.564,156.256L112.797,151.301C105.778,151.468 98.709,148.952 93.359,143.736Z" style="fill:white;fill-rule:nonzero;"/>
        <path d="M170.839,168.887L151.037,149.583L162.682,143.844C164.888,142.755 164.674,139.617 162.338,138.827L112.023,121.753C110.039,121.08 108.134,122.938 108.825,124.871L126.34,173.917C127.153,176.191 130.371,176.401 131.487,174.25L137.377,162.899L157.179,182.2C158.273,183.267 160.048,183.267 161.142,182.2L170.839,172.75C171.933,171.683 171.933,169.954 170.839,168.887Z" style="fill:white;fill-rule:nonzero;"/>
        <path d="M113.121,29.974L88.884,29.974C86.938,29.974 85.271,27.569 85.271,24.585C85.271,21.597 86.938,19.276 88.884,19.276L113.121,19.276C115.066,19.276 116.678,21.597 116.678,24.585C116.678,27.569 115.066,29.974 113.121,29.974ZM44.136,30.553L43.191,30.553C40.968,30.553 39.133,27.901 39.133,24.585C39.133,21.265 40.968,18.612 43.191,18.612L44.136,18.612C46.359,18.612 48.194,21.265 48.194,24.585C48.194,27.901 46.359,30.553 44.136,30.553ZM30.406,30.553L29.405,30.553C27.182,30.553 25.348,27.901 25.348,24.585C25.348,21.265 27.182,18.612 29.405,18.612L30.406,18.612C32.574,18.612 34.408,21.265 34.408,24.585C34.408,27.901 32.574,30.553 30.406,30.553ZM16.62,30.553L15.564,30.553C13.34,30.553 11.562,27.901 11.562,24.585C11.562,21.265 13.34,18.612 15.564,18.612L16.62,18.612C18.843,18.612 20.622,21.265 20.622,24.585C20.622,27.901 18.843,30.553 16.62,30.553ZM116.234,0.533L12.785,0.533C5.725,0.533 0,9.158 0,19.608L0,139.516C0,150.048 5.725,158.588 12.785,158.588L77.711,158.588C76.099,155.518 74.82,152.202 73.764,148.72L12.785,148.72C9.394,148.72 6.614,144.574 6.614,139.516L6.614,48.632L122.404,48.632L122.404,85.365C124.627,87.272 126.628,89.677 128.519,92.499C128.685,92.746 128.852,92.997 129.019,93.325L129.019,19.608C129.019,9.158 123.293,0.533 116.234,0.533Z" style="fill:white;fill-rule:nonzero;"/>
    </g>
</svg>
