<?xml version="1.0" encoding="utf-8"?>
<!-- Generator: Adobe Illustrator 25.4.1, SVG Export Plug-In . SVG Version: 6.00 Build 0)  -->
<svg version="1.0" id="Layer_1" xmlns="http://www.w3.org/2000/svg" xmlns:xlink="http://www.w3.org/1999/xlink" x="0px" y="0px"
	 viewBox="0 0 904 601.1" style="enable-background:new 0 0 904 601.1;" xml:space="preserve">
<style type="text/css">
	.st0{fill:#1D3242;}
	.st1{fill:#366BB3;}
	.st2{fill:#FDC20B;}
	.st3{fill:#212A44;}
</style>
<path class="st0" d="M122.5,302.2v-1c-1.9,1.9-4.2,3.3-6.7,4.3c-2.6,1-5.3,1.4-8.1,1.4c-8.3,0.1-16.2-3.3-21.8-9.3
	c-11.8-12.9-11.8-32.7,0-45.6c5.6-6.1,13.6-9.5,21.8-9.3c2.8,0,5.5,0.5,8.1,1.4c2.5,0.9,4.8,2.4,6.7,4.2v-1.1
	c-0.1-1.5,1.1-2.8,2.6-2.9h15.7c1.5-0.1,2.8,1.1,2.9,2.6v55.1c0,0.7-0.3,1.5-0.8,2c-0.5,0.6-1.2,0.9-2,0.9h-15.4
	c-0.8,0-1.5-0.3-2.1-0.9C122.9,303.7,122.5,303,122.5,302.2z M98.3,274.8c-0.1,6.8,5.3,12.3,12.1,12.4c3.2,0,6.3-1.2,8.6-3.4
	l0.2-0.2c4.7-4.9,4.7-12.7,0-17.6c-4.7-4.8-12.3-4.9-17.1-0.2c0,0,0,0,0,0l-0.2,0.2C99.5,268.3,98.3,271.5,98.3,274.8z"/>
<path class="st0" d="M181,288c2.3,0.2,4.7-0.7,6.3-2.4c1.6-2,2.3-4.5,2.1-7V247c0-0.7,0.4-1.4,0.9-1.8c0.6-0.5,1.3-0.8,2-0.8h15.3
	c0.8,0,1.5,0.3,2.1,0.8c0.6,0.4,0.9,1.1,0.9,1.8v34.5c0.2,7-2.7,13.7-8,18.3c-6,5-13.7,7.6-21.5,7.2c-7.9,0.4-15.7-2.2-21.9-7.2
	c-5.4-4.5-8.4-11.2-8.2-18.2V247c0-0.7,0.3-1.4,0.9-1.8c0.5-0.5,1.3-0.8,2-0.8h15.4c0.8,0,1.5,0.3,2.1,0.8c0.6,0.4,0.9,1.1,0.9,1.8
	v31.6c-0.2,2.5,0.6,5.1,2.3,7C176.2,287.3,178.6,288.2,181,288z"/>
<path class="st0" d="M245.5,306.3c-5.8,0.3-11.4-1.6-15.9-5.2c-4-3.7-6.2-9-5.9-14.4V262h-6.3c-0.8,0-1.5-0.3-2-0.9
	c-0.5-0.6-0.8-1.3-0.8-2.1v-4.4c0-1.1,0.1-2.1,0.4-3.1c0.3-0.9,0.7-1.6,1.4-2.3l15.1-16.7c0.9-1.1,2-2,3.2-2.7
	c1-0.5,2.2-0.7,3.3-0.6h4.1c0.7,0,1.5,0.3,2,0.8c0.5,0.5,0.8,1.2,0.8,2v12.5h13.3c0.7,0,1.5,0.3,2,0.8c0.5,0.5,0.8,1.2,0.8,2V259
	c0,0.8-0.3,1.5-0.8,2.1c-0.5,0.5-1.2,0.8-2,0.9h-13.3v20.2c-0.1,1.3,0.4,2.5,1.2,3.5c0.9,0.9,2,1.3,3.3,1.3c0.9,0,1.7-0.2,2.6-0.5
	c1.1-0.4,2.1-0.9,3.1-1.5c0.9-0.6,1.9-0.9,3-0.7c1,0.3,1.8,0.9,2.3,1.8l5.4,8c0.6,0.8,0.9,1.8,0.9,2.7c0,0.9-0.4,1.8-1.1,2.4
	c-2.4,2.4-5.4,4.1-8.6,5.2C253.2,305.7,249.3,306.3,245.5,306.3z"/>
<path class="st0" d="M301.6,261.1c-2.6-0.1-5.2,0.9-7.1,2.7c-1.9,1.9-2.9,4.6-2.8,7.3v31.2c0.1,1.5-1.1,2.8-2.6,2.9h-15.7
	c-1.5,0.1-2.8-1.1-2.9-2.6c0-0.1,0-0.2,0-0.2v-80.1c-0.1-1.5,1.1-2.8,2.6-2.8c0,0,0,0,0,0h15.7c1.5-0.1,2.8,1.1,2.9,2.6v29.8
	c1.8-2.8,4.4-5.1,7.4-6.7c3.2-1.6,6.7-2.4,10.3-2.3c6.5-0.5,12.9,2.1,17.4,6.8c4.3,5.7,6.4,12.7,5.9,19.8v32.9
	c0.1,1.5-1.1,2.8-2.6,2.9h-15.7c-1.5,0.1-2.8-1.1-2.9-2.6v-31.4c0.4-5.1-3.5-9.6-8.6-10c0,0,0,0-0.1,0
	C302.4,261.1,302,261.1,301.6,261.1z"/>
<path class="st0" d="M337.8,274.8c-0.1-8.6,3.5-16.9,9.8-22.7c13.4-12.5,34.1-12.5,47.5,0c12.5,11.8,13.1,31.5,1.3,44.1
	c-0.4,0.5-0.9,0.9-1.3,1.3c-13.4,12.5-34.1,12.5-47.5,0C341.3,291.7,337.7,283.4,337.8,274.8z M359.1,274.8
	c-0.1,6.8,5.3,12.3,12.1,12.4c3.2,0,6.3-1.2,8.6-3.4l0.2-0.2c4.7-4.9,4.7-12.7,0-17.6c-4.7-4.8-12.4-4.9-17.1-0.2l-0.2,0.2
	C360.4,268.3,359.1,271.5,359.1,274.8z"/>
<path class="st0" d="M413.7,244.5h11.1c1.1,0,2.2,0.3,3.1,0.9c0.9,0.6,1.6,1.5,2.1,2.6l1.7,3.8c1.9-2.4,4.3-4.5,6.9-6.1
	c2.1-1.3,4.5-2.1,7-2.1c2-0.1,4,0.4,5.6,1.6c1.3,1.2,1.9,2.9,1.5,4.6l-1.7,13.8c-0.1,1.3-0.6,2.6-1.5,3.6c-0.9,0.8-2,1.3-3.2,1.2
	c-0.5,0-1-0.1-1.4-0.1c-0.5-0.1-1.2-0.3-2.2-0.5s-1.9-0.6-2.5-0.7c-0.5-0.1-1.1-0.1-1.6-0.1c-1.7-0.1-3.4,0.5-4.7,1.7
	c-1.2,1.2-1.9,2.9-1.8,4.7v29.3c0,0.7-0.3,1.4-0.9,1.8c-0.5,0.5-1.3,0.8-2,0.8h-15.5c-0.8,0-1.5-0.3-2-0.8c-0.5-0.5-0.8-1.3-0.8-2
	v-55c0-0.7,0.3-1.5,0.8-2C412.1,244.7,412.9,244.4,413.7,244.5z"/>
<path class="st1" d="M479.7,228.6c0,3.1-1.3,6-3.5,8.1c-4.7,4.5-12.1,4.5-16.7,0c-2.3-2.1-3.6-5-3.5-8.1c0-3.1,1.3-6,3.5-8.1
	c4.6-4.6,12.1-4.6,16.7,0C478.4,222.5,479.7,225.5,479.7,228.6z"/>
<path class="st0" d="M537.5,261l-24,26h23.9c1.5,0,2.8,1.1,2.8,2.6c0,0,0,0,0,0v12.7c0,1.5-1.2,2.8-2.7,2.8c0,0,0,0,0,0h-49.9
	c-0.8,0-1.5-0.3-2.1-0.9c-0.6-0.5-0.9-1.2-0.9-2v-10.3c0-0.6,0.1-1.2,0.3-1.8c0.2-0.6,0.6-1.1,1-1.5l24.5-26h-22
	c-1.6,0-2.9-1.3-2.9-2.9l0,0l0,0v-12.3c0-1.6,1.3-2.9,2.9-3h47.4c1.6,0.1,2.9,1.4,2.9,3v10.3c0,0.6-0.1,1.2-0.3,1.8
	C538.3,260.1,537.9,260.6,537.5,261z"/>
<path class="st0" d="M602.9,295.2c-2.8,3.8-6.5,6.7-10.9,8.5c-5,2.2-10.4,3.2-15.8,3.2c-8.8,0.3-17.4-2.9-23.8-9
	c-6.2-5.9-9.6-14.2-9.3-22.8c-0.3-8.6,2.8-17,8.7-23.3c6-6.1,14.4-9.4,22.9-9.1c8.3-0.3,16.3,2.8,22.2,8.7
	c5.6,5.6,8.7,13.4,8.5,21.3v3.5c0,1.1-0.2,2.2-0.8,3.2c-0.6,0.8-1.5,1.3-2.5,1.2h-37.8c0.5,2.7,2,5.1,4.2,6.7c2.3,1.7,5.1,2.5,8,2.5
	c2,0,3.9-0.4,5.8-1.1c1.9-0.9,3.6-2.1,5.1-3.6c1.2-1.4,3.2-1.6,4.7-0.5l10.3,6.7c0.7,0.4,1.1,1.1,1.2,1.8
	C603.6,293.8,603.4,294.6,602.9,295.2z M564.8,266.9h20.1c-0.4-2.3-1.6-4.3-3.4-5.8c-1.8-1.5-4.1-2.3-6.5-2.2
	c-2.4,0-4.7,0.8-6.5,2.2C566.7,262.6,565.3,264.7,564.8,266.9z"/>
<path class="st2" d="M637.2,293.3c0,7.5-6.1,13.6-13.6,13.7c-7.5,0-13.6-6.1-13.7-13.6c0-7.5,6.1-13.6,13.6-13.7
	C631,279.6,637.1,285.7,637.2,293.3C637.2,293.2,637.2,293.3,637.2,293.3z"/>
<path class="st0" d="M674.7,261.1c-2.6-0.1-5.2,0.9-7.1,2.7c-1.9,1.9-2.9,4.6-2.8,7.3v31.2c0.1,1.5-1.1,2.8-2.6,2.9h-15.7
	c-1.5,0.1-2.8-1.1-2.9-2.6c0,0,0,0,0,0v-55.2c-0.1-1.5,1.1-2.8,2.6-2.9h15.7c1.5-0.1,2.8,1.1,2.8,2.6c0,0,0,0,0,0c0,0.1,0,0.1,0,0.2
	v4.4c1.8-2.8,4.4-5.1,7.4-6.7c3.2-1.6,6.7-2.4,10.3-2.3c6.5-0.5,12.9,2.1,17.4,6.8c4.3,5.7,6.4,12.7,5.9,19.8v32.9
	c0.1,1.5-1.1,2.8-2.6,2.9h-15.7c-1.5,0.1-2.8-1.1-2.8-2.6c0-0.1,0-0.1,0-0.2v-31.2c0.4-5.1-3.5-9.6-8.7-9.9c0,0,0,0,0,0
	C675.4,261.1,675,261.1,674.7,261.1L674.7,261.1z"/>
<path class="st0" d="M770.8,295.2c-2.8,3.8-6.5,6.7-10.9,8.5c-5,2.2-10.4,3.2-15.8,3.2c-8.8,0.3-17.4-2.9-23.8-9
	c-6.2-6-9.5-14.2-9.3-22.8c-0.3-8.6,2.8-17,8.7-23.3c6-6.1,14.4-9.4,22.9-9.1c8.3-0.3,16.3,2.8,22.2,8.7c5.6,5.6,8.7,13.4,8.5,21.3
	v3.5c0.1,1.1-0.2,2.2-0.8,3.2c-0.6,0.8-1.5,1.3-2.5,1.2h-37.9c0.5,2.7,2,5.1,4.2,6.7c2.3,1.7,5.1,2.5,8,2.5c2,0,4-0.4,5.8-1.1
	c1.9-0.9,3.6-2.1,5.1-3.6c1.2-1.4,3.2-1.6,4.7-0.5l10.3,6.7c0.7,0.4,1.1,1.1,1.2,1.8C771.5,293.8,771.3,294.6,770.8,295.2z
	 M732.7,266.9h20.1c-0.4-2.3-1.6-4.3-3.4-5.8c-1.8-1.5-4.1-2.3-6.5-2.2c-2.4,0-4.7,0.8-6.5,2.2C734.6,262.6,733.2,264.6,732.7,266.9
	L732.7,266.9z"/>
<path class="st0" d="M806,306.3c-5.8,0.3-11.4-1.6-15.9-5.2c-4-3.7-6.2-9-5.9-14.4V262h-6.3c-0.8,0-1.5-0.3-2-0.9
	c-0.5-0.6-0.8-1.3-0.8-2.1v-4.4c0-1.1,0.1-2.1,0.4-3.1c0.3-0.9,0.7-1.6,1.3-2.3l15.1-16.7c0.9-1.1,2-2,3.2-2.7
	c1-0.5,2.2-0.7,3.3-0.6h4c0.7,0,1.5,0.3,2,0.8c0.5,0.5,0.8,1.2,0.8,2v12.5h13.3c0.8,0,1.5,0.3,2,0.8c0.5,0.5,0.9,1.2,0.8,2V259
	c0,0.8-0.3,1.5-0.8,2.1c-0.5,0.6-1.3,0.9-2,0.9h-13.3v20.2c-0.1,1.3,0.4,2.5,1.2,3.5c0.9,0.9,2,1.3,3.2,1.3c0.9,0,1.7-0.2,2.6-0.5
	c1.1-0.4,2.1-0.9,3.1-1.5c1.5-1.2,3.6-1,4.9,0.4c0.2,0.2,0.3,0.4,0.4,0.7l5.3,8c0.6,0.8,0.9,1.8,0.8,2.7c0,0.9-0.4,1.8-1.1,2.4
	c-2.4,2.4-5.4,4.1-8.6,5.2C813.7,305.7,809.9,306.3,806,306.3z"/>
<path class="st3" d="M482.9,382.8c-0.1,0.4-0.2,0.6-0.7,0.6h-5.7c-0.4,0-0.5-0.2-0.7-0.6l-15.1-42c-0.1-0.4,0.1-0.6,0.5-0.6h4.8
	c0.4,0,0.6,0.2,0.7,0.6l12.5,36.4l12.5-36.4c0.1-0.4,0.3-0.6,0.7-0.6h4.8c0.4,0,0.6,0.2,0.5,0.6L482.9,382.8z"/>
<path class="st3" d="M504.1,353.1c0-0.4,0.2-0.6,0.6-0.6h3.6c0.4,0,0.6,0.2,0.6,0.6v29.8c0,0.4-0.2,0.6-0.6,0.6h-3.6
	c-0.4,0-0.6-0.2-0.6-0.6V353.1z M503.2,340.9c0-0.4,0.2-0.6,0.6-0.6h5.3c0.4,0,0.6,0.2,0.6,0.6v5.3c0,0.4-0.2,0.6-0.6,0.6h-5.3
	c-0.4,0-0.6-0.2-0.6-0.6V340.9z"/>
<path class="st3" d="M528.2,384.1c-7.2,0-13-4.3-13-10.1c0-0.3,0.2-0.6,0.5-0.6h4.1c0.4,0,0.6,0.2,0.6,0.6c0.5,3.6,3.4,5.5,8,5.5
	c4.1,0,7.2-1.3,7.2-4.5s-2.7-4.3-9-5.3c-7.4-1.2-10.6-3.6-10.6-9c0-5.7,5.2-8.8,11.7-8.8c6.9,0,11.2,3.5,11.9,8.9
	c0,0.3-0.2,0.6-0.5,0.6h-3.6c-0.4,0-0.5-0.2-0.6-0.6c-1.2-2.9-4.2-4.7-7.4-4.3c-4,0-6.7,1.4-6.7,4.1c0,3,2.5,4.1,8.7,5.2
	c5.9,1.1,11.1,2.8,11.1,8.6C540.6,380.6,535.5,384.1,528.2,384.1"/>
<path class="st3" d="M559.4,368.6c-4.4,0-7.8,1.6-7.8,5.4c0,3.6,2.5,5.6,6.6,5.6c5,0.3,9.3-3.6,9.6-8.6c0,0,0,0,0,0c0-0.3,0-0.7,0-1
	C565.1,369,562.2,368.5,559.4,368.6 M548.2,361.7c-0.3,0-0.4-0.1-0.4-0.4c0-0.2,0-0.4,0.1-0.6c1.5-5.6,6.7-9.3,12.5-8.9
	c7.2,0,12.3,4.3,12.3,10.8v14.9c-0.2,1.8,0.1,3.7,1,5.3c0.1,0.1,0.1,0.2,0.1,0.3c0,0.2-0.2,0.3-0.5,0.3h-4.9c-0.4,0-0.6-0.2-0.6-0.6
	v-3.2c-2.5,3-6.2,4.6-10.1,4.5c-5.6,0.5-10.6-3.6-11.1-9.2v-0.6c0-6.9,5.6-10.3,12.5-10.3c2.9,0.1,5.9,0.5,8.7,1.4v-1.8
	c0.3-3.6-2.4-6.9-6-7.2c-0.5-0.1-1-0.1-1.5,0c-3.2-0.2-6.2,1.7-7.3,4.7c-0.1,0.4-0.5,0.6-0.9,0.6h-4L548.2,361.7z"/>
<path class="st3" d="M611.1,339.6c9.3,0,14.7,5.8,14.8,12c0,0.4-0.2,0.6-0.6,0.6h-4c-0.4,0-0.6-0.2-0.6-0.6
	c-0.2-4.3-4.5-7.1-9.6-7.1s-9.3,2.3-9.3,6.4c0,4.6,5,6.4,11.4,8.1c7.9,2.1,14.2,5,14.2,11.9c0,8.9-6.6,13.2-15.9,13.2
	c-9,0-15.9-5.6-15.9-13.7c0-0.4,0.2-0.6,0.6-0.6h4c0.4,0,0.6,0.2,0.6,0.6c0.2,5,4.3,8.8,10.8,8.8c6.7,0,10.8-2.5,10.8-8
	c0-4.3-5.3-6-11.3-7.5c-8.5-2.2-14.3-5.2-14.3-12.5C596.6,343.5,603.3,339.6,611.1,339.6"/>
<path class="st3" d="M648.5,379.6c6.4,0.5,12-4.3,12.5-10.6c0.5-6.4-4.3-12-10.6-12.5c-6.4-0.5-12,4.3-12.5,10.6c0,0,0,0,0,0
	c0,0.3,0,0.6,0,0.9c-0.5,5.8,3.7,11,9.5,11.5C647.7,379.5,648.1,379.5,648.5,379.6 M648.5,351.9c8.9-0.2,16.3,6.8,16.5,15.7
	c0.2,8.9-6.8,16.3-15.7,16.5c-8.9,0.2-16.3-6.8-16.5-15.7c0,0,0,0,0,0c0-0.1,0-0.2,0-0.4c-0.5-8.4,6-15.6,14.4-16.1c0,0,0,0,0,0
	C647.6,351.9,648.1,351.9,648.5,351.9"/>
<path class="st3" d="M671.3,340.8c0-0.4,0.2-0.6,0.6-0.6h3.6c0.4,0,0.6,0.2,0.6,0.6v42c0,0.4-0.2,0.6-0.6,0.6h-3.6
	c-0.4,0-0.6-0.2-0.6-0.6V340.8z"/>
<path class="st3" d="M710.1,382.9c0,0.4-0.2,0.6-0.6,0.6H706c-0.4,0-0.6-0.2-0.6-0.6v-3.5c-2.5,3.1-6.3,4.8-10.3,4.8
	c-5.6,0.4-10.4-3.9-10.8-9.4c0,0,0,0,0,0c-0.1-0.6-0.1-1.2,0-1.8v-19.8c0-0.4,0.2-0.6,0.6-0.6h3.6c0.4,0,0.6,0.2,0.6,0.6v19
	c-0.5,3.5,1.9,6.8,5.4,7.4c0.5,0.1,1.1,0.1,1.6,0c5.2,0,9.2-3.8,9.2-11.2v-15.1c0-0.4,0.2-0.6,0.6-0.6h3.6c0.4,0,0.6,0.2,0.6,0.6
	L710.1,382.9z"/>
<path class="st3" d="M738.3,352.5c0.4,0,0.6,0.2,0.6,0.6v3.3c0,0.4-0.2,0.6-0.6,0.6H728v17.2c0,3.5,1.6,5.2,4.9,5.2
	c2,0.1,4-0.2,5.9-0.9c0.1-0.1,0.3-0.1,0.4-0.1c0.3,0,0.4,0.2,0.4,0.6v2.9c0,0.6,0,0.9-0.5,1.1c-2.1,0.7-4.4,1.1-6.6,1
	c-4.7,0.4-8.9-3.1-9.3-7.8c0-0.5,0-1,0-1.6V357h-5.5c-0.4,0-0.6-0.2-0.6-0.6v-3.4c0-0.4,0.2-0.6,0.6-0.6h5.5v-8.9
	c0-0.4,0.2-0.6,0.6-0.6h3.6c0.4,0,0.6,0.2,0.6,0.6v8.9L738.3,352.5z"/>
<path class="st3" d="M746.7,353.1c0-0.4,0.2-0.6,0.6-0.6h3.6c0.4,0,0.6,0.2,0.6,0.6v29.8c0,0.4-0.2,0.6-0.6,0.6h-3.6
	c-0.4,0-0.6-0.2-0.6-0.6V353.1z M745.9,340.9c0-0.4,0.2-0.6,0.6-0.6h5.3c0.4,0,0.6,0.2,0.6,0.6v5.3c0,0.4-0.2,0.6-0.6,0.6h-5.3
	c-0.4,0-0.6-0.2-0.6-0.6V340.9z"/>
<path class="st3" d="M774,379.6c6.4,0.5,12-4.3,12.5-10.6c0.5-6.4-4.3-12-10.6-12.5c-6.4-0.5-12,4.3-12.5,10.6c0,0,0,0,0,0
	c0,0.3,0,0.6,0,0.9c-0.5,5.8,3.7,11,9.5,11.5C773.3,379.5,773.7,379.5,774,379.6 M774,351.9c8.9-0.2,16.3,6.8,16.5,15.7
	c0.2,8.9-6.8,16.3-15.7,16.5c-8.9,0.2-16.3-6.8-16.5-15.7c0,0,0,0,0,0c0-0.1,0-0.2,0-0.4c-0.5-8.4,6-15.6,14.4-16.1c0,0,0,0,0,0
	C773.2,351.9,773.6,351.9,774,351.9"/>
<path class="st3" d="M796,353.1c0-0.4,0.2-0.6,0.6-0.6h3.6c0.4,0,0.6,0.2,0.6,0.6v3.5c2.5-3.1,6.2-4.8,10.2-4.7
	c5.6-0.4,10.4,3.8,10.8,9.4c0,0,0,0,0,0c0,0.6,0,1.2,0,1.8v19.8c0,0.4-0.2,0.6-0.6,0.6h-3.6c-0.4,0-0.6-0.2-0.6-0.6v-19
	c0.5-3.5-1.9-6.8-5.4-7.4c-0.5-0.1-1.1-0.1-1.6,0c-5.2,0-9.2,3.8-9.2,11.2v15.2c0,0.4-0.2,0.6-0.6,0.6h-3.6c-0.4,0-0.6-0.2-0.6-0.6
	L796,353.1z"/>
<path class="st3" d="M421.2,366h14.1l-7.1-19.5L421.2,366z M437.1,370.9h-17.7l-4.3,11.9c-0.1,0.4-0.3,0.6-0.7,0.6h-4.1
	c-0.4,0-0.7-0.2-0.7-0.6c0-0.1,0-0.3,0.1-0.4l15.3-41.6c0.1-0.4,0.2-0.6,0.6-0.6h5.3c0.4,0,0.5,0.2,0.6,0.6l15.3,41.6
	c0.1,0.1,0.1,0.2,0.1,0.4c0,0.4-0.3,0.6-0.7,0.6H442c-0.5,0-0.6-0.2-0.7-0.6L437.1,370.9z"/>
<path class="st0" d="M478.4,247.3v55c0,1.5-1.2,2.8-2.7,2.9c-0.1,0-0.1,0-0.2,0h-15.4c-0.8,0-1.5-0.3-2.1-0.8
	c-0.5-0.5-0.8-1.2-0.8-2v-55c0-1.6,1.2-2.8,2.8-2.9c0,0,0.1,0,0.1,0h15.4c0.8,0,1.5,0.3,2.1,0.8
	C478.1,245.8,478.4,246.6,478.4,247.3z"/>
</svg>
