<svg class="h-5 w-auto" width="382" height="44" viewBox="0 0 382 44" fill="none" xmlns="http://www.w3.org/2000/svg"><path fill-rule="evenodd" clip-rule="evenodd" d="M382 23.3505C382 34.7561 363.788 44 341.324 44C318.859 44 300.643 34.7561 300.643 23.3505C300.643 11.9425 318.859 2.69632 341.324 2.69632C363.788 2.69632 382 11.9425 382 23.3505Z" fill="#82BA51"></path><path fill-rule="evenodd" clip-rule="evenodd" d="M310.008 25.6191C311.606 25.6191 312.556 26.4958 312.556 28.0632C312.556 29.6604 311.633 30.5669 310.008 30.5669C308.388 30.5669 307.464 29.6604 307.464 28.0632C307.464 26.4958 308.388 25.6191 310.008 25.6191ZM328.764 25.8692C328.764 29.307 326.613 31.2095 322.666 31.2095C318.142 31.2095 315.253 28.5153 315.253 24.2605C315.253 20.0562 318.222 17.261 322.783 17.261C324.81 17.261 326.746 17.5502 328.487 18.1308V21.9862H325.292V21.7223C325.292 20.0034 324.529 19.1038 323.124 19.1038C320.978 19.1038 319.878 20.8755 319.878 24.3913C319.878 27.5124 321.035 29.151 323.124 29.151C324.815 29.151 325.663 28.0678 325.663 25.8991V25.6856H328.764V25.8692ZM341.511 24.249C341.511 27.6042 340.673 29.2405 338.753 29.2405C336.824 29.2405 335.958 27.6042 335.958 24.249C335.958 20.8984 336.824 19.2323 338.753 19.2323C340.645 19.2323 341.511 20.8984 341.511 24.249V24.249ZM331.376 24.249C331.376 28.7402 334.031 31.2095 338.755 31.2095C343.504 31.2095 346.137 28.77 346.137 24.249C346.137 19.7349 343.477 17.2656 338.755 17.2656C334.059 17.2656 331.376 19.7854 331.376 24.249ZM348.53 29.151C350.627 29.0706 350.685 28.6438 350.685 26.9983V21.3597C350.685 19.7143 350.627 19.315 348.53 19.2369V17.7016H350.431C351.635 17.7016 353.073 17.6511 354.768 17.5272L354.919 19.1704C355.991 17.8737 357.365 17.261 359.138 17.261C361.352 17.261 362.781 18.0298 363.567 19.6753C364.522 18.0321 365.955 17.261 367.978 17.261C371.246 17.261 372.759 18.8261 372.759 22.0574V27.0052C372.759 28.6186 372.839 29.0156 374.804 29.151V30.7299C373.508 30.6466 372.21 30.6022 370.912 30.5968C369.657 30.5968 368.256 30.6496 366.796 30.7299V29.151C368.256 29.0454 368.314 28.5405 368.314 27.1406V22.9295C368.314 20.6552 367.888 19.5422 366.291 19.5422C364.858 19.5422 363.96 20.8388 363.96 23.3793V27.1406C363.96 28.5405 363.987 29.0454 365.478 29.151V30.7299C364.348 30.629 363.215 30.5845 362.081 30.5968C360.907 30.5968 359.558 30.6496 357.988 30.7299V29.151C359.453 29.0454 359.474 28.5405 359.474 27.1406V22.9295C359.474 20.6552 359.053 19.5422 357.451 19.5422C356.019 19.5422 355.12 20.8388 355.12 23.3793V27.1406C355.12 28.5405 355.148 29.0454 356.638 29.151V30.7299C355.3 30.6485 353.96 30.6041 352.62 30.5968C351.356 30.5968 349.983 30.6496 348.527 30.7299V29.151H348.53Z" fill="white"></path><path fill-rule="evenodd" clip-rule="evenodd" d="M79.8079 15.9451L79.8124 14.9858C85.0732 14.4121 89.0154 10.2789 91.0859 5.84974H95.7068L93.6317 12.7391H100.383L99.4205 15.9451H92.6628L88.8486 28.6176C87.9025 31.7524 87.6579 33.2716 89.4862 33.2716C91.0036 33.2716 92.0343 31.9406 92.8342 29.2808L93.0216 28.6658H97.4756C97.4002 29.0949 97.2837 29.4713 97.1694 29.8499C95.6977 34.7542 92.1349 36.9986 85.9051 36.9986C79.9176 36.9986 78.6378 34.7978 80.2992 29.2808L84.3191 15.9428H79.8079V15.9451ZM98.92 24.4638C96.4838 32.5579 100.127 37.0032 108.973 37.0032C117.856 37.0032 124.088 32.6061 126.545 24.4638C128.995 16.326 125.368 11.8922 116.542 11.8922C107.748 11.8922 101.342 16.4178 98.92 24.4638V24.4638ZM117.925 24.4638C116.101 30.5109 113.647 33.4644 110.043 33.4644C106.441 33.4644 105.71 30.5109 107.531 24.4638C109.35 18.4213 111.873 15.4218 115.477 15.4218C119.026 15.4195 119.744 18.419 117.925 24.4638ZM0 36.4868L15.9309 36.4639L16.7697 34.5384C16.484 34.5384 15.5424 34.3755 15.2568 34.3112C12.6035 33.71 12.3407 32.3078 12.5807 31.4839C12.6881 31.1052 13.0103 30.3869 13.5336 29.5631L15.9058 25.9371H29.2292L29.4395 29.6204C29.4966 30.2217 29.524 30.7151 29.4166 31.1029C28.939 32.7461 26.9233 35.5688 23.4656 35.5688L23.1411 36.4616H41.9424L42.5663 34.4604C38.9098 34.3503 39.2206 31.1029 38.9098 27.5871L36.3617 0H27.4215L9.30581 26.4305C6.30747 30.8253 3.70679 35.819 0.246816 35.5941L0 36.4868ZM19.0436 21.2601L28.4865 6.91686L29.1949 21.2601H19.0436ZM73.6215 35.4747L73.6169 36.3927L62.0235 36.3445L62.5377 33.5815C59.8388 35.9131 56.9798 37.0009 53.6638 37.0009C47.4912 37.0009 45.5144 34.2011 47.2786 28.3399L49.9045 19.6146C50.798 16.6565 51.054 13.9278 47.1644 13.7855L47.8454 13.0649H51.4105C53.2913 13.0649 56.2622 12.9227 60.3758 12.7345L56.1137 26.7679C54.8773 30.8666 55.0647 32.8677 58.0653 32.8677C60.7575 32.8677 63.1479 30.5315 64.5237 25.9555L66.4342 19.6123C67.3255 16.6542 67.2866 15.75 63.4884 15.75L64.2997 13.0626H67.9311C69.8736 13.0626 72.8011 12.9204 76.7364 12.7322L71.6836 29.5172C70.79 32.4799 69.7296 35.3348 73.6215 35.4747V35.4747Z" fill="#2F388B"></path><path fill-rule="evenodd" clip-rule="evenodd" d="M200.331 22.1903H196.369C187.214 22.1903 182.099 24.5747 180.449 30.0526C179.201 34.1995 181.756 37.0016 187.575 37.0016C191.64 37.0016 195.011 35.6223 197.904 32.6757L197.084 36.0859H207.992L208.451 35.1014C204.573 34.9132 205.023 32.359 205.917 29.3963L208.721 20.0996C210.524 14.1168 208.101 11.8838 199.449 11.8838C191.16 11.8838 186.398 14.3073 184.848 19.4341H192.664C193.61 16.632 195.681 15.161 198.512 15.161C201.186 15.161 201.972 16.7284 200.999 19.9573L200.331 22.1903ZM199.42 25.1966L198.947 26.7663C197.612 31.2024 194.694 33.534 191.364 33.534C189.04 33.534 188.023 32.0125 188.768 29.5317C189.604 26.7663 192.241 25.1966 196.305 25.1966H199.42ZM236.545 7.77136L234.305 15.2023C233.4 13.0106 231.14 11.8242 227.481 11.8242C220.035 11.8242 214.663 16.2442 212.14 24.6343C209.765 32.5059 212.711 37.0062 220.102 37.0062C224.339 37.0062 227.476 35.4411 229.899 32.2695L228.877 36.0905H240.336L241.165 33.3366C237.283 33.3366 237.287 32.6229 238.163 29.7267L246.778 1.1345C244.518 1.28427 242.254 1.37075 239.988 1.39382H234.392L234.213 2.44489C238.115 2.49078 237.418 4.86601 236.545 7.77136V7.77136ZM231.709 24.1593C230.098 29.5202 227.662 32.219 224.053 32.219C220.442 32.219 219.3 29.4238 220.943 23.9711C222.586 18.5184 225.125 15.8196 228.576 15.8196C232.129 15.8196 233.379 18.6171 231.709 24.1593ZM269.131 24.9304C269.35 24.3635 269.515 23.838 269.656 23.3653C271.951 15.7416 269.131 11.8907 261.237 11.8907C252.761 11.8907 246.678 16.4094 244.337 24.1754C241.837 32.4692 245.034 37.0016 253.408 37.0016C261.093 37.0016 266.164 33.8966 267.837 28.3475C267.846 28.2993 267.878 28.2075 267.894 28.1593H265.694C265.502 29.2379 264.467 30.4083 264.4 30.4772C260.597 34.2753 257.558 33.2816 254.898 33.2816C251.605 33.2816 250.515 30.8145 251.929 26.1192C252.046 25.7428 252.224 25.3159 252.336 24.9327H269.131V24.9304ZM261.909 21.7955H253.387C254.77 17.55 257.053 15.3583 259.775 15.3583C262.65 15.3583 263.219 17.4582 261.909 21.7955ZM266.816 35.1358C270.792 34.9959 271.78 32.5288 272.671 29.5707L275.715 19.4685C276.599 16.515 276.675 13.7817 272.826 13.6876L273.651 12.9005H277.219C279.527 12.9005 282.491 12.8064 286.088 12.57L285.091 15.8357C288.609 13.2768 291.89 12.0468 295.394 12.0468C296.18 12.0468 296.952 12.095 297.741 12.2373L295.465 19.7829H289.984C290.391 18.2522 289.829 17.4903 288.396 17.4903C285.914 17.4903 283.933 19.6819 282.637 23.978L280.96 29.5638C280.066 32.5219 279.812 33.8117 283.732 33.954L283.014 36.2512H266.619L266.816 35.1358ZM156.876 11.5258C157.066 10.8557 157.509 10.0273 157.662 9.49254C158.261 7.41795 158.508 6.16264 157.971 5.61646C157.31 4.90733 155.939 4.85225 153.805 4.85225H151.38L144.851 27.5121C143.669 31.604 143.507 33.0222 148.786 33.1347L147.941 36.2121H127.624L127.389 34.9454C132.732 34.8375 134.553 31.604 135.732 27.5121L142.262 4.85225H139.841C137.7 4.85225 136.153 4.60669 133.794 5.31581C132.837 5.60268 130.312 6.96815 129.425 8.13856C128.886 8.85227 127.135 11.6084 126.79 12.811L125.494 12.6595L128.986 0.556183H167.135L163.967 11.5465L156.876 11.5258ZM154.225 34.9775C158.206 34.8352 159.193 32.3636 160.08 29.4077L163.122 19.3056C164.015 16.3497 164.086 13.6211 160.233 13.5247L161.063 12.7375H164.632C167.592 12.7211 170.55 12.6117 173.502 12.4094L172.503 15.6727C176.025 13.1185 179.3 11.8884 182.805 11.8884C183.589 11.8884 184.362 11.9343 185.157 12.0743L182.881 19.6223H177.394C177.8 18.0962 177.236 17.3342 175.812 17.3342C173.326 17.3342 171.344 19.5282 170.051 23.8219L168.367 29.4055C167.475 32.3636 167.224 33.6556 171.146 33.7933L170.426 36.0905H154.031L154.225 34.9775Z" fill="#2F388B"></path></svg>
