<svg width="32" height="32" viewBox="0 0 32 32" fill="none" xmlns="http://www.w3.org/2000/svg">
<path fill-rule="evenodd" clip-rule="evenodd" d="M16.0068 5.78926C22.1096 6.29821 23.8804 8.84294 25.9989 12.0557C27.4043 14.1869 32.0762 14.1869 31.9436 10.9423C31.7539 6.29821 25.8092 2.7076e-06 16.0068 0C2.051 -3.85463e-06 -4.99978 16.5 4.50026 27C4.9221 27.3343 5.30792 22.3528 5.00024 21.692C1.01605 13.1353 7.50024 5.07985 16.0068 5.78926ZM9.20842 14.1869C8.1437 15.3318 6.80526 23.3479 6.17285 28.4374C7.47985 29.6673 11.3713 32.0891 16.4811 31.9364C21.591 31.7837 25.356 28.9039 26.5997 27.4831C25.8092 22.7117 24.1649 14.5368 23.3428 14.1869C22.4837 13.8212 20.9923 15.6713 20.7815 16.7952C20.7047 16.7686 20.6171 16.7368 20.5192 16.7012C19.7569 16.4241 18.364 15.9179 16.4811 15.8728C14.3562 15.8219 12.4759 16.5196 11.991 16.7952C11.7381 15.3956 10.1254 13.2008 9.20842 14.1869ZM19.0491 19.5944C19.8546 19.5944 20.3581 20.2872 20.4923 21.0704C20.6266 21.8535 20.3917 22.7271 19.7204 22.8776C19.0491 23.0283 18.3442 22.4861 18.1765 21.5222C18.0086 20.5583 18.2436 19.5944 19.0491 19.5944ZM13.4169 19.9125C12.675 19.9125 12.2113 20.552 12.0877 21.2749C11.964 21.9979 12.1804 22.8042 12.7987 22.9432C13.4169 23.0822 14.0662 22.5818 14.2207 21.692C14.3753 20.8023 14.1589 19.9125 13.4169 19.9125ZM17.9254 23.8238C17.7673 23.5693 15.2376 23.6011 14.8266 24.0783C14.5104 24.5554 15.6803 25.6369 16.5025 25.6051C17.3246 25.5733 18.0835 24.0782 17.9254 23.8238Z" fill="gray"/>
</svg>
