<svg width="334" height="99" viewBox="0 0 334 99" fill="none" xmlns="http://www.w3.org/2000/svg">
<g clip-path="url(#clip0_77_36)">
<path d="M326.537 26.2359V27.1192H324.855V32.1846H323.911V27.1192H322.213V26.2359H326.537ZM333.135 32.1846H332.206V27.8911L330.627 32.1846H329.671L328.096 27.8911V32.1846H327.152V26.2359H328.419L330.143 31.0248L331.891 26.2359H333.135V32.1846Z" fill="#00A2E5"/>
<path d="M61.6994 63.7687C70.2595 63.7687 76.8801 56.5412 76.8801 48.2308C76.8801 39.6093 70.1404 32.5739 61.6994 32.5739C53.27 32.5739 46.5264 39.6093 46.5264 48.2308C46.5264 56.5412 53.1471 63.7687 61.6994 63.7687ZM61.6994 24.8011C74.4492 24.8011 85.1944 35.0048 85.1944 48.2923C85.1944 61.1688 74.6259 71.5376 61.6994 71.5376C48.773 71.5376 38.2122 61.1688 38.2122 48.2923C38.2122 35.0048 48.9573 24.8011 61.6994 24.8011Z" fill="#006C8B"/>
<path d="M35.2194 58.1191C33.2109 60.2543 29.2593 63.7682 23.2492 63.7682C15.2959 63.7682 8.31425 56.5407 8.31425 48.1074C8.31425 39.1288 15.6646 32.5734 22.9458 32.5734C27.9228 32.5734 31.9398 34.8162 35.158 38.5259C36.1756 35.8607 37.5965 33.4068 39.3477 31.2216C34.6357 26.7131 28.472 24.8006 23.2492 24.8006C10.2651 24.8006 0 35.6034 0 47.9884C0 60.6767 10.4418 71.5371 23.4297 71.5371C29.2401 71.5371 35.0427 69.1984 39.2863 65.143C37.5965 63.027 36.2217 60.6729 35.2194 58.1191Z" fill="#006C8B"/>
<path d="M178.815 26.008H207.683V33.7731H187.114V44.042H207.026V51.8186H187.114V63.1514H207.683V70.9126H178.815V26.008Z" fill="#00A2E5"/>
<path d="M221.826 63.1504H223.581C228.074 63.1504 230.989 62.8394 234.507 60.973C238.939 58.5421 241.247 53.373 241.247 48.5842C241.247 44.2139 239.365 40.0894 236.446 37.5395C233.001 34.3866 228.616 33.7721 223.397 33.7721H221.826V63.1504ZM213.508 26.007H223.708C234.753 26.007 239.549 28.9794 242.153 31.2299C246.408 34.8628 249.565 41.5449 249.565 48.5842C249.565 56.6526 245.371 64.4293 238.823 68.0123C234.691 70.3049 228.923 70.9155 223.896 70.9155H213.508V26.007Z" fill="#00A2E5"/>
<path d="M88.8751 70.6162C89.9196 67.8973 91.306 65.1822 93.0495 62.4594C96.5365 57.0254 101.364 51.6374 107.808 46.0268L121.825 25.7154H111.437L100.63 41.3723L90.1347 25.7154H79.4395L94.9197 48.2311L79.4395 70.6162H88.8751Z" fill="#006C8B"/>
<path d="M160.962 26.008L149.122 59.9908H148.999L137.593 27.571C137.593 27.571 135.946 28.6386 133.112 30.3782C130.289 32.1179 125.516 35.4397 125.516 35.4397V70.9126H133.826V37.2408H133.949L145.485 70.9126H152.521L163.995 37.2408H164.126H164.187V70.9126H172.498V26.008H160.962Z" fill="#00A2E5"/>
<path d="M278.45 51.4912L283.542 37.7161H283.665L288.761 51.4912H278.45ZM301.806 61.6719L286.883 26.007H280.393L261.69 70.9116H270.865L275.654 59.3216H291.733L295.938 69.4946C297.989 66.9792 299.997 64.2487 301.806 61.6719Z" fill="#00A2E5"/>
<path d="M318.206 33.1333C310.406 1.58137 249.1 -8.11923 186.745 6.98083C173.784 10.1068 161.806 14.1315 151.068 18.809C150.373 19.1354 150.546 19.6884 151.183 19.5194C159.647 16.2974 168.734 13.4748 178.392 11.1591C240.762 -3.84114 302.188 6.36254 310.145 38.5519C312.914 49.7925 307.764 62.911 296.113 75.4611C295.214 76.3712 296.02 77.1623 296.984 76.2906C313.459 62.0047 321.409 46.1212 318.206 33.1333Z" fill="#C02F38"/>
<path d="M104.914 54.3514C103.992 57.7808 104.284 59.9851 104.284 59.9851L112.088 70.8916H122.479L107.164 49.793C107.164 49.793 105.563 51.9551 104.914 54.3514Z" fill="#006C8B"/>
<path d="M261.199 59.9275V26.0061H252.881V70.9146H256.617L261.199 59.9275Z" fill="#00A2E5"/>
<path d="M199.053 80.8215C200.812 81.7355 201.891 83.3907 202.279 85.7294H199.871C199.587 84.4391 198.992 83.4713 198.085 82.8722C197.179 82.2616 196.046 81.9659 194.667 81.9659C193.035 81.9659 191.664 82.5957 190.558 83.8477C189.445 85.0727 188.876 86.9545 188.876 89.4123C188.876 91.5705 189.341 93.291 190.266 94.6428C191.18 95.9869 192.682 96.6436 194.76 96.6436C196.353 96.6436 197.671 96.1712 198.704 95.2457C199.748 94.301 200.286 92.7649 200.313 90.6681H194.687V88.6365H202.575V98.2642H201L200.413 95.9677C199.614 96.8471 198.899 97.4807 198.262 97.8379C197.214 98.4447 195.877 98.748 194.26 98.748C192.164 98.748 190.37 98.053 188.849 96.6628C187.21 94.95 186.392 92.5575 186.392 89.5505C186.392 86.5397 187.194 84.1626 188.799 82.373C190.328 80.6948 192.302 79.8384 194.737 79.8384C196.392 79.8384 197.836 80.1725 199.053 80.8215Z" fill="#00A2E5"/>
<path d="M217.277 88.5266C218.391 88.5266 219.263 88.3116 219.908 87.8469C220.557 87.3899 220.875 86.5565 220.875 85.3622C220.875 84.1026 220.438 83.2193 219.531 82.7547C219.036 82.5089 218.402 82.3783 217.584 82.3783H211.805V88.5266H217.277ZM209.374 80.3122H217.534C218.879 80.3122 219.985 80.5081 220.86 80.9075C222.531 81.6525 223.352 83.0772 223.352 85.128C223.352 86.2109 223.126 87.1019 222.677 87.7854C222.25 88.469 221.617 89.0067 220.818 89.4329C221.524 89.721 222.051 90.0973 222.412 90.5581C222.757 91.0305 222.953 91.7909 222.991 92.8124L223.084 95.2433C223.111 95.923 223.16 96.4108 223.253 96.7487C223.406 97.3248 223.644 97.6934 224.025 97.8624V98.2656H221.048C220.971 98.1082 220.902 97.9085 220.849 97.6589C220.81 97.4169 220.764 96.9407 220.73 96.2341L220.591 93.2425C220.53 92.0904 220.107 91.2955 219.312 90.8961C218.867 90.6657 218.145 90.5581 217.181 90.5581H211.805V98.2656H209.374V80.3122Z" fill="#00A2E5"/>
<path d="M241.823 94.3195C242.779 92.7719 243.259 91.0207 243.259 89.0007C243.259 86.8962 242.71 85.1796 241.612 83.9161C240.506 82.6143 238.993 81.9653 237.08 81.9653C235.206 81.9653 233.708 82.6066 232.518 83.8892C231.343 85.1489 230.763 87.046 230.763 89.5345C230.763 91.543 231.25 93.202 232.268 94.5768C233.286 95.9516 234.899 96.616 237.18 96.616C239.304 96.616 240.87 95.871 241.823 94.3195ZM243.977 82.86C245.156 84.4691 245.759 86.4815 245.759 88.9584C245.759 91.6659 245.068 93.8817 243.712 95.6713C242.119 97.7412 239.837 98.7935 236.877 98.7935C234.115 98.7935 231.93 97.8756 230.348 96.0553C228.95 94.2926 228.236 92.0806 228.236 89.3655C228.236 86.9423 228.85 84.8532 230.064 83.1366C231.592 80.9284 233.896 79.8185 236.93 79.8185C240.099 79.8185 242.453 80.84 243.977 82.86Z" fill="#00A2E5"/>
<path d="M252.786 80.3113V91.4097C252.786 92.6962 253.032 93.7945 253.535 94.6586C254.249 95.9682 255.489 96.598 257.229 96.598C259.31 96.598 260.724 95.9182 261.473 94.5012C261.864 93.7331 262.068 92.6885 262.068 91.4097V80.3113H264.537V90.3882C264.537 92.5887 264.234 94.3015 263.635 95.5035C262.536 97.654 260.463 98.7485 257.436 98.7485C254.372 98.7485 252.31 97.654 251.23 95.5035C250.624 94.3015 250.332 92.5887 250.332 90.3882V80.3113H252.786Z" fill="#00A2E5"/>
<path d="M280.424 82.769C279.898 82.5156 279.164 82.3773 278.231 82.3773H273.419V88.6063H278.231C279.322 88.6063 280.201 88.3912 280.865 87.9227C281.549 87.4542 281.891 86.6247 281.891 85.4457C281.891 84.1477 281.403 83.2414 280.424 82.769ZM270.98 80.3112H279.026C280.616 80.3112 281.91 80.7567 282.874 81.6361C283.857 82.5501 284.341 83.8251 284.341 85.4342C284.341 86.8474 283.915 88.0802 283.039 89.1017C282.167 90.1501 280.823 90.6685 279.026 90.6685H273.419V98.2646H270.98V80.3112Z" fill="#00A2E5"/>
</g>
<defs>
<clipPath id="clip0_77_36">
<rect width="333.135" height="98.7937" fill="white"/>
</clipPath>
</defs>
</svg>
