<svg width="512" height="512" viewBox="0 0 512 512" fill="none" xmlns="http://www.w3.org/2000/svg">
<g clip-path="url(#clip0_1905_2)">
<path d="M256 512C397.385 512 512 397.385 512 256C512 114.615 397.385 0 256 0C114.615 0 0 114.615 0 256C0 397.385 114.615 512 256 512Z" fill="white"/>
<path d="M257.017 76C217.71 89.4704 137.879 116.797 133 118.336V189.538L257.017 154.9L379 189.538V118.336L257.017 76Z" fill="#1C3490" stroke="#1C3490"/>
<path d="M210.256 208.462L133 231.554V435.539H210.256V358.563H301.744V435.539H379V231.554L301.744 208.462V283.513H210.256V208.462Z" fill="#1C3490" stroke="#1C3490"/>
</g>
<defs>
<clipPath id="clip0_1905_2">
<rect width="512" height="512" fill="white"/>
</clipPath>
</defs>
</svg>
