<svg width="106" height="124" viewBox="0 0 106 124" fill="none" xmlns="http://www.w3.org/2000/svg">
<g clip-path="url(#clip0_2011_86)">
<path d="M52.4875 0.00799561H52.4815H52.4755L27.7791 8.26954V23.6254L52.4815 16.1972L77.1839 23.6254V8.26556L52.4875 0.00799561Z" fill="black"/>
<path d="M61.7499 40.8312H43.2031V24.4836L27.7802 29.1457V72.5427H43.2031V56.1951H61.7499V72.5427H77.1729V29.1427L61.7499 24.4806V40.8312Z" fill="black"/>
<path d="M4.61619 92.9195H11.9318V85.9628H16.1666V104.23H11.9318V96.4801H4.61619V104.23H0.381348V85.9628H4.61619V92.9195Z" fill="black"/>
<path d="M29.1204 92.0154H33.08V104.23H29.1204V102.751C28.7362 103.357 28.1982 103.851 27.5608 104.184C26.9233 104.516 26.209 104.675 25.4901 104.645C24.6341 104.691 23.7786 104.548 22.9846 104.226C22.1907 103.904 21.4781 103.411 20.8979 102.783C19.7213 101.552 19.0791 99.9081 19.1103 98.2085C19.0687 96.3801 19.7519 94.6088 21.012 93.2783C21.5751 92.7315 22.2421 92.3021 22.9739 92.0152C23.7057 91.7284 24.4876 91.5898 25.2739 91.6077C26.0108 91.5748 26.7448 91.7187 27.4142 92.0273C28.0836 92.3359 28.6687 92.8002 29.1204 93.381V92.0154ZM24.0878 95.877C23.7943 96.1667 23.5626 96.5125 23.4068 96.8937C23.251 97.2748 23.1742 97.6834 23.181 98.0949C23.1627 98.9043 23.4581 99.6896 24.0057 100.288C24.3113 100.595 24.6755 100.838 25.0769 101.003C25.4783 101.167 25.9088 101.25 26.3429 101.247C27.116 101.246 27.8574 100.94 28.4057 100.398C29.0122 99.7986 29.3579 98.9862 29.3682 98.1356C29.3785 97.285 29.0526 96.4645 28.4608 95.8511C27.8564 95.3084 27.0726 95.0061 26.2588 95.0018C25.4491 95.0009 24.6706 95.3132 24.0878 95.873V95.877Z" fill="black"/>
<path d="M36.1617 92.0164H40.1214V93.4678C40.56 92.885 41.1352 92.418 41.7968 92.1077C42.4584 91.7974 43.1863 91.6531 43.9168 91.6875C44.5659 91.6175 45.2226 91.6949 45.8375 91.9137C46.4523 92.1325 47.0095 92.487 47.4672 92.9508C47.9249 93.4146 48.2712 93.9755 48.4802 94.5916C48.6893 95.2076 48.7555 95.8628 48.6741 96.508V104.231H44.7145V97.9624C44.8179 97.0957 44.5817 96.2227 44.0549 95.5252C43.8521 95.3383 43.6138 95.1935 43.3542 95.0994C43.0945 95.0052 42.8185 94.9636 42.5425 94.9769C42.2362 94.9632 41.9306 95.0148 41.6459 95.1283C41.3613 95.2417 41.1043 95.4144 40.892 95.6348C40.6127 95.951 40.4004 96.3202 40.2679 96.7202C40.1355 97.1202 40.0856 97.5427 40.1214 97.9624V104.234H36.1617V92.0164Z" fill="black"/>
<path d="M60.9682 95.873C60.245 95.2664 59.3284 94.9363 58.3829 94.942C57.9676 94.9329 57.5546 95.0057 57.1676 95.1561C56.7806 95.3064 56.4273 95.5314 56.1278 95.8182C55.832 96.1233 55.5996 96.4836 55.4439 96.8784C55.2883 97.2732 55.2126 97.6948 55.221 98.1188C55.204 98.928 55.4992 99.7129 56.0458 100.312C56.3557 100.63 56.7279 100.882 57.1393 101.051C57.5507 101.221 57.9927 101.305 58.4379 101.298C59.3699 101.292 60.2685 100.952 60.9682 100.339V103.899C60.0079 104.422 58.9244 104.68 57.8304 104.645C56.9547 104.669 56.083 104.52 55.2662 104.204C54.4493 103.889 53.7038 103.415 53.0731 102.81C52.4511 102.205 51.9596 101.48 51.6285 100.679C51.2974 99.8788 51.1336 99.0194 51.1473 98.1537C51.1279 97.2775 51.2892 96.4066 51.621 95.5949C51.9529 94.7832 52.4484 94.0479 53.0769 93.4344C53.7054 92.8209 54.4535 92.3423 55.2751 92.0281C56.0966 91.7139 56.9741 91.5708 57.8534 91.6077C58.9284 91.5951 59.9918 91.8294 60.9612 92.2925L60.9682 95.873Z" fill="black"/>
<path d="M75.5724 102.669C74.0778 103.942 72.1761 104.641 70.2096 104.641C68.2432 104.641 66.3414 103.942 64.8468 102.669C63.6648 101.448 63.0043 99.8187 63.0043 98.1228C63.0043 96.427 63.6648 94.7972 64.8468 93.5764C66.3414 92.3037 68.2432 91.6044 70.2096 91.6044C72.1761 91.6044 74.0778 92.3037 75.5724 93.5764C76.7544 94.7972 77.4149 96.427 77.4149 98.1228C77.4149 99.8187 76.7544 101.448 75.5724 102.669ZM67.9826 95.8222C67.3991 96.4474 67.0748 97.2693 67.0748 98.1228C67.0748 98.9764 67.3991 99.7983 67.9826 100.423C68.2785 100.715 68.6312 100.943 69.019 101.094C69.4069 101.245 69.8216 101.315 70.2376 101.3C70.6452 101.31 71.0506 101.238 71.4291 101.087C71.8077 100.937 72.1515 100.711 72.4396 100.423C73.0231 99.7983 73.3475 98.9764 73.3475 98.1228C73.3475 97.2693 73.0231 96.4474 72.4396 95.8222C71.8358 95.2591 71.0394 94.9457 70.2121 94.9457C69.3848 94.9457 68.5885 95.2591 67.9846 95.8222H67.9826Z" fill="black"/>
<path d="M89.1037 95.873C88.3806 95.2663 87.4639 94.9362 86.5184 94.942C86.1031 94.9329 85.6901 95.0057 85.3031 95.1561C84.9161 95.3064 84.5628 95.5314 84.2633 95.8182C83.9673 96.1232 83.7348 96.4835 83.579 96.8783C83.4232 97.2731 83.3473 97.6947 83.3555 98.1188C83.3389 98.9281 83.6344 99.713 84.1813 100.312C84.4912 100.63 84.8634 100.882 85.2748 101.051C85.6863 101.221 86.1282 101.305 86.5734 101.298C87.5051 101.292 88.4033 100.952 89.1027 100.339V103.899C88.1428 104.42 87.0604 104.675 85.9679 104.639C85.0922 104.663 84.2205 104.514 83.4037 104.198C82.5868 103.883 81.8413 103.409 81.2106 102.804C80.5887 102.199 80.0971 101.474 79.766 100.673C79.4349 99.8728 79.2712 99.0134 79.2848 98.1477C79.2654 97.2715 79.4267 96.4006 79.7586 95.5889C80.0904 94.7772 80.5859 94.0419 81.2144 93.4284C81.8429 92.8149 82.591 92.3363 83.4126 92.0221C84.2341 91.7079 85.1117 91.5648 85.9909 91.6017C87.0643 91.5897 88.1259 91.8241 89.0937 92.2865L89.1037 95.873Z" fill="black"/>
<path d="M95.8137 84.2652V96.508L100.269 92.0164H105.466L99.6362 97.5487L105.879 104.227H100.543L95.8128 98.9691V104.227H91.8531V84.2652H95.8137Z" fill="black"/>
<path d="M7.5398 114.835V116.53C6.83251 115.886 5.91624 115.518 4.95847 115.491C4.49456 115.482 4.03402 115.572 3.60721 115.753C3.1804 115.934 2.79699 116.203 2.48223 116.543C2.15085 116.881 1.89054 117.281 1.7166 117.72C1.54265 118.159 1.45857 118.629 1.4693 119.101C1.45866 119.567 1.54292 120.031 1.71699 120.464C1.89107 120.897 2.15138 121.291 2.48223 121.622C2.80212 121.954 3.18791 122.218 3.61518 122.394C4.04246 122.571 4.50191 122.658 4.96447 122.648C5.40732 122.661 5.8476 122.577 6.25464 122.403C6.46955 122.312 6.67531 122.201 6.8692 122.071C7.10233 121.916 7.32624 121.748 7.5398 121.567V123.298C6.75201 123.754 5.85747 123.995 4.94645 123.996C4.29859 124.007 3.65526 123.887 3.05549 123.642C2.45571 123.398 1.91199 123.035 1.4573 122.576C0.993243 122.128 0.62621 121.59 0.378837 120.996C0.131464 120.402 0.00900072 119.763 0.018999 119.12C0.010283 117.932 0.437385 116.781 1.22008 115.885C1.68391 115.323 2.27049 114.874 2.93503 114.573C3.59957 114.271 4.32452 114.125 5.05455 114.145C5.93014 114.149 6.78848 114.388 7.5398 114.835Z" fill="black"/>
<path d="M10.4775 113.436V123.822H9.08923V113.436H10.4775Z" fill="black"/>
<path d="M16.6701 117.838H18.0654V123.828H16.6701V123.201C16.4136 123.462 16.1057 123.668 15.7657 123.805C15.4257 123.942 15.0608 124.008 14.694 123.999C14.3272 123.99 13.9663 123.905 13.6338 123.751C13.3013 123.596 13.0044 123.375 12.7616 123.101C12.2136 122.466 11.9249 121.65 11.9528 120.813C11.9255 119.99 12.2147 119.187 12.7616 118.568C13.0122 118.28 13.3236 118.05 13.6735 117.895C14.0235 117.74 14.4035 117.663 14.7864 117.671C15.1434 117.676 15.4953 117.755 15.8198 117.903C16.1442 118.052 16.4339 118.266 16.6701 118.532V117.838ZM13.3731 120.814C13.3508 121.322 13.5156 121.821 13.8366 122.217C13.9823 122.392 14.1661 122.533 14.3741 122.627C14.5821 122.722 14.809 122.769 15.0376 122.764C15.2708 122.772 15.5028 122.728 15.7173 122.637C15.9317 122.545 16.1234 122.408 16.2788 122.235C16.5869 121.836 16.7539 121.348 16.7539 120.845C16.7539 120.342 16.5869 119.854 16.2788 119.455C16.1256 119.281 15.9353 119.142 15.7217 119.049C15.5081 118.957 15.2765 118.913 15.0437 118.92C14.8157 118.916 14.5896 118.962 14.3818 119.056C14.1741 119.15 13.9899 119.288 13.8426 119.461C13.5247 119.839 13.3585 120.321 13.3761 120.813L13.3731 120.814Z" fill="black"/>
<path d="M19.6087 115.344C19.6116 115.107 19.7076 114.881 19.876 114.714C20.0445 114.547 20.272 114.453 20.5095 114.452C20.6289 114.45 20.7474 114.472 20.8578 114.518C20.9681 114.563 21.0679 114.63 21.1511 114.716C21.237 114.797 21.3049 114.895 21.3506 115.004C21.3962 115.113 21.4186 115.231 21.4164 115.349C21.4183 115.468 21.3958 115.586 21.3502 115.696C21.3046 115.806 21.2368 115.906 21.1511 115.989C21.0692 116.074 20.9704 116.142 20.8608 116.187C20.7512 116.233 20.6332 116.255 20.5145 116.253C20.3948 116.253 20.2762 116.229 20.1656 116.184C20.055 116.138 19.9546 116.071 19.8702 115.986C19.7858 115.902 19.719 115.801 19.6738 115.691C19.6286 115.58 19.6058 115.462 19.6067 115.343L19.6087 115.344ZM21.2102 117.836V123.826H19.8159V117.836H21.2102Z" fill="black"/>
<path d="M22.9688 117.838H24.3581V118.391C24.5561 118.168 24.7873 117.977 25.0437 117.825C25.2813 117.715 25.5416 117.662 25.8034 117.671C26.1264 117.665 26.4454 117.744 26.7284 117.899C27.0114 118.054 27.2485 118.281 27.4158 118.556C27.6143 118.274 27.8802 118.045 28.1897 117.89C28.4992 117.736 28.8424 117.661 29.1884 117.671C30.5423 117.671 31.2193 118.489 31.2193 120.125V123.828H29.824V120.5C29.8544 120.083 29.7822 119.666 29.6138 119.283C29.5408 119.163 29.4358 119.066 29.3105 119.002C29.1852 118.938 29.0446 118.909 28.9042 118.92C28.7385 118.909 28.5728 118.943 28.4253 119.019C28.2777 119.095 28.1539 119.21 28.0674 119.351C27.8622 119.782 27.7719 120.258 27.8052 120.734V123.825H26.4089V120.516C26.4089 119.453 26.1003 118.921 25.4831 118.921C25.314 118.909 25.1448 118.944 24.994 119.021C24.8431 119.097 24.7163 119.214 24.6273 119.358C24.4186 119.786 24.3261 120.261 24.3591 120.735V123.826H22.9698L22.9688 117.838Z" fill="black"/>
<path d="M36.466 118.855L35.318 119.464C35.1365 119.1 34.9119 118.917 34.6443 118.917C34.5229 118.915 34.4054 118.96 34.3171 119.043C34.2725 119.084 34.2373 119.134 34.2138 119.189C34.1904 119.245 34.1791 119.305 34.1809 119.365C34.1809 119.594 34.4478 119.821 34.9817 120.047C35.5266 120.245 36.0309 120.541 36.47 120.919C36.7349 121.213 36.8724 121.599 36.8523 121.993C36.8575 122.267 36.8028 122.538 36.692 122.789C36.5812 123.039 36.417 123.262 36.2108 123.443C35.9309 123.682 35.5974 123.851 35.2383 123.935C34.8792 124.02 34.505 124.017 34.1473 123.927C33.7896 123.837 33.4588 123.663 33.1828 123.419C32.9068 123.175 32.6937 122.869 32.5615 122.526L33.7465 121.978C33.8478 122.176 33.9747 122.36 34.1239 122.526C34.2858 122.679 34.5012 122.763 34.7244 122.76C35.1915 122.76 35.425 122.547 35.425 122.121C35.425 121.875 35.2442 121.645 34.8826 121.432C34.7424 121.362 34.6023 121.295 34.4632 121.233C34.3241 121.171 34.1809 121.099 34.0368 121.033C33.7157 120.896 33.4257 120.695 33.184 120.443C32.966 120.17 32.8541 119.827 32.8687 119.478C32.8612 119.237 32.9053 118.996 32.998 118.773C33.0906 118.55 33.2297 118.348 33.4062 118.183C33.7665 117.845 34.2457 117.661 34.7404 117.672C35.1154 117.668 35.4825 117.78 35.7913 117.992C36.1002 118.203 36.3359 118.505 36.466 118.855Z" fill="black"/>
<path d="M49.3157 114.835V116.53C48.6084 115.886 47.6921 115.518 46.7343 115.491C46.2706 115.482 45.8102 115.572 45.3835 115.753C44.9569 115.934 44.5737 116.203 44.2591 116.543C43.9276 116.88 43.6672 117.281 43.4933 117.72C43.3193 118.159 43.2353 118.629 43.2461 119.101C43.2354 119.567 43.3196 120.031 43.4937 120.464C43.6678 120.898 43.9281 121.291 44.2591 121.622C44.5789 121.955 44.9647 122.218 45.392 122.394C45.8193 122.571 46.2787 122.658 46.7413 122.648C47.1841 122.661 47.6244 122.577 48.0315 122.403C48.2463 122.312 48.4521 122.201 48.6461 122.071C48.8793 121.916 49.1032 121.748 49.3166 121.567V123.298C48.5289 123.754 47.6343 123.995 46.7233 123.996C46.0754 124.007 45.4322 123.887 44.8324 123.642C44.2326 123.398 43.6889 123.035 43.2341 122.576C42.7701 122.128 42.4031 121.59 42.1557 120.996C41.9083 120.402 41.7859 119.763 41.7959 119.12C41.7872 117.932 42.2143 116.781 42.9969 115.885C43.4608 115.323 44.0473 114.874 44.7119 114.573C45.3764 114.271 46.1014 114.125 46.8314 114.145C47.7066 114.149 48.5646 114.388 49.3157 114.835Z" fill="black"/>
<path d="M50.5818 120.789C50.5751 120.377 50.6546 119.968 50.8152 119.588C50.9758 119.208 51.214 118.865 51.5147 118.581C52.128 117.996 52.945 117.67 53.7945 117.671C54.6439 117.672 55.46 118 56.0718 118.587C56.6662 119.188 56.9989 119.999 56.9978 120.842C56.9967 121.686 56.6618 122.495 56.0658 123.095C55.762 123.391 55.4018 123.623 55.0064 123.778C54.6111 123.934 54.1886 124.009 53.7637 123.999C53.3425 124.009 52.9238 123.932 52.5338 123.773C52.1439 123.614 51.7911 123.377 51.4977 123.076C51.1964 122.777 50.9597 122.42 50.8022 122.027C50.6447 121.634 50.5697 121.212 50.5818 120.789ZM52.0021 120.814C51.9739 121.332 52.1462 121.84 52.4835 122.235C52.8318 122.572 53.298 122.761 53.7835 122.762C54.2691 122.763 54.7361 122.576 55.0859 122.241C55.4016 121.843 55.5733 121.352 55.5733 120.845C55.5733 120.338 55.4016 119.847 55.0859 119.45C54.7401 119.111 54.2744 118.921 53.7892 118.921C53.3041 118.921 52.8384 119.111 52.4926 119.45C52.1569 119.823 51.981 120.312 52.0021 120.813V120.814Z" fill="black"/>
<path d="M58.467 117.838H59.8622V118.391C60.0728 118.166 60.3269 117.987 60.6093 117.863C60.8916 117.739 61.1963 117.674 61.5047 117.671C61.8093 117.654 62.1138 117.705 62.3967 117.818C62.6795 117.932 62.9338 118.106 63.1412 118.329C63.5259 118.857 63.7055 119.506 63.6466 120.155V123.827H62.2514V120.485C62.2898 120.063 62.2039 119.638 62.0042 119.263C61.8976 119.139 61.7618 119.042 61.6089 118.982C61.456 118.922 61.2906 118.9 61.1273 118.919C60.9379 118.901 60.7472 118.934 60.5746 119.014C60.4021 119.094 60.254 119.218 60.1455 119.374C59.9167 119.863 59.8187 120.402 59.8612 120.94V123.831H58.4659L58.467 117.838Z" fill="black"/>
<path d="M68.8964 118.855L67.7483 119.465C67.5668 119.1 67.3423 118.917 67.0747 118.917C66.9533 118.915 66.8357 118.96 66.7474 119.043C66.7029 119.084 66.6678 119.134 66.6443 119.189C66.6208 119.245 66.6096 119.305 66.6113 119.365C66.6113 119.594 66.8782 119.821 67.412 120.047C67.957 120.245 68.4612 120.541 68.9004 120.919C69.1653 121.213 69.3027 121.599 69.2827 121.993C69.2879 122.267 69.2332 122.538 69.1224 122.789C69.0116 123.039 68.8474 123.262 68.6411 123.443C68.3613 123.682 68.0278 123.851 67.6687 123.935C67.3095 124.02 66.9354 124.017 66.5777 123.927C66.2199 123.837 65.8892 123.663 65.6132 123.419C65.3372 123.175 65.1241 122.869 64.9918 122.526L66.1769 121.978C66.2781 122.176 66.4046 122.36 66.5532 122.526C66.7153 122.679 66.9306 122.763 67.1538 122.76C67.6209 122.76 67.8544 122.547 67.8544 122.121C67.8544 121.875 67.6736 121.646 67.3119 121.432C67.1718 121.366 67.0317 121.299 66.8916 121.233C66.7514 121.166 66.6096 121.1 66.4661 121.033C66.1451 120.896 65.8551 120.695 65.6134 120.443C65.3952 120.17 65.2833 119.827 65.2981 119.478C65.2906 119.237 65.3347 118.997 65.4273 118.773C65.52 118.55 65.6591 118.348 65.8356 118.183C66.1956 117.845 66.6744 117.662 67.1688 117.672C67.5441 117.668 67.9117 117.779 68.221 117.991C68.5303 118.203 68.7662 118.505 68.8964 118.855Z" fill="black"/>
<path d="M71.9221 117.838V121.276C71.9221 122.267 72.3151 122.763 73.1012 122.764C73.8872 122.765 74.2806 122.269 74.2812 121.276V117.838H75.6705V121.306C75.6793 121.727 75.6187 122.146 75.4913 122.548C75.3653 122.874 75.1587 123.164 74.8908 123.39C74.3793 123.785 73.7504 123.999 73.1032 123.999C72.4559 123.999 71.8271 123.785 71.3155 123.39C71.0445 123.164 70.8343 122.875 70.704 122.548C70.57 122.148 70.5113 121.727 70.5308 121.306V117.838H71.9221Z" fill="black"/>
<path d="M78.8134 113.436V123.822H77.4241V113.436H78.8134Z" fill="black"/>
<path d="M82.0052 119.127V123.825H80.616V119.127H80.0234V117.831H80.616V115.638H82.0052V117.831H83.0862V119.127H82.0052Z" fill="black"/>
<path d="M88.5752 117.838H89.9704V123.828H88.5752V123.201C88.3186 123.462 88.0107 123.668 87.6707 123.805C87.3307 123.942 86.9659 124.008 86.5991 123.999C86.2323 123.99 85.8713 123.905 85.5388 123.751C85.2063 123.596 84.9094 123.375 84.6666 123.101C84.1188 122.466 83.8302 121.65 83.8579 120.813C83.8308 119.99 84.12 119.187 84.6666 118.568C84.9172 118.28 85.2286 118.05 85.5786 117.895C85.9285 117.74 86.3085 117.663 86.6915 117.671C87.0484 117.676 87.4004 117.755 87.7248 117.903C88.0492 118.052 88.3389 118.266 88.5752 118.532V117.838ZM85.2782 120.814C85.2556 121.322 85.42 121.821 85.7406 122.217C85.8864 122.392 86.0702 122.533 86.2782 122.627C86.4862 122.722 86.713 122.769 86.9417 122.764C87.1759 122.772 87.409 122.729 87.6246 122.638C87.8401 122.546 88.0328 122.409 88.1888 122.235C88.4969 121.836 88.664 121.348 88.664 120.845C88.664 120.342 88.4969 119.854 88.1888 119.455C88.0357 119.281 87.8454 119.142 87.6318 119.049C87.4182 118.957 87.1865 118.913 86.9537 118.92C86.7257 118.916 86.4997 118.962 86.2919 119.056C86.0842 119.15 85.9 119.288 85.7526 119.461C85.4319 119.838 85.2628 120.32 85.2782 120.813V120.814Z" fill="black"/>
<path d="M91.7241 117.838H93.1193V118.391C93.3299 118.166 93.5841 117.987 93.8664 117.863C94.1488 117.74 94.4534 117.674 94.7618 117.671C95.0664 117.654 95.371 117.704 95.6539 117.818C95.9368 117.932 96.1909 118.106 96.3983 118.329C96.7838 118.857 96.9638 119.506 96.9048 120.155V123.827H95.5085V120.485C95.5469 120.063 95.461 119.638 95.2613 119.263C95.1547 119.139 95.019 119.042 94.8661 118.982C94.7131 118.922 94.5478 118.9 94.3845 118.919C94.1951 118.901 94.0043 118.934 93.8317 119.014C93.6592 119.094 93.5111 119.218 93.4026 119.374C93.1737 119.863 93.0758 120.402 93.1183 120.94V123.831H91.7231L91.7241 117.838Z" fill="black"/>
<path d="M100.091 119.127V123.825H98.7014V119.127H98.1088V117.831H98.7014V115.638H100.091V117.831H101.172V119.127H100.091Z" fill="black"/>
<path d="M105.612 118.855L104.464 119.464C104.282 119.1 104.058 118.917 103.79 118.917C103.669 118.915 103.551 118.96 103.463 119.043C103.418 119.084 103.383 119.134 103.36 119.189C103.336 119.245 103.325 119.305 103.327 119.365C103.327 119.594 103.593 119.821 104.127 120.047C104.672 120.245 105.176 120.541 105.616 120.919C105.881 121.213 106.018 121.599 105.998 121.993C106.003 122.267 105.948 122.538 105.838 122.789C105.727 123.039 105.563 123.262 105.356 123.443C105.077 123.682 104.743 123.851 104.384 123.935C104.025 124.02 103.651 124.017 103.293 123.927C102.935 123.837 102.604 123.663 102.328 123.419C102.052 123.175 101.839 122.869 101.707 122.526L102.892 121.978C102.993 122.176 103.12 122.36 103.269 122.526C103.431 122.679 103.646 122.763 103.869 122.76C104.336 122.76 104.57 122.547 104.57 122.121C104.57 121.875 104.389 121.645 104.027 121.432C103.887 121.366 103.747 121.299 103.608 121.233C103.468 121.166 103.326 121.1 103.181 121.033C102.86 120.896 102.57 120.695 102.329 120.443C102.11 120.17 101.999 119.827 102.013 119.478C102.006 119.237 102.05 118.996 102.143 118.773C102.235 118.55 102.374 118.348 102.551 118.183C102.911 117.845 103.39 117.661 103.885 117.672C104.26 117.668 104.628 117.779 104.937 117.991C105.246 118.203 105.482 118.505 105.612 118.855Z" fill="black"/>
<path d="M105.832 109.024H0V109.795H105.832V109.024Z" fill="black"/>
</g>
<defs>
<clipPath id="clip0_2011_86">
<rect width="106" height="124" fill="white"/>
</clipPath>
</defs>
</svg>
