<svg class="site-logo-svg" width="130px" height="32px" viewBox="0 0 130 35"><title>Free icon manager and organizer</title><g fill="none" fill-rule="evenodd" stroke="none" stroke-width="1"><path fill="#0087FF" d="M29.2393548,26.5575267 C28.0875801,21.5671081 24.1594883,17.6389926 19.1691,16.4864774 C20.1738959,13.1737114 23.2520916,10.7616 26.8931198,10.7616 C31.350893,10.7616 34.964931,14.3756599 34.9641976,18.83258 C34.964931,22.4745103 32.5526875,25.5525781 29.2393548,26.5575267 Z"></path><path fill="#FF8100" d="M24.2027443,26.8939 C24.2027443,31.3509668 20.5894397,34.9650267 16.1316665,34.9650267 C12.490345,34.9650267 9.41244255,32.5527686 8.4075,29.2394158 C13.3978883,28.0876341 17.3261267,24.1595186 18.4777548,19.1691 C21.7912342,20.1739019 24.2027443,23.2521164 24.2027443,26.8939 Z"></path><path fill="#00C8FF" d="M-1.03028697e-13,16.1315666 C-1.03028697e-13,12.4899296 2.41195012,9.41230195 5.72528281,8.4075 C6.87705757,13.3979186 10.8051493,17.3260341 15.795831,18.4778158 C14.7907418,21.7911686 11.7128393,24.2034267 8.07107776,24.2034267 C3.61374465,24.2034267 -1.03028697e-13,20.5893668 -1.03028697e-13,16.1315666 Z"></path><path fill="#FB0" d="M10.7616,8.07112666 C10.7616,3.61332648 14.375198,-1.42108547e-14 18.8325311,-1.42108547e-14 C22.4742927,-1.42108547e-14 25.5519017,2.41211142 26.5566976,5.72546418 C21.566896,6.87665917 17.6382175,10.8053614 16.4867361,15.79578 C13.1734034,14.7909781 10.7616,11.7127636 10.7616,8.07112666 Z"></path><path fill="#2C3038" class="logo-text" fill-rule="nonzero" d="M45.3736842,26.666129 C44.7442074,26.666129 44.245879,26.4843567 43.8786842,26.1208065 C43.5114894,25.7572562 43.3278947,25.2638741 43.3278947,24.6406452 L43.3278947,10.0727419 C43.3278947,9.46682493 43.5114894,8.98209859 43.8786842,8.61854839 C44.245879,8.25499818 44.7442074,8.07322581 45.3736842,8.07322581 C46.003161,8.07322581 46.5014894,8.25499818 46.8686842,8.61854839 C47.235879,8.98209859 47.4194737,9.46682493 47.4194737,10.0727419 L47.4194737,24.6406452 C47.4194737,25.2638741 47.235879,25.7572562 46.8686842,26.1208065 C46.5014894,26.4843567 46.003161,26.666129 45.3736842,26.666129 Z M56.7304386,26.7180645 C55.4015431,26.7180645 54.2387769,26.4497339 53.2421053,25.9130645 C52.2454336,25.3763952 51.4804559,24.6146824 50.9471491,23.6279032 C50.4138424,22.6411241 50.147193,21.4812432 50.147193,20.1482258 C50.147193,18.8152084 50.4313276,17.6423438 50.9996053,16.6295968 C51.567883,15.6168498 52.3678311,14.8334974 53.3994737,14.2795161 C54.4311163,13.7255349 55.6201102,13.4485484 56.9664912,13.4485484 C57.6659099,13.4485484 58.3696894,13.5437625 59.0778509,13.7341935 C59.7860123,13.9246246 60.419851,14.1929553 60.979386,14.5391935 C61.5214355,14.8681199 61.7924561,15.3528463 61.7924561,15.9933871 C61.7924561,16.4434969 61.6875449,16.8113695 61.4777193,17.0970161 C61.2678937,17.3826627 60.9881304,17.5254839 60.6384211,17.5254839 C60.41111,17.5254839 60.1969162,17.4865326 59.9958333,17.408629 C59.7947505,17.3307254 59.5281011,17.2138717 59.1958772,17.0580645 C58.8286824,16.8676335 58.5008348,16.7204844 58.2123246,16.6166129 C57.9238143,16.5127414 57.5959667,16.4608065 57.2287719,16.4608065 C56.2495857,16.4608065 55.5020932,16.7680883 54.9862719,17.3826613 C54.4704506,17.9972343 54.2125439,18.8931124 54.2125439,20.0703226 C54.2125439,21.2475328 54.4704506,22.1477388 54.9862719,22.7709677 C55.5020932,23.3941967 56.2495857,23.7058065 57.2287719,23.7058065 C57.5959667,23.7058065 57.919443,23.6581994 58.1992105,23.5629839 C58.478978,23.4677683 58.8199395,23.3162914 59.2221053,23.1085484 C59.5543291,22.9527412 59.8166072,22.8358875 60.0089474,22.7579839 C60.2012875,22.6800803 60.41111,22.641129 60.6384211,22.641129 C60.9706449,22.641129 61.2460369,22.7882781 61.4646053,23.0825806 C61.6831736,23.3768832 61.7924561,23.7490838 61.7924561,24.1991935 C61.7924561,24.8397344 61.5214355,25.3158049 60.979386,25.6274194 C60.419851,25.9736576 59.7728984,26.2419883 59.0385088,26.4324194 C58.3041191,26.6228504 57.5347701,26.7180645 56.7304386,26.7180645 Z M69.9231579,26.7180645 C68.5592914,26.7180645 67.3615549,26.445406 66.3299123,25.9000806 C65.2982697,25.3547553 64.5026929,24.5843867 63.9431579,23.5889516 C63.3836229,22.5935165 63.1038596,21.4206519 63.1038596,20.0703226 C63.1038596,18.7199932 63.3836229,17.5471286 63.9431579,16.5516935 C64.5026929,15.5562585 65.2982697,14.7902177 66.3299123,14.2535484 C67.3615549,13.716879 68.5592914,13.4485484 69.9231579,13.4485484 C71.2870244,13.4485484 72.4847609,13.716879 73.5164035,14.2535484 C74.5480461,14.7902177 75.3436229,15.5562585 75.9031579,16.5516935 C76.4626929,17.5471286 76.7424561,18.7199932 76.7424561,20.0703226 C76.7424561,21.4206519 76.4626929,22.5935165 75.9031579,23.5889516 C75.3436229,24.5843867 74.5480461,25.3547553 73.5164035,25.9000806 C72.4847609,26.445406 71.2870244,26.7180645 69.9231579,26.7180645 Z M69.9231579,23.7317742 C71.8465593,23.7317742 72.8082456,22.5113025 72.8082456,20.0703226 C72.8082456,18.8411767 72.5590814,17.9236589 72.0607456,17.3177419 C71.5624098,16.7118249 70.8498877,16.408871 69.9231579,16.408871 C67.9997565,16.408871 67.0380702,17.6293426 67.0380702,20.0703226 C67.0380702,22.5113025 67.9997565,23.7317742 69.9231579,23.7317742 Z M87.2336842,13.4485484 C88.7724054,13.4485484 89.9176863,13.8943235 90.6695614,14.7858871 C91.4214365,15.6774507 91.7973684,17.0234319 91.7973684,18.823871 L91.7973684,24.8224194 C91.7973684,25.3937125 91.6181451,25.8438156 91.259693,26.1727419 C90.9012409,26.5016683 90.4160265,26.666129 89.8040351,26.666129 C89.1920437,26.666129 88.7112006,26.5016683 88.3614912,26.1727419 C88.0117819,25.8438156 87.8369298,25.3937125 87.8369298,24.8224194 L87.8369298,19.0056452 C87.8369298,18.1400494 87.6751917,17.508174 87.3517105,17.11 C87.0282294,16.711826 86.5255297,16.5127419 85.8435965,16.5127419 C85.0217795,16.5127419 84.361713,16.7724168 83.8633772,17.2917742 C83.3650414,17.8111316 83.1158772,18.5035978 83.1158772,19.3691935 L83.1158772,24.8224194 C83.1158772,25.3937125 82.9410251,25.8438156 82.5913158,26.1727419 C82.2416064,26.5016683 81.7607633,26.666129 81.1487719,26.666129 C80.5367806,26.666129 80.0515661,26.5016683 79.693114,26.1727419 C79.334662,25.8438156 79.1554386,25.3937125 79.1554386,24.8224194 L79.1554386,15.2922581 C79.1554386,14.7555887 79.3434046,14.3227973 79.7193421,13.993871 C80.0952797,13.6649446 80.5804941,13.5004839 81.175,13.5004839 C81.7170495,13.5004839 82.1585509,13.6606167 82.4995175,13.9808871 C82.8404842,14.3011575 83.0109649,14.7123093 83.0109649,15.2143548 L83.0109649,15.5779032 C83.4655871,14.8854266 84.0557127,14.3574212 84.7813596,13.993871 C85.5070066,13.6303208 86.3244399,13.4485484 87.2336842,13.4485484 Z M99.6395614,26.7180645 C98.5729479,26.7180645 97.646232,26.6315062 96.859386,26.4583871 C96.0725399,26.285268 95.3818743,26.0082815 94.7873684,25.6274194 C94.5250864,25.4716121 94.3240065,25.2638723 94.1841228,25.0041935 C94.0442391,24.7445148 93.9742982,24.4502167 93.9742982,24.1212903 C93.9742982,23.7231163 94.0879521,23.3898669 94.3152632,23.1215323 C94.5425742,22.8531976 94.8223375,22.7190323 95.1545614,22.7190323 C95.3818725,22.7190323 95.6091801,22.7579835 95.8364912,22.8358871 C96.0638023,22.9137907 96.2998526,23.0046769 96.5446491,23.1085484 C97.0342422,23.3336033 97.5150854,23.5110477 97.987193,23.6408871 C98.4593006,23.7707265 99.045055,23.8356452 99.7444737,23.8356452 C100.356465,23.8356452 100.832937,23.7404311 101.173904,23.55 C101.51487,23.3595689 101.685351,23.0998941 101.685351,22.7709677 C101.685351,22.5286009 101.611039,22.3338448 101.462412,22.1866935 C101.313786,22.0395423 101.038394,21.905377 100.636228,21.7841935 C100.234062,21.6630101 99.5958523,21.5158611 98.7215789,21.3427419 C97.1653723,21.0484394 96.0463192,20.6069922 95.364386,20.0183871 C94.6824527,19.429782 94.3414912,18.6074784 94.3414912,17.5514516 C94.3414912,16.7724155 94.5819128,16.0712934 95.0627632,15.4480645 C95.5436135,14.8248356 96.20368,14.3357813 97.0429825,13.9808871 C97.8822849,13.6259928 98.826486,13.4485484 99.875614,13.4485484 C100.627489,13.4485484 101.361868,13.5437625 102.078772,13.7341935 C102.795676,13.9246246 103.433886,14.1929553 103.993421,14.5391935 C104.535471,14.8681199 104.806491,15.3528463 104.806491,15.9933871 C104.806491,16.408873 104.692837,16.7551061 104.465526,17.0320968 C104.238215,17.3090874 103.958452,17.4475806 103.626228,17.4475806 C103.224062,17.4475806 102.743219,17.2917758 102.183684,16.9801613 C101.746548,16.7551064 101.348759,16.5863178 100.990307,16.4737903 C100.631855,16.3612629 100.207839,16.305 99.7182456,16.305 C99.1761961,16.305 98.7478086,16.404542 98.4330702,16.603629 C98.1183318,16.802716 97.9609649,17.0753746 97.9609649,17.4216129 C97.9609649,17.7851631 98.1445596,18.0621496 98.5117544,18.2525806 C98.8789492,18.4430117 99.5871,18.6334399 100.636228,18.823871 C101.807754,19.0489259 102.725728,19.3215844 103.390175,19.6418548 C104.054623,19.9621253 104.535466,20.3646212 104.832719,20.8493548 C105.129972,21.3340884 105.278596,21.9486522 105.278596,22.6930645 C105.278596,23.9222104 104.767154,24.9003189 103.744254,25.6274194 C102.721355,26.3545198 101.353137,26.7180645 99.6395614,26.7180645 Z M117.86807,22.7190323 C118.21778,22.7190323 118.501914,22.8575255 118.720482,23.1345161 C118.939051,23.4115068 119.048333,23.7663957 119.048333,24.1991935 C119.048333,24.4934961 118.960907,24.7661547 118.786053,25.0171774 C118.611198,25.2682002 118.366405,25.480268 118.051667,25.6533871 C117.457161,25.9650016 116.766495,26.2203485 115.979649,26.4194355 C115.192803,26.6185225 114.467167,26.7180645 113.802719,26.7180645 C112.403882,26.7180645 111.184289,26.4497339 110.143904,25.9130645 C109.103518,25.3763952 108.30357,24.6103544 107.744035,23.6149194 C107.1845,22.6194843 106.904737,21.4466197 106.904737,20.0962903 C106.904737,18.7978967 107.175758,17.6466717 107.717807,16.6425806 C108.259857,15.6384896 109.01172,14.8551372 109.973421,14.2925 C110.935122,13.7298628 112.027947,13.4485484 113.25193,13.4485484 C114.423456,13.4485484 115.450712,13.7038953 116.333728,14.2145968 C117.216744,14.7252983 117.903038,15.4523878 118.392632,16.3958871 C118.882225,17.3393864 119.127018,18.4430044 119.127018,19.7067742 C119.127018,20.0876363 119.03522,20.3776065 118.851623,20.5766935 C118.668025,20.7757806 118.410119,20.8753226 118.077895,20.8753226 L110.734035,20.8753226 C110.856433,21.8967255 111.171167,22.6367988 111.678246,23.0955645 C112.185324,23.5543303 112.91096,23.7837097 113.855175,23.7837097 C114.362254,23.7837097 114.816869,23.7231189 115.219035,23.6019355 C115.621201,23.4807521 116.067074,23.3162914 116.556667,23.1085484 C116.801463,23.0046769 117.037513,22.9137907 117.264825,22.8358871 C117.492136,22.7579835 117.693215,22.7190323 117.86807,22.7190323 Z M113.356842,16.1491935 C112.604967,16.1491935 112.001727,16.3872288 111.547105,16.8633065 C111.092483,17.3393841 110.821462,18.0275224 110.734035,18.9277419 L115.796053,18.9277419 C115.743596,18.0102105 115.511917,17.3177443 115.101009,16.8503226 C114.6901,16.3829009 114.108717,16.1491935 113.356842,16.1491935 Z M128.411754,23.8096774 C128.936318,23.8443012 129.320993,23.9741387 129.565789,24.1991935 C129.810586,24.4242484 129.932982,24.7531699 129.932982,25.1859677 C129.932982,25.6880133 129.731903,26.0688697 129.329737,26.3285484 C128.927571,26.5882271 128.350559,26.692097 127.598684,26.6401613 L126.864298,26.5882258 C123.804341,26.345859 122.274386,24.7618426 122.274386,21.836129 L122.274386,16.6945161 L121.225263,16.6945161 C120.648243,16.6945161 120.211113,16.5690066 119.91386,16.3179839 C119.616607,16.0669611 119.467982,15.7077443 119.467982,15.2403226 C119.467982,14.755589 119.616607,14.3877163 119.91386,14.1366935 C120.211113,13.8856708 120.648243,13.7601613 121.225263,13.7601613 L122.274386,13.7601613 L122.274386,11.7346774 C122.274386,11.1633842 122.453609,10.7132812 122.812061,10.3843548 C123.170513,10.0554285 123.655728,9.89096774 124.267719,9.89096774 C124.879711,9.89096774 125.360554,10.0554285 125.710263,10.3843548 C126.059973,10.7132812 126.234825,11.1633842 126.234825,11.7346774 L126.234825,13.7601613 L128.070789,13.7601613 C129.259801,13.7601613 129.854298,14.2535435 129.854298,15.2403226 C129.854298,15.7077443 129.705674,16.0669611 129.408421,16.3179839 C129.111168,16.5690066 128.665295,16.6945161 128.070789,16.6945161 L126.234825,16.6945161 L126.234825,22.1217742 C126.234825,22.6411316 126.357221,23.0349718 126.602018,23.3033065 C126.846814,23.5716411 127.205261,23.7231181 127.677368,23.7577419 L128.411754,23.8096774 Z"></path></g></svg>
