<svg width="214" height="45" viewBox="0 0 214 45" fill="none" xmlns="http://www.w3.org/2000/svg">
<g id="Logo" clip-path="url(#clip0_2205_31)">
<g id="logotype">
<path id="Vector" d="M78.6742 16.5717C79.8998 17.8044 80.5418 19.487 80.5418 21.6587V31.5H76.6509V22.3826C76.6509 19.7413 75.2502 18.313 73.2074 18.313C71.0285 18.313 69.4527 19.9761 69.4527 22.5V31.5H65.5618V22.4022C65.5618 19.8391 64.2 18.313 62.1378 18.313C59.9589 18.313 58.3636 19.9761 58.3636 22.5391V31.5H54.4727V15.1435H58.3053V17.4913C59.2391 15.7696 61.1262 14.6935 63.2467 14.6935C65.3673 14.713 67.2349 15.7109 68.0909 17.6087C69.2582 15.7696 71.4371 14.6935 73.9273 14.6935C75.8727 14.6935 77.4291 15.3391 78.6742 16.5717Z" fill="black"/>
<path id="Vector_2" d="M95.5218 19.7805C94.6269 18.8218 93.4791 18.3326 92.0783 18.3326C90.6776 18.3326 89.5298 18.8218 88.6349 19.7805C86.884 21.8152 86.884 24.8283 88.6349 26.8631C89.5298 27.8218 90.6776 28.3109 92.0783 28.3109C93.4791 28.3109 94.6269 27.8218 95.5218 26.8631C97.3116 24.8478 97.3116 21.7957 95.5218 19.7805ZM96.7863 15.1435H100.502V31.5H96.7863V29.4848C95.4634 31.05 93.518 31.9305 91.4947 31.8913C89.1602 31.8913 87.2342 31.0892 85.7167 29.4261C84.1993 27.7631 83.4405 25.6892 83.4405 23.2435C83.4405 20.7978 84.1798 18.7631 85.7167 17.1587C87.2536 15.5544 89.1796 14.7522 91.4947 14.7522C93.5569 14.7522 95.3272 15.5739 96.7863 17.2174V15.1435Z" fill="black"/>
<path id="Vector_3" d="M115.677 26.7065C116.572 25.7674 117.019 24.5935 117.019 23.1848C117.019 21.7761 116.572 20.6218 115.677 19.7218C114.801 18.8022 113.556 18.2935 112.292 18.3326C110.91 18.3326 109.782 18.7826 108.887 19.7218C107.992 20.6218 107.545 21.7761 107.545 23.1848C107.545 24.5935 107.992 25.7674 108.887 26.7065C109.782 27.6457 110.93 28.0957 112.292 28.0957C113.556 28.1348 114.782 27.6261 115.677 26.7065ZM117.019 15.1435H120.677V29.8565C120.677 32.4783 119.84 34.5522 118.186 36.0978C116.533 37.6435 114.393 38.4261 111.727 38.4261C109.082 38.4652 106.494 37.6239 104.335 36.0783L105.93 33.1044C107.759 34.3957 109.665 35.0413 111.65 35.0413C114.976 35.0413 116.922 33.0848 116.922 30.287V29.3283C115.599 30.7957 113.867 31.5587 111.747 31.5587C109.373 31.5587 107.428 30.7761 105.911 29.1913C104.393 27.6065 103.634 25.6109 103.634 23.2044C103.634 20.7587 104.413 18.7435 106.008 17.1783C107.603 15.5739 109.568 14.7913 111.903 14.7913C113.887 14.7522 115.774 15.6131 117.058 17.1391L117.019 15.1435Z" fill="black"/>
<path id="Vector_4" d="M128.419 31.5H124.49V15.1435H128.419V31.5ZM123.984 10.7217C123.984 9.37175 125.054 8.25653 126.416 8.25653C126.455 8.25653 126.474 8.25653 126.513 8.25653C127.875 8.25653 128.964 9.37175 128.964 10.7217C128.964 12.0913 127.855 13.187 126.513 13.187C125.054 13.187 123.984 12.1696 123.984 10.7217Z" fill="black"/>
<path id="Vector_5" d="M133.828 29.4457C132.233 27.8413 131.435 25.8065 131.435 23.3022C131.435 20.7978 132.252 18.7631 133.867 17.1587C135.481 15.5544 137.583 14.7522 140.151 14.7522C143.477 14.7522 146.376 16.3761 147.699 19.2326L144.528 20.9544C143.575 19.35 142.018 18.3718 140.209 18.3718C138.905 18.3326 137.621 18.8413 136.707 19.7805C135.773 20.7196 135.326 21.8935 135.326 23.3022C135.326 24.7109 135.773 25.8848 136.668 26.8239C137.563 27.7631 138.789 28.2718 140.073 28.2326C141.863 28.2326 143.633 27.2152 144.45 25.6696L147.621 27.5283C146.22 30.15 143.341 31.8326 140.014 31.8326C137.505 31.8522 135.443 31.05 133.828 29.4457Z" fill="black"/>
<path id="Vector_6" d="M155.481 26.8826C156.356 27.8217 157.485 28.2913 158.885 28.2913C160.286 28.2913 161.434 27.8022 162.29 26.8826C163.165 25.9043 163.632 24.6326 163.593 23.3217C163.632 22.0109 163.165 20.7587 162.27 19.8C161.395 18.8413 160.267 18.3522 158.866 18.3522C157.465 18.3522 156.317 18.8413 155.461 19.8C153.71 21.8543 153.71 24.8674 155.481 26.8826ZM165.266 17.2565C166.784 18.9196 167.543 20.9348 167.543 23.3022C167.543 25.7087 166.764 27.763 165.247 29.4065C163.729 31.05 161.803 31.8913 159.488 31.8913C157.426 31.8913 155.656 31.0891 154.255 29.4457V38.2109H150.325V15.1435H154.216V17.3152C155.636 15.5935 157.387 14.7522 159.527 14.7522C161.706 14.713 163.807 15.6326 165.266 17.2565Z" fill="black"/>
<path id="Vector_7" d="M174.507 8.6087H170.616V31.5H174.507V8.6087Z" fill="black"/>
<path id="Vector_8" d="M189.721 19.7805C188.826 18.8218 187.678 18.3326 186.277 18.3326C184.877 18.3326 183.729 18.8218 182.834 19.7805C181.083 21.8152 181.083 24.8283 182.834 26.8631C183.729 27.8218 184.877 28.3109 186.277 28.3109C187.678 28.3109 188.826 27.8218 189.721 26.8631C191.53 24.8478 191.53 21.7957 189.721 19.7805ZM190.985 15.1435H194.701V31.5H190.985V29.4848C189.662 31.05 187.717 31.9305 185.694 31.8913C183.359 31.8913 181.453 31.0892 179.916 29.4261C178.379 27.7631 177.639 25.6892 177.639 23.2435C177.639 20.7978 178.379 18.7631 179.916 17.1587C181.453 15.5739 183.379 14.7522 185.694 14.7522C187.756 14.7522 189.526 15.5739 190.985 17.2174V15.1435Z" fill="black"/>
<path id="Vector_9" d="M198.689 31.5V15.1435H202.522V17.4326C203.397 15.7696 205.284 14.713 207.638 14.713C209.311 14.6739 210.946 15.3196 212.152 16.4935C213.377 17.6674 214 19.3304 214 21.5217V31.5H210.09V22.6174C210.09 19.8783 208.689 18.313 206.529 18.313C204.234 18.313 202.58 20.113 202.58 22.6761V31.5H198.689Z" fill="black"/>
</g>
<g id="icon">
<path id="outline" d="M0 0V45H13.6182V41.087H3.89091V3.91304H40.8545V41.087H31.1273V45H44.7455V0H0Z" fill="#0099EE"/>
<path id="m" d="M33.7342 16.5717C34.9598 17.8044 35.6018 19.487 35.6018 21.6587V31.5H31.7109V22.3826C31.7109 19.7413 30.3102 18.313 28.2674 18.313C26.0885 18.313 24.5127 19.9761 24.5127 22.5V31.5H20.6218V22.4022C20.6218 19.8391 19.26 18.313 17.1978 18.313C15.0189 18.313 13.4236 19.9761 13.4236 22.5391V31.5H9.53271V15.1435H13.3653V17.4913C14.2991 15.7696 16.1862 14.6935 18.3067 14.6935C20.4273 14.713 22.2949 15.7109 23.1509 17.6087C24.3182 15.7696 26.4971 14.6935 28.9873 14.6935C30.9327 14.6935 32.4891 15.3391 33.7342 16.5717Z" fill="black"/>
</g>
</g>
<defs>
<clipPath id="clip0_2205_31">
<rect width="214" height="45" fill="white"/>
</clipPath>
</defs>
</svg>
