<svg width="600" height="175" viewBox="0 0 600 175" fill="none" xmlns="http://www.w3.org/2000/svg">
<path d="M483.7 100.9C490.3 88.2999 499.6 70.3999 500.3 68.9999C500.9 70.4999 509.4 88.0999 515.7 100.9H483.7ZM566.5 121.2C560.7 119 559.3 118 557.7 114.3L517 33.3999H500.1L454.6 115.9C453 119 451.5 119.7 447.7 121.1L437.4 124.3V136.2H487.9V123.8L476.7 120.9C474.3 120.3 474.4 118.7 475 117.6C475 117.6 476.5 114.8 478.7 110.6H521C523.2 114.8 523.8 115.7 524.6 117.2C525.7 119.5 523.6 120.5 520.9 121.2L510.8 124V136.2H575.6V124.3C575.4 124.4 566.5 121.2 566.5 121.2Z" fill="#B7955A"/>
<path d="M435.7 97.8L445.7 94.9V82.3H380.5V94.9L390.5 97.8C397.6 100 397.9 100.8 397.9 106.5V123.6C394.3 124.3 387.5 124.4 383.1 123.7C359.5 120.3 353 102.9 353 84.7C353 74.5 356.4 65.2 364.3 57.6C369.9 52.2 378.4 47.3 391.4 47.8C397.1 48 403.6 50.7 405.8 52.3C412.3 56.8 413.8 62.1 415.5 68.6H432.2L432.1 43C432.1 43 415.3 31.5 386.2 31.5C363.1 31.5 317.6 41.1 317.6 86.3C317.6 114 340.9 135.7 381.4 137.7C409.3 139.1 428.3 130.9 428.3 130.9V106.5C428.3 100.8 428.6 100 435.7 97.8Z" fill="#B7955A"/>
<path d="M276.9 79.5999C275.1 81.2999 271 83.2999 267.6 84.0999C258.5 86.3999 246.7 85.4999 246.3 85.4999V46.7999C254 46.7999 267.5 45.5999 276.2 51.8999C280.5 54.9999 283 59.8999 283.1 66.1999C283.3 70.6999 281.7 75.4999 276.9 79.5999ZM274.5 34.0999C269.6 33.5999 255.6 33.3999 255.6 33.3999H198.3V45.8999L207.9 48.8999C215.7 51.3999 215.7 52.1999 215.7 57.8999V112.2C215.7 118 215.7 118.3 207.9 120.8L198.3 123.5V136.1H263.7V123.5L254.1 120.8C246.3 118.3 246.3 118 246.3 112.2V99.1999H261.8C276.1 98.9999 287.6 98.0999 297.9 92.1999C307.7 86.5999 313.1 76.3999 313.1 65.5999C313.1 48.3999 299.4 36.6999 274.5 34.0999Z" fill="#B7955A"/>
<path d="M87.1 0C39.1 0 0 39.1 0 87.1C0 135.1 39.1 174.2 87.1 174.2C135.1 174.2 174.2 135.1 174.2 87.1C174.2 39.1 135.1 0 87.1 0Z" fill="#B7955A"/>
<path d="M87 8C43.3 8 7.69995 43.6 7.69995 87.3C7.69995 131 43.3 166.6 87 166.6C130.7 166.6 166.3 131 166.3 87.3C166.3 43.6 130.8 8 87 8Z" fill="#20415F"/>
<path d="M87.1 145.4C119 145.4 145 119.4 145 87.4998C145 55.5998 119 29.5999 87.1 29.5999C55.2 29.5999 29.2 55.5998 29.2 87.4998C29.2 119.4 55.2 145.4 87.1 145.4Z" fill="#B7955A"/>
<path fill-rule="evenodd" clip-rule="evenodd" d="M91.8 40.3C90.8 40.4 90.3001 41.6 90.5001 42.8C91.7001 42.7 92.8 42.5 93.8 42.2C93.7 41.8 93.5 41.3999 93.2001 40.9999C92.9001 40.5999 92.4 40.2 91.8 40.3ZM81.9 40.3C81.3 40.1 80.8001 40.4 80.5001 40.7C80.1001 41.1 79.8001 41.5999 79.7001 42.0999C80.7001 42.3999 81.8001 42.6 83.0001 42.7C83.1001 41.7 82.8 40.6 81.9 40.3ZM86.7001 40.2C85.9001 40.3 85.2001 40.5999 84.7001 40.9999C84.3001 41.3999 84 42.1 83.9 42.8C85.7 43 87.8001 43 89.6001 42.8C89.5001 42 89.2001 41.4 88.7001 40.9C88.3001 40.6 87.5001 40.2 86.7001 40.2ZM94.1001 46.7C94.1001 46.2 93.9001 45.7999 93.7001 45.4999C93.5 45.1999 93.2001 44.9 92.7001 44.9C91.9001 44.9 91.4001 45.4 91.1001 45.9C90.7001 46.5 90.6001 47.1 90.6001 47.9C90.3001 48 90.0001 47.9999 89.7001 48.0999C89.7001 47.1999 89.3 46.5999 88.8 46.0999C88.3 45.5999 87.6 45.3 86.7001 45.3C85.8001 45.3 85.1001 45.5999 84.6001 46.0999C84.1001 46.5999 83.7001 47.1999 83.7001 48.0999C83.4001 48.0999 83 48 82.8 47.9C82.8 46.6 82.3001 45.5999 81.5001 45.0999C81.0001 44.7999 80.4001 44.9 80.0001 45.2C79.6001 45.5 79.4 45.9999 79.4 46.5999C79.4 46.5999 78.1001 45.4999 77.7001 45.0999C77.7001 44.8999 77.7001 44.6999 77.7001 44.4999C77.7001 39.4999 81.8001 35.5 86.7001 35.5C91.7001 35.5 95.7001 39.5999 95.7001 44.4999V44.9C95.6 45.4 95.1001 46 94.1001 46.7ZM93.6001 48.5999C93.3001 49.0999 92.8001 49.5999 92.1001 49.5999C91.8001 49.5999 91.4001 49.5 91.2001 49.3C90.9001 49 90.7001 48.5 90.6001 47.9C91.9001 47.6 93.0001 47.2 94.0001 46.7C94.1001 47.4 93.9001 48.0999 93.6001 48.5999ZM88.8 50.0999C88.3 50.5999 87.6 50.9 86.7001 50.9C85.8001 50.9 85.1001 50.5999 84.6001 50.0999C84.1001 49.5999 83.7001 48.9999 83.7001 48.0999C85.5001 48.3999 87.9001 48.3999 89.6001 48.0999C89.7001 48.9999 89.3 49.6999 88.8 50.0999ZM81.4 49.5999C80.7 49.5999 80.2 49.0999 79.9 48.5999C79.5 48.0999 79.3 47.4 79.3 46.7C80.3 47.3 81.5001 47.6 82.7001 47.9C82.7001 48.8 82.3 49.5999 81.4 49.5999ZM86.7001 33.7C80.7001 33.7 75.8 38.5999 75.8 44.5999C75.8 50.5999 80.7001 55.4999 86.7001 55.4999C92.7001 55.4999 97.6001 50.5999 97.6001 44.5999C97.6001 38.5999 92.7001 33.7 86.7001 33.7Z" fill="#20415F"/>
<path d="M124.4 121.7C124.3 121.6 122.1 119.8 118.4 119.5C117.3 119.4 116.6 119.4 114.1 119.8C112 120.3 110.8 120.7 110.1 121.1C109.5 120.2 102 110.4 98.2 105.2C97.5 105.4 96.6 105.6 95.7 105.8L109.6 128L109.8 128.1C110 128.2 111.4 129 115.6 128.9C118.2 128.8 121.5 128.2 121.7 128.1C123.5 127.6 124.5 124.1 124.8 122.6L124.9 122.1L124.4 121.7ZM64.2 121.1C63.5 120.7 62.3 120.2 60.2 119.8C57.8 119.4 57.1 119.4 55.9 119.5C52.2 119.8 50 121.6 49.9 121.7L49.5 122L49.6 122.5C50 124 51 127.5 52.7 128C52.9 128 56.2 128.7 58.8 128.8C63 128.9 64.4 128.1 64.6 128L64.8 127.9L79.1 105.1C78.3 104.9 77.6 104.6 76.8 104.3C73.2 109.2 64.8 120.2 64.2 121.1ZM103.5 72.4L121 49.6C121 49.6 120.6 47.8 119 46.8C117.4 45.8 115.6 46 115.6 46L99 70.2C101.5 71.1 103 72.1 103.3 72.3L103.5 72.4ZM75.7 70.9L58.7 46C58.7 46 56.9 45.8 55.3 46.8C53.7 47.9 53.3 49.6 53.3 49.6L71.6 73.4C72.8 72.5 74.2 71.6 75.7 70.9Z" fill="#20415F"/>
<path d="M89.9 68.4C91.2 63.7 93.6001 59.9999 93.6001 59.9999V57.7C86.3001 58.2 79.8 57.7 79.8 57.7V59.9999C79.8 59.9999 82.1 63.8 83.4 68.7C84.9 68.5 86.5001 68.4 88.0001 68.4C88.7001 68.3 89.3 68.4 89.9 68.4Z" fill="#20415F"/>
<path d="M76.1001 134.5V126.8H75.3L71.8 128.9V130.1L73.6001 129.1H73.7001V134.5C73.7001 135.2 73.7 135.2 72.9 135.5L71.9 135.8V136.7H72.5001H74.6001L78.0001 136.8V135.9L76.8 135.5C76.2 135.3 76.1001 135.3 76.1001 134.5Z" fill="#20415F"/>
<path d="M91.8998 134.5V126.8H91.0999L87.5999 128.9V130.1L89.3998 129.1H89.4999V134.5C89.4999 135.2 89.4999 135.2 88.6999 135.5L87.6999 135.8V136.7H88.2999H90.3998L93.8998 136.8V135.9L92.6999 135.5C91.9999 135.3 91.8998 135.3 91.8998 134.5Z" fill="#20415F"/>
<path d="M83.8999 131.2C83.4999 131.4 83.1999 131.5 82.7999 131.5C82.0999 131.5 81.4999 131.3 81.4999 129.7C81.4999 129 81.6999 128.1 82.5999 128.1C83.4999 128.1 83.8999 129.1 83.8999 131V131.2ZM82.5999 127C80.2999 127 78.8999 128.2 78.8999 130.2C78.8999 131.9 80.0999 133.1 81.8999 133.1C82.6999 133.1 83.2999 132.9 83.8999 132.5C83.6999 134.3 82.4999 135.6 80.7999 135.6C80.3999 135.6 79.9999 135.5 79.5999 135.4L79.2999 135.3L78.9999 136.3L79.2999 136.4C79.9999 136.7 80.7999 136.9 81.5999 136.9C84.5999 136.9 86.6999 134.6 86.6999 131.1C86.4999 128.4 85.0999 127 82.5999 127Z" fill="#20415F"/>
<path d="M98.4 135.7C97.7 135.7 97.1001 135.4 97.1001 132.8V132.6C97.5001 132.4 97.8001 132.3 98.2001 132.3C98.8001 132.3 99.5001 132.5 99.5001 134C99.4001 135.2 99.1 135.7 98.4 135.7ZM99.1001 130.8C98.3001 130.8 97.7001 131 97.1001 131.3C97.3001 129.3 98.4001 128.1 100.2 128.1C100.6 128.1 101 128.2 101.4 128.3L101.7 128.4L102.1 127.5L101.8 127.4C101.1 127.1 100.3 127 99.4 127C96.3 127 94.3 129.3 94.3 132.8C94.3 135.5 95.6 136.9 98.3 136.9C100.6 136.9 102 135.7 102 133.8C102.1 132 100.9 130.8 99.1001 130.8Z" fill="#20415F"/>
<path d="M87.1 145.4C55.2 145.4 29.2 119.4 29.2 87.4999C29.2 55.5999 55.2 29.5999 87.1 29.5999C119 29.5999 145 55.5999 145 87.4999C145 119.4 119 145.4 87.1 145.4ZM87 26.2999C53.4 26.2999 26.1 53.5999 26.1 87.1999C26.1 120.8 53.5 148.2 87 148.2C120.6 148.2 147.9 120.9 147.9 87.2999C147.9 53.6999 120.6 26.2999 87 26.2999Z" fill="white"/>
<path d="M87 166.5C43.3 166.5 7.69995 130.9 7.69995 87.2C7.69995 43.5 43.3 7.89995 87 7.89995C130.7 7.89995 166.3 43.5 166.3 87.2C166.3 131 130.8 166.5 87 166.5ZM87.1 4.69995C41.7 4.69995 4.69995 41.6999 4.69995 87.0999C4.69995 132.5 41.7 169.5 87.1 169.5C132.6 169.5 169.5 132.5 169.5 87.0999C169.5 41.6999 132.5 4.69995 87.1 4.69995Z" fill="white"/>
<path d="M49.6 146.4C48.8 147.7 47.2 148.1 45.9 147.2C44.6 146.3 44.4 144.7 45.2 143.5C46 142.3 47.6 141.9 48.8 142.7C50.2 143.5 50.4 145.1 49.6 146.4ZM49.9 141.2C47.7 139.7 45 140.3 43.6 142.3C42.2 144.3 42.7 147 44.9 148.5C47.1 150 49.8 149.4 51.2 147.4C52.6 145.4 52.1 142.7 49.9 141.2Z" fill="white"/>
<path d="M52.0999 152.8L53.7999 153.6L55.1999 150.6L58.9999 152.3L59.6999 150.8L55.9999 149L56.7999 147.4L60.9999 149.3L61.6999 147.8L55.7999 145L52.0999 152.8Z" fill="white"/>
<path d="M70.1999 155.7L71.8999 153.2L72.3999 156.2L70.1999 155.7ZM71.5999 150.8L66.0999 158.5L67.9999 158.9L69.1999 157.2L72.7999 158L73.0999 160.1L74.9999 160.5L73.2999 151.2L71.5999 150.8Z" fill="white"/>
<path d="M82.9 156.1L80.9 152.4L78.8 152.2L78.4 160.9L80.2 161L80.5 155.4L82.7 159.1H82.8L85.4 155.6L85.1 161.2L87 161.3L87.4 152.7L85.4 152.6L82.9 156.1Z" fill="white"/>
<path d="M92.7999 159.3L92.6 157.5L96.6 157.1L96.5 155.4L92.3999 155.8L92.2999 154.1L96.8999 153.6L96.7 151.9L90.2 152.6L91.1 161.1L97.6 160.5L97.3999 158.8L92.7999 159.3Z" fill="white"/>
<path d="M103.9 154.7L102 155.2L101.4 152.8L103.2 152.4C104.1 152.2 104.7 152.5 104.9 153.2C105.2 153.9 104.8 154.5 103.9 154.7ZM106.9 152.6C106.7 151.8 106.3 151.2 105.7 150.8C105 150.4 104.1 150.3 103.1 150.5L99.3 151.4L101.3 159.8L103.1 159.4L102.4 156.7L103.8 156.4L106.2 158.6L108.4 158.1L105.6 155.6C106.7 155 107.2 153.9 106.9 152.6Z" fill="white"/>
<path d="M108.9 148.8L111.9 156.9L113.7 156.2L110.7 148.2L108.9 148.8Z" fill="white"/>
<path d="M120.5 151.4C119.2 152.1 117.7 151.4 117 150.1C116.3 148.8 116.7 147.2 118 146.6C118.8 146.2 119.5 146.2 120.4 146.5L120.8 144.7C119.7 144.4 118.6 144.3 117.2 145C114.8 146.2 114.1 148.8 115.2 151C116.3 153.2 118.9 154.1 121.1 152.9C122.6 152.1 123.2 151.2 123.6 149.9L122 149.4C121.7 150.4 121.4 151 120.5 151.4Z" fill="white"/>
<path d="M129.3 143.6L127.4 144.9L126.7 142L129.3 143.6ZM124.7 140.7L126.8 149.9L128.4 148.8L127.9 146.8L130.9 144.7L132.7 145.8L134.3 144.6L126.2 139.7L124.7 140.7Z" fill="white"/>
<path d="M29.8 131.8L28.9 130.6C28.3 129.8 28.3 129.1 29 128.6C29.6 128.2 30.4 128.3 31 129L31.9 130.2L29.8 131.8ZM33.3 129.2L32.4 128.1C31.2 126.6 29.5 125.9 27.9 127.2C26.5 128.3 26.3 130 27.5 131.6L29.6 134.4L36.5 129.2L35.3 127.7L33.3 129.2Z" fill="white"/>
<path d="M24 123.2L23.1 121.5C22.7 120.7 22.7 120 23.5 119.6C24.1 119.3 24.8 119.5 25.3 120.3L26.2 122L24 123.2ZM30 119.9L27.6 121.2L26.9 119.9L28.4 116.9L27.3 114.9L25.6 118.2C24.7 117.4 23.6 117.2 22.4 117.9C21.7 118.3 21.2 118.9 21 119.5C20.8 120.3 20.9 121.2 21.4 122.1L23.3 125.6L30.9 121.4L30 119.9Z" fill="white"/>
<path d="M21.7 112.5C20.3 113 18.8 112.4 18.3 110.9C17.8 109.5 18.6 108 20 107.5C21.4 107 22.9 107.6 23.4 109.1C23.9 110.6 23.1 112 21.7 112.5ZM22.4 114.4C24.7 113.6 26 111.1 25.1 108.6C24.2 106.1 21.7 104.9 19.4 105.7C17.1 106.5 15.8 109 16.7 111.5C17.5 114.1 20 115.2 22.4 114.4Z" fill="white"/>
<path d="M22.5 99.7L19.2 100.3L18.4 96.2L16.7 96.4999L17.5 100.6L15.6 100.9L14.8 96.3L13.1 96.5999L14.3 103.1L22.8 101.5L22.5 99.7Z" fill="white"/>
<path d="M21.1999 85.7999L19.4999 85.8999L19.5999 90.5999L17.7999 90.6999L17.6999 86.5999L15.9999 86.6999L16.0999 90.6999L14.3999 90.7999L14.1999 86.1999H12.4999L12.6999 92.6999L21.3999 92.3999L21.1999 85.7999Z" fill="white"/>
<path d="M15.1 82.7C16.8 82.9 17.4 81.7999 18.1 80.0999C18.6 78.6999 18.9 78.3999 19.4 78.4999C19.9 78.5999 20.2 79 20.1 79.8C20 80.8 19.5 81.5 18.8 82.3L20 83.5999C21 82.6999 21.6 81.3999 21.8 80.0999C22 78.1999 21.2 76.8 19.5 76.7C18 76.5 17.3 77.5 16.6 79.2C16.1 80.6 15.8 81 15.3 80.9C14.9 80.9 14.6 80.4 14.7 79.7C14.8 79 15.2 78.2999 15.8 77.4999L14.5 76.4C13.7 77.2 13.2 78.1999 13.1 79.4999C12.7 81.0999 13.6 82.5 15.1 82.7Z" fill="white"/>
<path d="M16.3999 73C18.0999 73.4 18.7999 72.4 19.6999 70.8C20.3999 69.5 20.6999 69.3 21.1999 69.4C21.6999 69.5 21.8999 70.1 21.6999 70.8C21.4999 71.8 20.8999 72.5 20.0999 73.1L21.0999 74.5C22.1999 73.7 22.9999 72.5 23.2999 71.3C23.6999 69.5 23.0999 68 21.3999 67.6C19.8999 67.2 19.0999 68.1 18.1999 69.7C17.4999 71.1 17.1999 71.4 16.6999 71.2C16.2999 71.1 16.0999 70.7 16.1999 69.9C16.3999 69.2 16.8999 68.5 17.5999 67.9L16.3999 66.6C15.4999 67.3 14.8999 68.2 14.5999 69.5C14.0999 71.1 14.7999 72.6 16.3999 73Z" fill="white"/>
<path d="M25.5 63.5999L17.4 60.7L16.7 62.4999L24.9 65.4L25.5 63.5999Z" fill="white"/>
<path d="M22.2999 53.6C22.9999 52.2 24.5999 51.8 25.8999 52.5C27.1999 53.2 27.7999 54.7 27.0999 56C26.3999 57.4 24.7999 57.8 23.4999 57.1C22.1999 56.4 21.5999 54.9 22.2999 53.6ZM22.5999 58.9C24.7999 60 27.4999 59.3 28.6999 56.9C29.8999 54.5 28.9999 51.9 26.8999 50.7C24.6999 49.6 22.0999 50.4 20.7999 52.7C19.4999 55.1 20.3999 57.8 22.5999 58.9Z" fill="white"/>
<path d="M33.4 48.9L29 45.5999H36L36.9 44.3L30.1 38.9999L28.9 40.4999L33.1 43.7H26.5L25.4 45.0999L32.3 50.4L33.4 48.9Z" fill="white"/>
<path d="M40.2 35.9L38.5 37.5L37.4 34.7L40.2 35.9ZM39.9 41.1L39.1 39.2L41.7999 36.7L43.7 37.6L45.2 36.2L36.5 32.4L35.2 33.6L38.5 42.5L39.9 41.1Z" fill="white"/>
<path d="M52.2999 31.0999L51.2999 29.6999L47.7999 32.1999L43.7999 26.4999L42.2999 27.5999L47.1999 34.6999L52.2999 31.0999Z" fill="white"/>
<path d="M56.7999 23.6999C57.7999 26.0999 60.1999 27.0999 62.6999 26.0999C64.1999 25.4999 65.0999 24.4999 65.5999 23.3999L64.1999 19.8999L60.6999 21.2999L61.2999 22.7999L63.1 22.0999L63.6 23.1999C63.3 23.6999 62.8 24.0999 62.1 24.3999C60.7 24.9999 59.2 24.2999 58.6 22.7999C58 21.3999 58.5999 19.8999 59.8999 19.3999C60.7999 18.9999 61.4999 19.0999 62.2999 19.3999L62.8999 17.5999C61.7999 17.1999 60.6999 17.1999 59.2999 17.7999C56.8999 18.8999 55.8999 21.3999 56.7999 23.6999Z" fill="white"/>
<path d="M71.6 16C73.1 15.7 74.3999 16.7 74.6999 18.1C74.9999 19.6 74.1999 21 72.6999 21.3C71.1999 21.6 69.9 20.6 69.6 19.2C69.3 17.7 70.1 16.3 71.6 16ZM67.6 19.6C68.1 22 70.4 23.6 73 23C75.6 22.4 77.1 20.1 76.6 17.7C76.1 15.3 73.7999 13.7 71.1999 14.3C68.5999 14.8 67.1 17.2 67.6 19.6Z" fill="white"/>
<path d="M86.6 21.3999L86.5 19.5999L82.2 19.8999L81.8 12.9999L79.9 13.0999L80.4 21.6999L86.6 21.3999Z" fill="white"/>
<path d="M91.2999 18.1999L95.3999 18.5999L95.4999 16.7999L91.3999 16.4999L91.5999 14.6999L96.1999 14.9999L96.3999 13.2999L89.7999 12.7999L89.0999 21.3999L90.9999 21.5999L91.2999 18.1999Z" fill="white"/>
<path d="M105.1 22.2L100.5 21.1L100.9 19.4L104.9 20.3L105.2 18.6L101.3 17.7L101.7 16L106.2 17L106.6 15.4L100.2 13.9L98.3 22.4L104.7 23.8L105.1 22.2Z" fill="white"/>
<path d="M111.7 18.8999L113.5 19.5999C114.4 19.8999 114.7 20.4999 114.4 21.2999C114.1 21.9999 113.5 22.1999 112.6 21.8999L110.8 21.1999L111.7 18.8999ZM110.2 22.7999L111.6 23.2999L112.3 26.5999L114.4 27.3999L113.5 23.7999C114.7 23.7999 115.7 23.2999 116.2 21.9999C116.5 21.1999 116.5 20.4999 116.2 19.8999C115.9 19.1999 115.2 18.5999 114.2 18.1999L110.5 16.7999L107.4 24.8999L109.2 25.5999L110.2 22.7999Z" fill="white"/>
<path d="M119.3 30.2C120.9 31.1 122.5 30.9 123.4 29.4C124.1 28.1 123.6 27.1 122.3 25.8C121.2 24.7 121 24.4 121.2 23.9C121.4 23.5 121.9 23.4 122.5 23.8C123.1 24.2 123.6 24.8 124 25.7L125.6 24.9C125.2 23.9 124.5 23 123.4 22.4C121.9 21.5 120.3 21.8 119.5 23.2C118.7 24.7 119.4 25.7 120.7 26.9C121.8 27.9 121.9 28.3 121.7 28.7C121.4 29.1 120.9 29.2 120.2 28.8C119.3 28.3 118.8 27.5 118.5 26.6L116.9 27.2C117.2 28.5 118.1 29.5 119.3 30.2Z" fill="white"/>
<path d="M129.9 28.5999L130.9 27.1999L129.3 25.9999L128.2 27.5999L128.8 28.0999C128.4 28.6999 127.9 28.7999 127.1 28.3999L126.7 29.1999C127.9 29.9999 128.9 29.9999 129.9 28.5999Z" fill="white"/>
<path d="M139.1 37.4999L137.9 40.2999L136.3 38.5999L139.1 37.4999ZM134.6 39.2999L137.1 41.9999L136.2 43.8999L137.6 45.2999L141.4 36.5999L140.2 35.2999L131.3 38.5999L132.6 39.9999L134.6 39.2999Z" fill="white"/>
<path d="M139.6 45.9999C139.4 47.3999 139.8 48.7 140.6 49.8C141.7 51.3 143.2 51.9 144.6 50.9C145.8 50 145.8 48.9 145.2 47.2C144.7 45.8 144.6 45.2999 145.1 44.9999C145.4 44.7999 145.9 44.8999 146.4 45.4999C146.8 46.0999 147 46.9 147 47.8H148.7C148.8 46.7 148.5 45.5999 147.8 44.4999C146.8 43.0999 145.2 42.5999 143.9 43.4999C142.5 44.4999 142.7 45.7 143.4 47.4C143.9 48.8 143.9 49.1999 143.5 49.4999C143.1 49.7999 142.6 49.6 142.1 48.9C141.5 48.1 141.4 47.2 141.5 46.2L139.6 45.9999Z" fill="white"/>
<path d="M148.2 55.2999C148.5 56.7999 148.4 57.0999 148 57.3999C147.5 57.5999 147.1 57.2999 146.7 56.6999C146.3 55.7999 146.2 54.8999 146.5 53.8999L144.8 53.4999C144.4 54.8999 144.6 56.1999 145.2 57.3999C146.1 59.0999 147.5 59.7999 149 58.9999C150.3 58.2999 150.4 57.0999 150.1 55.3999C149.8 53.8999 149.8 53.4999 150.3 53.1999C150.7 52.9999 151.1 53.1999 151.5 53.7999C151.8 54.3999 151.9 55.2999 151.8 56.1999L153.5 56.3999C153.7 55.2999 153.6 54.1999 153 52.9999C152.2 51.3999 150.7 50.7999 149.3 51.4999C147.7 52.2999 147.8 53.5999 148.2 55.2999Z" fill="white"/>
<path d="M152.5 62.9C153.9 62.4 155.4 63.1 155.9 64.5C156.4 66 155.5 67.4 154.1 67.8C152.7 68.3 151.2 67.6 150.7 66.2C150.2 64.8 151.1 63.3 152.5 62.9ZM151.8 61C149.5 61.8 148.2 64.2 149 66.7C149.8 69.2 152.3 70.5 154.7 69.7C157 68.9 158.3 66.5 157.5 64C156.7 61.5 154.2 60.2 151.8 61Z" fill="white"/>
<path d="M155.4 72.7999C152.9 73.1999 151.3 75.2999 151.6 77.7999C151.8 79.3999 152.6 80.2999 153.7 81.0999L154.7 79.6999C154 79.0999 153.5 78.5999 153.4 77.5999C153.2 76.0999 154.3 74.8999 155.7 74.6999C157.2 74.4999 158.5 75.2999 158.7 76.7999C158.8 77.6999 158.6 78.3999 158.1 79.0999L159.7 80.0999C160.4 79.1999 160.8 78.0999 160.5 76.4999C160.1 73.9999 157.8 72.4999 155.4 72.7999Z" fill="white"/>
<path d="M152.4 85.9999L161 85.6999L160.9 83.7999L152.3 84.0999L152.4 85.9999Z" fill="white"/>
<path d="M155.8 92.3L158.5 93.7L155.6 94.5999L155.8 92.3ZM152.3 90.4999L154.2 91.4999L153.9 95.0999L151.9 95.7L151.7 97.7L160.7 94.8L160.9 92.9999L152.6 88.4999L152.3 90.4999Z" fill="white"/>
<path d="M157.6 102.5L150.9 101L150.4 102.8L157.2 104.4L156.6 106.9L158.3 107.3L159.9 100.3L158.2 99.9L157.6 102.5Z" fill="white"/>
<path d="M148.3 109.7L156.5 112.6L157.1 110.8L149 107.9L148.3 109.7Z" fill="white"/>
<path d="M151.6 119.7C150.9 121.1 149.3 121.5 148 120.8C146.7 120.1 146.1 118.6 146.8 117.3C147.5 115.9 149.1 115.5 150.4 116.2C151.7 116.8 152.3 118.3 151.6 119.7ZM151.3 114.4C149.1 113.3 146.4 114.1 145.2 116.5C144 118.9 144.9 121.5 147.1 122.6C149.3 123.7 151.9 122.9 153.1 120.5C154.4 118.1 153.5 115.5 151.3 114.4Z" fill="white"/>
<path d="M140.6 124.5L145 127.8L138.1 127.9L137.1 129.2L144.1 134.4L145.2 132.8L140.9 129.7L147.6 129.6L148.7 128.2L141.7 123L140.6 124.5Z" fill="white"/>
<path d="M101.9 90.9999L104.7 90.2V86.7H86.4999V90.2L89.2999 90.9999C91.2999 91.5999 91.3999 91.8 91.3999 93.4V98.2C90.3999 98.4 88.4999 98.4 87.2999 98.2C80.6999 97.2 78.8999 92.4 78.8999 87.3C78.8999 84.4 79.8999 81.8 81.9999 79.7C83.5999 78.2 85.8999 76.7999 89.5999 76.9999C91.1999 77.0999 92.9999 77.8 93.5999 78.3C95.3999 79.6 95.7999 81 96.2999 82.9H101V75.7C101 75.7 96.2999 72.4999 88.1999 72.4999C81.6999 72.4999 68.9999 75.2 68.9999 87.8C68.9999 95.6 75.4999 101.6 86.7999 102.2C94.5999 102.6 99.8999 100.3 99.8999 100.3V93.4999C99.8999 91.8999 99.8999 91.5999 101.9 90.9999Z" fill="white"/>
<path d="M57.6 85.9C57.1 86.4 55.9 86.9 55 87.2C52.4 87.8 49.2 87.5999 49.1 87.5999V76.8C51.3 76.8 55 76.5 57.5 78.2C58.7 79.1 59.4 80.4 59.4 82.2C59.4 83.4 58.9 84.8 57.6 85.9ZM56.9 73.2C55.5 73.1 51.6 72.9999 51.6 72.9999H35.6V76.4999L38.3 77.3C40.5 78 40.5 78.2 40.5 79.8V94.9999C40.5 96.5999 40.5 96.7 38.3 97.4L35.6 98.2V101.7H53.9V98.2L51.2 97.4C49 96.7 49 96.5999 49 94.9999V91.3H53.3C57.3 91.2 60.5 91 63.4 89.4C66.1 87.8 67.6 84.9999 67.6 81.9999C67.7 77.1999 63.8 73.9 56.9 73.2Z" fill="white"/>
<path d="M115.3 91.9C117.1 88.4 119.7 83.4 119.9 83C120.1 83.4 122.5 88.3 124.2 91.9H115.3ZM138.5 97.6C136.9 97 136.5 96.7 136 95.7L124.6 73.1H119.9L107.2 96.1C106.7 97 106.3 97.2 105.3 97.6L102.4 98.5V101.9H116.5V98.5L113.4 97.7C112.7 97.5 112.8 97.1 112.9 96.8C112.9 96.8 113.3 96 113.9 94.9H125.7C126.3 96.1 126.5 96.3 126.7 96.7C127 97.3 126.4 97.6 125.7 97.8L122.9 98.6V102H141V98.7C141 98.5 138.5 97.6 138.5 97.6Z" fill="white"/>
<path d="M584.5 128.3H581.5V126.8H589.2V128.3H586.2V136.3H584.5V128.3Z" fill="#B7955A"/>
<path d="M590.7 126.8H592.5L595.3 131.3L598.2 126.8H600V136.3H598.3V129.5L595.3 133.9L592.3 129.5V136.3H590.7V126.8Z" fill="#B7955A"/>
</svg>
