<svg width="154" height="44" viewBox="0 0 154 44" fill="none" xmlns="http://www.w3.org/2000/svg"><path d="M145.958 35.2191C144.844 34.8869 143.446 33.985 142.924 33.2731C142.64 32.8933 142.45 32.5373 142.497 32.5136C142.521 32.4899 142.9 32.2288 143.327 31.944L144.062 31.4219L144.56 32.1102C145.271 33.0832 146.977 33.8664 148.47 33.8664C149.964 33.8664 151.078 33.3205 151.694 32.3C152.998 30.1878 151.504 28.7164 147.333 27.9807C145.958 27.7434 144.441 26.9602 143.754 26.1533C143.256 25.56 143.161 25.204 143.161 23.9937C143.161 22.19 143.659 21.2644 145.128 20.4101C147.451 19.0336 150.983 19.437 152.713 21.2644L153.614 22.2137L152.761 22.8071L151.931 23.3766L151.291 22.6172C149.703 20.7423 146.622 20.7661 145.223 22.6884C144.797 23.258 144.773 23.4478 145.01 24.2784C145.365 25.4176 146.337 25.9397 149.205 26.5568C152.452 27.245 153.59 28.1468 153.946 30.1641C154.254 32.1339 153.235 34.0088 151.362 34.8869C150.414 35.3378 149.774 35.4564 148.376 35.4327C147.404 35.4327 146.314 35.3378 145.958 35.2191Z" fill="black"></path><path d="M130.955 34.7913C129.367 34.0319 128.182 32.8215 127.423 31.2077C126.688 29.6176 126.712 25.6069 127.423 24.0405C128.158 22.4505 129.485 21.0978 131.026 20.3383C132.187 19.7688 132.661 19.6738 134.392 19.6738C136.098 19.6976 136.596 19.7925 137.591 20.3146C139.914 21.525 141.17 23.4948 141.431 26.3188L141.573 27.8614H135.126H128.703V28.6446C128.703 29.6176 129.485 31.3501 130.315 32.2045C132.424 34.4353 136.169 34.4353 138.634 32.2282L139.772 31.2077L140.341 31.801C141.004 32.513 140.862 32.8453 139.393 33.9607C138.089 34.9574 136.383 35.4558 134.178 35.4558C132.685 35.4558 132.116 35.3372 130.955 34.7913ZM139.606 25.9154C139.582 24.9661 138.753 23.471 137.734 22.5929C135.861 21.0028 133.088 20.7655 131.239 22.0708C130.007 22.9489 128.964 24.3965 128.774 25.5594L128.632 26.4375H134.131H139.606V25.9154Z" fill="black"></path><path d="M115.454 28.4315C113.842 24.4207 112.467 20.9558 112.396 20.6948C112.301 20.2913 112.396 20.2438 113.439 20.315L114.6 20.3862L117.065 26.8651C118.44 30.4012 119.601 33.3203 119.673 33.3203C119.767 33.3203 120.929 30.3775 122.304 26.7939L124.792 20.2676H125.906C126.973 20.2676 127.02 20.2913 126.831 20.8134C126.641 21.2643 122.612 31.2082 121.308 34.4595L120.787 35.6936H119.601L118.393 35.6699L115.454 28.4315Z" fill="black"></path><path d="M102.962 27.8624L102.938 20.2681H103.839H104.764V21.5734C104.764 22.2854 104.835 22.8787 104.953 22.8787C105.048 22.8787 105.285 22.5702 105.522 22.1905C106.186 20.9801 107.679 20.1732 109.457 20.0783C110.831 19.9833 110.974 20.0071 110.855 20.3868C110.76 20.6004 110.689 21.0276 110.689 21.3124C110.689 21.787 110.571 21.8345 109.551 21.8582C107.205 21.8819 105.475 23.4483 105.001 25.9401C104.882 26.6521 104.764 29.0728 104.764 31.3274V35.4568H103.887H102.986L102.962 27.8624Z" fill="black"></path><path d="M91.3717 35.171C89.3333 34.4353 87.4846 32.513 86.8683 30.4245C86.3469 28.6683 86.418 26.034 86.9868 24.444C87.6268 22.7353 89.0726 21.1452 90.7318 20.3383C91.8932 19.7688 92.3672 19.6738 94.0975 19.6738C95.804 19.6976 96.3018 19.7925 97.2973 20.3146C99.6201 21.525 100.829 23.3998 101.113 26.2714L101.279 27.8614L94.7848 27.9089C88.4564 27.9801 88.2904 27.9801 88.3615 28.4547C88.646 30.6856 89.8074 32.4655 91.5376 33.3436C93.576 34.3879 96.4914 33.9132 98.3402 32.2282L99.4779 31.2077L99.9993 31.7536C100.45 32.2282 100.497 32.4181 100.26 32.8215C99.8571 33.6047 98.198 34.6964 96.8706 35.0998C95.4959 35.5033 92.4383 35.5508 91.3717 35.171ZM99.1934 25.5594C98.9564 24.2778 98.5061 23.4948 97.4158 22.5692C95.567 21.0028 92.7939 20.7893 90.9451 22.0708C89.7126 22.9489 88.409 24.8237 88.409 25.7492V26.4375H93.8842H99.3594L99.1934 25.5594Z" fill="#A9AC36"></path><path d="M77.0324 35.2441C75.9658 34.9118 75.0177 34.3185 74.2355 33.5354C73.8089 33.1082 73.4771 32.7047 73.4771 32.6335C73.4771 32.5623 73.8563 32.2538 74.3066 31.969L75.1125 31.4232L75.6102 32.1114C76.7005 33.654 79.7581 34.366 81.4884 33.4642C83.1949 32.5861 83.669 30.4264 82.3654 29.3822C81.7254 28.8838 79.9714 28.2668 78.3597 27.982C76.0843 27.6022 74.2118 26.1308 74.1644 24.7069C74.117 23.1879 74.2355 22.4997 74.7096 21.7403C76.2976 19.1297 81.441 18.8449 83.7401 21.2656L84.6408 22.2149L83.7875 22.8082L82.9579 23.3778L82.318 22.6184C80.7299 20.7435 77.6486 20.7672 76.2502 22.6896C75.8236 23.2591 75.7999 23.449 76.0369 24.2797C76.3924 25.4189 77.3879 25.9647 80.2796 26.558C82.9105 27.1276 83.8823 27.6972 84.5934 29.1449C85.1385 30.2128 85.1622 30.4027 84.9015 31.5893C84.3563 34.2236 82.5787 35.4577 79.4026 35.434C78.4308 35.434 77.3642 35.339 77.0324 35.2441Z" fill="#A9AC36"></path><path d="M68.7363 27.8619V20.2676H69.6844H70.6325V27.8619V35.4563H69.6844H68.7363V27.8619Z" fill="black"></path><path d="M42.9009 30.0463C42.9009 27.056 42.8298 23.6386 42.7587 22.452L42.5928 20.2686H43.5883H44.5601V21.6688V23.0927L45.8163 21.8587C47.1673 20.4822 48.2813 20.0312 50.1538 20.0312C51.8603 20.055 53.1876 20.7432 54.0172 22.0485L54.7046 23.1402L55.226 22.2858C56.0319 20.9805 57.5488 20.2211 59.6346 20.0787C61.1753 19.9838 61.5308 20.0313 62.6922 20.6008C65.2283 21.8587 65.655 23.2589 65.655 30.4022V35.4573H64.7306H63.8062L63.7114 29.9513C63.6403 23.9707 63.5692 23.6623 62.2182 22.4045C61.6493 21.8824 61.3886 21.8112 59.7531 21.8112C58.1177 21.8112 57.8096 21.8824 57.0748 22.452C56.6245 22.808 56.0082 23.5674 55.7238 24.1606C55.2734 25.1574 55.226 25.632 55.226 30.3548V35.4573H54.2779H53.3299V30.5921C53.3299 24.9438 53.1402 23.6861 52.0262 22.5232C51.3152 21.7637 51.1493 21.6925 49.9167 21.6925C48.3287 21.6925 47.0488 22.2621 46.1244 23.3775C44.8919 24.8251 44.7734 25.4659 44.726 30.5921L44.6786 35.3386L43.8016 35.4098L42.9009 35.481V30.0463Z" fill="black"></path><path d="M29.7226 34.9807C27.9686 34.2925 26.6887 33.0584 25.788 31.2547C25.1007 29.8545 25.0059 29.4273 25.0059 27.7423C25.0059 25.2979 25.551 23.7315 26.9257 22.1889C28.9167 19.9818 31.998 19.1037 35.0082 19.8869C38.2317 20.6938 40.1515 22.7822 40.7441 26.1048C41.3841 29.5934 39.7012 33.0821 36.6199 34.6959C34.9845 35.5503 31.524 35.6927 29.7226 34.9807ZM35.5533 33.272C37.805 32.2989 38.9664 30.3292 38.9664 27.505C38.9427 25.6064 38.5872 24.5622 37.4495 23.2569C36.1696 21.833 35.0319 21.3346 32.8276 21.3346C31.1921 21.3346 30.7892 21.4295 29.8411 21.9753C25.8828 24.3011 25.7406 30.4241 29.6041 32.9872C31.2869 34.0789 33.4438 34.1975 35.5533 33.272Z" fill="black"></path><path d="M18.0137 30.4009C18.0137 27.6005 17.9426 24.183 17.8478 22.7829L17.7056 20.2435L18.6299 20.3147L19.5543 20.3859L19.6254 21.6437C19.6728 22.3082 19.7677 22.8778 19.8625 22.8778C19.9573 22.8778 20.1943 22.5693 20.4313 22.1895C21.0713 21.0504 22.5882 20.196 24.1999 20.0774L25.5983 19.9824V20.9792C25.5983 21.9048 25.5509 21.9759 25.0769 21.8573C24.271 21.6437 22.4934 22.1183 21.6401 22.7829C21.2135 23.1151 20.6209 23.827 20.3365 24.3729C19.8388 25.2984 19.7914 25.7494 19.7203 30.4247L19.6254 35.4559H18.8196H18.0137V30.4009Z" fill="black"></path><path d="M0 35.3609C0 30.5195 0.0948087 26.1765 0.237022 25.4645C0.734767 22.9015 2.08579 21.0504 4.3375 19.84C5.4515 19.2704 5.80703 19.1992 8.05874 19.1992C10.3104 19.1992 10.666 19.2704 11.7563 19.84C14.8613 21.4775 16.5915 25.061 15.8805 28.4785C15.3116 31.2552 13.771 33.2725 11.4244 34.3167C9.76529 35.0761 6.25737 35.0761 4.62192 34.3167C3.98196 34.0082 3.15239 33.4861 2.79686 33.1538L2.13319 32.513V38.2563V43.9996H1.0666H0V35.3609ZM10.9267 32.6554C15.0272 30.5195 15.2642 24.0405 11.3059 21.5962C9.71789 20.6232 7.27657 20.457 5.4989 21.2165C1.77766 22.8303 0.758469 27.814 3.41311 31.3027C4.95375 33.3199 8.46167 33.937 10.9267 32.6554Z" fill="black"></path><path d="M71.6519 13.8364C71.7467 12.6735 72.0785 11.1309 72.5052 9.87304C72.9081 8.75761 73.1688 7.78458 73.1214 7.71339C72.8844 7.49979 70.846 12.1988 70.5616 13.599L70.2772 15.0467L69.732 14.2161C68.3099 12.1751 68.618 10.1341 70.609 8.1643C71.6519 7.14381 74.4014 5.31641 74.9228 5.31641C74.9702 5.31641 75.0176 6.09958 75.0413 7.02514C75.0413 7.97444 75.1361 9.82558 75.2309 11.1309C75.3494 12.6972 75.3257 13.7177 75.1598 14.1449C74.828 15.023 73.5718 15.7587 72.4341 15.7587H71.5097L71.6519 13.8364Z" fill="black"></path><path d="M65.4656 14.5955C60.8911 13.0054 59.9193 8.3301 62.8583 1.99353L63.7827 0L64.4701 1.21036C64.873 1.8986 66.1766 3.34628 67.5277 4.6041L69.8742 6.78749L68.9735 7.97411C68.0254 9.25566 67.5514 10.466 67.5514 11.7476C67.5277 12.5307 67.5277 12.5307 67.1721 12.0798C66.4848 11.2017 65.2523 8.54369 64.5886 6.55016C64.2331 5.45847 63.8775 4.62783 63.8301 4.69903C63.6168 4.91262 64.7308 9.68285 65.4182 11.4391C65.7737 12.3883 66.3663 13.5275 66.6981 13.9784C67.6462 15.2362 67.504 15.3074 65.4656 14.5955Z" fill="black"></path></svg>
