<svg width="330" height="133" viewBox="0 0 330 133" fill="none" xmlns="http://www.w3.org/2000/svg">
<g clip-path="url(#clip0_97_182)">
<path d="M91.67 79.58L84.25 89.49L78.7 79.58H64.05L76.21 98.33L58.96 118.72L58 119.89H73.46L82.57 107.99L89.18 119.89H104.09L90.56 98.33L106.33 79.58H91.67ZM34.8 79.83L43.09 70.48C32 61.27 13.64 62 5.8 73.78C-0.51 82.78 4.37 92.54 15.21 96.15C19.08 97.62 29.21 99.61 27.27 104.59C23.15 110.74 13.48 108.25 9.11 103.88L0 114.09C8.7 120.29 17.65 121.92 27.88 119.33C36.53 116 41.06 112 42.28 102.5C42.28 94 38.62 89.69 30.63 87C26.35 85.67 18 84.61 18.52 79.83C20.3 73.37 31 76.52 34.8 79.83ZM196.56 64.12L192.38 119.33H205.41L209.53 63L196.56 64.12ZM314.74 89.49L322.47 82.63C314.03 75.92 301.1 74.7 294.85 82.07C290.58 87.15 289.66 95.64 295.41 100.01C298.21 102.15 300.8 102.6 304.26 103.32C306.5 103.78 310.77 103.78 310.31 106.62C309.31 113.03 298.25 108.76 295.15 106.06L288 114.35C292.699 118.06 298.544 120.019 304.53 119.89C311.86 119.53 322.23 115.47 322.23 106.37C322.23 97.27 317.5 95.14 309.51 93.37C307.02 92.86 303.1 92.96 303.45 89.81C303.9 84.86 311.69 87.66 314.74 89.49ZM239.34 79C235.35 77.2868 230.989 76.6224 226.67 77.07C223.479 77.4131 220.328 78.0593 217.26 79L214.77 89.78C218.84 88.15 222.66 86.94 226.68 87.09C228.164 87.1492 229.633 87.4048 231.05 87.85C234.36 88.85 233.85 92.32 233.85 95.27C231.659 93.9234 229.221 93.026 226.68 92.63C218.13 91.31 208.98 95.58 208.16 105.24V108.7C208.92 117.29 215.94 120.59 225.25 119.58C225.73 119.542 226.208 119.475 226.68 119.38C229.204 118.737 231.432 117.247 232.99 115.16L232.48 119.33H244L246 91.17C246 85.12 245 81.56 239.34 79ZM233 105.25C232.65 109.06 230.05 110.49 226.69 110.53H225.01C222.67 110.32 220.53 108.9 220.33 106.41C219.97 102.41 222.87 100.16 226.69 100.05H226.94C229.37 100 233.39 101.69 233 105.25Z" fill="black"/>
<path d="M285.49 85.9302L289.36 85.6202L292.66 75.4502L281.66 77.8902H278C274.806 77.3403 271.571 77.0693 268.33 77.0802H267.77C257.34 77.6902 248.49 83.2802 247.88 94.7202C247.727 97.4823 248.444 100.223 249.932 102.555C251.419 104.888 253.601 106.694 256.17 107.72L254.8 111.59C257.96 110.78 263.45 109.5 267.8 110.06C271.41 110.52 274.21 112.15 274.16 116.26C274.11 120.37 271.41 122.16 267.8 122.56C262.8 123.07 256.15 120.78 253.2 118.19L245.2 125.66C252.07 131.5 258.58 133.59 267.58 132.83L267.83 132.78C273.83 132.22 280.65 130.34 284.42 124.78C289.3 117.66 287.32 110.04 279.99 105.78C288.94 101.84 288.79 92.2802 285.49 85.9302ZM275.49 94.4702C275.381 96.4562 274.523 98.3268 273.088 99.7042C271.653 101.081 269.749 101.863 267.76 101.89H267.25C262.87 101.89 259.62 98.6402 260.03 94.4202C260.214 92.4846 261.103 90.6843 262.529 89.3621C263.954 88.0398 265.816 87.2882 267.76 87.2502H268.32C272.57 87.3002 275.87 90.3002 275.51 94.4702H275.49ZM173.92 77.3902H193.25L190.45 65.2402H160.64L156.78 119.33H170.87L172.24 100.01H186.33L186.89 88.6702H173.05L173.92 77.3902ZM327.05 77.3902C327.076 77.1116 327.024 76.8311 326.9 76.5802C326.85 76.4302 326.7 76.3302 326.49 76.2202C326.724 76.0875 326.917 75.894 327.05 75.6602C327.152 75.4375 327.203 75.1951 327.2 74.9502C327.218 74.7449 327.19 74.5383 327.119 74.3447C327.048 74.1512 326.936 73.9756 326.79 73.8302C326.447 73.554 326.008 73.4246 325.57 73.4702H323.57V78.7102H324.64V76.7102H325.4C325.61 76.7102 325.76 76.7602 325.81 76.8602C325.917 76.9926 325.986 77.1516 326.01 77.3202V77.9302C326.012 78.1867 326.046 78.4419 326.11 78.6902H327.28V78.5402C327.149 78.3083 327.08 78.0465 327.08 77.7802L327.05 77.3902ZM325.93 75.5602C325.868 75.6153 325.795 75.657 325.716 75.6828C325.636 75.7086 325.553 75.7179 325.47 75.7102H324.61V74.4902H325.47C325.553 74.4831 325.636 74.4927 325.715 74.5185C325.794 74.5443 325.867 74.5857 325.93 74.6402C326.028 74.7716 326.081 74.9312 326.081 75.0952C326.081 75.2593 326.028 75.4189 325.93 75.5502V75.5602Z" fill="black"/>
<path d="M325.17 71.2401C324.206 71.2342 323.263 71.5149 322.459 72.0467C321.655 72.5784 321.027 73.3371 320.656 74.2264C320.284 75.1156 320.185 76.0953 320.372 77.0408C320.559 77.9864 321.022 78.8551 321.704 79.5366C322.385 80.218 323.254 80.6815 324.199 80.8681C325.145 81.0547 326.124 80.9559 327.014 80.5843C327.903 80.2128 328.662 79.5852 329.193 78.7814C329.725 77.9776 330.006 77.0339 330 76.0701C330 74.7891 329.491 73.5606 328.585 72.6548C327.68 71.749 326.451 71.2401 325.17 71.2401ZM325.17 79.8801C324.167 79.8696 323.21 79.4632 322.505 78.7495C321.801 78.0359 321.407 77.0728 321.41 76.0701C321.41 75.0716 321.807 74.1139 322.513 73.4079C323.219 72.7018 324.176 72.3051 325.175 72.3051C326.174 72.3051 327.131 72.7018 327.837 73.4079C328.543 74.1139 328.94 75.0716 328.94 76.0701C328.943 77.0745 328.548 78.0391 327.841 78.753C327.135 79.467 326.174 79.8722 325.17 79.8801ZM141.67 106.93L144.1 107.28L151.31 61.6601C153.301 61.613 155.29 61.818 157.23 62.2701C162.83 63.4801 165.59 60.5001 167.23 58.7201C167.566 58.3059 167.96 57.9421 168.4 57.6401L169.47 57.1101L167.95 57.0001C163.84 56.7701 161.78 56.6601 159.07 54.5301C157.262 53.085 155.205 51.9835 153 51.2801L155.44 35.8301C158.12 35.1301 160.25 33.0801 161.61 31.7501C161.951 31.3965 162.311 31.0627 162.69 30.7501L163.59 30.3001L161.59 30.0201C159.29 29.7001 157.73 29.4701 156.47 29.1601L158.21 18.1601L131.02 15.1601V11.6801C133.743 10.9826 136.585 10.8837 139.35 11.3901C144.77 12.2001 150.94 6.19012 152.35 4.77012L152.63 4.47012L153.19 3.84012L152.36 3.95012C147.24 4.62012 144.36 3.30012 141.5 2.02012C140.79 1.70012 140.05 1.36012 139.3 1.07012C134.92 -0.629882 128.63 0.0701175 126.66 0.950118L126.48 1.04012L126.64 14.6601L102.85 12.0001L110.1 64.2901C107.89 64.2901 106.01 64.8201 105.37 65.8501L105.31 65.9501L112.45 111.64L109.45 111.03L112.82 132.9L153.23 119.78L140.23 117.18L141.67 106.93ZM110.19 64.9301C110.841 64.9188 111.492 64.9422 112.14 65.0001H112.78C113.35 65.0701 113.92 65.1601 114.49 65.2801H114.61L114.82 65.3301L115.15 65.4301C116.114 65.7896 117.047 66.2277 117.94 66.7401C118.45 67.0101 118.94 67.2901 119.52 67.5601L119.85 67.7201L120.18 67.8701C120.914 68.2152 121.677 68.4962 122.46 68.7101L122.78 68.7901L123.1 68.8601C124.195 69.0885 125.325 69.0885 126.42 68.8601H126.59C125.83 70.4064 124.679 71.7269 123.25 72.6901L122.94 72.8801L122.63 73.0401C121.98 73.3611 121.286 73.5835 120.57 73.7001H119.95C118.914 73.7799 117.872 73.7023 116.86 73.4701L115.99 73.3101L115.67 73.2501H115.35C114.836 73.182 114.318 73.1419 113.8 73.1301H113.17C112.571 73.1433 111.975 73.2136 111.39 73.3401C110.538 73.5133 109.73 73.8531 109.01 74.3401L108.85 74.4501L114 111.94L115.18 120.45L114.54 120.91L113.11 111.76L107.66 76.8801L106 66.0801C106.52 65.3501 108.15 64.9301 110.19 64.9001V64.9301ZM127.09 1.42012C131.023 0.296494 135.201 0.373101 139.09 1.64012C139.83 1.93012 140.52 2.24012 141.26 2.57012C144.427 4.26595 148.025 4.98623 151.6 4.64012C149.34 6.94012 143.91 11.4001 139.5 10.7401C136.566 10.1981 133.547 10.328 130.67 11.1201L130.45 11.1901V15.0601L130.4 20.4301C129.401 20.5234 128.394 20.4999 127.4 20.3601L127.33 14.7101L127.09 1.42012ZM161.76 30.7001L161.13 31.2901C159.578 32.9887 157.65 34.3004 155.5 35.1201C153.902 35.6195 152.175 35.5018 150.66 34.7901C147.87 33.5301 144.8 33.6101 141.29 35.0501L141.11 35.1201L140.61 41.2001C139.546 41.2714 138.479 41.2446 137.42 41.1201L137.62 37.2801L138.27 24.2801C139.69 24.1101 146.75 23.4601 151.01 26.9201C152.52 28.3074 154.352 29.2971 156.34 29.8001C157.63 30.1201 159.21 30.3501 161.47 30.6701L161.76 30.7001ZM133.56 115.84L134.08 105.84L137.15 46.5501C138.38 46.0071 139.478 45.2056 140.37 44.2001L135.25 106L134.42 116L134.25 118.12L133.45 117.87L133.56 115.84ZM129.37 115V117.07L128.46 117V114.81L128.35 105.02L127.92 67.7701L127.69 47.4901C128.45 47.4201 129.26 47.3901 130.11 47.3901L129.53 105.18L129.37 115ZM124.37 117.12L124 117.18L123.52 117.26L123.28 113.79L122.63 104.22L120.63 74.3001C121.32 74.1852 121.993 73.9801 122.63 73.6901L123.86 104.4L124.24 113.98L124.37 117.12ZM115.37 73.9001L118.5 103.63L119.5 113.03L120.04 118.13L119.34 118.38L118.66 112.86L117.51 103.49L113.85 73.7701C114.366 73.7915 114.88 73.8416 115.39 73.9201L115.37 73.9001ZM106.83 16.9001C110.598 15.8395 114.595 15.916 118.32 17.1201C119.39 17.5494 120.421 18.0713 121.4 18.6801C123.012 19.728 124.796 20.483 126.67 20.9101L126.99 20.9601L127.3 21.0101C128.191 21.1305 129.093 21.1606 129.99 21.1001V21.1601C129.22 22.2244 128.345 23.2092 127.38 24.1001L127.07 24.3701L126.76 24.6101C125.919 25.341 124.904 25.8428 123.813 26.067C122.722 26.2912 121.591 26.2303 120.53 25.8901C116.63 24.5901 113.29 24.7301 110.59 26.3201L110.42 26.4201L114.42 64.6701C113.85 64.5601 113.28 64.4701 112.7 64.4001L108.32 28.8001L106.83 16.9001ZM140.54 41.9001H141.48L141.15 42.3301L141.01 42.5201L140.8 42.8001L140.45 43.2601C139.586 44.4082 138.466 45.3395 137.18 45.9801L136.86 46.1301L136.52 46.2601C134.974 46.8181 133.33 47.0497 131.69 46.9401H130.06C129.21 46.9401 128.4 46.9401 127.63 47.0401H127.01C125.22 47.2058 123.47 47.6653 121.83 48.4001L121.64 48.4901L122.43 68.2001C121.636 67.9692 120.863 67.6715 120.12 67.3101L118.12 37.9501C121.018 37.3327 124.017 37.3668 126.9 38.0501L127.22 38.1301L127.53 38.2101C128.42 38.4574 129.292 38.7647 130.14 39.1301L130.45 39.2701L130.76 39.4101C131.12 39.5801 131.48 39.7501 131.83 39.9401C133.359 40.812 135.021 41.4269 136.75 41.7601L137.08 41.8101H137.39C138.443 41.9167 139.504 41.93 140.56 41.8501L140.54 41.9001ZM130.12 38.4101C129.264 38.0555 128.385 37.7582 127.49 37.5201L127.34 24.9801C128.442 24.04 129.429 22.9726 130.28 21.8001L130.12 38.4101ZM139.06 120.53C138.76 120.33 138.45 120.15 138.14 119.97L138.51 116.89L139.72 106.71L144.87 63.4101V63.1101L146.3 51.1101C148.501 50.9947 150.706 51.2723 152.81 51.9301C154.937 52.588 156.926 53.6284 158.68 55.0001C161.43 57.1701 163.62 57.3701 167.42 57.5801C167.22 57.7701 167.01 58.0001 166.78 58.2501C165.12 60.0401 162.62 62.7401 157.37 61.6101C155.403 61.1563 153.388 60.948 151.37 60.9901C150.139 61.0169 148.918 61.2121 147.74 61.5701L147.55 61.6301L141.01 106.8L139.53 117.01L139.06 120.53ZM114.64 112.12L109.5 74.8001C110.098 74.4216 110.758 74.1508 111.45 74.0001L115.5 103.22L116.87 103.41L118.02 112.74L114.64 112.12ZM120.14 113.22L119.14 103.79L121.98 104.19L122.63 113.72L120.14 113.22ZM124.88 114.17L124.49 104.55L127.65 105L127.76 114.75L124.88 114.17ZM130.08 105.34L133.43 105.82L132.92 115.82L129.98 115.23L130.08 105.34ZM135.86 106.16L139.1 106.62L137.89 116.77L135.03 116.2L135.86 106.16ZM48.33 65.2401L47.21 77.3901L67.1 71.2901L48.33 65.2401ZM58.96 79.5801H47.21L44.47 119.89H57.18L59.93 79.5801H58.96Z" fill="black"/>
</g>
<defs>
<clipPath id="clip0_97_182">
<rect width="330" height="133" fill="white"/>
</clipPath>
</defs>
</svg>
