  <svg
    class="h-10 w-10"
    width="24"
    height="24"
    viewBox="0 0 24 24"
    fill="none"
    xmlns="http://www.w3.org/2000/svg"
  >
    <path d="M22.125 19.7705H15.7866V21.1968H22.125V19.7705Z" fill="#1A2141"></path>
    <path d="M11.271 0H12.4991V3.9224H11.271V0Z" fill="#1A2141"></path>
    <path d="M11.271 18.9385H12.4991V23.9306H11.271V18.9385Z" fill="#1A2141"></path>
    <path d="M10.043 3.92285H13.8064V11.4111H10.043V3.92285Z" fill="#1A2141"></path>
    <path d="M8.93359 11.4102H15.0739V18.4626H8.93359V11.4102Z" fill="#1A2141"></path>
    <path
      d="M10.0425 14.5012L11.3498 14.5408V13.2334H12.6273V14.5012H13.8852V15.7294V17.0765H12.6273V15.8087H11.3498V17.0765H10.0821L10.0425 14.5012Z"
      fill="#E5E5E5"
   ></path>
    <path d="M1.88184 19.7705H8.06174V21.1968H1.88184V19.7705Z" fill="#1A2141"></path>
    <path d="M9.96338 18.3438H13.806V21.3945H9.96338V18.3438Z" fill="#1A2141"></path>
    <path d="M13.0532 18.4629H14.5462V19.7307H15.9054V22.2664H13.0532V18.4629Z" fill="#DF2C39"></path>
    <path d="M10.716 18.4629H9.22305V19.7307H7.86377V22.2664H10.716V18.4629Z" fill="#DF2C39"></path>
    <path d="M1.88184 14.9365H3.30797V21.1965H1.88184V14.9365Z" fill="#1A2141"></path>
    <path d="M1.88184 14.9365H3.30797V17.4326H1.88184V14.9365Z" fill="#DF2C39"></path>
    <path d="M22.125 14.9365H20.6989V21.1965H22.125V14.9365Z" fill="#1A2141"></path>
    <path d="M22.125 14.9365H20.6989V17.4326H22.125V14.9365Z" fill="#DF2C39"></path>
    <path d="M16.4995 11.1328H17.9256V17.3928H16.4995V11.1328Z" fill="#1A2141"></path>
    <path d="M16.4995 11.1328H17.9256V13.6289H16.4995V11.1328Z" fill="#DF2C39"></path>
    <path d="M6.08105 11.1328H7.50719V17.3928H6.08105V11.1328Z" fill="#1A2141"></path>
    <path d="M6.08105 17.0371H7.50719V18.4634H6.08105V17.0371Z" fill="#E5E5E5"></path>
    <path d="M7.50732 15.6104H8.93346V17.0367H7.50732V15.6104Z" fill="#E5E5E5"></path>
    <path d="M16.4995 17.0371H17.9256V18.4634H16.4995V17.0371Z" fill="#E5E5E5"></path>
    <path d="M15.0737 15.6104H16.4999V17.0367H15.0737V15.6104Z" fill="#E5E5E5"></path>
    <path d="M6.08105 11.1328H7.50719V13.6289H6.08105V11.1328Z" fill="#DF2C39"></path>
    <path d="M7.50732 17.0361H8.93346V18.4625H7.50732V17.0361Z" fill="#1A2141"></path>
    <path d="M15.0737 17.0361H16.4999V18.4625H15.0737V17.0361Z" fill="#1A2141"></path>
    <path d="M4.73438 18.4629H9.21085V19.7704H4.73438V18.4629Z" fill="#1A2141"></path>
    <path d="M14.5591 18.4629H19.1544V19.7704H14.5591V18.4629Z" fill="#1A2141"></path>
  </svg>
