<svg width="458" height="130" viewBox="0 0 458 130" fill="none" xmlns="http://www.w3.org/2000/svg">
<g id="uxlab">
<g id="text">
<path id="Vector" d="M194.611 27.29V82.6641C194.611 92.29 191.407 99.7328 184.9 105.092C178.393 110.351 169.984 113.031 159.573 113.031C148.961 113.031 140.452 110.351 134.045 105.092C127.537 99.832 124.334 92.29 124.334 82.6641V27.29H144.156V82.6641C144.156 87.8244 145.457 91.6946 148.16 94.1755C150.863 96.6565 154.667 97.9465 159.573 97.9465C164.478 97.9465 168.182 96.7557 170.885 94.2748C173.488 91.7939 174.789 87.9236 174.789 82.7633V27.29H194.611Z" fill="#010101"/>
<path id="Vector_2" d="M231.65 55.771L245.666 27.29H268.491L244.064 69.1679L270.393 111.74H246.367L231.851 82.6641L217.335 111.74H194.51L219.537 69.1679L195.211 27.29H217.835L231.65 55.771Z" fill="#010101"/>
<path id="Vector_3" d="M281.307 105.885H323.453V111.84H274.299V27.29H281.307V105.885Z" fill="#010101"/>
<path id="Vector_4" d="M379.514 88.2213H340.471L331.662 111.74H324.354L356.689 27.29H363.296L395.431 111.74H388.123L379.514 88.2213ZM342.774 81.9694H377.211L360.193 36.2213H359.792L342.774 81.9694Z" fill="#010101"/>
<path id="Vector_5" d="M401.336 111.74V27.29H426.163C434.973 27.29 441.88 29.1755 446.886 32.8473C451.791 36.519 454.294 42.0763 454.294 49.519C454.294 53.8855 453.093 57.6564 450.59 60.832C448.087 64.0076 444.784 66.29 440.479 67.4809C445.685 68.374 449.889 70.8549 453.093 74.7252C456.296 78.5954 457.998 83.1603 457.998 88.2213C457.998 95.7633 455.495 101.519 450.59 105.588C445.685 109.656 439.077 111.641 430.768 111.641H401.336V111.74ZM408.344 65.1984H427.965C434.172 65.1984 438.877 63.8091 442.281 61.1297C445.684 58.4503 447.386 54.4809 447.386 49.2213C447.386 43.8626 445.584 39.8931 441.98 37.2137C438.377 34.5343 433.171 33.145 426.263 33.145H408.344V65.1984ZM408.344 71.0534V105.786H430.868C437.175 105.786 442.081 104.298 445.685 101.221C449.288 98.145 451.09 93.8778 451.09 88.3206C451.09 83.2595 449.489 79.0916 446.185 75.916C442.881 72.7404 438.176 71.0534 431.969 71.0534H408.344Z" fill="#010101"/>
</g>
<g id="mark">
<path id="Vector_6" d="M48.2532 36.916C58.537 36.916 66.8736 28.6521 66.8736 18.458C66.8736 8.26394 58.537 0 48.2532 0C37.9694 0 29.6328 8.26394 29.6328 18.458C29.6328 28.6521 37.9694 36.916 48.2532 36.916Z" fill="#010101"/>
<path id="Vector_7" d="M24.9273 49.1225C21.8239 42.9698 21.7238 36.4202 21.6237 36.1225V10.6187H0V36.1225C0 37.2141 0.10011 47.3362 5.10559 57.7561C7.40811 62.7179 10.5115 66.8858 14.1155 70.2599C21.5236 63.3133 31.5345 59.5423 43.2474 59.5423C34.3376 59.5423 28.5312 56.1683 24.9273 49.1225Z" fill="#0078D4"/>
<path id="Vector_8" d="M70.4758 91.4963C73.5792 97.649 73.6793 104.199 73.7794 104.496V130H95.5032V104.496C95.5032 103.405 95.4031 93.2825 90.3976 82.8627C88.0951 77.9009 84.9917 73.7329 81.3878 70.3589C73.9797 77.3055 63.9687 81.0764 52.2559 81.0764C61.0655 81.0764 66.8719 84.3512 70.4758 91.4963Z" fill="#0078D4"/>
<path id="Vector_9" d="M73.7808 10.6187V36.1225C73.7808 36.2217 73.6807 42.5729 70.7775 48.6263C67.2737 56.069 61.3672 59.5423 52.2572 59.5423H43.4476C31.7348 59.5423 21.7238 63.3133 14.3157 70.2599C10.7117 73.6339 7.60833 77.8019 5.30581 82.7637C0.10011 93.1835 0 103.306 0 104.497V130H21.7238V104.497C21.7238 104.397 21.8239 98.0461 24.7271 91.9927C28.2309 84.55 34.1374 81.0767 43.2474 81.0767H52.057C63.7698 81.0767 73.7808 77.3057 81.1889 70.3591C84.7929 66.9851 87.8963 62.8171 90.1988 57.8553C95.1042 47.4354 95.3044 37.3133 95.3044 36.2217V10.6187H73.7808Z" fill="#1C3490"/>
</g>
</g>
</svg>
