<svg width="200" height="44" viewBox="0 0 200 44" fill="none" xmlns="http://www.w3.org/2000/svg" > <path d="M53.0928 0H60.3238V43.9995H53.0928V0Z" fill="#64B1BC"></path><path d="M65.7866 34.6068V0H80.3077C92.7965 0 103.194 4.69058 103.194 21.9696C103.194 38.9524 92.0199 44 79.471 44H75.239C70.0186 44 65.7866 39.7942 65.7866 34.6068ZM73.0182 34.3963C73.0182 36.1262 74.4286 37.5272 76.169 37.5272H80.5474C90.2279 37.5272 95.785 33.2518 95.785 21.9696C95.785 10.7476 90.4666 6.70995 79.8898 6.70995H73.0182V34.3963Z" fill="#4296B4"></path><path d="M106.443 34.6068V0H136.201V6.70995H113.673V18.5853H136.201V24.9984H113.673V34.3963C113.673 36.1257 115.083 37.5272 116.823 37.5272H136.2V43.999H115.894C110.674 43.9995 106.443 39.7942 106.443 34.6068Z" fill="#276092"></path><path d="M187.172 43.9995H189.295L152.346 1.55759C151.485 0.568587 150.233 0 148.917 0H148.896H141.665V44H148.896V35.39H172.474L175.257 38.5869C178.251 42.0236 182.598 43.9995 187.172 43.9995ZM148.896 29.1544V8.30524L167.046 29.1544H148.896Z" fill="#1D4F90"></path><path d="M40.3981 35.6932L14.0368 5.41257C11.0441 1.97487 6.69622 0 2.12231 0H0L36.9486 42.4414C37.8095 43.4304 39.0609 43.9989 40.377 43.9989H40.3981H47.6291V0H40.3981V35.6932Z" fill="#83C8BC"></path><path d="M193.319 43.9966V40.028H192.036V39.3438H195.328V40.028H194.046V43.9966H193.319Z" fill="#1D4F90"></path><path d="M195.862 43.9966V39.3438H196.803L197.928 42.8034L199.065 39.3438H200V43.9966H199.299V40.4992L198.175 43.9966H197.644L196.512 40.4992V43.9966H195.862Z" fill="#1D4F90"></path></svg>
