<svg width="900" height="600" viewBox="0 0 900 600" fill="none" xmlns="http://www.w3.org/2000/svg">
<g id="wave-background" clip-path="url(#clip0_1187_3)">
<path id="background" d="M900 0H0V600H900V0Z" fill="#002233"/>
<path id="overlay" d="M0 501L21.5 503C43 505 86 509 128.8 503.3C171.7 497.7 214.3 482.3 257.2 468.2C300 454 343 441 385.8 444.5C428.7 448 471.3 468 514.2 468.2C557 468.3 600 448.7 642.8 441.5C685.7 434.3 728.3 439.7 771.2 434.5C814 429.3 857 413.7 878.5 405.8L900 398V602H878.5C857 602 814 602 771.2 602C728.3 602 685.7 602 642.8 602C600 602 557 602 514.2 602C471.3 602 428.7 602 385.8 602C343 602 300 602 257.2 602C214.3 602 171.7 602 128.8 602C86 602 43 602 21.5 602H0V501Z" fill="#0066FF"/>
</g>
<defs>
<clipPath id="clip0_1187_3">
<rect width="900" height="600" fill="white"/>
</clipPath>
</defs>
</svg>
